<?xml version="1.0" encoding="utf-8"?>
<!-- Generator: Adobe Illustrator 24.0.1, SVG Export Plug-In . SVG Version: 6.00 Build 0)  -->
<svg version="1.1" id="Ñëîé_1" xmlns="http://www.w3.org/2000/svg" xmlns:xlink="http://www.w3.org/1999/xlink" x="0px" y="0px"
	 viewBox="0 0 600 450" style="enable-background:new 0 0 600 450;" xml:space="preserve">
<radialGradient id="SVGID_1_" cx="141.0078" cy="153.0036" r="265.165" fx="-109.0539" fy="64.7899" gradientUnits="userSpaceOnUse">
	<stop  offset="0" style="stop-color:#2B237C"/>
	<stop  offset="1" style="stop-color:#180D5B"/>
</radialGradient>
<rect x="0" y="0" style="fill:url(#SVGID_1_);" width="600" height="450"/>
<path style="fill:#8686F2;" d="M388.11,353.44c-0.86,0-1.72-0.22-2.49-0.67l-38.39-22.17l0.33-0.57l38.39,22.17
	c1.34,0.77,3,0.77,4.34-0.01l11.21-6.52l62.78-36.25c0.29-0.17,0.46-0.47,0.46-0.8c0-0.34-0.17-0.64-0.46-0.8l-65.11-37.59
	l0.33-0.57l65.11,37.59c0.5,0.29,0.79,0.8,0.79,1.37c0,0.57-0.3,1.09-0.79,1.37l-62.78,36.25l-11.21,6.52
	C389.85,353.22,388.98,353.44,388.11,353.44z"/>
<path style="fill:#8686F2;" d="M142.7,260.17l-0.33-0.57l45.48-26.26c1.6-0.92,3.58-0.92,5.18,0l21.26,12.27l-0.33,0.57
	l-21.26-12.27c-1.4-0.81-3.13-0.81-4.53,0L142.7,260.17z"/>
<path style="fill:#8686F2;" d="M463.96,260.17l-45.48-26.26c-1.4-0.81-3.13-0.81-4.53,0l-21.26,12.27l-0.33-0.57l21.26-12.27
	c1.6-0.92,3.58-0.92,5.18,0l45.48,26.26L463.96,260.17z"/>
<g>
	<g>
		
			<linearGradient id="SVGID_2_" gradientUnits="userSpaceOnUse" x1="-1799.0199" y1="-665.6539" x2="-1799.0199" y2="-705.724" gradientTransform="matrix(0.866 0.5 -1 0.5774 1286.9441 1523.3049)">
			<stop  offset="0" style="stop-color:#42E8E0"/>
			<stop  offset="0.0185" style="stop-color:#40DEDA"/>
			<stop  offset="0.1149" style="stop-color:#37ADBC"/>
			<stop  offset="0.2166" style="stop-color:#2E82A2"/>
			<stop  offset="0.3219" style="stop-color:#285E8C"/>
			<stop  offset="0.4319" style="stop-color:#22417A"/>
			<stop  offset="0.5479" style="stop-color:#1E2A6C"/>
			<stop  offset="0.6729" style="stop-color:#1A1A63"/>
			<stop  offset="0.813" style="stop-color:#19105D"/>
			<stop  offset="1" style="stop-color:#180D5B"/>
		</linearGradient>
		<polygon style="opacity:0.6;fill:url(#SVGID_2_);" points="449.68,224.95 419.75,207.67 379.68,230.81 409.61,248.09 		"/>
		
			<linearGradient id="SVGID_3_" gradientUnits="userSpaceOnUse" x1="1043.347" y1="15.5343" x2="1043.347" y2="-30.7398" gradientTransform="matrix(1 -0.5774 0.866 0.5 -692.0836 834.1076)">
			<stop  offset="0" style="stop-color:#42E8E0"/>
			<stop  offset="0.0185" style="stop-color:#40DEDA"/>
			<stop  offset="0.1149" style="stop-color:#37ADBC"/>
			<stop  offset="0.2166" style="stop-color:#2E82A2"/>
			<stop  offset="0.3219" style="stop-color:#285E8C"/>
			<stop  offset="0.4319" style="stop-color:#22417A"/>
			<stop  offset="0.5479" style="stop-color:#1E2A6C"/>
			<stop  offset="0.6729" style="stop-color:#1A1A63"/>
			<stop  offset="0.813" style="stop-color:#19105D"/>
			<stop  offset="1" style="stop-color:#180D5B"/>
		</linearGradient>
		<polygon style="opacity:0.6;fill:url(#SVGID_3_);" points="339.61,207.67 309.68,224.95 349.75,248.09 379.68,230.81 		"/>
		
			<linearGradient id="SVGID_4_" gradientUnits="userSpaceOnUse" x1="631.0039" y1="2811.4268" x2="631.0039" y2="2771.3567" gradientTransform="matrix(-0.866 -0.5 1 -0.5774 -1900.2618 2195.5452)">
			<stop  offset="0" style="stop-color:#42E8E0"/>
			<stop  offset="0.0185" style="stop-color:#40DEDA"/>
			<stop  offset="0.1149" style="stop-color:#37ADBC"/>
			<stop  offset="0.2166" style="stop-color:#2E82A2"/>
			<stop  offset="0.3219" style="stop-color:#285E8C"/>
			<stop  offset="0.4319" style="stop-color:#22417A"/>
			<stop  offset="0.5479" style="stop-color:#1E2A6C"/>
			<stop  offset="0.6729" style="stop-color:#1A1A63"/>
			<stop  offset="0.813" style="stop-color:#19105D"/>
			<stop  offset="1" style="stop-color:#180D5B"/>
		</linearGradient>
		<polygon style="opacity:0.6;fill:url(#SVGID_4_);" points="309.68,271.22 339.61,288.5 379.68,265.37 349.75,248.09 		"/>
		
			<linearGradient id="SVGID_5_" gradientUnits="userSpaceOnUse" x1="-2433.7339" y1="2445.5581" x2="-2433.7339" y2="2399.2842" gradientTransform="matrix(-1 0.5774 -0.866 -0.5 78.7658 2884.7427)">
			<stop  offset="0" style="stop-color:#42E8E0"/>
			<stop  offset="0.0185" style="stop-color:#40DEDA"/>
			<stop  offset="0.1149" style="stop-color:#37ADBC"/>
			<stop  offset="0.2166" style="stop-color:#2E82A2"/>
			<stop  offset="0.3219" style="stop-color:#285E8C"/>
			<stop  offset="0.4319" style="stop-color:#22417A"/>
			<stop  offset="0.5479" style="stop-color:#1E2A6C"/>
			<stop  offset="0.6729" style="stop-color:#1A1A63"/>
			<stop  offset="0.813" style="stop-color:#19105D"/>
			<stop  offset="1" style="stop-color:#180D5B"/>
		</linearGradient>
		<polygon style="opacity:0.6;fill:url(#SVGID_5_);" points="419.75,288.5 449.68,271.22 409.61,248.09 379.68,265.37 		"/>
	</g>
</g>
<g>
	<g>
		
			<linearGradient id="SVGID_6_" gradientUnits="userSpaceOnUse" x1="-1888.0765" y1="-588.5352" x2="-1888.0765" y2="-628.6053" gradientTransform="matrix(0.866 0.5 -1 0.5774 1286.9441 1523.3049)">
			<stop  offset="0" style="stop-color:#42E8E0"/>
			<stop  offset="0.0185" style="stop-color:#40DEDA"/>
			<stop  offset="0.1149" style="stop-color:#37ADBC"/>
			<stop  offset="0.2166" style="stop-color:#2E82A2"/>
			<stop  offset="0.3219" style="stop-color:#285E8C"/>
			<stop  offset="0.4319" style="stop-color:#22417A"/>
			<stop  offset="0.5479" style="stop-color:#1E2A6C"/>
			<stop  offset="0.6729" style="stop-color:#1A1A63"/>
			<stop  offset="0.813" style="stop-color:#19105D"/>
			<stop  offset="1" style="stop-color:#180D5B"/>
		</linearGradient>
		<polygon style="opacity:0.6;fill:url(#SVGID_6_);" points="295.44,224.95 265.51,207.67 225.44,230.81 255.37,248.09 		"/>
		
			<linearGradient id="SVGID_7_" gradientUnits="userSpaceOnUse" x1="966.2284" y1="-73.5224" x2="966.2284" y2="-119.7964" gradientTransform="matrix(1 -0.5774 0.866 0.5 -692.0836 834.1076)">
			<stop  offset="0" style="stop-color:#42E8E0"/>
			<stop  offset="0.0185" style="stop-color:#40DEDA"/>
			<stop  offset="0.1149" style="stop-color:#37ADBC"/>
			<stop  offset="0.2166" style="stop-color:#2E82A2"/>
			<stop  offset="0.3219" style="stop-color:#285E8C"/>
			<stop  offset="0.4319" style="stop-color:#22417A"/>
			<stop  offset="0.5479" style="stop-color:#1E2A6C"/>
			<stop  offset="0.6729" style="stop-color:#1A1A63"/>
			<stop  offset="0.813" style="stop-color:#19105D"/>
			<stop  offset="1" style="stop-color:#180D5B"/>
		</linearGradient>
		<polygon style="opacity:0.6;fill:url(#SVGID_7_);" points="185.37,207.67 155.44,224.95 195.51,248.09 225.44,230.81 		"/>
		
			<linearGradient id="SVGID_10_" gradientUnits="userSpaceOnUse" x1="720.0605" y1="2734.3081" x2="720.0605" y2="2694.238" gradientTransform="matrix(-0.866 -0.5 1 -0.5774 -1900.2618 2195.5452)">
			<stop  offset="0" style="stop-color:#42E8E0"/>
			<stop  offset="0.0185" style="stop-color:#40DEDA"/>
			<stop  offset="0.1149" style="stop-color:#37ADBC"/>
			<stop  offset="0.2166" style="stop-color:#2E82A2"/>
			<stop  offset="0.3219" style="stop-color:#285E8C"/>
			<stop  offset="0.4319" style="stop-color:#22417A"/>
			<stop  offset="0.5479" style="stop-color:#1E2A6C"/>
			<stop  offset="0.6729" style="stop-color:#1A1A63"/>
			<stop  offset="0.813" style="stop-color:#19105D"/>
			<stop  offset="1" style="stop-color:#180D5B"/>
		</linearGradient>
		<polygon style="opacity:0.6;fill:url(#SVGID_10_);" points="155.44,271.22 185.37,288.5 225.44,265.37 195.51,248.09 		"/>
		
			<linearGradient id="SVGID_11_" gradientUnits="userSpaceOnUse" x1="-2356.615" y1="2534.6147" x2="-2356.615" y2="2488.3408" gradientTransform="matrix(-1 0.5774 -0.866 -0.5 78.7658 2884.7427)">
			<stop  offset="0" style="stop-color:#42E8E0"/>
			<stop  offset="0.0185" style="stop-color:#40DEDA"/>
			<stop  offset="0.1149" style="stop-color:#37ADBC"/>
			<stop  offset="0.2166" style="stop-color:#2E82A2"/>
			<stop  offset="0.3219" style="stop-color:#285E8C"/>
			<stop  offset="0.4319" style="stop-color:#22417A"/>
			<stop  offset="0.5479" style="stop-color:#1E2A6C"/>
			<stop  offset="0.6729" style="stop-color:#1A1A63"/>
			<stop  offset="0.813" style="stop-color:#19105D"/>
			<stop  offset="1" style="stop-color:#180D5B"/>
		</linearGradient>
		<polygon style="opacity:0.6;fill:url(#SVGID_11_);" points="265.51,288.5 295.44,271.22 255.37,248.09 225.44,265.37 		"/>
	</g>
</g>
<g>
	<g>
		<g>
			<path style="fill:#8686F2;" d="M225.65,280.94c-0.6,0-1.17-0.12-1.61-0.38l-36.19-20.89c-0.47-0.27-0.72-0.66-0.72-1.09
				c0-0.5,0.35-0.99,0.97-1.34l35.7-20.61c1.09-0.63,2.7-0.69,3.65-0.14l36.19,20.89c0.47,0.27,0.72,0.66,0.72,1.09
				c0,0.5-0.35,0.99-0.97,1.34l-35.7,20.61C227.1,280.77,226.36,280.94,225.65,280.94z M224.32,280.08
				c0.77,0.45,2.19,0.38,3.09-0.14l35.7-20.61c0.43-0.25,0.69-0.57,0.69-0.86c0-0.29-0.24-0.49-0.44-0.6l-36.19-20.89
				c-0.77-0.45-2.19-0.38-3.09,0.14l-35.7,20.61c-0.43,0.25-0.69,0.57-0.69,0.86c0,0.29,0.24,0.49,0.44,0.6L224.32,280.08z"/>
			<g>
				<g>
					<linearGradient id="SVGID_12_" gradientUnits="userSpaceOnUse" x1="168.2222" y1="256.5503" x2="266.7072" y2="256.5503">
						<stop  offset="0" style="stop-color:#5761D7"/>
						<stop  offset="0.1645" style="stop-color:#5E67DA"/>
						<stop  offset="0.4051" style="stop-color:#727AE2"/>
						<stop  offset="0.6924" style="stop-color:#9297EE"/>
						<stop  offset="1" style="stop-color:#BCBEFF"/>
					</linearGradient>
					<polygon style="fill:url(#SVGID_12_);" points="264.08,243.24 264.08,247.68 225.65,269.86 187.22,247.68 187.22,243.24 					
						"/>
					<polygon style="fill:#BCBEFF;" points="225.65,265.42 187.22,243.24 225.65,221.05 264.08,243.24 					"/>
					<polygon style="fill:#FFFFFF;" points="225.65,264.9 187.67,242.98 187.22,243.24 225.65,265.42 264.08,243.24 263.63,242.98 
											"/>
				</g>
				<g>
					<polygon style="fill:#0F054C;" points="225.65,260.31 196.09,243.24 225.65,226.18 255.21,243.24 					"/>
					<g>
						<linearGradient id="SVGID_13_" gradientUnits="userSpaceOnUse" x1="196.0937" y1="243.2421" x2="255.2069" y2="243.2421">
							<stop  offset="0" style="stop-color:#42E8E0"/>
							<stop  offset="0.1507" style="stop-color:#43E3E0"/>
							<stop  offset="0.3285" style="stop-color:#45D5DF"/>
							<stop  offset="0.5199" style="stop-color:#49BDDD"/>
							<stop  offset="0.7209" style="stop-color:#4E9CDB"/>
							<stop  offset="0.9274" style="stop-color:#5472D8"/>
							<stop  offset="1" style="stop-color:#5761D7"/>
						</linearGradient>
						<polygon style="opacity:0.5;fill:url(#SVGID_13_);" points="225.65,260.31 196.09,243.24 225.65,226.18 255.21,243.24 						
							"/>
						<g>
							<linearGradient id="SVGID_14_" gradientUnits="userSpaceOnUse" x1="225.6498" y1="232.5583" x2="255.2069" y2="232.5583">
								<stop  offset="0" style="stop-color:#42E8E0"/>
								<stop  offset="0.1507" style="stop-color:#43E3E0"/>
								<stop  offset="0.3285" style="stop-color:#45D5DF"/>
								<stop  offset="0.5199" style="stop-color:#49BDDD"/>
								<stop  offset="0.7209" style="stop-color:#4E9CDB"/>
								<stop  offset="0.9274" style="stop-color:#5472D8"/>
								<stop  offset="1" style="stop-color:#5761D7"/>
							</linearGradient>
							<polygon style="opacity:0.5;fill:url(#SVGID_14_);" points="225.65,221.87 255.21,238.94 255.21,243.24 225.65,226.18 
															"/>
							<linearGradient id="SVGID_15_" gradientUnits="userSpaceOnUse" x1="196.0937" y1="232.558" x2="225.6507" y2="232.558">
								<stop  offset="0" style="stop-color:#42E8E0"/>
								<stop  offset="0.1507" style="stop-color:#43E3E0"/>
								<stop  offset="0.3285" style="stop-color:#45D5DF"/>
								<stop  offset="0.5199" style="stop-color:#49BDDD"/>
								<stop  offset="0.7209" style="stop-color:#4E9CDB"/>
								<stop  offset="0.9274" style="stop-color:#5472D8"/>
								<stop  offset="1" style="stop-color:#5761D7"/>
							</linearGradient>
							<polygon style="opacity:0.5;fill:url(#SVGID_15_);" points="225.65,226.18 196.09,243.24 196.09,238.94 225.65,221.87 
															"/>
							<linearGradient id="SVGID_16_" gradientUnits="userSpaceOnUse" x1="196.0937" y1="238.939" x2="255.2069" y2="238.939">
								<stop  offset="0" style="stop-color:#42E8E0"/>
								<stop  offset="0.1507" style="stop-color:#43E3E0"/>
								<stop  offset="0.3285" style="stop-color:#45D5DF"/>
								<stop  offset="0.5199" style="stop-color:#49BDDD"/>
								<stop  offset="0.7209" style="stop-color:#4E9CDB"/>
								<stop  offset="0.9274" style="stop-color:#5472D8"/>
								<stop  offset="1" style="stop-color:#5761D7"/>
							</linearGradient>
							<polygon style="opacity:0.5;fill:url(#SVGID_16_);" points="225.65,256 196.09,238.94 225.65,221.87 255.21,238.94 							
								"/>
							<polygon style="opacity:0.5;fill:#42E8E0;" points="225.65,245.76 213.84,238.94 225.65,232.12 237.46,238.94 							"/>
							<polygon style="opacity:0.5;fill:#42E8E0;" points="225.65,232.75 236.92,239.25 237.46,238.94 225.65,232.12 213.84,238.94 
								214.38,239.25 							"/>
							<linearGradient id="SVGID_17_" gradientUnits="userSpaceOnUse" x1="225.6507" y1="249.6228" x2="255.2069" y2="249.6228">
								<stop  offset="0" style="stop-color:#42E8E0"/>
								<stop  offset="0.1507" style="stop-color:#43E3E0"/>
								<stop  offset="0.3285" style="stop-color:#45D5DF"/>
								<stop  offset="0.5199" style="stop-color:#49BDDD"/>
								<stop  offset="0.7209" style="stop-color:#4E9CDB"/>
								<stop  offset="0.9274" style="stop-color:#5472D8"/>
								<stop  offset="1" style="stop-color:#5761D7"/>
							</linearGradient>
							<polygon style="opacity:0.5;fill:url(#SVGID_17_);" points="225.65,256 225.65,260.31 255.21,243.24 255.21,238.94 							
								"/>
						</g>
						<linearGradient id="SVGID_18_" gradientUnits="userSpaceOnUse" x1="196.0937" y1="249.6225" x2="225.6507" y2="249.6225">
							<stop  offset="0" style="stop-color:#42E8E0"/>
							<stop  offset="0.1507" style="stop-color:#43E3E0"/>
							<stop  offset="0.3285" style="stop-color:#45D5DF"/>
							<stop  offset="0.5199" style="stop-color:#49BDDD"/>
							<stop  offset="0.7209" style="stop-color:#4E9CDB"/>
							<stop  offset="0.9274" style="stop-color:#5472D8"/>
							<stop  offset="1" style="stop-color:#5761D7"/>
						</linearGradient>
						<polygon style="opacity:0.5;fill:url(#SVGID_18_);" points="196.09,238.94 196.09,243.24 225.65,260.31 225.65,256 						"/>
					</g>
					<polygon style="opacity:0.8;fill:#42E8E0;" points="225.65,255.53 196.5,238.7 196.09,238.94 225.65,256 255.21,238.94 
						254.8,238.7 					"/>
				</g>
			</g>
		</g>
		<g>
			<path style="fill:#8686F2;" d="M379.68,280.94c-0.6,0-1.17-0.12-1.61-0.38l-36.19-20.89c-0.47-0.27-0.72-0.66-0.72-1.09
				c0-0.5,0.35-0.99,0.97-1.34l35.7-20.61c1.09-0.63,2.7-0.69,3.65-0.14l36.19,20.89c0.47,0.27,0.72,0.66,0.72,1.09
				c0,0.5-0.35,0.99-0.97,1.34l-35.7,20.61C381.13,280.77,380.39,280.94,379.68,280.94z M378.35,280.08
				c0.77,0.45,2.19,0.38,3.09-0.14l35.7-20.61c0.43-0.25,0.69-0.57,0.69-0.86c0-0.29-0.24-0.49-0.44-0.6l-36.19-20.89
				c-0.77-0.45-2.19-0.38-3.09,0.14l-35.7,20.61c-0.43,0.25-0.69,0.57-0.69,0.86c0,0.29,0.24,0.49,0.44,0.6L378.35,280.08z"/>
			<g>
				<g>
					<linearGradient id="SVGID_19_" gradientUnits="userSpaceOnUse" x1="322.2535" y1="256.5503" x2="420.7385" y2="256.5503">
						<stop  offset="0" style="stop-color:#5761D7"/>
						<stop  offset="0.1645" style="stop-color:#5E67DA"/>
						<stop  offset="0.4051" style="stop-color:#727AE2"/>
						<stop  offset="0.6924" style="stop-color:#9297EE"/>
						<stop  offset="1" style="stop-color:#BCBEFF"/>
					</linearGradient>
					<polygon style="fill:url(#SVGID_19_);" points="418.11,243.24 418.11,247.68 379.68,269.86 341.25,247.68 341.25,243.24 					
						"/>
					<polygon style="fill:#BCBEFF;" points="379.68,265.42 341.25,243.24 379.68,221.05 418.11,243.24 					"/>
					<polygon style="fill:#FFFFFF;" points="379.68,264.9 341.7,242.98 341.25,243.24 379.68,265.42 418.11,243.24 417.66,242.98 
											"/>
				</g>
				<g>
					<polygon style="fill:#0F054C;" points="379.68,260.31 350.13,243.24 379.68,226.18 409.24,243.24 					"/>
					<g>
						<linearGradient id="SVGID_20_" gradientUnits="userSpaceOnUse" x1="350.125" y1="243.2421" x2="409.2382" y2="243.2421">
							<stop  offset="0" style="stop-color:#42E8E0"/>
							<stop  offset="0.1507" style="stop-color:#43E3E0"/>
							<stop  offset="0.3285" style="stop-color:#45D5DF"/>
							<stop  offset="0.5199" style="stop-color:#49BDDD"/>
							<stop  offset="0.7209" style="stop-color:#4E9CDB"/>
							<stop  offset="0.9274" style="stop-color:#5472D8"/>
							<stop  offset="1" style="stop-color:#5761D7"/>
						</linearGradient>
						<polygon style="opacity:0.5;fill:url(#SVGID_20_);" points="379.68,260.31 350.13,243.24 379.68,226.18 409.24,243.24 						
							"/>
						<g>
							<linearGradient id="SVGID_21_" gradientUnits="userSpaceOnUse" x1="379.6812" y1="232.5583" x2="409.2382" y2="232.5583">
								<stop  offset="0" style="stop-color:#42E8E0"/>
								<stop  offset="0.1507" style="stop-color:#43E3E0"/>
								<stop  offset="0.3285" style="stop-color:#45D5DF"/>
								<stop  offset="0.5199" style="stop-color:#49BDDD"/>
								<stop  offset="0.7209" style="stop-color:#4E9CDB"/>
								<stop  offset="0.9274" style="stop-color:#5472D8"/>
								<stop  offset="1" style="stop-color:#5761D7"/>
							</linearGradient>
							<polygon style="opacity:0.5;fill:url(#SVGID_21_);" points="379.68,221.87 409.24,238.94 409.24,243.24 379.68,226.18 
															"/>
							<linearGradient id="SVGID_22_" gradientUnits="userSpaceOnUse" x1="350.125" y1="232.558" x2="379.682" y2="232.558">
								<stop  offset="0" style="stop-color:#42E8E0"/>
								<stop  offset="0.1507" style="stop-color:#43E3E0"/>
								<stop  offset="0.3285" style="stop-color:#45D5DF"/>
								<stop  offset="0.5199" style="stop-color:#49BDDD"/>
								<stop  offset="0.7209" style="stop-color:#4E9CDB"/>
								<stop  offset="0.9274" style="stop-color:#5472D8"/>
								<stop  offset="1" style="stop-color:#5761D7"/>
							</linearGradient>
							<polygon style="opacity:0.5;fill:url(#SVGID_22_);" points="379.68,226.18 350.13,243.24 350.13,238.94 379.68,221.87 
															"/>
							<linearGradient id="SVGID_23_" gradientUnits="userSpaceOnUse" x1="350.125" y1="238.939" x2="409.2382" y2="238.939">
								<stop  offset="0" style="stop-color:#42E8E0"/>
								<stop  offset="0.1507" style="stop-color:#43E3E0"/>
								<stop  offset="0.3285" style="stop-color:#45D5DF"/>
								<stop  offset="0.5199" style="stop-color:#49BDDD"/>
								<stop  offset="0.7209" style="stop-color:#4E9CDB"/>
								<stop  offset="0.9274" style="stop-color:#5472D8"/>
								<stop  offset="1" style="stop-color:#5761D7"/>
							</linearGradient>
							<polygon style="opacity:0.5;fill:url(#SVGID_23_);" points="379.68,256 350.13,238.94 379.68,221.87 409.24,238.94 							
								"/>
							<polygon style="opacity:0.5;fill:#42E8E0;" points="379.68,245.76 367.87,238.94 379.68,232.12 391.49,238.94 							"/>
							<polygon style="opacity:0.5;fill:#42E8E0;" points="379.68,232.75 390.95,239.25 391.49,238.94 379.68,232.12 367.87,238.94 
								368.41,239.25 							"/>
							<linearGradient id="SVGID_24_" gradientUnits="userSpaceOnUse" x1="379.682" y1="249.6228" x2="409.2382" y2="249.6228">
								<stop  offset="0" style="stop-color:#42E8E0"/>
								<stop  offset="0.1507" style="stop-color:#43E3E0"/>
								<stop  offset="0.3285" style="stop-color:#45D5DF"/>
								<stop  offset="0.5199" style="stop-color:#49BDDD"/>
								<stop  offset="0.7209" style="stop-color:#4E9CDB"/>
								<stop  offset="0.9274" style="stop-color:#5472D8"/>
								<stop  offset="1" style="stop-color:#5761D7"/>
							</linearGradient>
							<polygon style="opacity:0.5;fill:url(#SVGID_24_);" points="379.68,256 379.68,260.31 409.24,243.24 409.24,238.94 							
								"/>
						</g>
						<linearGradient id="SVGID_25_" gradientUnits="userSpaceOnUse" x1="350.125" y1="249.6225" x2="379.682" y2="249.6225">
							<stop  offset="0" style="stop-color:#42E8E0"/>
							<stop  offset="0.1507" style="stop-color:#43E3E0"/>
							<stop  offset="0.3285" style="stop-color:#45D5DF"/>
							<stop  offset="0.5199" style="stop-color:#49BDDD"/>
							<stop  offset="0.7209" style="stop-color:#4E9CDB"/>
							<stop  offset="0.9274" style="stop-color:#5472D8"/>
							<stop  offset="1" style="stop-color:#5761D7"/>
						</linearGradient>
						<polygon style="opacity:0.5;fill:url(#SVGID_25_);" points="350.13,238.94 350.13,243.24 379.68,260.31 379.68,256 						"/>
					</g>
					<polygon style="opacity:0.8;fill:#42E8E0;" points="379.68,255.53 350.53,238.7 350.13,238.94 379.68,256 409.24,238.94 
						408.83,238.7 					"/>
				</g>
			</g>
		</g>
	</g>
	<g>
		<polygon style="fill:#BCBEFF;" points="302.76,192.88 234.46,153.45 302.76,114.02 371.05,153.45 		"/>
		<polygon style="opacity:0.7;fill:#453C9E;" points="302.76,189.33 240.62,153.45 302.76,117.57 364.9,153.45 		"/>
		<path style="fill:#8686F2;" d="M302.76,355.47c-1.05,0-2.11-0.27-3.05-0.81l-83.65-48.3c-0.56-0.32-0.9-0.91-0.9-1.55
			c0-0.65,0.34-1.23,0.9-1.55l86.69-50.05l89.39,51.61l-86.34,49.85C304.87,355.2,303.81,355.47,302.76,355.47z M300.04,354.09
			c1.68,0.97,3.76,0.97,5.44,0l85.36-49.28l-88.08-50.85l-86.37,49.86c-0.36,0.21-0.57,0.57-0.57,0.99c0,0.41,0.21,0.78,0.57,0.99
			L300.04,354.09z"/>
		<polygon style="fill:#FFFFFF;" points="302.76,344.23 234.46,304.8 302.76,265.37 371.05,304.8 		"/>
		<linearGradient id="SVGID_26_" gradientUnits="userSpaceOnUse" x1="336.9074" y1="301.6194" x2="336.9074" y2="157.4953">
			<stop  offset="0" style="stop-color:#C0BFF6"/>
			<stop  offset="0.2938" style="stop-color:#C5C4F7"/>
			<stop  offset="0.6399" style="stop-color:#D3D2F9"/>
			<stop  offset="1" style="stop-color:#E9E9FD"/>
		</linearGradient>
		<polygon style="fill:url(#SVGID_26_);" points="371.05,153.45 371.05,304.8 302.76,344.23 302.76,192.88 		"/>
		<polygon style="fill:#24126A;" points="234.46,153.45 234.46,304.8 302.76,344.23 302.76,192.88 		"/>
		<g style="opacity:0.51;">
			<polygon style="fill:#453C9E;" points="239.09,163.49 239.09,299.53 298.13,333.62 298.13,197.58 			"/>
		</g>
		<polygon style="fill:#453C9E;" points="360.81,190.02 360.81,194.02 313,221.62 313,217.62 		"/>
		<polygon style="fill:#453C9E;" points="360.81,206.93 360.81,210.93 313,238.53 313,234.53 		"/>
		<polygon style="fill:#453C9E;" points="360.81,223.85 360.81,227.85 313,255.45 313,251.45 		"/>
		<polygon style="fill:#453C9E;" points="360.81,240.76 360.81,244.76 313,272.36 313,268.36 		"/>
		<polygon style="fill:#453C9E;" points="360.81,257.68 360.81,261.68 313,289.28 313,285.28 		"/>
		<polygon style="fill:#453C9E;" points="360.81,274.59 360.81,278.59 313,306.2 313,302.19 		"/>
		<polygon style="fill:#FFFFFF;" points="302.76,191.6 235.57,152.81 234.46,153.45 302.76,192.88 371.05,153.45 369.95,152.81 		
			"/>
		<g style="opacity:0.51;">
			<polygon style="fill:#453C9E;" points="234.46,280.88 302.76,239.65 302.76,192.88 234.46,153.45 			"/>
		</g>
		<g>
			<polygon style="fill:#42E8E0;" points="246.16,211.67 254.66,216.58 254.66,215.1 246.16,210.19 			"/>
			<polygon style="fill:#42E8E0;" points="256.03,217.36 260.66,220.03 260.66,218.56 256.03,215.89 			"/>
			<polygon style="fill:#42E8E0;" points="267.86,224.19 271.21,226.12 271.21,224.65 267.86,222.71 			"/>
			<polygon style="fill:#42E8E0;" points="265.42,222.78 266.56,223.44 266.56,221.97 265.42,221.3 			"/>
			<polygon style="fill:#42E8E0;" points="262.04,220.83 264.12,222.03 264.12,220.55 262.04,219.35 			"/>
			<polygon style="fill:#42E8E0;" points="254.02,222.95 257.37,224.88 257.37,223.41 254.02,221.47 			"/>
			<polygon style="fill:#42E8E0;" points="246.15,218.41 252.72,222.2 252.72,220.72 246.16,216.93 			"/>
			<g>
				<polygon style="fill:#42E8E0;" points="258.39,242.31 264.96,246.1 264.96,244.63 258.4,240.83 				"/>
				<polygon style="fill:#42E8E0;" points="255.02,240.36 257.1,241.56 257.1,240.08 255.02,238.88 				"/>
			</g>
			<polygon style="fill:#42E8E0;" points="258.36,235.56 264.92,239.35 264.93,237.88 258.36,234.09 			"/>
			<polygon style="fill:#42E8E0;" points="254.98,233.61 257.06,234.81 257.06,233.34 254.98,232.14 			"/>
			<polygon style="fill:#42E8E0;" points="258.43,271.43 246.07,264.29 246.07,265.76 258.43,272.9 			"/>
			<polygon style="fill:#42E8E0;" points="262.79,273.94 259.73,272.18 259.73,273.65 262.79,275.42 			"/>
			<polygon style="fill:#42E8E0;" points="282.82,275.37 270.46,268.23 270.45,269.71 282.82,276.85 			"/>
			<polygon style="fill:#42E8E0;" points="287.18,277.89 284.12,276.12 284.12,277.6 287.18,279.37 			"/>
			<polygon style="fill:#42E8E0;" points="249.42,262.85 246.07,260.92 246.07,262.39 249.42,264.33 			"/>
			<polygon style="fill:#42E8E0;" points="268.67,267.22 265.32,265.28 265.32,266.76 268.67,268.69 			"/>
			<polygon style="fill:#42E8E0;" points="257.28,267.39 250.72,263.6 250.72,265.08 257.28,268.87 			"/>
			<polygon style="fill:#42E8E0;" points="260.66,269.34 258.58,268.14 258.58,269.62 260.66,270.82 			"/>
			<polygon style="fill:#42E8E0;" points="268.58,273.91 262.02,270.12 262.02,271.59 268.58,275.39 			"/>
			<polygon style="fill:#42E8E0;" points="271.96,275.86 269.88,274.66 269.88,276.14 271.96,277.34 			"/>
			<polygon style="fill:#42E8E0;" points="268.67,270.59 265.32,268.65 265.32,270.13 268.67,272.06 			"/>
			<polygon style="fill:#42E8E0;" points="276.53,275.13 269.97,271.34 269.97,272.81 276.53,276.6 			"/>
			<polygon style="fill:#42E8E0;" points="279.91,277.08 277.83,275.88 277.83,277.35 279.91,278.56 			"/>
			<polygon style="fill:#42E8E0;" points="252.93,261.51 246.07,257.55 246.07,259.02 252.93,262.98 			"/>
			<polygon style="fill:#42E8E0;" points="259.19,265.12 254.23,262.26 254.23,263.73 259.18,266.59 			"/>
			<polygon style="fill:#42E8E0;" points="263.83,267.8 260.48,265.87 260.48,267.34 263.83,269.28 			"/>
			<polygon style="fill:#42E8E0;" points="286.5,238.31 293.36,242.27 293.36,240.8 286.5,236.84 			"/>
			<polygon style="fill:#42E8E0;" points="280.25,234.7 285.2,237.56 285.21,236.09 280.25,233.23 			"/>
			<polygon style="fill:#42E8E0;" points="275.6,232.02 278.95,233.95 278.95,232.48 275.6,230.54 			"/>
			<polygon style="fill:#42E8E0;" points="283.66,233.29 290.51,237.25 290.52,235.77 283.66,231.81 			"/>
			<polygon style="fill:#42E8E0;" points="277.4,229.68 282.36,232.54 282.36,231.06 277.4,228.2 			"/>
			<polygon style="fill:#42E8E0;" points="272.75,226.99 276.1,228.93 276.1,227.45 272.75,225.52 			"/>
			<polygon style="fill:#42E8E0;" points="259.38,239.52 261.69,240.86 261.69,239.39 259.38,238.05 			"/>
			<polygon style="fill:#42E8E0;" points="255.02,237.01 258.08,238.77 258.08,237.3 255.02,235.53 			"/>
			<polygon style="fill:#42E8E0;" points="252.98,258.16 246.12,254.2 246.12,255.67 252.97,259.63 			"/>
			<polygon style="fill:#42E8E0;" points="259.23,261.77 254.27,258.91 254.27,260.38 259.23,263.25 			"/>
			<polygon style="fill:#42E8E0;" points="263.88,264.45 260.53,262.52 260.53,263.99 263.88,265.93 			"/>
			<polygon style="fill:#42E8E0;" points="248.44,252.17 246.12,250.83 246.12,252.31 248.44,253.64 			"/>
			<polygon style="fill:#42E8E0;" points="252.8,254.68 249.74,252.92 249.74,254.39 252.8,256.16 			"/>
			<polygon style="fill:#42E8E0;" points="259.03,258.28 254.1,255.43 254.09,256.91 259.02,259.76 			"/>
			<polygon style="fill:#42E8E0;" points="260.83,230.23 263.14,231.57 263.14,230.1 260.83,228.76 			"/>
			<polygon style="fill:#42E8E0;" points="256.47,227.72 259.53,229.48 259.53,228.01 256.47,226.24 			"/>
			<polygon style="fill:#42E8E0;" points="250.24,224.12 255.17,226.97 255.17,225.49 250.24,222.65 			"/>
			<polygon style="fill:#42E8E0;" points="264.88,235.7 269.81,238.55 269.81,237.07 264.88,234.23 			"/>
			<polygon style="fill:#42E8E0;" points="256.86,231.31 263.5,235.15 263.5,233.67 256.86,229.84 			"/>
			<polygon style="fill:#42E8E0;" points="253.48,229.36 255.56,230.56 255.56,229.09 253.48,227.89 			"/>
			<polygon style="fill:#42E8E0;" points="250.24,227.49 252.32,228.69 252.32,227.21 250.24,226.01 			"/>
			<g>
				<polygon style="fill:#42E8E0;" points="253.56,246.52 260.12,250.32 260.12,248.84 253.56,245.05 				"/>
				<polygon style="fill:#42E8E0;" points="250.18,244.57 252.26,245.78 252.26,244.3 250.18,243.1 				"/>
				<polygon style="fill:#42E8E0;" points="254.58,250.49 256.89,251.82 256.89,250.35 254.58,249.01 				"/>
				<polygon style="fill:#42E8E0;" points="261.61,247.79 263.93,249.12 263.93,247.65 261.62,246.31 				"/>
				<polygon style="fill:#42E8E0;" points="264.91,249.69 270.47,252.9 270.47,251.42 264.92,248.21 				"/>
				<polygon style="fill:#42E8E0;" points="271.46,253.46 274.76,255.37 274.76,253.9 271.46,251.99 				"/>
				<polygon style="fill:#42E8E0;" points="250.22,247.97 253.28,249.74 253.28,248.26 250.22,246.49 				"/>
				<g>
					<polygon style="fill:#42E8E0;" points="250.48,251.43 252.8,252.77 252.8,251.29 250.48,249.96 					"/>
					<polygon style="fill:#42E8E0;" points="246.12,248.91 249.18,250.68 249.19,249.21 246.13,247.44 					"/>
				</g>
				<polygon style="fill:#42E8E0;" points="258.25,245.85 260.33,247.05 260.34,245.57 258.26,244.37 				"/>
				<polygon style="fill:#42E8E0;" points="255.01,243.98 257.09,245.18 257.09,243.7 255.01,242.5 				"/>
			</g>
			<polygon style="fill:#42E8E0;" points="266.98,227.04 274.07,231.14 274.07,229.66 266.98,225.57 			"/>
			<polygon style="fill:#42E8E0;" points="259.04,222.46 265.68,226.29 265.68,224.82 259.04,220.98 			"/>
			<polygon style="fill:#42E8E0;" points="255.66,220.5 257.74,221.71 257.74,220.23 255.66,219.03 			"/>
			<polygon style="fill:#42E8E0;" points="252.42,218.63 254.5,219.83 254.5,218.36 252.42,217.16 			"/>
			<polygon style="fill:#42E8E0;" points="250.64,217.61 246.16,215.02 246.16,213.54 250.65,216.13 			"/>
		</g>
		<g>
			<polygon style="fill:#BCBEFF;" points="302.76,163.42 234.46,123.99 302.76,84.56 371.05,123.99 			"/>
			<polygon style="fill:#453C9E;" points="302.76,152.65 253.11,123.99 302.76,95.33 352.41,123.99 			"/>
			<polygon style="fill:#FFFFFF;" points="302.76,97.27 350.73,124.96 352.41,123.99 302.76,95.33 253.11,123.99 254.79,124.96 			
				"/>
			<linearGradient id="SVGID_27_" gradientUnits="userSpaceOnUse" x1="336.9074" y1="171.9706" x2="336.9074" y2="125.3002">
				<stop  offset="0" style="stop-color:#C0BFF6"/>
				<stop  offset="0.2938" style="stop-color:#C5C4F7"/>
				<stop  offset="0.6399" style="stop-color:#D3D2F9"/>
				<stop  offset="1" style="stop-color:#E9E9FD"/>
			</linearGradient>
			<polygon style="fill:url(#SVGID_27_);" points="371.05,123.99 371.05,146.34 302.76,185.77 302.76,163.42 			"/>
			<polygon style="fill:#24126A;" points="234.46,123.99 234.46,146.34 302.76,185.77 302.76,163.42 			"/>
			<g style="opacity:0.51;">
				<polygon style="fill:#453C9E;" points="239.09,134.03 239.09,141.07 298.13,175.16 298.13,168.12 				"/>
			</g>
			<polygon style="fill:#FFFFFF;" points="302.76,162.14 235.57,123.35 234.46,123.99 302.76,163.42 371.05,123.99 369.95,123.35 
							"/>
			<polygon style="fill:#453C9E;" points="360.81,139.65 360.81,143.65 313,171.25 313,167.25 			"/>
			<polygon style="opacity:0.51;fill:#453C9E;" points="234.46,123.99 234.46,146.34 302.76,185.77 302.76,163.42 			"/>
			<polygon style="fill:#42E8E0;" points="282.82,162.23 270.46,155.09 270.45,156.57 282.82,163.71 			"/>
			<polygon style="fill:#42E8E0;" points="268.67,154.08 265.32,152.14 265.32,153.62 268.67,155.55 			"/>
			<polygon style="fill:#42E8E0;" points="252.98,145.02 246.12,141.06 246.12,142.53 252.97,146.49 			"/>
			<polygon style="fill:#42E8E0;" points="259.23,148.63 254.27,145.77 254.27,147.24 259.23,150.1 			"/>
			<polygon style="fill:#42E8E0;" points="263.88,151.31 260.53,149.38 260.53,150.85 263.88,152.79 			"/>
			<g>
				<g>
					<polygon style="fill:#42E8E0;" points="302.83,105.17 300.66,103.92 302.83,102.66 305,103.92 					"/>
					<polygon style="opacity:0.1;fill:#42E8E0;" points="307.17,107.67 305,106.42 307.17,105.17 309.34,106.42 					"/>
					<polygon style="opacity:0.4;fill:#42E8E0;" points="311.5,110.18 309.34,108.92 311.5,107.67 313.67,108.92 					"/>
					<polygon style="fill:#42E8E0;" points="315.84,112.68 313.67,111.43 315.84,110.18 318.01,111.43 					"/>
					<polygon style="opacity:0.4;fill:#42E8E0;" points="320.18,115.18 318.01,113.93 320.18,112.68 322.35,113.93 					"/>
					<polygon style="fill:#42E8E0;" points="324.52,117.69 322.35,116.44 324.52,115.18 326.68,116.44 					"/>
					<polygon style="fill:#42E8E0;" points="328.85,120.19 326.68,118.94 328.85,117.69 331.02,118.94 					"/>
					<polygon style="fill:#42E8E0;" points="333.19,122.7 331.02,121.44 333.19,120.19 335.36,121.44 					"/>
					<polygon style="opacity:0.1;fill:#42E8E0;" points="337.53,125.2 335.36,123.95 337.53,122.7 339.7,123.95 					"/>
				</g>
				<g>
					<polygon style="fill:#42E8E0;" points="298.47,107.68 296.31,106.43 298.47,105.18 300.64,106.43 					"/>
					<polygon style="fill:#42E8E0;" points="302.81,110.19 300.64,108.93 302.81,107.68 304.98,108.93 					"/>
					<polygon style="fill:#42E8E0;" points="307.15,112.69 304.98,111.44 307.15,110.19 309.32,111.44 					"/>
					<polygon style="fill:#42E8E0;" points="311.49,115.19 309.32,113.94 311.49,112.69 313.66,113.94 					"/>
					<polygon style="fill:#42E8E0;" points="315.82,117.7 313.66,116.45 315.82,115.19 317.99,116.45 					"/>
					<polygon style="fill:#42E8E0;" points="320.16,120.2 317.99,118.95 320.16,117.7 322.33,118.95 					"/>
					<polygon style="fill:#42E8E0;" points="324.5,122.71 322.33,121.45 324.5,120.2 326.67,121.45 					"/>
					<polygon style="fill:#42E8E0;" points="328.84,125.21 326.67,123.96 328.84,122.71 331,123.96 					"/>
					<polygon style="fill:#42E8E0;" points="333.17,127.72 331,126.46 333.17,125.21 335.34,126.46 					"/>
				</g>
				<g>
					<polygon style="fill:#42E8E0;" points="294.12,110.2 291.95,108.94 294.12,107.69 296.29,108.94 					"/>
					<polygon style="fill:#42E8E0;" points="298.46,112.7 296.29,111.45 298.46,110.2 300.63,111.45 					"/>
					<polygon style="fill:#42E8E0;" points="302.79,115.2 300.63,113.95 302.79,112.7 304.96,113.95 					"/>
					<polygon style="opacity:0.1;fill:#42E8E0;" points="307.13,117.71 304.96,116.46 307.13,115.2 309.3,116.46 					"/>
					<polygon style="opacity:0.4;fill:#42E8E0;" points="311.47,120.21 309.3,118.96 311.47,117.71 313.64,118.96 					"/>
					<polygon style="opacity:0.4;fill:#42E8E0;" points="315.81,122.72 313.64,121.46 315.81,120.21 317.98,121.46 					"/>
					<polygon style="fill:#42E8E0;" points="320.14,125.22 317.98,123.97 320.14,122.72 322.31,123.97 					"/>
					<polygon style="fill:#42E8E0;" points="324.48,127.73 322.31,126.47 324.48,125.22 326.65,126.47 					"/>
					<polygon style="fill:#42E8E0;" points="328.82,130.23 326.65,128.98 328.82,127.73 330.99,128.98 					"/>
				</g>
				<g>
					<polygon style="opacity:0.4;fill:#42E8E0;" points="289.76,112.71 287.6,111.46 289.76,110.21 291.93,111.46 					"/>
					<polygon style="opacity:0.4;fill:#42E8E0;" points="294.1,115.21 291.93,113.96 294.1,112.71 296.27,113.96 					"/>
					<polygon style="opacity:0.1;fill:#42E8E0;" points="298.44,117.72 296.27,116.47 298.44,115.21 300.61,116.47 					"/>
					<polygon style="fill:#42E8E0;" points="302.78,120.22 300.61,118.97 302.78,117.72 304.95,118.97 					"/>
					<polygon style="fill:#42E8E0;" points="307.11,122.73 304.95,121.47 307.11,120.22 309.28,121.47 					"/>
					<polygon style="fill:#42E8E0;" points="311.45,125.23 309.28,123.98 311.45,122.73 313.62,123.98 					"/>
					<polygon style="opacity:0.4;fill:#42E8E0;" points="315.79,127.74 313.62,126.48 315.79,125.23 317.96,126.48 					"/>
					<polygon style="fill:#42E8E0;" points="320.13,130.24 317.96,128.99 320.13,127.74 322.29,128.99 					"/>
					<polygon style="fill:#42E8E0;" points="324.46,132.74 322.3,131.49 324.46,130.24 326.63,131.49 					"/>
				</g>
				<g>
					<polygon style="fill:#42E8E0;" points="285.41,115.22 283.24,113.97 285.41,112.72 287.58,113.97 					"/>
					<polygon style="fill:#42E8E0;" points="289.75,117.73 287.58,116.48 289.75,115.22 291.92,116.48 					"/>
					<polygon style="fill:#42E8E0;" points="294.08,120.23 291.92,118.98 294.08,117.73 296.25,118.98 					"/>
					<polygon style="fill:#42E8E0;" points="298.42,122.74 296.25,121.49 298.42,120.23 300.59,121.49 					"/>
					<polygon style="fill:#42E8E0;" points="302.76,125.24 300.59,123.99 302.76,122.74 304.93,123.99 					"/>
					<polygon style="fill:#42E8E0;" points="307.1,127.75 304.93,126.49 307.1,125.24 309.27,126.49 					"/>
					<polygon style="fill:#42E8E0;" points="311.43,130.25 309.27,129 311.43,127.75 313.6,129 					"/>
					<polygon style="fill:#42E8E0;" points="315.77,132.75 313.6,131.5 315.77,130.25 317.94,131.5 					"/>
					<polygon style="fill:#42E8E0;" points="320.11,135.26 317.94,134.01 320.11,132.75 322.28,134.01 					"/>
				</g>
				<g>
					<polygon style="fill:#42E8E0;" points="281.06,117.74 278.89,116.49 281.05,115.23 283.22,116.49 					"/>
					<polygon style="fill:#42E8E0;" points="285.39,120.24 283.22,118.99 285.39,117.74 287.56,118.99 					"/>
					<polygon style="opacity:0.4;fill:#42E8E0;" points="289.73,122.75 287.56,121.5 289.73,120.24 291.9,121.5 					"/>
					<polygon style="fill:#42E8E0;" points="294.07,125.25 291.9,124 294.07,122.75 296.24,124 					"/>
					<polygon style="opacity:0.1;fill:#42E8E0;" points="298.4,127.76 296.24,126.5 298.4,125.25 300.57,126.5 					"/>
					<polygon style="fill:#42E8E0;" points="302.74,130.26 300.57,129.01 302.74,127.76 304.91,129.01 					"/>
					<polygon style="fill:#42E8E0;" points="307.08,132.76 304.91,131.51 307.08,130.26 309.25,131.51 					"/>
					<polygon style="fill:#42E8E0;" points="311.42,135.27 309.25,134.02 311.42,132.76 313.59,134.02 					"/>
					<polygon style="fill:#42E8E0;" points="315.75,137.77 313.59,136.52 315.75,135.27 317.92,136.52 					"/>
				</g>
				<g>
					<polygon style="fill:#42E8E0;" points="276.7,120.25 274.53,119 276.7,117.75 278.87,119 					"/>
					<polygon style="fill:#42E8E0;" points="281.04,122.76 278.87,121.51 281.04,120.25 283.21,121.51 					"/>
					<polygon style="opacity:0.4;fill:#42E8E0;" points="285.37,125.26 283.21,124.01 285.37,122.76 287.54,124.01 					"/>
					<polygon style="fill:#42E8E0;" points="289.71,127.77 287.54,126.51 289.71,125.26 291.88,126.51 					"/>
					<polygon style="fill:#42E8E0;" points="294.05,130.27 291.88,129.02 294.05,127.77 296.22,129.02 					"/>
					<polygon style="opacity:0.1;fill:#42E8E0;" points="298.39,132.77 296.22,131.52 298.39,130.27 300.56,131.52 					"/>
					<polygon style="opacity:0.4;fill:#42E8E0;" points="302.72,135.28 300.56,134.03 302.72,132.77 304.89,134.03 					"/>
					<polygon style="fill:#42E8E0;" points="307.06,137.78 304.89,136.53 307.06,135.28 309.23,136.53 					"/>
					<polygon style="opacity:0.1;fill:#42E8E0;" points="311.4,140.29 309.23,139.03 311.4,137.78 313.57,139.03 					"/>
				</g>
				<g>
					<polygon style="fill:#42E8E0;" points="272.35,122.77 270.18,121.52 272.35,120.26 274.51,121.52 					"/>
					<polygon style="opacity:0.4;fill:#42E8E0;" points="276.68,125.27 274.51,124.02 276.68,122.77 278.85,124.02 					"/>
					<polygon style="fill:#42E8E0;" points="281.02,127.78 278.85,126.52 281.02,125.27 283.19,126.52 					"/>
					<polygon style="fill:#42E8E0;" points="285.36,130.28 283.19,129.03 285.36,127.78 287.53,129.03 					"/>
					<polygon style="fill:#42E8E0;" points="289.69,132.78 287.53,131.53 289.69,130.28 291.86,131.53 					"/>
					<polygon style="fill:#42E8E0;" points="294.03,135.29 291.86,134.04 294.03,132.78 296.2,134.04 					"/>
					<polygon style="fill:#42E8E0;" points="298.37,137.79 296.2,136.54 298.37,135.29 300.54,136.54 					"/>
					<polygon style="opacity:0.4;fill:#42E8E0;" points="302.71,140.3 300.54,139.04 302.71,137.79 304.88,139.04 					"/>
					<polygon style="fill:#42E8E0;" points="307.04,142.8 304.88,141.55 307.04,140.3 309.21,141.55 					"/>
				</g>
				<g>
					<polygon style="fill:#42E8E0;" points="267.99,125.28 265.82,124.03 267.99,122.78 270.16,124.03 					"/>
					<polygon style="opacity:0.1;fill:#42E8E0;" points="272.33,127.79 270.16,126.53 272.33,125.28 274.5,126.53 					"/>
					<polygon style="fill:#42E8E0;" points="276.67,130.29 274.5,129.04 276.67,127.79 278.83,129.04 					"/>
					<polygon style="fill:#42E8E0;" points="281,132.79 278.83,131.54 281,130.29 283.17,131.54 					"/>
					<polygon style="fill:#42E8E0;" points="285.34,135.3 283.17,134.05 285.34,132.79 287.51,134.05 					"/>
					<polygon style="fill:#42E8E0;" points="289.68,137.8 287.51,136.55 289.68,135.3 291.85,136.55 					"/>
					<polygon style="opacity:0.4;fill:#42E8E0;" points="294.01,140.31 291.85,139.05 294.01,137.8 296.18,139.05 					"/>
					<polygon style="fill:#42E8E0;" points="298.35,142.81 296.18,141.56 298.35,140.31 300.52,141.56 					"/>
					<polygon style="fill:#42E8E0;" points="302.69,145.32 300.52,144.06 302.69,142.81 304.86,144.06 					"/>
				</g>
			</g>
		</g>
	</g>
</g>
<g>
	<g>
		<g>
			<g>
				<g>
					<path style="fill:#8686F2;" d="M107.17,309.92c-1.05,0-2.07-0.27-2.97-0.79L69.86,289.3c-0.54-0.31-0.85-0.86-0.85-1.48
						c0-0.62,0.32-1.17,0.85-1.48l62.3-35.97l0.45,0.26l36.86,21.28c0.53,0.31,0.85,0.86,0.85,1.48c0,0.62-0.32,1.17-0.85,1.48
						l-59.32,34.25C109.24,309.65,108.22,309.92,107.17,309.92z M132.15,251.13l-61.97,35.78c-0.33,0.19-0.53,0.53-0.53,0.91
						c0,0.38,0.2,0.72,0.53,0.91l34.34,19.83c1.6,0.92,3.69,0.92,5.29,0l59.32-34.25c0.33-0.19,0.53-0.53,0.53-0.91
						c0-0.38-0.2-0.72-0.53-0.91L132.15,251.13z"/>
				</g>
				<g>
					<g>
						
							<linearGradient id="SVGID_28_" gradientUnits="userSpaceOnUse" x1="2334.6316" y1="231.8577" x2="2410.9346" y2="231.8577" gradientTransform="matrix(1 0 0 1 -2278.6904 0)">
							<stop  offset="0" style="stop-color:#C0BFF6"/>
							<stop  offset="0.2938" style="stop-color:#C5C4F7"/>
							<stop  offset="0.6399" style="stop-color:#D3D2F9"/>
							<stop  offset="1" style="stop-color:#E9E9FD"/>
						</linearGradient>
						<path style="fill:url(#SVGID_28_);" d="M132.23,236.6l-8.26-49.03l0.66-0.28l-1-0.57l0,0.01c-0.19-0.13-0.47-0.12-0.77,0.05
							l-66.05,38.13c-0.54,0.31-0.95,1.12-0.86,1.68l8.33,49.42c0.04,0.26,0.17,0.43,0.35,0.5l0,0l0.98,0.56l0.17-0.91l-0.06,0.02
							l65.65-37.9C131.91,237.97,132.33,237.16,132.23,236.6z"/>
						
							<linearGradient id="SVGID_29_" gradientUnits="userSpaceOnUse" x1="2334.6321" y1="251.4259" x2="2347.7341" y2="251.4259" gradientTransform="matrix(1 0 0 1 -2278.6904 0)">
							<stop  offset="0" style="stop-color:#5761D7"/>
							<stop  offset="0.1779" style="stop-color:#5C66D9"/>
							<stop  offset="0.3876" style="stop-color:#6A73DF"/>
							<stop  offset="0.6134" style="stop-color:#8289E8"/>
							<stop  offset="0.849" style="stop-color:#A3A7F5"/>
							<stop  offset="1" style="stop-color:#BCBEFF"/>
						</linearGradient>
						<path style="fill:url(#SVGID_29_);" d="M57.18,226.25l-1.09-0.48c-0.12,0.28-0.18,0.57-0.14,0.82l8.33,49.42
							c0.04,0.26,0.17,0.43,0.35,0.5l0,0l0.98,0.56l0.17-0.91l-0.06,0.02l3.32-1.92L57.18,226.25z"/>
						<path style="fill:#24126A;" d="M132.41,238.88l-66.05,38.13c-0.51,0.29-0.95,0.12-1.04-0.4l-8.33-49.42
							c-0.1-0.56,0.32-1.36,0.86-1.68l66.05-38.13c0.51-0.29,0.95-0.12,1.04,0.4l8.33,49.42
							C133.36,237.76,132.95,238.56,132.41,238.88z"/>
						<g style="opacity:0.51;">
							<polygon style="fill:#453C9E;" points="123.04,190.53 59.37,227.28 67.26,273.83 130.89,237.1 							"/>
						</g>
					</g>
					<g>
						
							<linearGradient id="SVGID_30_" gradientUnits="userSpaceOnUse" x1="2344.8545" y1="273.4229" x2="2452.6191" y2="273.4229" gradientTransform="matrix(1 0 0 1 -2278.6904 0)">
							<stop  offset="0" style="stop-color:#5761D7"/>
							<stop  offset="0.1779" style="stop-color:#5C66D9"/>
							<stop  offset="0.3876" style="stop-color:#6A73DF"/>
							<stop  offset="0.6134" style="stop-color:#8289E8"/>
							<stop  offset="0.849" style="stop-color:#A3A7F5"/>
							<stop  offset="1" style="stop-color:#BCBEFF"/>
						</linearGradient>
						<path style="fill:url(#SVGID_30_);" d="M173.93,262.27l-3.6,1.88l-36.14-20.87c-0.6-0.35-1.66-0.31-2.36,0.1l-62.34,35.99
							c-0.6-0.33-3.32-1.64-3.32-1.64l1.32,3.44l0.01,0c0.05,0.15,0.17,0.3,0.37,0.41l38.07,21.98c0.6,0.35,1.66,0.31,2.36-0.1
							l63.79-36.83c0.29-0.17,0.46-0.37,0.54-0.57l0,0L173.93,262.27z"/>
						
							<linearGradient id="SVGID_31_" gradientUnits="userSpaceOnUse" x1="2381.0637" y1="269.8296" x2="2488.8857" y2="269.8296" gradientTransform="matrix(1 0 0 1 -2278.6904 0)">
							<stop  offset="0" style="stop-color:#C0BFF6"/>
							<stop  offset="0.2938" style="stop-color:#C5C4F7"/>
							<stop  offset="0.6399" style="stop-color:#D3D2F9"/>
							<stop  offset="1" style="stop-color:#E9E9FD"/>
						</linearGradient>
						<path style="fill:url(#SVGID_31_);" d="M173.37,262.87l-65.38,37.75c-0.72,0.41-1.8,0.46-2.42,0.1l-39.01-22.52
							c-0.62-0.36-0.54-0.98,0.17-1.4l65.38-37.75c0.72-0.41,1.8-0.46,2.42-0.1l39.01,22.53
							C174.16,261.83,174.09,262.45,173.37,262.87z"/>
						<path style="fill:#FFFFFF;" d="M173.37,262.49l-65.38,37.75c-0.72,0.41-1.8,0.46-2.42,0.1l-39.01-22.52
							c-0.2-0.12-0.32-0.26-0.38-0.42c-0.1,0.29,0.02,0.59,0.38,0.8l39.01,22.52c0.62,0.36,1.7,0.31,2.42-0.1l65.38-37.75
							c0.48-0.28,0.67-0.65,0.55-0.97C173.85,262.11,173.67,262.32,173.37,262.49z"/>
						<path style="fill:#2842A2;" d="M88.27,292.45v-0.72c0-0.07,0.04-0.1,0.09-0.07l2.53,1.46c0.05,0.03,0.09,0.11,0.09,0.18v0.72
							c0,0.07-0.04,0.1-0.09,0.07l-2.53-1.46C88.31,292.6,88.27,292.52,88.27,292.45z"/>
						<path style="fill:#2842A2;" d="M92.05,294.63v-0.72c0-0.07,0.04-0.1,0.09-0.07l2.53,1.46c0.05,0.03,0.09,0.11,0.09,0.18v0.72
							c0,0.07-0.04,0.1-0.09,0.07l-2.53-1.46C92.09,294.78,92.05,294.7,92.05,294.63z"/>
						<path style="fill:#ADB1F2;" d="M76.73,276.08l54.33-31.37c0.36-0.21,0.81-0.21,1.17,0l19.35,11.19c0.28,0.16,0.28,0.56,0,0.72
							l-54.3,31.35c-0.36,0.21-0.81,0.21-1.17,0L76.73,276.8C76.45,276.64,76.45,276.24,76.73,276.08z"/>
						<path style="fill:#9198DB;" d="M76.73,276.8l0.19,0.11l54.14-31.26c0.36-0.21,0.81-0.21,1.17,0l19.15,11.08l0.19-0.11
							c0.28-0.16,0.28-0.56,0-0.72l-19.35-11.19c-0.36-0.21-0.81-0.21-1.17,0l-54.33,31.37C76.45,276.24,76.45,276.64,76.73,276.8z"
							/>
						<g>
							<polygon style="fill:#24126A;" points="133.69,247.55 86.5,274.79 84.4,273.58 131.59,246.34 							"/>
							<polygon style="fill:#24126A;" points="138.84,250.52 94.57,276.07 92.47,274.86 136.74,249.31 							"/>
							<polygon style="fill:#24126A;" points="142.19,252.45 90.07,282.54 87.97,281.33 140.09,251.24 							"/>
							<polygon style="fill:#24126A;" points="145.54,254.39 93.42,284.48 91.32,283.26 143.44,253.17 							"/>
							<polygon style="fill:#24126A;" points="148.89,256.32 96.77,286.41 94.67,285.2 146.79,255.11 							"/>
							<polygon style="fill:#24126A;" points="83.65,276.44 81.55,277.65 79.45,276.44 81.55,275.23 							"/>
							<polygon style="fill:#24126A;" points="91.05,278.11 86.69,280.62 84.59,279.41 88.95,276.9 							"/>
						</g>
						
							<linearGradient id="SVGID_32_" gradientUnits="userSpaceOnUse" x1="2399.3232" y1="275.9505" x2="2426.9229" y2="275.9505" gradientTransform="matrix(1 0 0 1 -2278.6904 0)">
							<stop  offset="0" style="stop-color:#C0BFF6"/>
							<stop  offset="0.2938" style="stop-color:#C5C4F7"/>
							<stop  offset="0.6399" style="stop-color:#D3D2F9"/>
							<stop  offset="1" style="stop-color:#E9E9FD"/>
						</linearGradient>
						<path style="fill:url(#SVGID_32_);" d="M133.15,283.67l14.65-8.46c0.57-0.33,0.57-0.87,0-1.2l-10.02-5.78
							c-0.57-0.33-1.5-0.33-2.07,0l-14.65,8.46c-0.57,0.33-0.57,0.87,0,1.2l10.02,5.78C131.65,284,132.58,284,133.15,283.67z"/>
						<path style="fill:#9198DB;" d="M121.06,277.18l14.65-8.46c0.57-0.33,1.5-0.33,2.07,0l10.02,5.78c0.18,0.1,0.29,0.22,0.36,0.35
							c0.15-0.29,0.04-0.61-0.36-0.84l-10.02-5.78c-0.57-0.33-1.5-0.33-2.07,0l-14.65,8.46c-0.4,0.23-0.51,0.55-0.36,0.84
							C120.77,277.4,120.89,277.28,121.06,277.18z"/>
					</g>
				</g>
				<g style="opacity:0.11;">
					<defs>
						<polygon id="SVGID_9_" style="opacity:0.11;" points="123.04,190.53 59.37,227.28 67.26,273.83 130.89,237.1 						"/>
					</defs>
					<clipPath id="SVGID_33_">
						<use xlink:href="#SVGID_9_"  style="overflow:visible;"/>
					</clipPath>
					<g style="clip-path:url(#SVGID_33_);">
						
							<linearGradient id="SVGID_34_" gradientUnits="userSpaceOnUse" x1="2339.8696" y1="245.9312" x2="2447.6917" y2="245.9312" gradientTransform="matrix(1 0 0 1 -2278.6904 0)">
							<stop  offset="0" style="stop-color:#C0BFF6"/>
							<stop  offset="0.2938" style="stop-color:#C5C4F7"/>
							<stop  offset="0.6399" style="stop-color:#D3D2F9"/>
							<stop  offset="1" style="stop-color:#E9E9FD"/>
						</linearGradient>
						<path style="fill:url(#SVGID_34_);" d="M132.18,238.97L66.8,276.71c-0.72,0.41-1.8,0.46-2.42,0.1l-39.01-22.52
							c-0.62-0.36-0.54-0.98,0.17-1.4l65.38-37.75c0.72-0.41,1.8-0.46,2.42-0.1l39.01,22.53
							C132.97,237.93,132.89,238.55,132.18,238.97z"/>
						
							<linearGradient id="SVGID_35_" gradientUnits="userSpaceOnUse" x1="2332.7732" y1="238.0163" x2="2360.3726" y2="238.0163" gradientTransform="matrix(1 0 0 1 -2278.6904 0)">
							<stop  offset="0" style="stop-color:#C0BFF6"/>
							<stop  offset="0.2938" style="stop-color:#C5C4F7"/>
							<stop  offset="0.6399" style="stop-color:#D3D2F9"/>
							<stop  offset="1" style="stop-color:#E9E9FD"/>
						</linearGradient>
						<path style="fill:url(#SVGID_35_);" d="M66.6,245.74l14.65-8.46c0.57-0.33,0.57-0.87,0-1.2l-10.02-5.78
							c-0.57-0.33-1.5-0.33-2.07,0l-14.65,8.46c-0.57,0.33-0.57,0.87,0,1.2l10.02,5.78C65.1,246.07,66.03,246.07,66.6,245.74z"/>
						<path style="fill:#9198DB;" d="M54.51,239.24l14.65-8.46c0.57-0.33,1.5-0.33,2.07,0l10.02,5.78c0.18,0.1,0.29,0.22,0.36,0.35
							c0.15-0.29,0.04-0.61-0.36-0.84l-10.02-5.78c-0.57-0.33-1.5-0.33-2.07,0l-14.65,8.46c-0.4,0.23-0.51,0.55-0.36,0.84
							C54.22,239.47,54.34,239.35,54.51,239.24z"/>
						<g>
							<path style="fill:#ADB1F2;" d="M48.07,258.95l54.33-31.37c0.36-0.21,0.81-0.21,1.17,0l19.35,11.19
								c0.28,0.16,0.28,0.56,0,0.72l-54.31,31.35c-0.36,0.21-0.81,0.21-1.17,0l-19.37-11.18C47.79,259.52,47.79,259.11,48.07,258.95
								z"/>
							<path style="fill:#9198DB;" d="M48.07,259.68l0.19,0.11l54.14-31.26c0.36-0.21,0.81-0.21,1.17,0l19.15,11.08l0.19-0.11
								c0.28-0.16,0.28-0.56,0-0.72l-19.35-11.19c-0.36-0.21-0.81-0.21-1.17,0l-54.33,31.37C47.79,259.11,47.79,259.52,48.07,259.68
								z"/>
							<g>
								<polygon style="fill:#24126A;" points="117.86,238.02 70.53,265.34 72.4,266.43 119.73,239.1 								"/>
								<polygon style="fill:#24126A;" points="112.87,235.14 67.88,261.11 69.76,262.19 114.74,236.22 								"/>
								<polygon style="fill:#24126A;" points="64.52,263.05 60.32,265.48 62.2,266.56 66.4,264.13 								"/>
								<polygon style="fill:#24126A;" points="68.23,266.67 65.31,268.36 67.18,269.44 70.11,267.75 								"/>
								<polygon style="fill:#24126A;" points="109.75,233.33 57.2,263.67 59.07,264.75 111.62,234.42 								"/>
								<polygon style="fill:#24126A;" points="106.62,231.53 54.07,261.87 55.95,262.95 108.5,232.61 								"/>
								<polygon style="fill:#24126A;" points="103.5,229.72 50.95,260.06 52.82,261.15 105.37,230.81 								"/>
							</g>
						</g>
					</g>
				</g>
			</g>
		</g>
	</g>
	<g>
		<polygon style="fill:#42E8E0;" points="83.34,256.08 88.49,253.11 88.64,254 83.49,256.98 		"/>
		<polygon style="fill:#42E8E0;" points="89.32,252.63 92.13,251.01 92.28,251.9 89.47,253.53 		"/>
		<polygon style="fill:#42E8E0;" points="96.5,248.49 98.53,247.32 98.68,248.21 96.65,249.38 		"/>
		<polygon style="fill:#42E8E0;" points="95.01,249.35 95.71,248.94 95.86,249.84 95.17,250.24 		"/>
		<polygon style="fill:#42E8E0;" points="92.97,250.53 94.23,249.8 94.38,250.69 93.12,251.42 		"/>
		<polygon style="fill:#42E8E0;" points="87.42,249.24 89.45,248.07 89.6,248.96 87.57,250.14 		"/>
		<polygon style="fill:#42E8E0;" points="82.65,252 86.63,249.7 86.78,250.59 82.8,252.89 		"/>
		<g>
			<polygon style="fill:#42E8E0;" points="88.36,237.5 92.34,235.2 92.49,236.1 88.51,238.4 			"/>
			<polygon style="fill:#42E8E0;" points="86.31,238.68 87.57,237.96 87.72,238.85 86.46,239.58 			"/>
		</g>
		<polygon style="fill:#42E8E0;" points="89.02,241.59 93,239.29 93.15,240.19 89.17,242.49 		"/>
		<polygon style="fill:#42E8E0;" points="86.97,242.78 88.23,242.05 88.38,242.94 87.12,243.67 		"/>
		<polygon style="fill:#42E8E0;" points="85.42,219.84 77.92,224.17 77.77,223.28 85.27,218.95 		"/>
		<polygon style="fill:#42E8E0;" points="88.06,218.32 86.21,219.39 86.06,218.49 87.91,217.42 		"/>
		<polygon style="fill:#42E8E0;" points="101.23,217.45 93.74,221.78 93.59,220.88 101.08,216.55 		"/>
		<polygon style="fill:#42E8E0;" points="103.87,215.92 102.02,216.99 101.87,216.1 103.72,215.03 		"/>
		<polygon style="fill:#42E8E0;" points="80.3,225.04 78.27,226.22 78.12,225.32 80.15,224.15 		"/>
		<polygon style="fill:#42E8E0;" points="92.66,222.39 90.62,223.57 90.47,222.67 92.5,221.5 		"/>
		<polygon style="fill:#42E8E0;" points="85.07,222.29 81.09,224.59 80.94,223.69 84.91,221.39 		"/>
		<polygon style="fill:#42E8E0;" points="87.11,221.11 85.85,221.83 85.7,220.94 86.96,220.21 		"/>
		<polygon style="fill:#42E8E0;" points="91.92,218.34 87.94,220.63 87.79,219.74 91.76,217.44 		"/>
		<polygon style="fill:#42E8E0;" points="93.96,217.15 92.7,217.88 92.55,216.99 93.81,216.26 		"/>
		<polygon style="fill:#42E8E0;" points="92.31,220.35 90.28,221.52 90.13,220.63 92.16,219.45 		"/>
		<polygon style="fill:#42E8E0;" points="97.08,217.59 93.1,219.89 92.95,219 96.92,216.7 		"/>
		<polygon style="fill:#42E8E0;" points="99.12,216.41 97.86,217.14 97.71,216.25 98.97,215.52 		"/>
		<polygon style="fill:#42E8E0;" points="82.77,225.86 78.61,228.26 78.46,227.37 82.62,224.96 		"/>
		<polygon style="fill:#42E8E0;" points="86.56,223.67 83.56,225.4 83.41,224.51 86.41,222.77 		"/>
		<polygon style="fill:#42E8E0;" points="89.38,222.04 87.35,223.21 87.2,222.32 89.23,221.14 		"/>
		<polygon style="fill:#42E8E0;" points="109.07,212.92 104.92,215.32 104.77,214.43 108.92,212.03 		"/>
		<polygon style="fill:#42E8E0;" points="112.87,210.73 109.86,212.47 109.71,211.57 112.71,209.84 		"/>
		<polygon style="fill:#42E8E0;" points="115.68,209.1 113.65,210.28 113.5,209.38 115.53,208.21 		"/>
		<polygon style="fill:#42E8E0;" points="107.45,239.92 111.61,237.52 111.76,238.41 107.6,240.82 		"/>
		<polygon style="fill:#42E8E0;" points="103.66,242.11 106.66,240.38 106.81,241.27 103.81,243.01 		"/>
		<polygon style="fill:#42E8E0;" points="100.84,243.74 102.87,242.57 103.02,243.46 100.99,244.64 		"/>
		<polygon style="fill:#42E8E0;" points="106.07,242.97 110.23,240.57 110.38,241.46 106.22,243.86 		"/>
		<polygon style="fill:#42E8E0;" points="102.28,245.16 105.28,243.42 105.44,244.32 102.43,246.06 		"/>
		<polygon style="fill:#42E8E0;" points="99.46,246.79 101.49,245.62 101.64,246.51 99.61,247.68 		"/>
		<polygon style="fill:#42E8E0;" points="89.29,239.19 90.7,238.38 90.85,239.27 89.45,240.09 		"/>
		<polygon style="fill:#42E8E0;" points="86.65,240.72 88.51,239.65 88.66,240.54 86.8,241.61 		"/>
		<polygon style="fill:#42E8E0;" points="83.14,227.89 78.99,230.29 78.84,229.4 82.99,227 		"/>
		<polygon style="fill:#42E8E0;" points="86.93,225.7 83.93,227.44 83.78,226.54 86.78,224.8 		"/>
		<polygon style="fill:#42E8E0;" points="89.75,224.07 87.72,225.24 87.57,224.35 89.6,223.18 		"/>
		<polygon style="fill:#42E8E0;" points="80.73,231.52 79.33,232.33 79.18,231.44 80.58,230.63 		"/>
		<polygon style="fill:#42E8E0;" points="83.38,230 81.52,231.07 81.37,230.17 83.23,229.1 		"/>
		<polygon style="fill:#42E8E0;" points="87.15,227.82 84.16,229.54 84.01,228.65 87,226.92 		"/>
		<polygon style="fill:#42E8E0;" points="91.2,244.82 92.61,244.01 92.76,244.91 91.35,245.72 		"/>
		<polygon style="fill:#42E8E0;" points="88.56,246.35 90.42,245.28 90.57,246.17 88.71,247.25 		"/>
		<polygon style="fill:#42E8E0;" points="84.79,248.53 87.78,246.81 87.93,247.7 84.94,249.43 		"/>
		<polygon style="fill:#42E8E0;" points="93.34,241.51 96.33,239.78 96.48,240.67 93.49,242.4 		"/>
		<polygon style="fill:#42E8E0;" points="88.45,244.17 92.48,241.84 92.63,242.74 88.61,245.07 		"/>
		<polygon style="fill:#42E8E0;" points="86.41,245.35 87.67,244.63 87.82,245.52 86.56,246.25 		"/>
		<polygon style="fill:#42E8E0;" points="84.44,246.49 85.7,245.76 85.85,246.66 84.59,247.38 		"/>
		<g>
			<polygon style="fill:#42E8E0;" points="84.71,234.94 88.69,232.65 88.84,233.54 84.86,235.84 			"/>
			<polygon style="fill:#42E8E0;" points="82.66,236.13 83.92,235.4 84.08,236.29 82.82,237.02 			"/>
			<polygon style="fill:#42E8E0;" points="84.99,232.54 86.39,231.73 86.54,232.63 85.14,233.44 			"/>
			<polygon style="fill:#42E8E0;" points="89.94,234.18 91.34,233.37 91.49,234.26 90.09,235.07 			"/>
			<polygon style="fill:#42E8E0;" points="91.94,233.02 95.31,231.08 95.46,231.97 92.09,233.92 			"/>
			<polygon style="fill:#42E8E0;" points="95.91,230.74 97.91,229.58 98.06,230.47 96.06,231.63 			"/>
			<polygon style="fill:#42E8E0;" points="82.34,234.07 84.2,233 84.35,233.89 82.5,234.96 			"/>
			<g>
				<polygon style="fill:#42E8E0;" points="82.17,231.97 83.57,231.16 83.72,232.05 82.32,232.86 				"/>
				<polygon style="fill:#42E8E0;" points="79.53,233.5 81.38,232.42 81.53,233.32 79.68,234.39 				"/>
			</g>
			<polygon style="fill:#42E8E0;" points="87.9,235.35 89.16,234.63 89.32,235.52 88.06,236.25 			"/>
			<polygon style="fill:#42E8E0;" points="85.94,236.49 87.2,235.76 87.35,236.66 86.09,237.38 			"/>
		</g>
		<polygon style="fill:#42E8E0;" points="95.62,246.76 99.92,244.27 100.07,245.17 95.77,247.65 		"/>
		<polygon style="fill:#42E8E0;" points="90.8,249.54 94.83,247.21 94.98,248.11 90.96,250.44 		"/>
		<polygon style="fill:#42E8E0;" points="88.76,250.73 90.02,250 90.17,250.89 88.91,251.62 		"/>
		<polygon style="fill:#42E8E0;" points="86.79,251.86 88.05,251.13 88.2,252.03 86.94,252.76 		"/>
		<polygon style="fill:#42E8E0;" points="85.72,252.48 83,254.05 83.15,254.95 85.87,253.38 		"/>
	</g>
</g>
<g>
	<g>
		<g>
			<g>
				<g>
					<path style="fill:#8686F2;" d="M495.12,309.92c-1.04,0-2.07-0.27-2.97-0.79l-59.32-34.25c-0.53-0.31-0.85-0.86-0.85-1.48
						c0-0.62,0.32-1.17,0.85-1.48l37.31-21.54l0.16,0.09l62.13,35.87c0.54,0.31,0.85,0.86,0.85,1.48c0,0.62-0.32,1.17-0.85,1.48
						l-34.34,19.83C497.19,309.65,496.17,309.92,495.12,309.92z M492.47,308.56c1.6,0.92,3.69,0.92,5.29,0l34.34-19.83
						c0.33-0.19,0.53-0.53,0.53-0.91c0-0.38-0.2-0.72-0.53-0.91l-61.97-35.78l-0.12,0.07l-36.86,21.28
						c-0.33,0.19-0.53,0.53-0.53,0.91c0,0.38,0.2,0.72,0.53,0.91L492.47,308.56z"/>
				</g>
				<g>
					<g>
						
							<linearGradient id="SVGID_36_" gradientUnits="userSpaceOnUse" x1="88.1912" y1="231.8577" x2="164.4941" y2="231.8577" gradientTransform="matrix(-1 0 0 1 634.5401 0)">
							<stop  offset="0" style="stop-color:#C0BFF6"/>
							<stop  offset="0.2938" style="stop-color:#C5C4F7"/>
							<stop  offset="0.6399" style="stop-color:#D3D2F9"/>
							<stop  offset="1" style="stop-color:#E9E9FD"/>
						</linearGradient>
						<path style="fill:url(#SVGID_36_);" d="M470.06,236.6l8.26-49.03l-0.66-0.28l1-0.57l0,0.01c0.19-0.13,0.47-0.12,0.77,0.05
							l66.05,38.13c0.54,0.31,0.95,1.12,0.86,1.68L538,276.01c-0.04,0.26-0.17,0.43-0.35,0.5l0,0l-0.98,0.56l-0.17-0.91l0.06,0.02
							l-65.65-37.9C470.38,237.97,469.96,237.16,470.06,236.6z"/>
						
							<linearGradient id="SVGID_37_" gradientUnits="userSpaceOnUse" x1="88.1918" y1="251.4259" x2="101.2937" y2="251.4259" gradientTransform="matrix(-1 0 0 1 634.5401 0)">
							<stop  offset="0" style="stop-color:#5761D7"/>
							<stop  offset="0.1779" style="stop-color:#5C66D9"/>
							<stop  offset="0.3876" style="stop-color:#6A73DF"/>
							<stop  offset="0.6134" style="stop-color:#8289E8"/>
							<stop  offset="0.849" style="stop-color:#A3A7F5"/>
							<stop  offset="1" style="stop-color:#BCBEFF"/>
						</linearGradient>
						<path style="fill:url(#SVGID_37_);" d="M545.11,226.25l1.09-0.48c0.12,0.28,0.18,0.57,0.14,0.82L538,276.01
							c-0.04,0.26-0.17,0.43-0.35,0.5l0,0l-0.98,0.56l-0.17-0.91l0.06,0.02l-3.32-1.92L545.11,226.25z"/>
						<path style="fill:#24126A;" d="M469.88,238.88l66.05,38.13c0.51,0.29,0.95,0.12,1.04-0.4l8.33-49.42
							c0.1-0.56-0.32-1.36-0.86-1.68l-66.05-38.13c-0.51-0.29-0.95-0.12-1.04,0.4l-8.33,49.42
							C468.93,237.76,469.34,238.56,469.88,238.88z"/>
						<g style="opacity:0.51;">
							<polygon style="fill:#453C9E;" points="479.25,190.53 542.92,227.28 535.03,273.83 471.4,237.1 							"/>
						</g>
					</g>
					<g>
						
							<linearGradient id="SVGID_38_" gradientUnits="userSpaceOnUse" x1="98.4141" y1="273.4229" x2="206.1787" y2="273.4229" gradientTransform="matrix(-1 0 0 1 634.5401 0)">
							<stop  offset="0" style="stop-color:#5761D7"/>
							<stop  offset="0.1779" style="stop-color:#5C66D9"/>
							<stop  offset="0.3876" style="stop-color:#6A73DF"/>
							<stop  offset="0.6134" style="stop-color:#8289E8"/>
							<stop  offset="0.849" style="stop-color:#A3A7F5"/>
							<stop  offset="1" style="stop-color:#BCBEFF"/>
						</linearGradient>
						<path style="fill:url(#SVGID_38_);" d="M428.36,262.27l3.6,1.88l36.14-20.87c0.6-0.35,1.66-0.31,2.36,0.1l62.34,35.99
							c0.6-0.33,3.32-1.64,3.32-1.64l-1.32,3.44c0,0,0,0-0.01,0c-0.05,0.15-0.17,0.3-0.37,0.41l-38.07,21.98
							c-0.6,0.35-1.66,0.31-2.36-0.1l-63.79-36.83c-0.29-0.17-0.46-0.37-0.54-0.57l-0.01,0L428.36,262.27z"/>
						
							<linearGradient id="SVGID_39_" gradientUnits="userSpaceOnUse" x1="134.6233" y1="269.8296" x2="242.4454" y2="269.8296" gradientTransform="matrix(-1 0 0 1 634.5401 0)">
							<stop  offset="0" style="stop-color:#C0BFF6"/>
							<stop  offset="0.2938" style="stop-color:#C5C4F7"/>
							<stop  offset="0.6399" style="stop-color:#D3D2F9"/>
							<stop  offset="1" style="stop-color:#E9E9FD"/>
						</linearGradient>
						<path style="fill:url(#SVGID_39_);" d="M428.92,262.87l65.38,37.75c0.72,0.41,1.8,0.46,2.42,0.1l39.01-22.52
							c0.62-0.36,0.54-0.98-0.17-1.4l-65.38-37.75c-0.72-0.41-1.8-0.46-2.42-0.1l-39.01,22.53
							C428.13,261.83,428.2,262.45,428.92,262.87z"/>
						<path style="fill:#FFFFFF;" d="M428.92,262.49l65.38,37.75c0.72,0.41,1.8,0.46,2.42,0.1l39.01-22.52
							c0.2-0.12,0.32-0.26,0.38-0.42c0.1,0.29-0.02,0.59-0.38,0.8l-39.01,22.52c-0.62,0.36-1.7,0.31-2.42-0.1l-65.38-37.75
							c-0.48-0.28-0.67-0.65-0.55-0.97C428.44,262.11,428.62,262.32,428.92,262.49z"/>
						<path style="fill:#2842A2;" d="M514.02,292.45v-0.72c0-0.07-0.04-0.1-0.09-0.07l-2.53,1.46c-0.05,0.03-0.09,0.11-0.09,0.18
							v0.72c0,0.07,0.04,0.1,0.09,0.07l2.53-1.46C513.98,292.6,514.02,292.52,514.02,292.45z"/>
						<path style="fill:#2842A2;" d="M510.24,294.63v-0.72c0-0.07-0.04-0.1-0.09-0.07l-2.53,1.46c-0.05,0.03-0.09,0.11-0.09,0.18
							v0.72c0,0.07,0.04,0.1,0.09,0.07l2.53-1.46C510.2,294.78,510.24,294.7,510.24,294.63z"/>
						<path style="fill:#ADB1F2;" d="M525.56,276.08l-54.33-31.37c-0.36-0.21-0.81-0.21-1.17,0l-19.35,11.19
							c-0.28,0.16-0.28,0.56,0,0.72l54.31,31.35c0.36,0.21,0.81,0.21,1.17,0l19.37-11.18C525.84,276.64,525.84,276.24,525.56,276.08
							z"/>
						<path style="fill:#9198DB;" d="M525.56,276.8l-0.19,0.11l-54.14-31.26c-0.36-0.21-0.81-0.21-1.17,0l-19.15,11.08l-0.19-0.11
							c-0.28-0.16-0.28-0.56,0-0.72l19.35-11.19c0.36-0.21,0.81-0.21,1.17,0l54.33,31.37C525.84,276.24,525.84,276.64,525.56,276.8z
							"/>
						<g>
							<polygon style="fill:#24126A;" points="468.6,247.55 515.79,274.79 517.89,273.58 470.7,246.34 							"/>
							<polygon style="fill:#24126A;" points="463.45,250.52 507.72,276.07 509.82,274.86 465.55,249.31 							"/>
							<polygon style="fill:#24126A;" points="460.1,252.45 512.22,282.54 514.32,281.33 462.2,251.24 							"/>
							<polygon style="fill:#24126A;" points="456.75,254.39 508.87,284.48 510.97,283.26 458.85,253.17 							"/>
							<polygon style="fill:#24126A;" points="453.4,256.32 505.52,286.41 507.62,285.2 455.5,255.11 							"/>
							<polygon style="fill:#24126A;" points="518.64,276.44 520.74,277.65 522.84,276.44 520.74,275.23 							"/>
							<polygon style="fill:#24126A;" points="511.24,278.11 515.6,280.62 517.7,279.41 513.34,276.9 							"/>
						</g>
						
							<linearGradient id="SVGID_40_" gradientUnits="userSpaceOnUse" x1="152.8829" y1="275.9505" x2="180.4823" y2="275.9505" gradientTransform="matrix(-1 0 0 1 634.5401 0)">
							<stop  offset="0" style="stop-color:#C0BFF6"/>
							<stop  offset="0.2938" style="stop-color:#C5C4F7"/>
							<stop  offset="0.6399" style="stop-color:#D3D2F9"/>
							<stop  offset="1" style="stop-color:#E9E9FD"/>
						</linearGradient>
						<path style="fill:url(#SVGID_40_);" d="M469.14,283.67l-14.65-8.46c-0.57-0.33-0.57-0.87,0-1.2l10.02-5.78
							c0.57-0.33,1.5-0.33,2.07,0l14.65,8.46c0.57,0.33,0.57,0.87,0,1.2l-10.02,5.78C470.64,284,469.71,284,469.14,283.67z"/>
						<path style="fill:#9198DB;" d="M481.23,277.18l-14.65-8.46c-0.57-0.33-1.5-0.33-2.07,0l-10.02,5.78
							c-0.18,0.1-0.29,0.22-0.36,0.35c-0.15-0.29-0.04-0.61,0.36-0.84l10.02-5.78c0.57-0.33,1.5-0.33,2.07,0l14.65,8.46
							c0.4,0.23,0.51,0.55,0.36,0.84C481.52,277.4,481.4,277.28,481.23,277.18z"/>
					</g>
				</g>
				<g style="opacity:0.11;">
					<defs>
						<polygon id="SVGID_8_" style="opacity:0.11;" points="479.25,190.53 542.92,227.28 535.03,273.83 471.4,237.1 						"/>
					</defs>
					<clipPath id="SVGID_41_">
						<use xlink:href="#SVGID_8_"  style="overflow:visible;"/>
					</clipPath>
					<g style="clip-path:url(#SVGID_41_);">
						
							<linearGradient id="SVGID_42_" gradientUnits="userSpaceOnUse" x1="93.4291" y1="245.9312" x2="201.2512" y2="245.9312" gradientTransform="matrix(-1 0 0 1 634.5401 0)">
							<stop  offset="0" style="stop-color:#C0BFF6"/>
							<stop  offset="0.2938" style="stop-color:#C5C4F7"/>
							<stop  offset="0.6399" style="stop-color:#D3D2F9"/>
							<stop  offset="1" style="stop-color:#E9E9FD"/>
						</linearGradient>
						<path style="fill:url(#SVGID_42_);" d="M470.11,238.97l65.38,37.75c0.72,0.41,1.8,0.46,2.42,0.1l39.01-22.52
							c0.62-0.36,0.54-0.98-0.17-1.4l-65.38-37.75c-0.72-0.41-1.8-0.46-2.42-0.1l-39.01,22.53
							C469.32,237.93,469.4,238.55,470.11,238.97z"/>
						
							<linearGradient id="SVGID_43_" gradientUnits="userSpaceOnUse" x1="86.3326" y1="238.0163" x2="113.9321" y2="238.0163" gradientTransform="matrix(-1 0 0 1 634.5401 0)">
							<stop  offset="0" style="stop-color:#C0BFF6"/>
							<stop  offset="0.2938" style="stop-color:#C5C4F7"/>
							<stop  offset="0.6399" style="stop-color:#D3D2F9"/>
							<stop  offset="1" style="stop-color:#E9E9FD"/>
						</linearGradient>
						<path style="fill:url(#SVGID_43_);" d="M535.69,245.74l-14.65-8.46c-0.57-0.33-0.57-0.87,0-1.2l10.02-5.78
							c0.57-0.33,1.5-0.33,2.07,0l14.65,8.46c0.57,0.33,0.57,0.87,0,1.2l-10.02,5.78C537.19,246.07,536.26,246.07,535.69,245.74z"/>
						<path style="fill:#9198DB;" d="M547.78,239.24l-14.65-8.46c-0.57-0.33-1.5-0.33-2.07,0l-10.02,5.78
							c-0.18,0.1-0.29,0.22-0.36,0.35c-0.15-0.29-0.04-0.61,0.36-0.84l10.02-5.78c0.57-0.33,1.5-0.33,2.07,0l14.65,8.46
							c0.4,0.23,0.51,0.55,0.36,0.84C548.07,239.47,547.95,239.35,547.78,239.24z"/>
						<g>
							<path style="fill:#ADB1F2;" d="M554.22,258.95l-54.33-31.37c-0.36-0.21-0.81-0.21-1.17,0l-19.35,11.19
								c-0.28,0.16-0.28,0.56,0,0.72l54.31,31.35c0.36,0.21,0.81,0.21,1.17,0l19.37-11.18C554.5,259.52,554.5,259.11,554.22,258.95z
								"/>
							<path style="fill:#9198DB;" d="M554.22,259.68l-0.19,0.11l-54.14-31.26c-0.36-0.21-0.81-0.21-1.17,0l-19.15,11.08l-0.19-0.11
								c-0.28-0.16-0.28-0.56,0-0.72l19.35-11.19c0.36-0.21,0.81-0.21,1.17,0l54.33,31.37C554.5,259.11,554.5,259.52,554.22,259.68z
								"/>
							<g>
								<polygon style="fill:#24126A;" points="484.43,238.02 531.76,265.34 529.89,266.43 482.56,239.1 								"/>
								<polygon style="fill:#24126A;" points="489.42,235.14 534.41,261.11 532.53,262.19 487.55,236.22 								"/>
								<polygon style="fill:#24126A;" points="537.77,263.05 541.97,265.48 540.09,266.56 535.89,264.13 								"/>
								<polygon style="fill:#24126A;" points="534.06,266.67 536.98,268.36 535.11,269.44 532.18,267.75 								"/>
								<polygon style="fill:#24126A;" points="492.55,233.33 545.09,263.67 543.22,264.75 490.67,234.42 								"/>
								<polygon style="fill:#24126A;" points="495.67,231.53 548.22,261.87 546.34,262.95 493.8,232.61 								"/>
								<polygon style="fill:#24126A;" points="498.79,229.72 551.34,260.06 549.47,261.15 496.92,230.81 								"/>
							</g>
						</g>
					</g>
				</g>
			</g>
		</g>
	</g>
	<g>
		<polygon style="fill:#42E8E0;" points="493.27,208.01 498.42,210.99 498.57,210.09 493.42,207.12 		"/>
		<polygon style="fill:#42E8E0;" points="499.25,211.46 502.06,213.08 502.21,212.19 499.4,210.57 		"/>
		<polygon style="fill:#42E8E0;" points="506.42,215.61 508.45,216.78 508.61,215.88 506.57,214.71 		"/>
		<polygon style="fill:#42E8E0;" points="504.94,214.75 505.64,215.15 505.79,214.26 505.09,213.85 		"/>
		<polygon style="fill:#42E8E0;" points="502.89,213.57 504.16,214.29 504.31,213.4 503.05,212.67 		"/>
		<polygon style="fill:#42E8E0;" points="497.35,214.85 499.38,216.02 499.53,215.13 497.5,213.96 		"/>
		<polygon style="fill:#42E8E0;" points="492.58,212.1 496.56,214.4 496.71,213.5 492.73,211.2 		"/>
		<g>
			<polygon style="fill:#42E8E0;" points="498.28,226.59 502.26,228.89 502.41,228 498.44,225.7 			"/>
			<polygon style="fill:#42E8E0;" points="496.24,225.41 497.5,226.14 497.65,225.24 496.39,224.52 			"/>
		</g>
		<polygon style="fill:#42E8E0;" points="498.95,222.5 502.93,224.8 503.08,223.91 499.1,221.61 		"/>
		<polygon style="fill:#42E8E0;" points="496.9,221.32 498.16,222.05 498.31,221.15 497.05,220.42 		"/>
		<polygon style="fill:#42E8E0;" points="495.35,244.25 487.85,239.92 487.7,240.81 495.2,245.15 		"/>
		<polygon style="fill:#42E8E0;" points="497.99,245.78 496.13,244.71 495.98,245.6 497.84,246.67 		"/>
		<polygon style="fill:#42E8E0;" points="511.16,246.65 503.67,242.32 503.51,243.21 511.01,247.54 		"/>
		<polygon style="fill:#42E8E0;" points="513.8,248.17 511.95,247.1 511.8,248 513.65,249.07 		"/>
		<polygon style="fill:#42E8E0;" points="490.23,239.05 488.2,237.88 488.05,238.77 490.08,239.95 		"/>
		<polygon style="fill:#42E8E0;" points="502.58,241.7 500.55,240.53 500.4,241.42 502.43,242.6 		"/>
		<polygon style="fill:#42E8E0;" points="494.99,241.81 491.01,239.51 490.86,240.4 494.84,242.7 		"/>
		<polygon style="fill:#42E8E0;" points="497.04,242.99 495.78,242.26 495.63,243.15 496.89,243.88 		"/>
		<polygon style="fill:#42E8E0;" points="501.84,245.76 497.86,243.46 497.71,244.35 501.69,246.65 		"/>
		<polygon style="fill:#42E8E0;" points="503.89,246.94 502.63,246.21 502.48,247.11 503.74,247.84 		"/>
		<polygon style="fill:#42E8E0;" points="502.24,243.74 500.21,242.57 500.06,243.47 502.09,244.64 		"/>
		<polygon style="fill:#42E8E0;" points="507,246.5 503.02,244.2 502.87,245.09 506.85,247.39 		"/>
		<polygon style="fill:#42E8E0;" points="509.05,247.68 507.79,246.95 507.64,247.85 508.9,248.58 		"/>
		<polygon style="fill:#42E8E0;" points="492.7,238.24 488.54,235.83 488.39,236.73 492.55,239.13 		"/>
		<polygon style="fill:#42E8E0;" points="496.49,240.43 493.48,238.69 493.33,239.58 496.34,241.32 		"/>
		<polygon style="fill:#42E8E0;" points="499.31,242.06 497.28,240.88 497.12,241.78 499.16,242.95 		"/>
		<polygon style="fill:#42E8E0;" points="519,251.17 514.85,248.77 514.69,249.66 518.85,252.07 		"/>
		<polygon style="fill:#42E8E0;" points="522.79,253.36 519.79,251.63 519.64,252.52 522.64,254.26 		"/>
		<polygon style="fill:#42E8E0;" points="525.61,254.99 523.58,253.82 523.43,254.71 525.46,255.88 		"/>
		<polygon style="fill:#42E8E0;" points="517.38,224.17 521.53,226.57 521.68,225.68 517.53,223.28 		"/>
		<polygon style="fill:#42E8E0;" points="513.59,221.98 516.59,223.72 516.74,222.82 513.74,221.09 		"/>
		<polygon style="fill:#42E8E0;" points="510.77,220.35 512.8,221.53 512.95,220.63 510.92,219.46 		"/>
		<polygon style="fill:#42E8E0;" points="516,221.12 520.15,223.53 520.31,222.63 516.15,220.23 		"/>
		<polygon style="fill:#42E8E0;" points="512.21,218.93 515.21,220.67 515.36,219.78 512.36,218.04 		"/>
		<polygon style="fill:#42E8E0;" points="509.39,217.3 511.42,218.48 511.57,217.58 509.54,216.41 		"/>
		<polygon style="fill:#42E8E0;" points="499.22,224.9 500.63,225.71 500.78,224.82 499.37,224.01 		"/>
		<polygon style="fill:#42E8E0;" points="496.58,223.38 498.44,224.45 498.59,223.55 496.73,222.48 		"/>
		<polygon style="fill:#42E8E0;" points="493.07,236.2 488.91,233.8 488.76,234.7 492.92,237.1 		"/>
		<polygon style="fill:#42E8E0;" points="496.86,238.4 493.86,236.66 493.7,237.55 496.71,239.29 		"/>
		<polygon style="fill:#42E8E0;" points="499.68,240.02 497.65,238.85 497.5,239.74 499.53,240.92 		"/>
		<polygon style="fill:#42E8E0;" points="490.66,232.57 489.26,231.76 489.11,232.65 490.51,233.46 		"/>
		<polygon style="fill:#42E8E0;" points="493.3,234.1 491.45,233.03 491.3,233.92 493.15,234.99 		"/>
		<polygon style="fill:#42E8E0;" points="497.08,236.28 494.09,234.55 493.94,235.45 496.93,237.17 		"/>
		<polygon style="fill:#42E8E0;" points="501.13,219.27 502.53,220.08 502.69,219.19 501.28,218.38 		"/>
		<polygon style="fill:#42E8E0;" points="498.49,217.74 500.34,218.81 500.5,217.92 498.64,216.85 		"/>
		<polygon style="fill:#42E8E0;" points="494.71,215.56 497.7,217.29 497.85,216.39 494.87,214.67 		"/>
		<polygon style="fill:#42E8E0;" points="503.27,222.59 506.26,224.31 506.41,223.42 503.42,221.69 		"/>
		<polygon style="fill:#42E8E0;" points="498.38,219.92 502.41,222.25 502.56,221.36 498.53,219.03 		"/>
		<polygon style="fill:#42E8E0;" points="496.33,218.74 497.59,219.47 497.75,218.57 496.49,217.84 		"/>
		<polygon style="fill:#42E8E0;" points="494.37,217.6 495.63,218.33 495.78,217.44 494.52,216.71 		"/>
		<g>
			<polygon style="fill:#42E8E0;" points="494.64,229.15 498.62,231.45 498.77,230.55 494.79,228.25 			"/>
			<polygon style="fill:#42E8E0;" points="492.59,227.97 493.85,228.69 494,227.8 492.74,227.07 			"/>
			<polygon style="fill:#42E8E0;" points="494.91,231.55 496.32,232.36 496.47,231.47 495.06,230.66 			"/>
			<polygon style="fill:#42E8E0;" points="499.87,229.91 501.27,230.73 501.42,229.83 500.02,229.02 			"/>
			<polygon style="fill:#42E8E0;" points="501.87,231.07 505.24,233.01 505.39,232.12 502.02,230.18 			"/>
			<polygon style="fill:#42E8E0;" points="505.83,233.36 507.84,234.52 507.99,233.62 505.98,232.46 			"/>
			<polygon style="fill:#42E8E0;" points="492.27,230.02 494.13,231.1 494.28,230.2 492.42,229.13 			"/>
			<g>
				<polygon style="fill:#42E8E0;" points="492.1,232.12 493.5,232.94 493.65,232.04 492.25,231.23 				"/>
				<polygon style="fill:#42E8E0;" points="489.46,230.6 491.31,231.67 491.46,230.77 489.61,229.7 				"/>
			</g>
			<polygon style="fill:#42E8E0;" points="497.83,228.74 499.09,229.47 499.24,228.57 497.98,227.84 			"/>
			<polygon style="fill:#42E8E0;" points="495.87,227.6 497.13,228.33 497.28,227.44 496.02,226.71 			"/>
		</g>
		<polygon style="fill:#42E8E0;" points="505.55,217.33 509.85,219.82 510,218.93 505.7,216.44 		"/>
		<polygon style="fill:#42E8E0;" points="500.73,214.55 504.76,216.88 504.91,215.99 500.88,213.66 		"/>
		<polygon style="fill:#42E8E0;" points="498.68,213.37 499.95,214.1 500.1,213.2 498.84,212.47 		"/>
		<polygon style="fill:#42E8E0;" points="496.72,212.23 497.98,212.96 498.13,212.07 496.87,211.34 		"/>
		<polygon style="fill:#42E8E0;" points="495.65,211.61 492.93,210.04 493.08,209.15 495.8,210.72 		"/>
	</g>
</g>
<path style="fill:#8686F2;" d="M217.51,353.45c-0.86,0-1.72-0.22-2.49-0.67L140.91,310c-0.5-0.29-0.79-0.8-0.79-1.37
	c0-0.57,0.3-1.09,0.79-1.37l65.13-37.6l0.33,0.57l-65.13,37.6c-0.29,0.17-0.46,0.47-0.46,0.8c0,0.33,0.17,0.63,0.46,0.8l74.1,42.78
	c1.34,0.77,2.99,0.77,4.33,0l38.4-22.17l0.33,0.57L220,352.78C219.23,353.23,218.37,353.45,217.51,353.45z"/>
<g>
	
		<radialGradient id="SVGID_44_" cx="482.6319" cy="450.0978" r="9.3752" gradientTransform="matrix(0.8633 -0.5047 -0.5047 -0.8633 -11.1601 963.2756)" gradientUnits="userSpaceOnUse">
		<stop  offset="0" style="stop-color:#42E8E0"/>
		<stop  offset="4.229724e-03" style="stop-color:#41E5DE"/>
		<stop  offset="0.064" style="stop-color:#39B8C3"/>
		<stop  offset="0.128" style="stop-color:#3190AA"/>
		<stop  offset="0.198" style="stop-color:#2A6C95"/>
		<stop  offset="0.2736" style="stop-color:#254E83"/>
		<stop  offset="0.3567" style="stop-color:#203674"/>
		<stop  offset="0.4505" style="stop-color:#1C2469"/>
		<stop  offset="0.561" style="stop-color:#1A1761"/>
		<stop  offset="0.7043" style="stop-color:#180F5C"/>
		<stop  offset="1" style="stop-color:#180D5B"/>
	</radialGradient>
	<circle style="fill:url(#SVGID_44_);" cx="178.33" cy="331.12" r="9.38"/>
	
		<radialGradient id="SVGID_45_" cx="482.632" cy="450.0977" r="2.5491" gradientTransform="matrix(0.8633 -0.5047 -0.5047 -0.8633 -11.1601 963.2756)" gradientUnits="userSpaceOnUse">
		<stop  offset="0" style="stop-color:#42E8E0"/>
		<stop  offset="1" style="stop-color:#42E8E0"/>
	</radialGradient>
	<path style="fill:url(#SVGID_45_);" d="M180.53,329.84c-0.71-1.22-2.27-1.62-3.49-0.91c-1.22,0.71-1.62,2.27-0.91,3.49
		c0.71,1.22,2.27,1.62,3.49,0.91C180.83,332.61,181.24,331.05,180.53,329.84z"/>
</g>
<g>
	
		<radialGradient id="SVGID_46_" cx="536.8156" cy="410.8918" r="9.3752" gradientTransform="matrix(0.8633 -0.5047 -0.5047 -0.8633 -11.1601 963.2756)" gradientUnits="userSpaceOnUse">
		<stop  offset="0" style="stop-color:#42E8E0"/>
		<stop  offset="4.229724e-03" style="stop-color:#41E5DE"/>
		<stop  offset="0.064" style="stop-color:#39B8C3"/>
		<stop  offset="0.128" style="stop-color:#3190AA"/>
		<stop  offset="0.198" style="stop-color:#2A6C95"/>
		<stop  offset="0.2736" style="stop-color:#254E83"/>
		<stop  offset="0.3567" style="stop-color:#203674"/>
		<stop  offset="0.4505" style="stop-color:#1C2469"/>
		<stop  offset="0.561" style="stop-color:#1A1761"/>
		<stop  offset="0.7043" style="stop-color:#180F5C"/>
		<stop  offset="1" style="stop-color:#180D5B"/>
	</radialGradient>
	<circle style="fill:url(#SVGID_46_);" cx="244.9" cy="337.62" r="9.38"/>
	
		<radialGradient id="SVGID_47_" cx="536.8156" cy="410.8918" r="2.5491" gradientTransform="matrix(0.8633 -0.5047 -0.5047 -0.8633 -11.1601 963.2756)" gradientUnits="userSpaceOnUse">
		<stop  offset="0" style="stop-color:#42E8E0"/>
		<stop  offset="1" style="stop-color:#42E8E0"/>
	</radialGradient>
	<path style="fill:url(#SVGID_47_);" d="M247.1,336.34c-0.71-1.22-2.27-1.62-3.49-0.91c-1.22,0.71-1.62,2.27-0.91,3.49
		c0.71,1.22,2.27,1.62,3.49,0.91C247.4,339.11,247.81,337.55,247.1,336.34z"/>
</g>
<g>
	
		<radialGradient id="SVGID_48_" cx="635.7705" cy="353.9099" r="9.3752" gradientTransform="matrix(0.8633 -0.5047 -0.5047 -0.8633 -11.1601 963.2756)" gradientUnits="userSpaceOnUse">
		<stop  offset="0" style="stop-color:#42E8E0"/>
		<stop  offset="4.229724e-03" style="stop-color:#41E5DE"/>
		<stop  offset="0.064" style="stop-color:#39B8C3"/>
		<stop  offset="0.128" style="stop-color:#3190AA"/>
		<stop  offset="0.198" style="stop-color:#2A6C95"/>
		<stop  offset="0.2736" style="stop-color:#254E83"/>
		<stop  offset="0.3567" style="stop-color:#203674"/>
		<stop  offset="0.4505" style="stop-color:#1C2469"/>
		<stop  offset="0.561" style="stop-color:#1A1761"/>
		<stop  offset="0.7043" style="stop-color:#180F5C"/>
		<stop  offset="1" style="stop-color:#180D5B"/>
	</radialGradient>
	<circle style="fill:url(#SVGID_48_);" cx="359.08" cy="336.87" r="9.38"/>
	
		<radialGradient id="SVGID_49_" cx="635.7706" cy="353.9099" r="2.5491" gradientTransform="matrix(0.8633 -0.5047 -0.5047 -0.8633 -11.1601 963.2756)" gradientUnits="userSpaceOnUse">
		<stop  offset="0" style="stop-color:#42E8E0"/>
		<stop  offset="1" style="stop-color:#42E8E0"/>
	</radialGradient>
	<path style="fill:url(#SVGID_49_);" d="M361.28,335.59c-0.71-1.22-2.27-1.62-3.49-0.91s-1.62,2.27-0.91,3.49
		c0.71,1.22,2.27,1.62,3.49,0.91C361.58,338.36,361.99,336.8,361.28,335.59z"/>
</g>
<g>
	
		<radialGradient id="SVGID_50_" cx="642.7363" cy="341.5119" r="9.3752" gradientTransform="matrix(0.8633 -0.5047 -0.5047 -0.8633 -11.1601 963.2756)" gradientUnits="userSpaceOnUse">
		<stop  offset="0" style="stop-color:#42E8E0"/>
		<stop  offset="4.229724e-03" style="stop-color:#41E5DE"/>
		<stop  offset="0.064" style="stop-color:#39B8C3"/>
		<stop  offset="0.128" style="stop-color:#3190AA"/>
		<stop  offset="0.198" style="stop-color:#2A6C95"/>
		<stop  offset="0.2736" style="stop-color:#254E83"/>
		<stop  offset="0.3567" style="stop-color:#203674"/>
		<stop  offset="0.4505" style="stop-color:#1C2469"/>
		<stop  offset="0.561" style="stop-color:#1A1761"/>
		<stop  offset="0.7043" style="stop-color:#180F5C"/>
		<stop  offset="1" style="stop-color:#180D5B"/>
	</radialGradient>
	<path style="fill:url(#SVGID_50_);" d="M379.45,339.33c-2.61-4.47-8.36-5.98-12.83-3.36c-4.47,2.61-5.98,8.36-3.36,12.83
		c2.61,4.47,8.36,5.98,12.83,3.36C380.55,349.54,382.06,343.8,379.45,339.33z"/>
	
		<radialGradient id="SVGID_51_" cx="642.7363" cy="341.5119" r="2.5491" gradientTransform="matrix(0.8633 -0.5047 -0.5047 -0.8633 -11.1601 963.2756)" gradientUnits="userSpaceOnUse">
		<stop  offset="0" style="stop-color:#42E8E0"/>
		<stop  offset="1" style="stop-color:#42E8E0"/>
	</radialGradient>
	<circle style="fill:url(#SVGID_51_);" cx="371.35" cy="344.06" r="2.55"/>
</g>
<g>
	
		<radialGradient id="SVGID_52_" cx="710.2831" cy="324.4698" r="9.3752" gradientTransform="matrix(0.8633 -0.5047 -0.5047 -0.8633 -11.1601 963.2756)" gradientUnits="userSpaceOnUse">
		<stop  offset="0" style="stop-color:#42E8E0"/>
		<stop  offset="4.229724e-03" style="stop-color:#41E5DE"/>
		<stop  offset="0.064" style="stop-color:#39B8C3"/>
		<stop  offset="0.128" style="stop-color:#3190AA"/>
		<stop  offset="0.198" style="stop-color:#2A6C95"/>
		<stop  offset="0.2736" style="stop-color:#254E83"/>
		<stop  offset="0.3567" style="stop-color:#203674"/>
		<stop  offset="0.4505" style="stop-color:#1C2469"/>
		<stop  offset="0.561" style="stop-color:#1A1761"/>
		<stop  offset="0.7043" style="stop-color:#180F5C"/>
		<stop  offset="1" style="stop-color:#180D5B"/>
	</radialGradient>
	<circle style="fill:url(#SVGID_52_);" cx="438.27" cy="324.68" r="9.38"/>
	
		<radialGradient id="SVGID_53_" cx="710.2831" cy="324.4698" r="2.5491" gradientTransform="matrix(0.8633 -0.5047 -0.5047 -0.8633 -11.1601 963.2756)" gradientUnits="userSpaceOnUse">
		<stop  offset="0" style="stop-color:#42E8E0"/>
		<stop  offset="1" style="stop-color:#42E8E0"/>
	</radialGradient>
	<path style="fill:url(#SVGID_53_);" d="M440.47,323.39c-0.71-1.22-2.27-1.62-3.49-0.91c-1.22,0.71-1.62,2.27-0.91,3.49
		c0.71,1.22,2.27,1.62,3.49,0.91C440.77,326.17,441.18,324.61,440.47,323.39z"/>
</g>
<g>
	
		<radialGradient id="SVGID_54_" cx="735.607" cy="336.5001" r="9.3752" gradientTransform="matrix(0.8633 -0.5047 -0.5047 -0.8633 -11.1601 963.2756)" gradientUnits="userSpaceOnUse">
		<stop  offset="0" style="stop-color:#42E8E0"/>
		<stop  offset="4.229724e-03" style="stop-color:#41E5DE"/>
		<stop  offset="0.064" style="stop-color:#39B8C3"/>
		<stop  offset="0.128" style="stop-color:#3190AA"/>
		<stop  offset="0.198" style="stop-color:#2A6C95"/>
		<stop  offset="0.2736" style="stop-color:#254E83"/>
		<stop  offset="0.3567" style="stop-color:#203674"/>
		<stop  offset="0.4505" style="stop-color:#1C2469"/>
		<stop  offset="0.561" style="stop-color:#1A1761"/>
		<stop  offset="0.7043" style="stop-color:#180F5C"/>
		<stop  offset="1" style="stop-color:#180D5B"/>
	</radialGradient>
	<path style="fill:url(#SVGID_54_);" d="M462.15,296.78c-2.61-4.47-8.36-5.98-12.83-3.36c-4.47,2.61-5.98,8.36-3.36,12.83
		c2.61,4.47,8.36,5.98,12.83,3.36C463.26,306.99,464.76,301.25,462.15,296.78z"/>
	
		<radialGradient id="SVGID_55_" cx="735.607" cy="336.5001" r="2.5491" gradientTransform="matrix(0.8633 -0.5047 -0.5047 -0.8633 -11.1601 963.2756)" gradientUnits="userSpaceOnUse">
		<stop  offset="0" style="stop-color:#42E8E0"/>
		<stop  offset="1" style="stop-color:#42E8E0"/>
	</radialGradient>
	<path style="fill:url(#SVGID_55_);" d="M456.26,300.23c-0.71-1.22-2.27-1.62-3.49-0.91s-1.62,2.27-0.91,3.49
		c0.71,1.22,2.27,1.62,3.49,0.91C456.56,303,456.97,301.44,456.26,300.23z"/>
</g>
<g>
	
		<radialGradient id="SVGID_56_" cx="727.4415" cy="351.1389" r="9.3752" gradientTransform="matrix(0.8633 -0.5047 -0.5047 -0.8633 -11.1601 963.2756)" gradientUnits="userSpaceOnUse">
		<stop  offset="0" style="stop-color:#42E8E0"/>
		<stop  offset="4.229724e-03" style="stop-color:#41E5DE"/>
		<stop  offset="0.064" style="stop-color:#39B8C3"/>
		<stop  offset="0.128" style="stop-color:#3190AA"/>
		<stop  offset="0.198" style="stop-color:#2A6C95"/>
		<stop  offset="0.2736" style="stop-color:#254E83"/>
		<stop  offset="0.3567" style="stop-color:#203674"/>
		<stop  offset="0.4505" style="stop-color:#1C2469"/>
		<stop  offset="0.561" style="stop-color:#1A1761"/>
		<stop  offset="0.7043" style="stop-color:#180F5C"/>
		<stop  offset="1" style="stop-color:#180D5B"/>
	</radialGradient>
	<path style="fill:url(#SVGID_56_);" d="M447.71,288.27c-2.61-4.47-8.36-5.98-12.83-3.36c-4.47,2.61-5.98,8.36-3.36,12.83
		c2.61,4.47,8.36,5.98,12.83,3.36C448.82,298.48,450.33,292.74,447.71,288.27z"/>
	
		<radialGradient id="SVGID_57_" cx="727.4415" cy="351.1389" r="2.5491" gradientTransform="matrix(0.8633 -0.5047 -0.5047 -0.8633 -11.1601 963.2756)" gradientUnits="userSpaceOnUse">
		<stop  offset="0" style="stop-color:#42E8E0"/>
		<stop  offset="1" style="stop-color:#42E8E0"/>
	</radialGradient>
	<path style="fill:url(#SVGID_57_);" d="M441.82,291.71c-0.71-1.22-2.27-1.62-3.49-0.91s-1.62,2.27-0.91,3.49
		c0.71,1.22,2.27,1.62,3.49,0.91C442.12,294.49,442.53,292.93,441.82,291.71z"/>
</g>
<g>
	
		<radialGradient id="SVGID_58_" cx="718.9763" cy="365.2652" r="9.3752" gradientTransform="matrix(0.8633 -0.5047 -0.5047 -0.8633 -11.1601 963.2756)" gradientUnits="userSpaceOnUse">
		<stop  offset="0" style="stop-color:#42E8E0"/>
		<stop  offset="4.229724e-03" style="stop-color:#41E5DE"/>
		<stop  offset="0.064" style="stop-color:#39B8C3"/>
		<stop  offset="0.128" style="stop-color:#3190AA"/>
		<stop  offset="0.198" style="stop-color:#2A6C95"/>
		<stop  offset="0.2736" style="stop-color:#254E83"/>
		<stop  offset="0.3567" style="stop-color:#203674"/>
		<stop  offset="0.4505" style="stop-color:#1C2469"/>
		<stop  offset="0.561" style="stop-color:#1A1761"/>
		<stop  offset="0.7043" style="stop-color:#180F5C"/>
		<stop  offset="1" style="stop-color:#180D5B"/>
	</radialGradient>
	<path style="fill:url(#SVGID_58_);" d="M433.28,280.34c-2.61-4.47-8.36-5.98-12.83-3.36c-4.47,2.61-5.98,8.36-3.36,12.83
		c2.61,4.47,8.36,5.98,12.83,3.36C434.38,290.56,435.89,284.81,433.28,280.34z"/>
	
		<radialGradient id="SVGID_59_" cx="718.9763" cy="365.2651" r="2.5491" gradientTransform="matrix(0.8633 -0.5047 -0.5047 -0.8633 -11.1601 963.2756)" gradientUnits="userSpaceOnUse">
		<stop  offset="0" style="stop-color:#42E8E0"/>
		<stop  offset="1" style="stop-color:#42E8E0"/>
	</radialGradient>
	<path style="fill:url(#SVGID_59_);" d="M427.38,283.79c-0.71-1.22-2.27-1.62-3.49-0.91c-1.22,0.71-1.62,2.27-0.91,3.49
		c0.71,1.22,2.27,1.62,3.49,0.91C427.68,286.57,428.09,285,427.38,283.79z"/>
</g>
<g>
	
		<radialGradient id="SVGID_60_" cx="475.9882" cy="461.8463" r="9.3752" gradientTransform="matrix(0.8633 -0.5047 -0.5047 -0.8633 -11.1601 963.2756)" gradientUnits="userSpaceOnUse">
		<stop  offset="0" style="stop-color:#42E8E0"/>
		<stop  offset="4.229724e-03" style="stop-color:#41E5DE"/>
		<stop  offset="0.064" style="stop-color:#39B8C3"/>
		<stop  offset="0.128" style="stop-color:#3190AA"/>
		<stop  offset="0.198" style="stop-color:#2A6C95"/>
		<stop  offset="0.2736" style="stop-color:#254E83"/>
		<stop  offset="0.3567" style="stop-color:#203674"/>
		<stop  offset="0.4505" style="stop-color:#1C2469"/>
		<stop  offset="0.561" style="stop-color:#1A1761"/>
		<stop  offset="0.7043" style="stop-color:#180F5C"/>
		<stop  offset="1" style="stop-color:#180D5B"/>
	</radialGradient>
	<path style="fill:url(#SVGID_60_);" d="M174.76,319.6c-2.61-4.47-8.36-5.98-12.83-3.36c-4.47,2.61-5.98,8.36-3.36,12.83
		c2.61,4.47,8.36,5.98,12.83,3.36C175.87,329.81,177.37,324.07,174.76,319.6z"/>
	
		<radialGradient id="SVGID_61_" cx="475.9882" cy="461.8463" r="2.5491" gradientTransform="matrix(0.8633 -0.5047 -0.5047 -0.8633 -11.1601 963.2756)" gradientUnits="userSpaceOnUse">
		<stop  offset="0" style="stop-color:#42E8E0"/>
		<stop  offset="1" style="stop-color:#42E8E0"/>
	</radialGradient>
	<circle style="fill:url(#SVGID_61_);" cx="166.67" cy="324.33" r="2.55"/>
</g>
<g>
	
		<radialGradient id="SVGID_62_" cx="469.3444" cy="473.5949" r="9.3752" gradientTransform="matrix(0.8633 -0.5047 -0.5047 -0.8633 -11.1601 963.2756)" gradientUnits="userSpaceOnUse">
		<stop  offset="0" style="stop-color:#42E8E0"/>
		<stop  offset="4.229724e-03" style="stop-color:#41E5DE"/>
		<stop  offset="0.064" style="stop-color:#39B8C3"/>
		<stop  offset="0.128" style="stop-color:#3190AA"/>
		<stop  offset="0.198" style="stop-color:#2A6C95"/>
		<stop  offset="0.2736" style="stop-color:#254E83"/>
		<stop  offset="0.3567" style="stop-color:#203674"/>
		<stop  offset="0.4505" style="stop-color:#1C2469"/>
		<stop  offset="0.561" style="stop-color:#1A1761"/>
		<stop  offset="0.7043" style="stop-color:#180F5C"/>
		<stop  offset="1" style="stop-color:#180D5B"/>
	</radialGradient>
	<circle style="fill:url(#SVGID_62_);" cx="155" cy="317.54" r="9.38"/>
	
		<radialGradient id="SVGID_63_" cx="469.3444" cy="473.5949" r="2.549" gradientTransform="matrix(0.8633 -0.5047 -0.5047 -0.8633 -11.1601 963.2756)" gradientUnits="userSpaceOnUse">
		<stop  offset="0" style="stop-color:#42E8E0"/>
		<stop  offset="1" style="stop-color:#42E8E0"/>
	</radialGradient>
	<path style="fill:url(#SVGID_63_);" d="M157.2,316.26c-0.71-1.22-2.27-1.62-3.49-0.91c-1.22,0.71-1.62,2.27-0.91,3.49
		c0.71,1.22,2.27,1.62,3.49,0.91C157.5,319.03,157.91,317.47,157.2,316.26z"/>
</g>
<g>
	
		<radialGradient id="SVGID_64_" cx="511.4737" cy="489.5088" r="9.3752" gradientTransform="matrix(0.8633 -0.5047 -0.5047 -0.8633 -11.1601 963.2756)" gradientUnits="userSpaceOnUse">
		<stop  offset="0" style="stop-color:#42E8E0"/>
		<stop  offset="4.229724e-03" style="stop-color:#41E5DE"/>
		<stop  offset="0.064" style="stop-color:#39B8C3"/>
		<stop  offset="0.128" style="stop-color:#3190AA"/>
		<stop  offset="0.198" style="stop-color:#2A6C95"/>
		<stop  offset="0.2736" style="stop-color:#254E83"/>
		<stop  offset="0.3567" style="stop-color:#203674"/>
		<stop  offset="0.4505" style="stop-color:#1C2469"/>
		<stop  offset="0.561" style="stop-color:#1A1761"/>
		<stop  offset="0.7043" style="stop-color:#180F5C"/>
		<stop  offset="1" style="stop-color:#180D5B"/>
	</radialGradient>
	<path style="fill:url(#SVGID_64_);" d="M191.43,277.81c-2.61-4.47-8.36-5.98-12.83-3.36c-4.47,2.61-5.98,8.36-3.36,12.83
		c2.61,4.47,8.36,5.98,12.83,3.36C192.54,288.02,194.05,282.28,191.43,277.81z"/>
	
		<radialGradient id="SVGID_65_" cx="511.4738" cy="489.5087" r="2.5491" gradientTransform="matrix(0.8633 -0.5047 -0.5047 -0.8633 -11.1601 963.2756)" gradientUnits="userSpaceOnUse">
		<stop  offset="0" style="stop-color:#42E8E0"/>
		<stop  offset="1" style="stop-color:#42E8E0"/>
	</radialGradient>
	<path style="fill:url(#SVGID_65_);" d="M185.54,281.26c-0.71-1.22-2.27-1.62-3.49-0.91c-1.22,0.71-1.62,2.27-0.91,3.49
		c0.71,1.22,2.27,1.62,3.49,0.91C185.84,284.03,186.25,282.47,185.54,281.26z"/>
</g>
<g>
	
		<radialGradient id="SVGID_66_" cx="525.5394" cy="488.8754" r="9.3752" gradientTransform="matrix(0.8633 -0.5047 -0.5047 -0.8633 -11.1601 963.2756)" gradientUnits="userSpaceOnUse">
		<stop  offset="0" style="stop-color:#42E8E0"/>
		<stop  offset="4.229724e-03" style="stop-color:#41E5DE"/>
		<stop  offset="0.064" style="stop-color:#39B8C3"/>
		<stop  offset="0.128" style="stop-color:#3190AA"/>
		<stop  offset="0.198" style="stop-color:#2A6C95"/>
		<stop  offset="0.2736" style="stop-color:#254E83"/>
		<stop  offset="0.3567" style="stop-color:#203674"/>
		<stop  offset="0.4505" style="stop-color:#1C2469"/>
		<stop  offset="0.561" style="stop-color:#1A1761"/>
		<stop  offset="0.7043" style="stop-color:#180F5C"/>
		<stop  offset="1" style="stop-color:#180D5B"/>
	</radialGradient>
	<path style="fill:url(#SVGID_66_);" d="M203.9,271.26c-2.61-4.47-8.36-5.98-12.83-3.36c-4.47,2.61-5.98,8.36-3.36,12.83
		c2.61,4.47,8.36,5.98,12.83,3.36C205,281.47,206.51,275.73,203.9,271.26z"/>
	
		<radialGradient id="SVGID_67_" cx="525.5393" cy="488.8754" r="2.5491" gradientTransform="matrix(0.8633 -0.5047 -0.5047 -0.8633 -11.1601 963.2756)" gradientUnits="userSpaceOnUse">
		<stop  offset="0" style="stop-color:#42E8E0"/>
		<stop  offset="1" style="stop-color:#42E8E0"/>
	</radialGradient>
	<path style="fill:url(#SVGID_67_);" d="M198,274.7c-0.71-1.22-2.27-1.62-3.49-0.91c-1.22,0.71-1.62,2.27-0.91,3.49
		c0.71,1.22,2.27,1.62,3.49,0.91C198.3,277.48,198.71,275.92,198,274.7z"/>
</g>
</svg>
