<?xml version="1.0" encoding="utf-8"?>
<!-- Generator: Adobe Illustrator 24.0.1, SVG Export Plug-In . SVG Version: 6.00 Build 0)  -->
<svg version="1.1" id="Calque_1" xmlns="http://www.w3.org/2000/svg" xmlns:xlink="http://www.w3.org/1999/xlink" x="0px" y="0px"
	 viewBox="0 0 284 284" style="enable-background:new 0 0 284 284;" xml:space="preserve">
<radialGradient id="SVGID_1_" cx="-16.7871" cy="69.8433" r="265.165" fx="-266.8488" fy="-18.3704" gradientTransform="matrix(0.4733 0 0 0.6311 74.6896 52.4834)" gradientUnits="userSpaceOnUse">
	<stop  offset="0" style="stop-color:#2B237C"/>
	<stop  offset="1" style="stop-color:#180D5B"/>
</radialGradient>
<rect style="fill:url(#SVGID_1_);" width="284" height="284"/>
<g>
	<path style="fill:#8686F2;" d="M188.13,209.11c-0.47,0-0.94-0.12-1.35-0.36l-20.86-12.04l0.18-0.31l20.86,12.04
		c0.73,0.42,1.63,0.42,2.36,0l6.09-3.54l34.1-19.69c0.16-0.09,0.25-0.25,0.25-0.44c0-0.18-0.09-0.35-0.25-0.44l-35.37-20.42
		l0.18-0.31l35.37,20.42c0.27,0.16,0.43,0.43,0.43,0.75c0,0.31-0.16,0.59-0.43,0.74l-34.1,19.69l-6.09,3.54
		C189.07,208.99,188.6,209.11,188.13,209.11z"/>
	<path style="fill:#8686F2;" d="M54.82,158.44l-0.18-0.31l24.7-14.26c0.87-0.5,1.95-0.5,2.82,0l11.55,6.67l-0.18,0.31l-11.55-6.67
		c-0.76-0.44-1.7-0.44-2.46,0L54.82,158.44z"/>
	<path style="fill:#8686F2;" d="M229.33,158.44l-24.7-14.26c-0.76-0.44-1.7-0.44-2.46,0l-11.55,6.67l-0.18-0.31l11.55-6.67
		c0.87-0.5,1.95-0.5,2.82,0l24.7,14.26L229.33,158.44z"/>
	<g>
		<g>
			
				<linearGradient id="SVGID_2_" gradientUnits="userSpaceOnUse" x1="-1992.2424" y1="-734.1915" x2="-1992.2424" y2="-755.959" gradientTransform="matrix(0.866 0.5 -1 0.5774 1182.7721 1567.2291)">
				<stop  offset="0" style="stop-color:#42E8E0"/>
				<stop  offset="0.0185" style="stop-color:#40DEDA"/>
				<stop  offset="0.1149" style="stop-color:#37ADBC"/>
				<stop  offset="0.2166" style="stop-color:#2E82A2"/>
				<stop  offset="0.3219" style="stop-color:#285E8C"/>
				<stop  offset="0.4319" style="stop-color:#22417A"/>
				<stop  offset="0.5479" style="stop-color:#1E2A6C"/>
				<stop  offset="0.6729" style="stop-color:#1A1A63"/>
				<stop  offset="0.813" style="stop-color:#19105D"/>
				<stop  offset="1" style="stop-color:#180D5B"/>
			</linearGradient>
			<polygon style="opacity:0.6;fill:url(#SVGID_2_);" points="221.58,139.31 205.32,129.92 183.55,142.49 199.81,151.88 			"/>
			
				<linearGradient id="SVGID_3_" gradientUnits="userSpaceOnUse" x1="877.72" y1="-94.7946" x2="877.72" y2="-119.9323" gradientTransform="matrix(1 -0.5774 0.866 0.5 -620.2056 701.3784)">
				<stop  offset="0" style="stop-color:#42E8E0"/>
				<stop  offset="0.0185" style="stop-color:#40DEDA"/>
				<stop  offset="0.1149" style="stop-color:#37ADBC"/>
				<stop  offset="0.2166" style="stop-color:#2E82A2"/>
				<stop  offset="0.3219" style="stop-color:#285E8C"/>
				<stop  offset="0.4319" style="stop-color:#22417A"/>
				<stop  offset="0.5479" style="stop-color:#1E2A6C"/>
				<stop  offset="0.6729" style="stop-color:#1A1A63"/>
				<stop  offset="0.813" style="stop-color:#19105D"/>
				<stop  offset="1" style="stop-color:#180D5B"/>
			</linearGradient>
			<polygon style="opacity:0.6;fill:url(#SVGID_3_);" points="161.78,129.92 145.52,139.31 167.29,151.88 183.55,142.49 			"/>
			
				<linearGradient id="SVGID_4_" gradientUnits="userSpaceOnUse" x1="508.2249" y1="2727.6345" x2="508.2249" y2="2705.8672" gradientTransform="matrix(-0.866 -0.5 1 -0.5774 -2112.0898 1985.6208)">
				<stop  offset="0" style="stop-color:#42E8E0"/>
				<stop  offset="0.0185" style="stop-color:#40DEDA"/>
				<stop  offset="0.1149" style="stop-color:#37ADBC"/>
				<stop  offset="0.2166" style="stop-color:#2E82A2"/>
				<stop  offset="0.3219" style="stop-color:#285E8C"/>
				<stop  offset="0.4319" style="stop-color:#22417A"/>
				<stop  offset="0.5479" style="stop-color:#1E2A6C"/>
				<stop  offset="0.6729" style="stop-color:#1A1A63"/>
				<stop  offset="0.813" style="stop-color:#19105D"/>
				<stop  offset="1" style="stop-color:#180D5B"/>
			</linearGradient>
			<polygon style="opacity:0.6;fill:url(#SVGID_4_);" points="145.52,164.45 161.78,173.83 183.55,161.27 167.29,151.88 			"/>
			
				<linearGradient id="SVGID_5_" gradientUnits="userSpaceOnUse" x1="-2584.1062" y1="2405.6729" x2="-2584.1062" y2="2380.5352" gradientTransform="matrix(-1 0.5774 -0.866 -0.5 -309.1122 2851.4717)">
				<stop  offset="0" style="stop-color:#42E8E0"/>
				<stop  offset="0.0185" style="stop-color:#40DEDA"/>
				<stop  offset="0.1149" style="stop-color:#37ADBC"/>
				<stop  offset="0.2166" style="stop-color:#2E82A2"/>
				<stop  offset="0.3219" style="stop-color:#285E8C"/>
				<stop  offset="0.4319" style="stop-color:#22417A"/>
				<stop  offset="0.5479" style="stop-color:#1E2A6C"/>
				<stop  offset="0.6729" style="stop-color:#1A1A63"/>
				<stop  offset="0.813" style="stop-color:#19105D"/>
				<stop  offset="1" style="stop-color:#180D5B"/>
			</linearGradient>
			<polygon style="opacity:0.6;fill:url(#SVGID_5_);" points="205.32,173.83 221.58,164.45 199.81,151.88 183.55,161.27 			"/>
		</g>
	</g>
	<g>
		<g>
			
				<linearGradient id="SVGID_6_" gradientUnits="userSpaceOnUse" x1="-2040.6211" y1="-692.298" x2="-2040.6211" y2="-714.0654" gradientTransform="matrix(0.866 0.5 -1 0.5774 1182.7721 1567.2291)">
				<stop  offset="0" style="stop-color:#42E8E0"/>
				<stop  offset="0.0185" style="stop-color:#40DEDA"/>
				<stop  offset="0.1149" style="stop-color:#37ADBC"/>
				<stop  offset="0.2166" style="stop-color:#2E82A2"/>
				<stop  offset="0.3219" style="stop-color:#285E8C"/>
				<stop  offset="0.4319" style="stop-color:#22417A"/>
				<stop  offset="0.5479" style="stop-color:#1E2A6C"/>
				<stop  offset="0.6729" style="stop-color:#1A1A63"/>
				<stop  offset="0.813" style="stop-color:#19105D"/>
				<stop  offset="1" style="stop-color:#180D5B"/>
			</linearGradient>
			<polygon style="opacity:0.6;fill:url(#SVGID_6_);" points="137.79,139.31 121.53,129.92 99.76,142.49 116.02,151.88 			"/>
			
				<linearGradient id="SVGID_7_" gradientUnits="userSpaceOnUse" x1="835.8264" y1="-143.1732" x2="835.8264" y2="-168.3109" gradientTransform="matrix(1 -0.5774 0.866 0.5 -620.2056 701.3784)">
				<stop  offset="0" style="stop-color:#42E8E0"/>
				<stop  offset="0.0185" style="stop-color:#40DEDA"/>
				<stop  offset="0.1149" style="stop-color:#37ADBC"/>
				<stop  offset="0.2166" style="stop-color:#2E82A2"/>
				<stop  offset="0.3219" style="stop-color:#285E8C"/>
				<stop  offset="0.4319" style="stop-color:#22417A"/>
				<stop  offset="0.5479" style="stop-color:#1E2A6C"/>
				<stop  offset="0.6729" style="stop-color:#1A1A63"/>
				<stop  offset="0.813" style="stop-color:#19105D"/>
				<stop  offset="1" style="stop-color:#180D5B"/>
			</linearGradient>
			<polygon style="opacity:0.6;fill:url(#SVGID_7_);" points="77.99,129.92 61.73,139.31 83.5,151.88 99.76,142.49 			"/>
			
				<linearGradient id="SVGID_10_" gradientUnits="userSpaceOnUse" x1="556.6036" y1="2685.7412" x2="556.6036" y2="2663.9736" gradientTransform="matrix(-0.866 -0.5 1 -0.5774 -2112.0898 1985.6208)">
				<stop  offset="0" style="stop-color:#42E8E0"/>
				<stop  offset="0.0185" style="stop-color:#40DEDA"/>
				<stop  offset="0.1149" style="stop-color:#37ADBC"/>
				<stop  offset="0.2166" style="stop-color:#2E82A2"/>
				<stop  offset="0.3219" style="stop-color:#285E8C"/>
				<stop  offset="0.4319" style="stop-color:#22417A"/>
				<stop  offset="0.5479" style="stop-color:#1E2A6C"/>
				<stop  offset="0.6729" style="stop-color:#1A1A63"/>
				<stop  offset="0.813" style="stop-color:#19105D"/>
				<stop  offset="1" style="stop-color:#180D5B"/>
			</linearGradient>
			<polygon style="opacity:0.6;fill:url(#SVGID_10_);" points="61.73,164.45 77.99,173.83 99.76,161.27 83.5,151.88 			"/>
			
				<linearGradient id="SVGID_11_" gradientUnits="userSpaceOnUse" x1="-2542.2126" y1="2454.0515" x2="-2542.2126" y2="2428.9138" gradientTransform="matrix(-1 0.5774 -0.866 -0.5 -309.1122 2851.4717)">
				<stop  offset="0" style="stop-color:#42E8E0"/>
				<stop  offset="0.0185" style="stop-color:#40DEDA"/>
				<stop  offset="0.1149" style="stop-color:#37ADBC"/>
				<stop  offset="0.2166" style="stop-color:#2E82A2"/>
				<stop  offset="0.3219" style="stop-color:#285E8C"/>
				<stop  offset="0.4319" style="stop-color:#22417A"/>
				<stop  offset="0.5479" style="stop-color:#1E2A6C"/>
				<stop  offset="0.6729" style="stop-color:#1A1A63"/>
				<stop  offset="0.813" style="stop-color:#19105D"/>
				<stop  offset="1" style="stop-color:#180D5B"/>
			</linearGradient>
			<polygon style="opacity:0.6;fill:url(#SVGID_11_);" points="121.53,173.83 137.79,164.45 116.02,151.88 99.76,161.27 			"/>
		</g>
	</g>
	<g>
		<g>
			<g>
				<path style="fill:#8686F2;" d="M99.88,169.73c-0.33,0-0.64-0.07-0.87-0.2l-19.66-11.35c-0.25-0.15-0.39-0.36-0.39-0.59
					c0-0.27,0.19-0.54,0.52-0.73l19.39-11.2c0.59-0.34,1.47-0.38,1.98-0.08l19.66,11.35c0.25,0.15,0.39,0.36,0.39,0.59
					c0,0.27-0.19,0.54-0.52,0.73l-19.39,11.2C100.66,169.63,100.26,169.73,99.88,169.73z M99.15,169.26
					c0.42,0.24,1.19,0.21,1.68-0.08l19.39-11.2c0.23-0.13,0.37-0.31,0.37-0.47c0-0.16-0.13-0.26-0.24-0.33l-19.66-11.35
					c-0.42-0.24-1.19-0.21-1.68,0.08l-19.39,11.2c-0.23,0.13-0.37,0.31-0.37,0.47c0,0.16,0.13,0.26,0.24,0.33L99.15,169.26z"/>
				<g>
					<g>
						<linearGradient id="SVGID_12_" gradientUnits="userSpaceOnUse" x1="68.6799" y1="156.4771" x2="122.1804" y2="156.4771">
							<stop  offset="0" style="stop-color:#5761D7"/>
							<stop  offset="0.1645" style="stop-color:#5E67DA"/>
							<stop  offset="0.4051" style="stop-color:#727AE2"/>
							<stop  offset="0.6924" style="stop-color:#9297EE"/>
							<stop  offset="1" style="stop-color:#BCBEFF"/>
						</linearGradient>
						<polygon style="fill:url(#SVGID_12_);" points="120.75,149.25 120.75,151.66 99.88,163.71 79,151.66 79,149.24 						"/>
						<polygon style="fill:#BCBEFF;" points="99.88,161.3 79,149.24 99.88,137.19 120.75,149.25 						"/>
						<polygon style="fill:#FFFFFF;" points="99.88,161.02 79.25,149.1 79,149.24 99.88,161.3 120.75,149.25 120.51,149.1 						"/>
					</g>
					<g>
						<polygon style="fill:#0F054C;" points="99.88,158.52 83.82,149.25 99.88,139.98 115.93,149.25 						"/>
						<g>
							<linearGradient id="SVGID_13_" gradientUnits="userSpaceOnUse" x1="83.8207" y1="149.2477" x2="115.9331" y2="149.2477">
								<stop  offset="0" style="stop-color:#42E8E0"/>
								<stop  offset="0.1507" style="stop-color:#43E3E0"/>
								<stop  offset="0.3285" style="stop-color:#45D5DF"/>
								<stop  offset="0.5199" style="stop-color:#49BDDD"/>
								<stop  offset="0.7209" style="stop-color:#4E9CDB"/>
								<stop  offset="0.9274" style="stop-color:#5472D8"/>
								<stop  offset="1" style="stop-color:#5761D7"/>
							</linearGradient>
							<polygon style="opacity:0.5;fill:url(#SVGID_13_);" points="99.88,158.52 83.82,149.25 99.88,139.98 115.93,149.25 							
								"/>
							<g>
								<linearGradient id="SVGID_14_" gradientUnits="userSpaceOnUse" x1="99.8766" y1="143.4439" x2="115.9331" y2="143.4439">
									<stop  offset="0" style="stop-color:#42E8E0"/>
									<stop  offset="0.1507" style="stop-color:#43E3E0"/>
									<stop  offset="0.3285" style="stop-color:#45D5DF"/>
									<stop  offset="0.5199" style="stop-color:#49BDDD"/>
									<stop  offset="0.7209" style="stop-color:#4E9CDB"/>
									<stop  offset="0.9274" style="stop-color:#5472D8"/>
									<stop  offset="1" style="stop-color:#5761D7"/>
								</linearGradient>
								<polygon style="opacity:0.5;fill:url(#SVGID_14_);" points="99.88,137.64 115.93,146.91 115.93,149.25 99.88,139.98 
																	"/>
								<linearGradient id="SVGID_15_" gradientUnits="userSpaceOnUse" x1="83.8207" y1="143.4437" x2="99.8771" y2="143.4437">
									<stop  offset="0" style="stop-color:#42E8E0"/>
									<stop  offset="0.1507" style="stop-color:#43E3E0"/>
									<stop  offset="0.3285" style="stop-color:#45D5DF"/>
									<stop  offset="0.5199" style="stop-color:#49BDDD"/>
									<stop  offset="0.7209" style="stop-color:#4E9CDB"/>
									<stop  offset="0.9274" style="stop-color:#5472D8"/>
									<stop  offset="1" style="stop-color:#5761D7"/>
								</linearGradient>
								<polygon style="opacity:0.5;fill:url(#SVGID_15_);" points="99.88,139.98 83.82,149.25 83.82,146.91 99.88,137.64 								
									"/>
								<linearGradient id="SVGID_16_" gradientUnits="userSpaceOnUse" x1="83.8207" y1="146.9101" x2="115.9331" y2="146.9101">
									<stop  offset="0" style="stop-color:#42E8E0"/>
									<stop  offset="0.1507" style="stop-color:#43E3E0"/>
									<stop  offset="0.3285" style="stop-color:#45D5DF"/>
									<stop  offset="0.5199" style="stop-color:#49BDDD"/>
									<stop  offset="0.7209" style="stop-color:#4E9CDB"/>
									<stop  offset="0.9274" style="stop-color:#5472D8"/>
									<stop  offset="1" style="stop-color:#5761D7"/>
								</linearGradient>
								<polygon style="opacity:0.5;fill:url(#SVGID_16_);" points="99.88,156.18 83.82,146.91 99.88,137.64 115.93,146.91 								
									"/>
								<polygon style="opacity:0.5;fill:#42E8E0;" points="99.88,150.61 93.46,146.91 99.88,143.21 106.29,146.91 								"/>
								<polygon style="opacity:0.5;fill:#42E8E0;" points="99.88,143.55 106,147.08 106.29,146.91 99.88,143.21 93.46,146.91 
									93.76,147.08 								"/>
								<linearGradient id="SVGID_17_" gradientUnits="userSpaceOnUse" x1="99.8771" y1="152.7139" x2="115.9331" y2="152.7139">
									<stop  offset="0" style="stop-color:#42E8E0"/>
									<stop  offset="0.1507" style="stop-color:#43E3E0"/>
									<stop  offset="0.3285" style="stop-color:#45D5DF"/>
									<stop  offset="0.5199" style="stop-color:#49BDDD"/>
									<stop  offset="0.7209" style="stop-color:#4E9CDB"/>
									<stop  offset="0.9274" style="stop-color:#5472D8"/>
									<stop  offset="1" style="stop-color:#5761D7"/>
								</linearGradient>
								<polygon style="opacity:0.5;fill:url(#SVGID_17_);" points="99.88,156.18 99.88,158.52 115.93,149.25 115.93,146.91 
																	"/>
							</g>
							<linearGradient id="SVGID_18_" gradientUnits="userSpaceOnUse" x1="83.8207" y1="152.7138" x2="99.8771" y2="152.7138">
								<stop  offset="0" style="stop-color:#42E8E0"/>
								<stop  offset="0.1507" style="stop-color:#43E3E0"/>
								<stop  offset="0.3285" style="stop-color:#45D5DF"/>
								<stop  offset="0.5199" style="stop-color:#49BDDD"/>
								<stop  offset="0.7209" style="stop-color:#4E9CDB"/>
								<stop  offset="0.9274" style="stop-color:#5472D8"/>
								<stop  offset="1" style="stop-color:#5761D7"/>
							</linearGradient>
							<polygon style="opacity:0.5;fill:url(#SVGID_18_);" points="83.82,146.91 83.82,149.25 99.88,158.52 99.88,156.18 							"/>
						</g>
						<polygon style="opacity:0.8;fill:#42E8E0;" points="99.88,155.93 84.04,146.78 83.82,146.91 99.88,156.18 115.93,146.91 
							115.71,146.78 						"/>
					</g>
				</g>
			</g>
			<g>
				<path style="fill:#8686F2;" d="M183.55,169.73c-0.33,0-0.64-0.07-0.87-0.2l-19.66-11.35c-0.25-0.15-0.39-0.36-0.39-0.59
					c0-0.27,0.19-0.54,0.52-0.73l19.39-11.2c0.59-0.34,1.47-0.38,1.98-0.08l19.66,11.35c0.25,0.15,0.39,0.36,0.39,0.59
					c0,0.27-0.19,0.54-0.52,0.73l-19.39,11.2C184.34,169.63,183.94,169.73,183.55,169.73z M182.83,169.26
					c0.42,0.24,1.19,0.21,1.68-0.08l19.39-11.2c0.23-0.13,0.37-0.31,0.37-0.47c0-0.16-0.13-0.26-0.24-0.33l-19.66-11.35
					c-0.42-0.24-1.19-0.21-1.68,0.08l-19.39,11.2c-0.23,0.13-0.37,0.31-0.37,0.47c0,0.16,0.13,0.26,0.24,0.33L182.83,169.26z"/>
				<g>
					<g>
						<linearGradient id="SVGID_19_" gradientUnits="userSpaceOnUse" x1="152.3551" y1="156.4771" x2="205.8555" y2="156.4771">
							<stop  offset="0" style="stop-color:#5761D7"/>
							<stop  offset="0.1645" style="stop-color:#5E67DA"/>
							<stop  offset="0.4051" style="stop-color:#727AE2"/>
							<stop  offset="0.6924" style="stop-color:#9297EE"/>
							<stop  offset="1" style="stop-color:#BCBEFF"/>
						</linearGradient>
						<polygon style="fill:url(#SVGID_19_);" points="204.43,149.25 204.43,151.66 183.55,163.71 162.68,151.66 162.68,149.24 
													"/>
						<polygon style="fill:#BCBEFF;" points="183.55,161.3 162.68,149.24 183.55,137.19 204.43,149.25 						"/>
						<polygon style="fill:#FFFFFF;" points="183.55,161.02 162.92,149.1 162.68,149.24 183.55,161.3 204.43,149.25 204.18,149.1 
													"/>
					</g>
					<g>
						<polygon style="fill:#0F054C;" points="183.55,158.52 167.5,149.25 183.55,139.98 199.61,149.25 						"/>
						<g>
							<linearGradient id="SVGID_20_" gradientUnits="userSpaceOnUse" x1="167.4959" y1="149.2477" x2="199.6082" y2="149.2477">
								<stop  offset="0" style="stop-color:#42E8E0"/>
								<stop  offset="0.1507" style="stop-color:#43E3E0"/>
								<stop  offset="0.3285" style="stop-color:#45D5DF"/>
								<stop  offset="0.5199" style="stop-color:#49BDDD"/>
								<stop  offset="0.7209" style="stop-color:#4E9CDB"/>
								<stop  offset="0.9274" style="stop-color:#5472D8"/>
								<stop  offset="1" style="stop-color:#5761D7"/>
							</linearGradient>
							<polygon style="opacity:0.5;fill:url(#SVGID_20_);" points="183.55,158.52 167.5,149.25 183.55,139.98 199.61,149.25 							
								"/>
							<g>
								<linearGradient id="SVGID_21_" gradientUnits="userSpaceOnUse" x1="183.5518" y1="143.4439" x2="199.6082" y2="143.4439">
									<stop  offset="0" style="stop-color:#42E8E0"/>
									<stop  offset="0.1507" style="stop-color:#43E3E0"/>
									<stop  offset="0.3285" style="stop-color:#45D5DF"/>
									<stop  offset="0.5199" style="stop-color:#49BDDD"/>
									<stop  offset="0.7209" style="stop-color:#4E9CDB"/>
									<stop  offset="0.9274" style="stop-color:#5472D8"/>
									<stop  offset="1" style="stop-color:#5761D7"/>
								</linearGradient>
								<polygon style="opacity:0.5;fill:url(#SVGID_21_);" points="183.55,137.64 199.61,146.91 199.61,149.25 183.55,139.98 
																	"/>
								<linearGradient id="SVGID_22_" gradientUnits="userSpaceOnUse" x1="167.4959" y1="143.4437" x2="183.5523" y2="143.4437">
									<stop  offset="0" style="stop-color:#42E8E0"/>
									<stop  offset="0.1507" style="stop-color:#43E3E0"/>
									<stop  offset="0.3285" style="stop-color:#45D5DF"/>
									<stop  offset="0.5199" style="stop-color:#49BDDD"/>
									<stop  offset="0.7209" style="stop-color:#4E9CDB"/>
									<stop  offset="0.9274" style="stop-color:#5472D8"/>
									<stop  offset="1" style="stop-color:#5761D7"/>
								</linearGradient>
								<polygon style="opacity:0.5;fill:url(#SVGID_22_);" points="183.55,139.98 167.5,149.25 167.5,146.91 183.55,137.64 
																	"/>
								<linearGradient id="SVGID_23_" gradientUnits="userSpaceOnUse" x1="167.4959" y1="146.9101" x2="199.6082" y2="146.9101">
									<stop  offset="0" style="stop-color:#42E8E0"/>
									<stop  offset="0.1507" style="stop-color:#43E3E0"/>
									<stop  offset="0.3285" style="stop-color:#45D5DF"/>
									<stop  offset="0.5199" style="stop-color:#49BDDD"/>
									<stop  offset="0.7209" style="stop-color:#4E9CDB"/>
									<stop  offset="0.9274" style="stop-color:#5472D8"/>
									<stop  offset="1" style="stop-color:#5761D7"/>
								</linearGradient>
								<polygon style="opacity:0.5;fill:url(#SVGID_23_);" points="183.55,156.18 167.5,146.91 183.55,137.64 199.61,146.91 
																	"/>
								<polygon style="opacity:0.5;fill:#42E8E0;" points="183.55,150.61 177.14,146.91 183.55,143.21 189.97,146.91 								"/>
								<polygon style="opacity:0.5;fill:#42E8E0;" points="183.55,143.55 189.67,147.08 189.97,146.91 183.55,143.21 
									177.14,146.91 177.43,147.08 								"/>
								<linearGradient id="SVGID_24_" gradientUnits="userSpaceOnUse" x1="183.5523" y1="152.7139" x2="199.6082" y2="152.7139">
									<stop  offset="0" style="stop-color:#42E8E0"/>
									<stop  offset="0.1507" style="stop-color:#43E3E0"/>
									<stop  offset="0.3285" style="stop-color:#45D5DF"/>
									<stop  offset="0.5199" style="stop-color:#49BDDD"/>
									<stop  offset="0.7209" style="stop-color:#4E9CDB"/>
									<stop  offset="0.9274" style="stop-color:#5472D8"/>
									<stop  offset="1" style="stop-color:#5761D7"/>
								</linearGradient>
								<polygon style="opacity:0.5;fill:url(#SVGID_24_);" points="183.55,156.18 183.55,158.52 199.61,149.25 199.61,146.91 
																	"/>
							</g>
							<linearGradient id="SVGID_25_" gradientUnits="userSpaceOnUse" x1="167.4959" y1="152.7138" x2="183.5523" y2="152.7138">
								<stop  offset="0" style="stop-color:#42E8E0"/>
								<stop  offset="0.1507" style="stop-color:#43E3E0"/>
								<stop  offset="0.3285" style="stop-color:#45D5DF"/>
								<stop  offset="0.5199" style="stop-color:#49BDDD"/>
								<stop  offset="0.7209" style="stop-color:#4E9CDB"/>
								<stop  offset="0.9274" style="stop-color:#5472D8"/>
								<stop  offset="1" style="stop-color:#5761D7"/>
							</linearGradient>
							<polygon style="opacity:0.5;fill:url(#SVGID_25_);" points="167.5,146.91 167.5,149.25 183.55,158.52 183.55,156.18 							
								"/>
						</g>
						<polygon style="opacity:0.8;fill:#42E8E0;" points="183.55,155.93 167.72,146.78 167.5,146.91 183.55,156.18 199.61,146.91 
							199.39,146.78 						"/>
					</g>
				</g>
			</g>
		</g>
		<g>
			<polygon style="fill:#BCBEFF;" points="141.77,121.89 104.66,100.47 141.76,79.05 178.87,100.47 			"/>
			<polygon style="opacity:0.7;fill:#453C9E;" points="141.77,119.96 108.01,100.47 141.76,80.98 175.52,100.47 			"/>
			<path style="fill:#8686F2;" d="M141.77,210.21c-0.57,0-1.14-0.15-1.65-0.44l-45.44-26.24c-0.31-0.18-0.49-0.49-0.49-0.84
				c0-0.35,0.18-0.67,0.49-0.84l47.1-27.19l48.56,28.04l-46.9,27.08C142.91,210.07,142.34,210.21,141.77,210.21z M140.29,209.46
				c0.91,0.53,2.04,0.52,2.95,0l46.37-26.77l-47.85-27.62l-46.92,27.09c-0.19,0.11-0.31,0.31-0.31,0.54c0,0.22,0.12,0.42,0.31,0.54
				L140.29,209.46z"/>
			<polygon style="fill:#FFFFFF;" points="141.77,204.11 104.66,182.69 141.76,161.27 178.87,182.69 			"/>
			<linearGradient id="SVGID_26_" gradientUnits="userSpaceOnUse" x1="160.3156" y1="180.9603" x2="160.3156" y2="102.667">
				<stop  offset="0" style="stop-color:#C0BFF6"/>
				<stop  offset="0.2938" style="stop-color:#C5C4F7"/>
				<stop  offset="0.6399" style="stop-color:#D3D2F9"/>
				<stop  offset="1" style="stop-color:#E9E9FD"/>
			</linearGradient>
			<polygon style="fill:url(#SVGID_26_);" points="178.87,100.47 178.87,182.69 141.77,204.11 141.77,121.89 			"/>
			<polygon style="fill:#24126A;" points="104.66,100.47 104.66,182.69 141.77,204.11 141.77,121.89 			"/>
			<g style="opacity:0.51;">
				<polygon style="fill:#453C9E;" points="107.18,105.92 107.18,179.83 139.25,198.35 139.25,124.44 				"/>
			</g>
			<polygon style="fill:#453C9E;" points="173.3,120.33 173.3,122.51 147.33,137.5 147.33,135.33 			"/>
			<polygon style="fill:#453C9E;" points="173.3,129.52 173.3,131.7 147.33,146.69 147.33,144.52 			"/>
			<polygon style="fill:#453C9E;" points="173.3,138.71 173.3,140.89 147.33,155.88 147.33,153.71 			"/>
			<polygon style="fill:#453C9E;" points="173.3,147.9 173.3,150.07 147.33,165.07 147.33,162.89 			"/>
			<polygon style="fill:#453C9E;" points="173.3,157.09 173.3,159.26 147.33,174.26 147.33,172.08 			"/>
			<polygon style="fill:#453C9E;" points="173.3,166.28 173.3,168.45 147.33,183.45 147.33,181.27 			"/>
			<polygon style="fill:#FFFFFF;" points="141.77,121.19 105.27,100.12 104.66,100.47 141.77,121.89 178.87,100.47 178.26,100.12 
							"/>
			<g style="opacity:0.51;">
				<polygon style="fill:#453C9E;" points="104.66,169.7 141.77,147.3 141.77,121.89 104.66,100.47 				"/>
			</g>
			<g>
				<polygon style="fill:#42E8E0;" points="111.02,132.1 115.64,134.76 115.64,133.96 111.02,131.3 				"/>
				<polygon style="fill:#42E8E0;" points="116.38,135.19 118.89,136.64 118.89,135.84 116.38,134.39 				"/>
				<polygon style="fill:#42E8E0;" points="122.81,138.9 124.63,139.95 124.63,139.15 122.81,138.1 				"/>
				<polygon style="fill:#42E8E0;" points="121.48,138.13 122.1,138.49 122.1,137.69 121.48,137.33 				"/>
				<polygon style="fill:#42E8E0;" points="119.65,137.07 120.77,137.72 120.78,136.92 119.65,136.27 				"/>
				<polygon style="fill:#42E8E0;" points="115.29,138.22 117.11,139.27 117.11,138.47 115.29,137.42 				"/>
				<polygon style="fill:#42E8E0;" points="111.02,135.76 114.58,137.82 114.58,137.02 111.02,134.96 				"/>
				<g>
					<polygon style="fill:#42E8E0;" points="117.66,148.74 121.23,150.8 121.23,150 117.67,147.94 					"/>
					<polygon style="fill:#42E8E0;" points="115.83,147.68 116.96,148.33 116.96,147.53 115.83,146.88 					"/>
				</g>
				<polygon style="fill:#42E8E0;" points="117.65,145.08 121.21,147.13 121.21,146.33 117.65,144.27 				"/>
				<polygon style="fill:#42E8E0;" points="115.81,144.02 116.94,144.67 116.94,143.87 115.81,143.21 				"/>
				<polygon style="fill:#42E8E0;" points="117.69,164.56 110.97,160.68 110.97,161.48 117.69,165.36 				"/>
				<polygon style="fill:#42E8E0;" points="120.05,165.93 118.39,164.97 118.39,165.77 120.05,166.73 				"/>
				<polygon style="fill:#42E8E0;" points="130.94,166.7 124.22,162.82 124.22,163.62 130.93,167.5 				"/>
				<polygon style="fill:#42E8E0;" points="133.3,168.07 131.64,167.11 131.64,167.91 133.3,168.87 				"/>
				<polygon style="fill:#42E8E0;" points="112.79,159.9 110.97,158.85 110.97,159.65 112.79,160.7 				"/>
				<polygon style="fill:#42E8E0;" points="123.25,162.27 121.43,161.22 121.43,162.02 123.25,163.07 				"/>
				<polygon style="fill:#42E8E0;" points="117.06,162.37 113.5,160.31 113.49,161.11 117.06,163.17 				"/>
				<polygon style="fill:#42E8E0;" points="118.9,163.43 117.77,162.77 117.77,163.58 118.9,164.23 				"/>
				<polygon style="fill:#42E8E0;" points="123.2,165.91 119.63,163.85 119.63,164.65 123.2,166.71 				"/>
				<polygon style="fill:#42E8E0;" points="125.04,166.97 123.91,166.32 123.9,167.12 125.03,167.77 				"/>
				<polygon style="fill:#42E8E0;" points="123.25,164.1 121.43,163.05 121.43,163.85 123.25,164.9 				"/>
				<polygon style="fill:#42E8E0;" points="127.52,166.57 123.95,164.51 123.95,165.31 127.52,167.37 				"/>
				<polygon style="fill:#42E8E0;" points="129.35,167.63 128.22,166.98 128.22,167.78 129.35,168.43 				"/>
				<polygon style="fill:#42E8E0;" points="114.7,159.17 110.97,157.02 110.97,157.82 114.69,159.97 				"/>
				<polygon style="fill:#42E8E0;" points="118.09,161.13 115.4,159.58 115.4,160.38 118.09,161.93 				"/>
				<polygon style="fill:#42E8E0;" points="120.62,162.59 118.8,161.54 118.8,162.34 120.62,163.39 				"/>
				<polygon style="fill:#42E8E0;" points="132.93,146.57 136.66,148.72 136.66,147.92 132.93,145.77 				"/>
				<polygon style="fill:#42E8E0;" points="129.54,144.61 132.23,146.16 132.23,145.36 129.54,143.81 				"/>
				<polygon style="fill:#42E8E0;" points="127.01,143.15 128.83,144.2 128.83,143.4 127.01,142.35 				"/>
				<polygon style="fill:#42E8E0;" points="131.39,143.84 135.11,145.99 135.11,145.19 131.39,143.04 				"/>
				<polygon style="fill:#42E8E0;" points="127.99,141.88 130.68,143.43 130.68,142.63 127.99,141.08 				"/>
				<polygon style="fill:#42E8E0;" points="125.46,140.42 127.28,141.47 127.29,140.67 125.47,139.62 				"/>
				<polygon style="fill:#42E8E0;" points="118.2,147.23 119.46,147.95 119.46,147.15 118.2,146.43 				"/>
				<polygon style="fill:#42E8E0;" points="115.83,145.86 117.49,146.82 117.49,146.02 115.83,145.06 				"/>
				<polygon style="fill:#42E8E0;" points="114.72,157.35 111,155.2 111,156 114.72,158.15 				"/>
				<polygon style="fill:#42E8E0;" points="118.12,159.31 115.43,157.76 115.43,158.56 118.12,160.11 				"/>
				<polygon style="fill:#42E8E0;" points="120.65,160.77 118.82,159.72 118.82,160.52 120.64,161.57 				"/>
				<polygon style="fill:#42E8E0;" points="112.26,154.1 111,153.37 111,154.17 112.26,154.9 				"/>
				<polygon style="fill:#42E8E0;" points="114.62,155.46 112.96,154.5 112.96,155.3 114.62,156.26 				"/>
				<polygon style="fill:#42E8E0;" points="118.01,157.42 115.33,155.87 115.33,156.67 118.01,158.22 				"/>
				<polygon style="fill:#42E8E0;" points="118.99,142.18 120.24,142.91 120.24,142.11 118.99,141.38 				"/>
				<polygon style="fill:#42E8E0;" points="116.62,140.81 118.28,141.77 118.28,140.97 116.62,140.01 				"/>
				<polygon style="fill:#42E8E0;" points="113.23,138.86 115.91,140.41 115.91,139.61 113.24,138.06 				"/>
				<polygon style="fill:#42E8E0;" points="121.19,145.15 123.87,146.7 123.87,145.9 121.19,144.35 				"/>
				<polygon style="fill:#42E8E0;" points="116.83,142.77 120.44,144.85 120.44,144.05 116.83,141.96 				"/>
				<polygon style="fill:#42E8E0;" points="114.99,141.71 116.12,142.36 116.12,141.56 114.99,140.91 				"/>
				<polygon style="fill:#42E8E0;" points="113.23,140.69 114.36,141.34 114.36,140.54 113.23,139.89 				"/>
				<g>
					<polygon style="fill:#42E8E0;" points="115.04,151.03 118.6,153.09 118.6,152.29 115.04,150.23 					"/>
					<polygon style="fill:#42E8E0;" points="113.2,149.97 114.33,150.62 114.33,149.82 113.2,149.17 					"/>
					<polygon style="fill:#42E8E0;" points="115.59,153.18 116.85,153.91 116.85,153.11 115.59,152.38 					"/>
					<polygon style="fill:#42E8E0;" points="119.41,151.72 120.67,152.44 120.67,151.64 119.41,150.91 					"/>
					<polygon style="fill:#42E8E0;" points="121.21,152.75 124.22,154.49 124.23,153.69 121.21,151.95 					"/>
					<polygon style="fill:#42E8E0;" points="124.76,154.8 126.56,155.84 126.56,155.03 124.76,154 					"/>
					<polygon style="fill:#42E8E0;" points="113.22,151.82 114.88,152.78 114.89,151.97 113.22,151.01 					"/>
					<g>
						<polygon style="fill:#42E8E0;" points="113.37,153.7 114.63,154.42 114.63,153.62 113.37,152.9 						"/>
						<polygon style="fill:#42E8E0;" points="111,152.33 112.66,153.29 112.66,152.49 111,151.53 						"/>
					</g>
					<polygon style="fill:#42E8E0;" points="117.59,150.66 118.72,151.32 118.72,150.51 117.59,149.86 					"/>
					<polygon style="fill:#42E8E0;" points="115.83,149.65 116.96,150.3 116.96,149.5 115.83,148.85 					"/>
				</g>
				<polygon style="fill:#42E8E0;" points="122.33,140.45 126.18,142.67 126.18,141.87 122.33,139.65 				"/>
				<polygon style="fill:#42E8E0;" points="118.01,137.96 121.62,140.04 121.62,139.24 118.01,137.15 				"/>
				<polygon style="fill:#42E8E0;" points="116.18,136.9 117.31,137.55 117.31,136.75 116.18,136.09 				"/>
				<polygon style="fill:#42E8E0;" points="114.42,135.88 115.55,136.53 115.55,135.73 114.42,135.08 				"/>
				<polygon style="fill:#42E8E0;" points="113.45,135.32 111.02,133.92 111.02,133.11 113.46,134.52 				"/>
			</g>
			<g>
				<polygon style="fill:#BCBEFF;" points="141.77,105.89 104.66,84.47 141.76,63.05 178.87,84.47 				"/>
				<polygon style="fill:#453C9E;" points="141.77,100.04 114.8,84.47 141.76,68.89 168.74,84.47 				"/>
				<polygon style="fill:#FFFFFF;" points="141.76,69.95 167.82,84.99 168.74,84.47 141.76,68.89 114.8,84.47 115.71,84.99 				"/>
				<linearGradient id="SVGID_27_" gradientUnits="userSpaceOnUse" x1="160.3156" y1="110.5305" x2="160.3156" y2="85.1775">
					<stop  offset="0" style="stop-color:#C0BFF6"/>
					<stop  offset="0.2938" style="stop-color:#C5C4F7"/>
					<stop  offset="0.6399" style="stop-color:#D3D2F9"/>
					<stop  offset="1" style="stop-color:#E9E9FD"/>
				</linearGradient>
				<polygon style="fill:url(#SVGID_27_);" points="178.87,84.47 178.87,96.61 141.77,118.03 141.77,105.89 				"/>
				<polygon style="fill:#24126A;" points="104.66,84.47 104.66,96.61 141.77,118.03 141.77,105.89 				"/>
				<g style="opacity:0.51;">
					<polygon style="fill:#453C9E;" points="107.18,89.92 107.18,93.74 139.25,112.26 139.25,108.44 					"/>
				</g>
				<polygon style="fill:#FFFFFF;" points="141.77,105.19 105.27,84.12 104.66,84.47 141.77,105.89 178.87,84.47 178.26,84.12 				
					"/>
				<polygon style="fill:#453C9E;" points="173.3,92.97 173.3,95.15 147.33,110.14 147.33,107.97 				"/>
				<polygon style="opacity:0.51;fill:#453C9E;" points="104.66,84.47 104.66,96.61 141.77,118.03 141.77,105.89 				"/>
				<polygon style="fill:#42E8E0;" points="130.94,105.24 124.22,101.36 124.22,102.16 130.93,106.04 				"/>
				<polygon style="fill:#42E8E0;" points="123.25,100.81 121.43,99.76 121.43,100.56 123.25,101.61 				"/>
				<polygon style="fill:#42E8E0;" points="114.72,95.89 111,93.74 111,94.54 114.72,96.69 				"/>
				<polygon style="fill:#42E8E0;" points="118.12,97.85 115.43,96.3 115.43,97.1 118.12,98.65 				"/>
				<polygon style="fill:#42E8E0;" points="120.65,99.31 118.82,98.26 118.82,99.06 120.64,100.11 				"/>
				<g>
					<g>
						<polygon style="fill:#42E8E0;" points="141.8,74.24 140.63,73.56 141.8,72.88 142.98,73.56 						"/>
						<polygon style="opacity:0.1;fill:#42E8E0;" points="144.16,75.6 142.98,74.92 144.16,74.24 145.34,74.92 						"/>
						<polygon style="opacity:0.4;fill:#42E8E0;" points="146.52,76.96 145.34,76.28 146.52,75.6 147.69,76.28 						"/>
						<polygon style="fill:#42E8E0;" points="148.87,78.32 147.69,77.64 148.87,76.96 150.05,77.64 						"/>
						<polygon style="opacity:0.4;fill:#42E8E0;" points="151.23,79.68 150.05,79 151.23,78.32 152.41,79 						"/>
						<polygon style="fill:#42E8E0;" points="153.58,81.04 152.41,80.36 153.58,79.68 154.76,80.36 						"/>
						<polygon style="fill:#42E8E0;" points="155.94,82.4 154.76,81.72 155.94,81.04 157.12,81.72 						"/>
						<polygon style="fill:#42E8E0;" points="158.3,83.76 157.12,83.08 158.3,82.4 159.47,83.08 						"/>
						<polygon style="opacity:0.1;fill:#42E8E0;" points="160.65,85.12 159.47,84.44 160.65,83.76 161.83,84.44 						"/>
					</g>
					<g>
						<polygon style="fill:#42E8E0;" points="139.44,75.61 138.26,74.93 139.44,74.25 140.62,74.93 						"/>
						<polygon style="fill:#42E8E0;" points="141.79,76.97 140.62,76.29 141.79,75.61 142.97,76.29 						"/>
						<polygon style="fill:#42E8E0;" points="144.15,78.33 142.97,77.65 144.15,76.97 145.33,77.65 						"/>
						<polygon style="fill:#42E8E0;" points="146.51,79.69 145.33,79.01 146.51,78.33 147.68,79.01 						"/>
						<polygon style="fill:#42E8E0;" points="148.86,81.05 147.68,80.37 148.86,79.69 150.04,80.37 						"/>
						<polygon style="fill:#42E8E0;" points="151.22,82.41 150.04,81.73 151.22,81.05 152.4,81.73 						"/>
						<polygon style="fill:#42E8E0;" points="153.57,83.77 152.4,83.09 153.57,82.41 154.75,83.09 						"/>
						<polygon style="fill:#42E8E0;" points="155.93,85.13 154.75,84.45 155.93,83.77 157.11,84.45 						"/>
						<polygon style="fill:#42E8E0;" points="158.29,86.49 157.11,85.81 158.29,85.13 159.47,85.81 						"/>
					</g>
					<g>
						<polygon style="fill:#42E8E0;" points="137.07,76.97 135.89,76.29 137.07,75.61 138.25,76.29 						"/>
						<polygon style="fill:#42E8E0;" points="139.43,78.33 138.25,77.65 139.43,76.97 140.61,77.65 						"/>
						<polygon style="fill:#42E8E0;" points="141.78,79.69 140.61,79.01 141.78,78.33 142.96,79.01 						"/>
						<polygon style="opacity:0.1;fill:#42E8E0;" points="144.14,81.05 142.96,80.37 144.14,79.69 145.32,80.37 						"/>
						<polygon style="opacity:0.4;fill:#42E8E0;" points="146.5,82.41 145.32,81.73 146.5,81.05 147.67,81.73 						"/>
						<polygon style="opacity:0.4;fill:#42E8E0;" points="148.85,83.77 147.67,83.09 148.85,82.41 150.03,83.09 						"/>
						<polygon style="fill:#42E8E0;" points="151.21,85.13 150.03,84.45 151.21,83.77 152.39,84.45 						"/>
						<polygon style="fill:#42E8E0;" points="153.57,86.49 152.39,85.81 153.57,85.13 154.74,85.81 						"/>
						<polygon style="fill:#42E8E0;" points="155.92,87.86 154.74,87.18 155.92,86.49 157.1,87.18 						"/>
					</g>
					<g>
						<polygon style="opacity:0.4;fill:#42E8E0;" points="134.71,78.34 133.53,77.66 134.71,76.98 135.88,77.66 						"/>
						<polygon style="opacity:0.4;fill:#42E8E0;" points="137.06,79.7 135.88,79.02 137.06,78.34 138.24,79.02 						"/>
						<polygon style="opacity:0.1;fill:#42E8E0;" points="139.42,81.06 138.24,80.38 139.42,79.7 140.6,80.38 						"/>
						<polygon style="fill:#42E8E0;" points="141.77,82.42 140.6,81.74 141.77,81.06 142.95,81.74 						"/>
						<polygon style="fill:#42E8E0;" points="144.13,83.78 142.95,83.1 144.13,82.42 145.31,83.1 						"/>
						<polygon style="fill:#42E8E0;" points="146.49,85.14 145.31,84.46 146.49,83.78 147.67,84.46 						"/>
						<polygon style="opacity:0.4;fill:#42E8E0;" points="148.84,86.5 147.67,85.82 148.84,85.14 150.02,85.82 						"/>
						<polygon style="fill:#42E8E0;" points="151.2,87.86 150.02,87.18 151.2,86.5 152.38,87.18 						"/>
						<polygon style="fill:#42E8E0;" points="153.56,89.22 152.38,88.54 153.56,87.86 154.73,88.54 						"/>
					</g>
					<g>
						<polygon style="fill:#42E8E0;" points="132.34,79.7 131.16,79.02 132.34,78.34 133.52,79.02 						"/>
						<polygon style="fill:#42E8E0;" points="134.7,81.06 133.52,80.38 134.7,79.7 135.87,80.38 						"/>
						<polygon style="fill:#42E8E0;" points="137.05,82.42 135.87,81.74 137.05,81.06 138.23,81.74 						"/>
						<polygon style="fill:#42E8E0;" points="139.41,83.79 138.23,83.1 139.41,82.42 140.59,83.11 						"/>
						<polygon style="fill:#42E8E0;" points="141.77,85.15 140.59,84.47 141.77,83.79 142.94,84.47 						"/>
						<polygon style="fill:#42E8E0;" points="144.12,86.51 142.94,85.83 144.12,85.15 145.3,85.83 						"/>
						<polygon style="fill:#42E8E0;" points="146.48,87.87 145.3,87.19 146.48,86.51 147.66,87.19 						"/>
						<polygon style="fill:#42E8E0;" points="148.83,89.23 147.66,88.55 148.83,87.87 150.01,88.55 						"/>
						<polygon style="fill:#42E8E0;" points="151.19,90.59 150.01,89.91 151.19,89.23 152.37,89.91 						"/>
					</g>
					<g>
						<polygon style="fill:#42E8E0;" points="129.97,81.07 128.8,80.39 129.97,79.71 131.15,80.39 						"/>
						<polygon style="fill:#42E8E0;" points="132.33,82.43 131.15,81.75 132.33,81.07 133.51,81.75 						"/>
						<polygon style="opacity:0.4;fill:#42E8E0;" points="134.69,83.79 133.51,83.11 134.69,82.43 135.87,83.11 						"/>
						<polygon style="fill:#42E8E0;" points="137.04,85.15 135.87,84.47 137.04,83.79 138.22,84.47 						"/>
						<polygon style="opacity:0.1;fill:#42E8E0;" points="139.4,86.51 138.22,85.83 139.4,85.15 140.58,85.83 						"/>
						<polygon style="fill:#42E8E0;" points="141.76,87.87 140.58,87.19 141.76,86.51 142.93,87.19 						"/>
						<polygon style="fill:#42E8E0;" points="144.11,89.23 142.93,88.55 144.11,87.87 145.29,88.55 						"/>
						<polygon style="fill:#42E8E0;" points="146.47,90.59 145.29,89.91 146.47,89.23 147.65,89.91 						"/>
						<polygon style="fill:#42E8E0;" points="148.82,91.95 147.65,91.27 148.82,90.59 150,91.27 						"/>
					</g>
					<g>
						<polygon style="fill:#42E8E0;" points="127.61,82.44 126.43,81.76 127.61,81.08 128.79,81.76 						"/>
						<polygon style="fill:#42E8E0;" points="129.97,83.8 128.79,83.12 129.97,82.44 131.14,83.12 						"/>
						<polygon style="opacity:0.4;fill:#42E8E0;" points="132.32,85.16 131.14,84.48 132.32,83.8 133.5,84.48 						"/>
						<polygon style="fill:#42E8E0;" points="134.68,86.52 133.5,85.84 134.68,85.16 135.86,85.84 						"/>
						<polygon style="fill:#42E8E0;" points="137.03,87.88 135.86,87.2 137.03,86.52 138.21,87.2 						"/>
						<polygon style="opacity:0.1;fill:#42E8E0;" points="139.39,89.24 138.21,88.56 139.39,87.88 140.57,88.56 						"/>
						<polygon style="opacity:0.4;fill:#42E8E0;" points="141.75,90.6 140.57,89.92 141.75,89.24 142.92,89.92 						"/>
						<polygon style="fill:#42E8E0;" points="144.1,91.96 142.92,91.28 144.1,90.6 145.28,91.28 						"/>
						<polygon style="opacity:0.1;fill:#42E8E0;" points="146.46,93.32 145.28,92.64 146.46,91.96 147.64,92.64 						"/>
					</g>
					<g>
						<polygon style="fill:#42E8E0;" points="125.24,83.8 124.07,83.12 125.24,82.44 126.42,83.12 						"/>
						<polygon style="opacity:0.4;fill:#42E8E0;" points="127.6,85.16 126.42,84.48 127.6,83.8 128.78,84.48 						"/>
						<polygon style="fill:#42E8E0;" points="129.96,86.52 128.78,85.84 129.96,85.16 131.13,85.84 						"/>
						<polygon style="fill:#42E8E0;" points="132.31,87.88 131.13,87.2 132.31,86.52 133.49,87.2 						"/>
						<polygon style="fill:#42E8E0;" points="134.67,89.24 133.49,88.56 134.67,87.88 135.85,88.56 						"/>
						<polygon style="fill:#42E8E0;" points="137.02,90.6 135.85,89.92 137.02,89.24 138.2,89.92 						"/>
						<polygon style="fill:#42E8E0;" points="139.38,91.96 138.2,91.28 139.38,90.6 140.56,91.28 						"/>
						<polygon style="opacity:0.4;fill:#42E8E0;" points="141.74,93.32 140.56,92.64 141.74,91.96 142.91,92.64 						"/>
						<polygon style="fill:#42E8E0;" points="144.09,94.68 142.91,94 144.09,93.32 145.27,94 						"/>
					</g>
					<g>
						<polygon style="fill:#42E8E0;" points="122.88,85.17 121.7,84.49 122.88,83.81 124.06,84.49 						"/>
						<polygon style="opacity:0.1;fill:#42E8E0;" points="125.23,86.53 124.06,85.85 125.23,85.17 126.41,85.85 						"/>
						<polygon style="fill:#42E8E0;" points="127.59,87.89 126.41,87.21 127.59,86.53 128.77,87.21 						"/>
						<polygon style="fill:#42E8E0;" points="129.95,89.25 128.77,88.57 129.95,87.89 131.12,88.57 						"/>
						<polygon style="fill:#42E8E0;" points="132.3,90.61 131.12,89.93 132.3,89.25 133.48,89.93 						"/>
						<polygon style="fill:#42E8E0;" points="134.66,91.97 133.48,91.29 134.66,90.61 135.84,91.29 						"/>
						<polygon style="opacity:0.4;fill:#42E8E0;" points="137.01,93.33 135.84,92.65 137.01,91.97 138.19,92.65 						"/>
						<polygon style="fill:#42E8E0;" points="139.37,94.69 138.19,94.01 139.37,93.33 140.55,94.01 						"/>
						<polygon style="fill:#42E8E0;" points="141.73,96.05 140.55,95.37 141.73,94.69 142.91,95.37 						"/>
					</g>
				</g>
			</g>
		</g>
	</g>
	<g>
		<g>
			<g>
				<g>
					<g>
						<path style="fill:#8686F2;" d="M35.51,185.47c-0.57,0-1.13-0.15-1.62-0.43l-18.65-10.77c-0.29-0.17-0.46-0.47-0.46-0.8
							c0-0.34,0.17-0.64,0.46-0.8l33.84-19.54l0.25,0.14l20.02,11.56c0.29,0.17,0.46,0.47,0.46,0.8c0,0.34-0.17,0.64-0.46,0.8
							l-32.23,18.61C36.64,185.32,36.08,185.47,35.51,185.47z M49.09,153.54l-33.66,19.44c-0.18,0.1-0.29,0.29-0.29,0.49
							c0,0.21,0.11,0.39,0.29,0.5l18.65,10.77c0.87,0.5,2,0.5,2.87,0l32.23-18.61c0.18-0.1,0.29-0.29,0.29-0.49
							c0-0.21-0.11-0.39-0.29-0.5L49.09,153.54z"/>
					</g>
					<g>
						<g>
							
								<linearGradient id="SVGID_28_" gradientUnits="userSpaceOnUse" x1="2286.3755" y1="143.0633" x2="2327.8259" y2="143.0633" gradientTransform="matrix(1 0 0 1 -2278.6904 0)">
								<stop  offset="0" style="stop-color:#C0BFF6"/>
								<stop  offset="0.2938" style="stop-color:#C5C4F7"/>
								<stop  offset="0.6399" style="stop-color:#D3D2F9"/>
								<stop  offset="1" style="stop-color:#E9E9FD"/>
							</linearGradient>
							<path style="fill:url(#SVGID_28_);" d="M49.13,145.64L44.64,119l0.36-0.15l-0.54-0.31l0,0c-0.11-0.07-0.25-0.07-0.42,0.03
								L8.16,139.29c-0.29,0.17-0.52,0.61-0.47,0.91l4.53,26.85c0.02,0.14,0.09,0.23,0.19,0.27l0,0l0.53,0.31l0.09-0.5L13,167.14
								l35.66-20.59C48.96,146.38,49.18,145.95,49.13,145.64z"/>
							
								<linearGradient id="SVGID_29_" gradientUnits="userSpaceOnUse" x1="2286.3757" y1="153.6934" x2="2293.4932" y2="153.6934" gradientTransform="matrix(1 0 0 1 -2278.6904 0)">
								<stop  offset="0" style="stop-color:#5761D7"/>
								<stop  offset="0.1779" style="stop-color:#5C66D9"/>
								<stop  offset="0.3876" style="stop-color:#6A73DF"/>
								<stop  offset="0.6134" style="stop-color:#8289E8"/>
								<stop  offset="0.849" style="stop-color:#A3A7F5"/>
								<stop  offset="1" style="stop-color:#BCBEFF"/>
							</linearGradient>
							<path style="fill:url(#SVGID_29_);" d="M8.36,140.02l-0.59-0.26c-0.07,0.15-0.1,0.31-0.08,0.44l4.53,26.85
								c0.02,0.14,0.09,0.23,0.19,0.27l0,0l0.53,0.31l0.09-0.5L13,167.14l1.8-1.04L8.36,140.02z"/>
							<path style="fill:#24126A;" d="M49.22,146.88l-35.88,20.72c-0.28,0.16-0.51,0.07-0.56-0.22l-4.53-26.85
								c-0.05-0.31,0.17-0.74,0.47-0.91L44.6,118.9c0.28-0.16,0.51-0.07,0.56,0.22l4.53,26.85
								C49.74,146.27,49.52,146.71,49.22,146.88z"/>
							<g style="opacity:0.51;">
								<polygon style="fill:#453C9E;" points="44.13,120.61 9.55,140.58 13.84,165.86 48.4,145.91 								"/>
							</g>
						</g>
						<g>
							
								<linearGradient id="SVGID_30_" gradientUnits="userSpaceOnUse" x1="2291.929" y1="165.6429" x2="2350.4705" y2="165.6429" gradientTransform="matrix(1 0 0 1 -2278.6904 0)">
								<stop  offset="0" style="stop-color:#5761D7"/>
								<stop  offset="0.1779" style="stop-color:#5C66D9"/>
								<stop  offset="0.3876" style="stop-color:#6A73DF"/>
								<stop  offset="0.6134" style="stop-color:#8289E8"/>
								<stop  offset="0.849" style="stop-color:#A3A7F5"/>
								<stop  offset="1" style="stop-color:#BCBEFF"/>
							</linearGradient>
							<path style="fill:url(#SVGID_30_);" d="M71.78,159.59l-1.96,1.02l-19.64-11.34c-0.33-0.19-0.9-0.17-1.28,0.05l-33.87,19.55
								c-0.32-0.18-1.8-0.89-1.8-0.89l0.72,1.87l0,0c0.03,0.08,0.09,0.16,0.2,0.22l20.68,11.94c0.33,0.19,0.9,0.17,1.28-0.05
								l34.65-20.01c0.16-0.09,0.25-0.2,0.29-0.31l0,0L71.78,159.59z"/>
							
								<linearGradient id="SVGID_31_" gradientUnits="userSpaceOnUse" x1="2311.5991" y1="163.6909" x2="2370.1716" y2="163.6909" gradientTransform="matrix(1 0 0 1 -2278.6904 0)">
								<stop  offset="0" style="stop-color:#C0BFF6"/>
								<stop  offset="0.2938" style="stop-color:#C5C4F7"/>
								<stop  offset="0.6399" style="stop-color:#D3D2F9"/>
								<stop  offset="1" style="stop-color:#E9E9FD"/>
							</linearGradient>
							<path style="fill:url(#SVGID_31_);" d="M71.48,159.91l-35.52,20.51c-0.39,0.22-0.98,0.25-1.31,0.05l-21.19-12.24
								c-0.34-0.19-0.29-0.53,0.09-0.76l35.52-20.51c0.39-0.22,0.98-0.25,1.31-0.05l21.19,12.24
								C71.91,159.34,71.87,159.68,71.48,159.91z"/>
							<path style="fill:#FFFFFF;" d="M71.48,159.7l-35.52,20.51c-0.39,0.22-0.98,0.25-1.31,0.05l-21.19-12.24
								c-0.11-0.06-0.18-0.14-0.21-0.23c-0.05,0.16,0.01,0.32,0.21,0.43l21.19,12.24c0.34,0.19,0.92,0.17,1.31-0.05l35.52-20.51
								c0.26-0.15,0.36-0.35,0.3-0.53C71.74,159.49,71.64,159.61,71.48,159.7z"/>
							<path style="fill:#2842A2;" d="M25.25,175.98v-0.39c0-0.04,0.02-0.05,0.05-0.04l1.37,0.79c0.03,0.02,0.05,0.06,0.05,0.1v0.39
								c0,0.04-0.02,0.05-0.05,0.04l-1.37-0.79C25.27,176.06,25.25,176.02,25.25,175.98z"/>
							<path style="fill:#2842A2;" d="M27.3,177.16v-0.39c0-0.04,0.02-0.05,0.05-0.04l1.37,0.79c0.03,0.02,0.05,0.06,0.05,0.1v0.39
								c0,0.04-0.02,0.05-0.05,0.04l-1.37-0.79C27.32,177.24,27.3,177.2,27.3,177.16z"/>
							<path style="fill:#ADB1F2;" d="M18.98,167.09l29.51-17.04c0.2-0.11,0.44-0.11,0.64,0l10.51,6.08c0.15,0.09,0.15,0.31,0,0.39
								l-29.5,17.03c-0.2,0.11-0.44,0.11-0.64,0l-10.52-6.07C18.83,167.39,18.83,167.17,18.98,167.09z"/>
							<path style="fill:#9198DB;" d="M18.98,167.48l0.11,0.06l29.41-16.98c0.2-0.11,0.44-0.11,0.64,0l10.4,6.02l0.11-0.06
								c0.15-0.09,0.15-0.31,0-0.39l-10.51-6.08c-0.2-0.11-0.44-0.11-0.64,0l-29.51,17.04C18.83,167.17,18.83,167.39,18.98,167.48z"
								/>
							<g>
								<polygon style="fill:#24126A;" points="49.92,151.59 24.28,166.39 23.14,165.73 48.78,150.93 								"/>
								<polygon style="fill:#24126A;" points="52.72,153.2 28.67,167.08 27.53,166.42 51.58,152.54 								"/>
								<polygon style="fill:#24126A;" points="54.54,154.25 26.22,170.6 25.08,169.94 53.4,153.59 								"/>
								<polygon style="fill:#24126A;" points="56.36,155.3 28.04,171.65 26.9,170.99 55.22,154.64 								"/>
								<polygon style="fill:#24126A;" points="58.18,156.35 29.86,172.7 28.72,172.04 57.04,155.69 								"/>
								<polygon style="fill:#24126A;" points="22.74,167.28 21.6,167.94 20.46,167.28 21.6,166.62 								"/>
								<polygon style="fill:#24126A;" points="26.76,168.19 24.39,169.55 23.25,168.9 25.62,167.53 								"/>
							</g>
							
								<linearGradient id="SVGID_32_" gradientUnits="userSpaceOnUse" x1="2321.5183" y1="167.016" x2="2336.5112" y2="167.016" gradientTransform="matrix(1 0 0 1 -2278.6904 0)">
								<stop  offset="0" style="stop-color:#C0BFF6"/>
								<stop  offset="0.2938" style="stop-color:#C5C4F7"/>
								<stop  offset="0.6399" style="stop-color:#D3D2F9"/>
								<stop  offset="1" style="stop-color:#E9E9FD"/>
							</linearGradient>
							<path style="fill:url(#SVGID_32_);" d="M49.63,171.21l7.96-4.59c0.31-0.18,0.31-0.47,0-0.65l-5.44-3.14
								c-0.31-0.18-0.82-0.18-1.13,0l-7.96,4.59c-0.31,0.18-0.31,0.47,0,0.65l5.44,3.14C48.81,171.39,49.32,171.39,49.63,171.21z"/>
							<path style="fill:#9198DB;" d="M43.06,167.68l7.96-4.59c0.31-0.18,0.82-0.18,1.13,0l5.44,3.14c0.1,0.06,0.16,0.12,0.2,0.19
								c0.08-0.16,0.02-0.33-0.2-0.46l-5.44-3.14c-0.31-0.18-0.82-0.18-1.13,0l-7.96,4.59c-0.22,0.12-0.28,0.3-0.2,0.46
								C42.9,167.81,42.97,167.74,43.06,167.68z"/>
						</g>
					</g>
					<g style="opacity:0.11;">
						<defs>
							<polygon id="SVGID_9_" style="opacity:0.11;" points="44.13,120.61 9.55,140.58 13.84,165.86 48.4,145.91 							"/>
						</defs>
						<clipPath id="SVGID_33_">
							<use xlink:href="#SVGID_9_"  style="overflow:visible;"/>
						</clipPath>
						<g style="clip-path:url(#SVGID_33_);">
							
								<linearGradient id="SVGID_34_" gradientUnits="userSpaceOnUse" x1="2289.2209" y1="150.7085" x2="2347.7935" y2="150.7085" gradientTransform="matrix(1 0 0 1 -2278.6904 0)">
								<stop  offset="0" style="stop-color:#C0BFF6"/>
								<stop  offset="0.2938" style="stop-color:#C5C4F7"/>
								<stop  offset="0.6399" style="stop-color:#D3D2F9"/>
								<stop  offset="1" style="stop-color:#E9E9FD"/>
							</linearGradient>
							<path style="fill:url(#SVGID_34_);" d="M49.1,146.93l-35.52,20.51c-0.39,0.22-0.98,0.25-1.31,0.05l-21.19-12.24
								c-0.34-0.19-0.29-0.53,0.09-0.76l35.52-20.51c0.39-0.22,0.98-0.25,1.31-0.05l21.19,12.24
								C49.53,146.36,49.49,146.7,49.1,146.93z"/>
							
								<linearGradient id="SVGID_35_" gradientUnits="userSpaceOnUse" x1="2285.3657" y1="146.4088" x2="2300.3589" y2="146.4088" gradientTransform="matrix(1 0 0 1 -2278.6904 0)">
								<stop  offset="0" style="stop-color:#C0BFF6"/>
								<stop  offset="0.2938" style="stop-color:#C5C4F7"/>
								<stop  offset="0.6399" style="stop-color:#D3D2F9"/>
								<stop  offset="1" style="stop-color:#E9E9FD"/>
							</linearGradient>
							<path style="fill:url(#SVGID_35_);" d="M13.48,150.6l7.96-4.59c0.31-0.18,0.31-0.47,0-0.65l-5.44-3.14
								c-0.31-0.18-0.82-0.18-1.13,0l-7.96,4.59c-0.31,0.18-0.31,0.47,0,0.65l5.44,3.14C12.66,150.78,13.17,150.78,13.48,150.6z"/>
							<path style="fill:#9198DB;" d="M6.91,147.08l7.96-4.59c0.31-0.18,0.82-0.18,1.13,0l5.44,3.14c0.1,0.06,0.16,0.12,0.2,0.19
								c0.08-0.16,0.02-0.33-0.2-0.46l-5.44-3.14c-0.31-0.18-0.82-0.18-1.13,0l-7.96,4.59c-0.22,0.12-0.28,0.3-0.2,0.46
								C6.75,147.2,6.81,147.13,6.91,147.08z"/>
							<g>
								<path style="fill:#ADB1F2;" d="M3.41,157.78l29.51-17.04c0.2-0.11,0.44-0.11,0.64,0l10.51,6.08c0.15,0.09,0.15,0.31,0,0.39
									l-29.5,17.03c-0.2,0.11-0.44,0.11-0.64,0l-10.52-6.07C3.26,158.09,3.26,157.87,3.41,157.78z"/>
								<path style="fill:#9198DB;" d="M3.41,158.18l0.11,0.06l29.41-16.98c0.2-0.11,0.44-0.11,0.64,0l10.4,6.02l0.11-0.06
									c0.15-0.09,0.15-0.31,0-0.39l-10.51-6.08c-0.2-0.11-0.44-0.11-0.64,0L3.41,157.78C3.26,157.87,3.26,158.09,3.41,158.18z"/>
								<g>
									<polygon style="fill:#24126A;" points="41.32,146.41 15.61,161.25 16.63,161.84 42.34,147 									"/>
									<polygon style="fill:#24126A;" points="38.61,144.84 14.17,158.95 15.19,159.54 39.63,145.43 									"/>
									<polygon style="fill:#24126A;" points="12.35,160.01 10.06,161.33 11.08,161.91 13.37,160.6 									"/>
									<polygon style="fill:#24126A;" points="14.36,161.97 12.77,162.89 13.79,163.48 15.38,162.56 									"/>
									<polygon style="fill:#24126A;" points="36.91,143.86 8.37,160.35 9.39,160.93 37.93,144.45 									"/>
									<polygon style="fill:#24126A;" points="35.22,142.88 6.67,159.37 7.69,159.95 36.23,143.47 									"/>
									<polygon style="fill:#24126A;" points="33.52,141.9 4.97,158.39 5.99,158.97 34.54,142.49 									"/>
								</g>
							</g>
						</g>
					</g>
				</g>
			</g>
		</g>
		<g>
			<polygon style="fill:#42E8E0;" points="22.57,156.22 25.37,154.61 25.45,155.09 22.65,156.71 			"/>
			<polygon style="fill:#42E8E0;" points="25.82,154.35 27.34,153.47 27.43,153.95 25.9,154.83 			"/>
			<polygon style="fill:#42E8E0;" points="29.72,152.1 30.82,151.46 30.9,151.95 29.8,152.58 			"/>
			<polygon style="fill:#42E8E0;" points="28.91,152.56 29.29,152.35 29.37,152.83 28.99,153.05 			"/>
			<polygon style="fill:#42E8E0;" points="27.8,153.21 28.48,152.81 28.57,153.3 27.88,153.69 			"/>
			<polygon style="fill:#42E8E0;" points="24.78,152.51 25.89,151.87 25.97,152.36 24.87,152.99 			"/>
			<polygon style="fill:#42E8E0;" points="22.2,154 24.36,152.75 24.44,153.24 22.28,154.49 			"/>
			<g>
				<polygon style="fill:#42E8E0;" points="25.29,146.13 27.46,144.88 27.54,145.37 25.38,146.61 				"/>
				<polygon style="fill:#42E8E0;" points="24.18,146.77 24.87,146.38 24.95,146.86 24.26,147.26 				"/>
			</g>
			<polygon style="fill:#42E8E0;" points="25.65,148.35 27.82,147.1 27.9,147.59 25.74,148.84 			"/>
			<polygon style="fill:#42E8E0;" points="24.54,148.99 25.23,148.6 25.31,149.08 24.62,149.48 			"/>
			<polygon style="fill:#42E8E0;" points="23.7,136.54 19.63,138.89 19.54,138.4 23.62,136.05 			"/>
			<polygon style="fill:#42E8E0;" points="25.13,135.71 24.13,136.29 24.04,135.8 25.05,135.22 			"/>
			<polygon style="fill:#42E8E0;" points="32.29,135.23 28.22,137.59 28.14,137.1 32.21,134.75 			"/>
			<polygon style="fill:#42E8E0;" points="33.72,134.41 32.72,134.99 32.63,134.5 33.64,133.92 			"/>
			<polygon style="fill:#42E8E0;" points="20.92,139.36 19.81,140 19.73,139.51 20.84,138.88 			"/>
			<polygon style="fill:#42E8E0;" points="27.63,137.92 26.53,138.56 26.44,138.07 27.55,137.44 			"/>
			<polygon style="fill:#42E8E0;" points="23.51,137.87 21.35,139.11 21.26,138.63 23.42,137.38 			"/>
			<polygon style="fill:#42E8E0;" points="24.62,137.22 23.93,137.62 23.85,137.13 24.54,136.74 			"/>
			<polygon style="fill:#42E8E0;" points="27.23,135.72 25.07,136.97 24.98,136.48 27.15,135.23 			"/>
			<polygon style="fill:#42E8E0;" points="28.34,135.07 27.66,135.47 27.57,134.98 28.26,134.59 			"/>
			<polygon style="fill:#42E8E0;" points="27.44,136.81 26.34,137.45 26.26,136.96 27.36,136.33 			"/>
			<polygon style="fill:#42E8E0;" points="30.03,135.32 27.87,136.56 27.79,136.08 29.95,134.83 			"/>
			<polygon style="fill:#42E8E0;" points="31.14,134.67 30.46,135.07 30.38,134.58 31.06,134.19 			"/>
			<polygon style="fill:#42E8E0;" points="22.26,139.8 20,141.11 19.92,140.62 22.18,139.32 			"/>
			<polygon style="fill:#42E8E0;" points="24.32,138.61 22.69,139.56 22.6,139.07 24.24,138.13 			"/>
			<polygon style="fill:#42E8E0;" points="25.85,137.73 24.75,138.37 24.66,137.88 25.77,137.24 			"/>
			<polygon style="fill:#42E8E0;" points="36.55,132.78 34.29,134.08 34.21,133.6 36.47,132.29 			"/>
			<polygon style="fill:#42E8E0;" points="38.61,131.59 36.98,132.53 36.89,132.04 38.53,131.1 			"/>
			<polygon style="fill:#42E8E0;" points="40.14,130.7 39.04,131.34 38.95,130.85 40.06,130.22 			"/>
			<polygon style="fill:#42E8E0;" points="35.67,147.44 37.92,146.14 38.01,146.63 35.75,147.93 			"/>
			<polygon style="fill:#42E8E0;" points="33.61,148.63 35.24,147.69 35.32,148.18 33.69,149.12 			"/>
			<polygon style="fill:#42E8E0;" points="32.08,149.52 33.18,148.88 33.26,149.37 32.16,150 			"/>
			<polygon style="fill:#42E8E0;" points="34.92,149.1 37.17,147.8 37.26,148.28 35,149.59 			"/>
			<polygon style="fill:#42E8E0;" points="32.86,150.29 34.49,149.35 34.57,149.83 32.94,150.78 			"/>
			<polygon style="fill:#42E8E0;" points="31.33,151.17 32.43,150.54 32.51,151.02 31.41,151.66 			"/>
			<polygon style="fill:#42E8E0;" points="25.8,147.05 26.57,146.61 26.65,147.09 25.89,147.53 			"/>
			<polygon style="fill:#42E8E0;" points="24.37,147.88 25.38,147.29 25.46,147.78 24.45,148.36 			"/>
			<polygon style="fill:#42E8E0;" points="22.46,140.91 20.2,142.21 20.12,141.73 22.38,140.42 			"/>
			<polygon style="fill:#42E8E0;" points="24.52,139.72 22.89,140.66 22.81,140.17 24.44,139.23 			"/>
			<polygon style="fill:#42E8E0;" points="26.05,138.83 24.95,139.47 24.87,138.98 25.97,138.35 			"/>
			<polygon style="fill:#42E8E0;" points="21.15,142.88 20.39,143.32 20.31,142.84 21.07,142.4 			"/>
			<polygon style="fill:#42E8E0;" points="22.59,142.05 21.58,142.63 21.5,142.15 22.51,141.57 			"/>
			<polygon style="fill:#42E8E0;" points="24.64,140.87 23.02,141.81 22.93,141.32 24.56,140.38 			"/>
			<polygon style="fill:#42E8E0;" points="26.84,150.11 27.6,149.67 27.69,150.15 26.92,150.59 			"/>
			<polygon style="fill:#42E8E0;" points="25.41,150.94 26.41,150.35 26.5,150.84 25.49,151.42 			"/>
			<polygon style="fill:#42E8E0;" points="23.36,152.12 24.98,151.18 25.06,151.67 23.44,152.61 			"/>
			<polygon style="fill:#42E8E0;" points="28,148.31 29.63,147.37 29.71,147.85 28.08,148.79 			"/>
			<polygon style="fill:#42E8E0;" points="25.35,149.75 27.54,148.49 27.62,148.97 25.43,150.24 			"/>
			<polygon style="fill:#42E8E0;" points="24.23,150.4 24.92,150 25,150.49 24.32,150.88 			"/>
			<polygon style="fill:#42E8E0;" points="23.17,151.01 23.85,150.62 23.93,151.1 23.25,151.5 			"/>
			<g>
				<polygon style="fill:#42E8E0;" points="23.31,144.74 25.48,143.49 25.56,143.98 23.4,145.23 				"/>
				<polygon style="fill:#42E8E0;" points="22.2,145.38 22.89,144.99 22.97,145.47 22.28,145.87 				"/>
				<polygon style="fill:#42E8E0;" points="23.46,143.44 24.23,142.99 24.31,143.48 23.55,143.92 				"/>
				<polygon style="fill:#42E8E0;" points="26.15,144.32 26.92,143.88 27,144.37 26.24,144.81 				"/>
				<polygon style="fill:#42E8E0;" points="27.24,143.7 29.07,142.64 29.15,143.13 27.32,144.18 				"/>
				<polygon style="fill:#42E8E0;" points="29.4,142.45 30.48,141.83 30.57,142.31 29.48,142.94 				"/>
				<polygon style="fill:#42E8E0;" points="22.03,144.26 23.04,143.68 23.12,144.17 22.11,144.75 				"/>
				<g>
					<polygon style="fill:#42E8E0;" points="21.93,143.12 22.7,142.68 22.78,143.17 22.02,143.61 					"/>
					<polygon style="fill:#42E8E0;" points="20.5,143.95 21.51,143.37 21.59,143.86 20.58,144.44 					"/>
				</g>
				<polygon style="fill:#42E8E0;" points="25.05,144.96 25.73,144.57 25.81,145.05 25.13,145.45 				"/>
				<polygon style="fill:#42E8E0;" points="23.98,145.58 24.67,145.18 24.75,145.67 24.06,146.07 				"/>
			</g>
			<polygon style="fill:#42E8E0;" points="29.24,151.16 31.57,149.81 31.66,150.29 29.32,151.64 			"/>
			<polygon style="fill:#42E8E0;" points="26.62,152.67 28.81,151.41 28.89,151.89 26.71,153.16 			"/>
			<polygon style="fill:#42E8E0;" points="25.51,153.31 26.2,152.92 26.28,153.4 25.59,153.8 			"/>
			<polygon style="fill:#42E8E0;" points="24.44,153.93 25.13,153.53 25.21,154.02 24.53,154.42 			"/>
			<polygon style="fill:#42E8E0;" points="23.86,154.27 22.38,155.12 22.47,155.61 23.94,154.75 			"/>
		</g>
	</g>
	<g>
		<g>
			<g>
				<g>
					<g>
						<path style="fill:#8686F2;" d="M246.26,185.47c-0.57,0-1.13-0.15-1.62-0.43l-32.23-18.61c-0.29-0.17-0.46-0.47-0.46-0.8
							c0-0.34,0.17-0.64,0.46-0.8l20.27-11.7l0.09,0.05l33.75,19.49c0.29,0.17,0.46,0.47,0.46,0.8c0,0.34-0.17,0.64-0.46,0.8
							l-18.65,10.77C247.39,185.32,246.83,185.47,246.26,185.47z M244.82,184.73c0.87,0.5,2.01,0.5,2.87,0l18.65-10.77
							c0.18-0.1,0.29-0.29,0.29-0.5c0-0.21-0.11-0.39-0.29-0.49l-33.66-19.44l-0.07,0.04l-20.02,11.56c-0.18,0.1-0.29,0.29-0.29,0.5
							c0,0.21,0.11,0.39,0.29,0.49L244.82,184.73z"/>
					</g>
					<g>
						<g>
							
								<linearGradient id="SVGID_36_" gradientUnits="userSpaceOnUse" x1="44.4486" y1="143.0633" x2="85.899" y2="143.0633" gradientTransform="matrix(-1 0 0 1 318.5401 0)">
								<stop  offset="0" style="stop-color:#C0BFF6"/>
								<stop  offset="0.2938" style="stop-color:#C5C4F7"/>
								<stop  offset="0.6399" style="stop-color:#D3D2F9"/>
								<stop  offset="1" style="stop-color:#E9E9FD"/>
							</linearGradient>
							<path style="fill:url(#SVGID_36_);" d="M232.65,145.64l4.49-26.64l-0.36-0.15l0.54-0.31l0,0c0.11-0.07,0.25-0.07,0.42,0.03
								l35.88,20.72c0.29,0.17,0.52,0.61,0.47,0.91l-4.53,26.85c-0.02,0.14-0.09,0.23-0.19,0.27l0,0l-0.53,0.31l-0.09-0.5l0.03,0.01
								l-35.66-20.59C232.82,146.38,232.6,145.95,232.65,145.64z"/>
							
								<linearGradient id="SVGID_37_" gradientUnits="userSpaceOnUse" x1="44.4489" y1="153.6934" x2="51.5663" y2="153.6934" gradientTransform="matrix(-1 0 0 1 318.5401 0)">
								<stop  offset="0" style="stop-color:#5761D7"/>
								<stop  offset="0.1779" style="stop-color:#5C66D9"/>
								<stop  offset="0.3876" style="stop-color:#6A73DF"/>
								<stop  offset="0.6134" style="stop-color:#8289E8"/>
								<stop  offset="0.849" style="stop-color:#A3A7F5"/>
								<stop  offset="1" style="stop-color:#BCBEFF"/>
							</linearGradient>
							<path style="fill:url(#SVGID_37_);" d="M273.42,140.02l0.59-0.26c0.07,0.15,0.1,0.31,0.08,0.44l-4.53,26.85
								c-0.02,0.14-0.09,0.23-0.19,0.27l0,0l-0.53,0.31l-0.09-0.5l0.03,0.01l-1.8-1.04L273.42,140.02z"/>
							<path style="fill:#24126A;" d="M232.55,146.88l35.88,20.72c0.28,0.16,0.51,0.07,0.56-0.22l4.53-26.85
								c0.05-0.31-0.17-0.74-0.47-0.91l-35.88-20.72c-0.28-0.16-0.51-0.07-0.56,0.22l-4.53,26.85
								C232.03,146.27,232.26,146.71,232.55,146.88z"/>
							<g style="opacity:0.51;">
								<polygon style="fill:#453C9E;" points="237.64,120.61 272.23,140.58 267.94,165.86 233.38,145.91 								"/>
							</g>
						</g>
						<g>
							
								<linearGradient id="SVGID_38_" gradientUnits="userSpaceOnUse" x1="50.002" y1="165.6429" x2="108.5435" y2="165.6429" gradientTransform="matrix(-1 0 0 1 318.5401 0)">
								<stop  offset="0" style="stop-color:#5761D7"/>
								<stop  offset="0.1779" style="stop-color:#5C66D9"/>
								<stop  offset="0.3876" style="stop-color:#6A73DF"/>
								<stop  offset="0.6134" style="stop-color:#8289E8"/>
								<stop  offset="0.849" style="stop-color:#A3A7F5"/>
								<stop  offset="1" style="stop-color:#BCBEFF"/>
							</linearGradient>
							<path style="fill:url(#SVGID_38_);" d="M210,159.59l1.96,1.02l19.64-11.34c0.33-0.19,0.9-0.17,1.28,0.05l33.86,19.55
								c0.32-0.18,1.8-0.89,1.8-0.89l-0.72,1.87c0,0,0,0,0,0c-0.03,0.08-0.09,0.16-0.2,0.22l-20.68,11.94
								c-0.33,0.19-0.9,0.17-1.28-0.05L211,161.95c-0.16-0.09-0.25-0.2-0.29-0.31l0,0L210,159.59z"/>
							
								<linearGradient id="SVGID_39_" gradientUnits="userSpaceOnUse" x1="69.6721" y1="163.6909" x2="128.2448" y2="163.6909" gradientTransform="matrix(-1 0 0 1 318.5401 0)">
								<stop  offset="0" style="stop-color:#C0BFF6"/>
								<stop  offset="0.2938" style="stop-color:#C5C4F7"/>
								<stop  offset="0.6399" style="stop-color:#D3D2F9"/>
								<stop  offset="1" style="stop-color:#E9E9FD"/>
							</linearGradient>
							<path style="fill:url(#SVGID_39_);" d="M210.3,159.91l35.52,20.51c0.39,0.22,0.98,0.25,1.31,0.05l21.19-12.24
								c0.34-0.19,0.29-0.53-0.09-0.76l-35.52-20.51c-0.39-0.22-0.98-0.25-1.31-0.05l-21.19,12.24
								C209.87,159.34,209.91,159.68,210.3,159.91z"/>
							<path style="fill:#FFFFFF;" d="M210.3,159.7l35.52,20.51c0.39,0.22,0.98,0.25,1.31,0.05l21.19-12.24
								c0.11-0.06,0.18-0.14,0.21-0.23c0.05,0.16-0.01,0.32-0.21,0.43l-21.19,12.24c-0.34,0.19-0.92,0.17-1.31-0.05l-35.52-20.51
								c-0.26-0.15-0.36-0.35-0.3-0.53C210.04,159.49,210.14,159.61,210.3,159.7z"/>
							<path style="fill:#2842A2;" d="M256.53,175.98v-0.39c0-0.04-0.02-0.05-0.05-0.04l-1.37,0.79c-0.03,0.02-0.05,0.06-0.05,0.1
								v0.39c0,0.04,0.02,0.05,0.05,0.04l1.37-0.79C256.51,176.06,256.53,176.02,256.53,175.98z"/>
							<path style="fill:#2842A2;" d="M254.47,177.16v-0.39c0-0.04-0.02-0.05-0.05-0.04l-1.37,0.79c-0.03,0.02-0.05,0.06-0.05,0.1
								v0.39c0,0.04,0.02,0.05,0.05,0.04l1.37-0.79C254.45,177.24,254.47,177.2,254.47,177.16z"/>
							<path style="fill:#ADB1F2;" d="M262.8,167.09l-29.51-17.04c-0.2-0.11-0.44-0.11-0.64,0l-10.51,6.08
								c-0.15,0.09-0.15,0.31,0,0.39l29.5,17.03c0.2,0.11,0.44,0.11,0.64,0l10.52-6.07C262.95,167.39,262.95,167.17,262.8,167.09z"
								/>
							<path style="fill:#9198DB;" d="M262.8,167.48l-0.11,0.06l-29.41-16.98c-0.2-0.11-0.44-0.11-0.64,0l-10.4,6.02l-0.11-0.06
								c-0.15-0.09-0.15-0.31,0-0.39l10.51-6.08c0.2-0.11,0.44-0.11,0.64,0l29.51,17.04C262.95,167.17,262.95,167.39,262.8,167.48z"
								/>
							<g>
								<polygon style="fill:#24126A;" points="231.85,151.59 257.49,166.39 258.63,165.73 232.99,150.93 								"/>
								<polygon style="fill:#24126A;" points="229.06,153.2 253.11,167.08 254.25,166.42 230.2,152.54 								"/>
								<polygon style="fill:#24126A;" points="227.24,154.25 255.55,170.6 256.69,169.94 228.38,153.59 								"/>
								<polygon style="fill:#24126A;" points="225.42,155.3 253.73,171.65 254.87,170.99 226.56,154.64 								"/>
								<polygon style="fill:#24126A;" points="223.6,156.35 251.91,172.7 253.05,172.04 224.74,155.69 								"/>
								<polygon style="fill:#24126A;" points="259.04,167.28 260.18,167.94 261.32,167.28 260.18,166.62 								"/>
								<polygon style="fill:#24126A;" points="255.02,168.19 257.39,169.55 258.53,168.9 256.16,167.53 								"/>
							</g>
							
								<linearGradient id="SVGID_40_" gradientUnits="userSpaceOnUse" x1="79.5914" y1="167.016" x2="94.5843" y2="167.016" gradientTransform="matrix(-1 0 0 1 318.5401 0)">
								<stop  offset="0" style="stop-color:#C0BFF6"/>
								<stop  offset="0.2938" style="stop-color:#C5C4F7"/>
								<stop  offset="0.6399" style="stop-color:#D3D2F9"/>
								<stop  offset="1" style="stop-color:#E9E9FD"/>
							</linearGradient>
							<path style="fill:url(#SVGID_40_);" d="M232.15,171.21l-7.96-4.59c-0.31-0.18-0.31-0.47,0-0.65l5.44-3.14
								c0.31-0.18,0.82-0.18,1.13,0l7.96,4.59c0.31,0.18,0.31,0.47,0,0.65l-5.44,3.14C232.96,171.39,232.46,171.39,232.15,171.21z"
								/>
							<path style="fill:#9198DB;" d="M238.72,167.68l-7.96-4.59c-0.31-0.18-0.82-0.18-1.13,0l-5.44,3.14
								c-0.1,0.06-0.16,0.12-0.2,0.19c-0.08-0.16-0.02-0.33,0.2-0.46l5.44-3.14c0.31-0.18,0.82-0.18,1.13,0l7.96,4.59
								c0.22,0.12,0.28,0.3,0.2,0.46C238.87,167.81,238.81,167.74,238.72,167.68z"/>
						</g>
					</g>
					<g style="opacity:0.11;">
						<defs>
							<polygon id="SVGID_8_" style="opacity:0.11;" points="237.64,120.61 272.23,140.58 267.94,165.86 233.38,145.91 							"/>
						</defs>
						<clipPath id="SVGID_41_">
							<use xlink:href="#SVGID_8_"  style="overflow:visible;"/>
						</clipPath>
						<g style="clip-path:url(#SVGID_41_);">
							
								<linearGradient id="SVGID_42_" gradientUnits="userSpaceOnUse" x1="47.294" y1="150.7085" x2="105.8667" y2="150.7085" gradientTransform="matrix(-1 0 0 1 318.5401 0)">
								<stop  offset="0" style="stop-color:#C0BFF6"/>
								<stop  offset="0.2938" style="stop-color:#C5C4F7"/>
								<stop  offset="0.6399" style="stop-color:#D3D2F9"/>
								<stop  offset="1" style="stop-color:#E9E9FD"/>
							</linearGradient>
							<path style="fill:url(#SVGID_42_);" d="M232.68,146.93l35.52,20.51c0.39,0.22,0.98,0.25,1.31,0.05l21.19-12.24
								c0.34-0.19,0.29-0.53-0.09-0.76l-35.52-20.51c-0.39-0.22-0.98-0.25-1.31-0.05l-21.19,12.24
								C232.25,146.36,232.29,146.7,232.68,146.93z"/>
							
								<linearGradient id="SVGID_43_" gradientUnits="userSpaceOnUse" x1="43.439" y1="146.4088" x2="58.4319" y2="146.4088" gradientTransform="matrix(-1 0 0 1 318.5401 0)">
								<stop  offset="0" style="stop-color:#C0BFF6"/>
								<stop  offset="0.2938" style="stop-color:#C5C4F7"/>
								<stop  offset="0.6399" style="stop-color:#D3D2F9"/>
								<stop  offset="1" style="stop-color:#E9E9FD"/>
							</linearGradient>
							<path style="fill:url(#SVGID_43_);" d="M268.3,150.6l-7.96-4.59c-0.31-0.18-0.31-0.47,0-0.65l5.44-3.14
								c0.31-0.18,0.82-0.18,1.13,0l7.96,4.59c0.31,0.18,0.31,0.47,0,0.65l-5.44,3.14C269.11,150.78,268.61,150.78,268.3,150.6z"/>
							<path style="fill:#9198DB;" d="M274.87,147.08l-7.96-4.59c-0.31-0.18-0.82-0.18-1.13,0l-5.44,3.14
								c-0.1,0.06-0.16,0.12-0.2,0.19c-0.08-0.16-0.02-0.33,0.2-0.46l5.44-3.14c0.31-0.18,0.82-0.18,1.13,0l7.96,4.59
								c0.21,0.12,0.28,0.3,0.2,0.46C275.03,147.2,274.96,147.13,274.87,147.08z"/>
							<g>
								<path style="fill:#ADB1F2;" d="M278.37,157.78l-29.51-17.04c-0.2-0.11-0.44-0.11-0.64,0l-10.51,6.08
									c-0.15,0.09-0.15,0.31,0,0.39l29.5,17.03c0.2,0.11,0.44,0.11,0.64,0l10.52-6.07C278.52,158.09,278.52,157.87,278.37,157.78z
									"/>
								<path style="fill:#9198DB;" d="M278.37,158.18l-0.11,0.06l-29.41-16.98c-0.2-0.11-0.44-0.11-0.64,0l-10.4,6.02l-0.11-0.06
									c-0.15-0.09-0.15-0.31,0-0.39l10.51-6.08c0.2-0.11,0.44-0.11,0.64,0l29.51,17.04C278.52,157.87,278.52,158.09,278.37,158.18
									z"/>
								<g>
									<polygon style="fill:#24126A;" points="240.46,146.41 266.17,161.25 265.15,161.84 239.44,147 									"/>
									<polygon style="fill:#24126A;" points="243.17,144.84 267.6,158.95 266.59,159.54 242.15,145.43 									"/>
									<polygon style="fill:#24126A;" points="269.43,160.01 271.71,161.33 270.69,161.91 268.41,160.6 									"/>
									<polygon style="fill:#24126A;" points="267.41,161.97 269,162.89 267.98,163.48 266.4,162.56 									"/>
									<polygon style="fill:#24126A;" points="244.86,143.86 273.41,160.35 272.39,160.93 243.84,144.45 									"/>
									<polygon style="fill:#24126A;" points="246.56,142.88 275.11,159.37 274.09,159.95 245.54,143.47 									"/>
									<polygon style="fill:#24126A;" points="248.26,141.9 276.8,158.39 275.79,158.97 247.24,142.49 									"/>
								</g>
							</g>
						</g>
					</g>
				</g>
			</g>
		</g>
		<g>
			<polygon style="fill:#42E8E0;" points="245.26,130.11 248.06,131.73 248.14,131.24 245.34,129.62 			"/>
			<polygon style="fill:#42E8E0;" points="248.51,131.98 250.03,132.87 250.11,132.38 248.59,131.5 			"/>
			<polygon style="fill:#42E8E0;" points="252.4,134.23 253.51,134.87 253.59,134.39 252.48,133.75 			"/>
			<polygon style="fill:#42E8E0;" points="251.6,133.77 251.97,133.99 252.06,133.5 251.68,133.28 			"/>
			<polygon style="fill:#42E8E0;" points="250.49,133.13 251.17,133.52 251.25,133.04 250.57,132.64 			"/>
			<polygon style="fill:#42E8E0;" points="247.47,133.82 248.57,134.46 248.66,133.98 247.55,133.34 			"/>
			<polygon style="fill:#42E8E0;" points="244.88,132.33 247.04,133.58 247.13,133.09 244.96,131.84 			"/>
			<g>
				<polygon style="fill:#42E8E0;" points="247.98,140.2 250.14,141.45 250.22,140.97 248.06,139.72 				"/>
				<polygon style="fill:#42E8E0;" points="246.87,139.56 247.55,139.96 247.64,139.47 246.95,139.07 				"/>
			</g>
			<polygon style="fill:#42E8E0;" points="248.34,137.98 250.5,139.23 250.59,138.74 248.42,137.49 			"/>
			<polygon style="fill:#42E8E0;" points="247.23,137.34 247.91,137.73 248,137.25 247.31,136.85 			"/>
			<polygon style="fill:#42E8E0;" points="246.39,149.8 242.31,147.44 242.23,147.93 246.3,150.28 			"/>
			<polygon style="fill:#42E8E0;" points="247.82,150.63 246.81,150.04 246.73,150.53 247.74,151.11 			"/>
			<polygon style="fill:#42E8E0;" points="254.98,151.1 250.9,148.74 250.82,149.23 254.89,151.58 			"/>
			<polygon style="fill:#42E8E0;" points="256.41,151.93 255.4,151.34 255.32,151.83 256.33,152.41 			"/>
			<polygon style="fill:#42E8E0;" points="243.6,146.97 242.5,146.33 242.42,146.82 243.52,147.46 			"/>
			<polygon style="fill:#42E8E0;" points="250.32,148.41 249.21,147.77 249.13,148.26 250.23,148.9 			"/>
			<polygon style="fill:#42E8E0;" points="246.19,148.47 244.03,147.22 243.95,147.7 246.11,148.95 			"/>
			<polygon style="fill:#42E8E0;" points="247.31,149.11 246.62,148.71 246.54,149.2 247.22,149.6 			"/>
			<polygon style="fill:#42E8E0;" points="249.91,150.61 247.75,149.37 247.67,149.85 249.83,151.1 			"/>
			<polygon style="fill:#42E8E0;" points="251.03,151.26 250.34,150.86 250.26,151.35 250.94,151.74 			"/>
			<polygon style="fill:#42E8E0;" points="250.13,149.52 249.03,148.88 248.94,149.37 250.05,150.01 			"/>
			<polygon style="fill:#42E8E0;" points="252.72,151.02 250.56,149.77 250.47,150.25 252.64,151.5 			"/>
			<polygon style="fill:#42E8E0;" points="253.83,151.66 253.15,151.26 253.06,151.75 253.75,152.15 			"/>
			<polygon style="fill:#42E8E0;" points="244.95,146.53 242.69,145.22 242.61,145.71 244.86,147.01 			"/>
			<polygon style="fill:#42E8E0;" points="247.01,147.72 245.37,146.77 245.29,147.26 246.92,148.2 			"/>
			<polygon style="fill:#42E8E0;" points="248.54,148.6 247.43,147.97 247.35,148.45 248.45,149.09 			"/>
			<polygon style="fill:#42E8E0;" points="259.24,153.55 256.98,152.25 256.9,152.74 259.15,154.04 			"/>
			<polygon style="fill:#42E8E0;" points="261.29,154.75 259.66,153.8 259.58,154.29 261.21,155.23 			"/>
			<polygon style="fill:#42E8E0;" points="262.83,155.63 261.72,154.99 261.64,155.48 262.74,156.12 			"/>
			<polygon style="fill:#42E8E0;" points="258.35,138.89 260.61,140.19 260.69,139.71 258.44,138.4 			"/>
			<polygon style="fill:#42E8E0;" points="256.29,137.7 257.93,138.64 258.01,138.16 256.38,137.21 			"/>
			<polygon style="fill:#42E8E0;" points="254.76,136.81 255.87,137.45 255.95,136.97 254.85,136.33 			"/>
			<polygon style="fill:#42E8E0;" points="257.6,137.23 259.86,138.54 259.94,138.05 257.69,136.75 			"/>
			<polygon style="fill:#42E8E0;" points="255.54,136.04 257.18,136.99 257.26,136.5 255.63,135.56 			"/>
			<polygon style="fill:#42E8E0;" points="254.01,135.16 255.12,135.8 255.2,135.31 254.1,134.67 			"/>
			<polygon style="fill:#42E8E0;" points="248.49,139.29 249.25,139.73 249.34,139.24 248.57,138.8 			"/>
			<polygon style="fill:#42E8E0;" points="247.06,138.46 248.06,139.04 248.15,138.55 247.14,137.97 			"/>
			<polygon style="fill:#42E8E0;" points="245.15,145.42 242.89,144.12 242.81,144.61 245.07,145.91 			"/>
			<polygon style="fill:#42E8E0;" points="247.21,146.61 245.58,145.67 245.49,146.16 247.13,147.1 			"/>
			<polygon style="fill:#42E8E0;" points="248.74,147.5 247.64,146.86 247.55,147.35 248.66,147.99 			"/>
			<polygon style="fill:#42E8E0;" points="243.84,143.45 243.08,143.01 243,143.5 243.76,143.94 			"/>
			<polygon style="fill:#42E8E0;" points="245.28,144.28 244.27,143.7 244.19,144.18 245.19,144.77 			"/>
			<polygon style="fill:#42E8E0;" points="247.33,145.47 245.7,144.53 245.62,145.01 247.24,145.95 			"/>
			<polygon style="fill:#42E8E0;" points="249.53,136.23 250.29,136.67 250.37,136.18 249.61,135.74 			"/>
			<polygon style="fill:#42E8E0;" points="248.09,135.4 249.1,135.98 249.18,135.49 248.17,134.91 			"/>
			<polygon style="fill:#42E8E0;" points="246.04,134.21 247.67,135.15 247.75,134.66 246.12,133.72 			"/>
			<polygon style="fill:#42E8E0;" points="250.69,138.03 252.31,138.97 252.39,138.48 250.77,137.54 			"/>
			<polygon style="fill:#42E8E0;" points="248.03,136.58 250.22,137.84 250.3,137.36 248.12,136.09 			"/>
			<polygon style="fill:#42E8E0;" points="246.92,135.94 247.61,136.33 247.69,135.85 247,135.45 			"/>
			<polygon style="fill:#42E8E0;" points="245.85,135.32 246.54,135.72 246.62,135.23 245.94,134.83 			"/>
			<g>
				<polygon style="fill:#42E8E0;" points="246,141.59 248.16,142.84 248.24,142.36 246.08,141.11 				"/>
				<polygon style="fill:#42E8E0;" points="244.89,140.95 245.57,141.34 245.66,140.86 244.97,140.46 				"/>
				<polygon style="fill:#42E8E0;" points="246.15,142.9 246.91,143.34 246.99,142.85 246.23,142.41 				"/>
				<polygon style="fill:#42E8E0;" points="248.84,142.01 249.6,142.45 249.69,141.96 248.92,141.52 				"/>
				<polygon style="fill:#42E8E0;" points="249.93,142.64 251.76,143.69 251.84,143.21 250.01,142.15 				"/>
				<polygon style="fill:#42E8E0;" points="252.08,143.88 253.17,144.51 253.25,144.02 252.16,143.39 				"/>
				<polygon style="fill:#42E8E0;" points="244.71,142.07 245.72,142.65 245.8,142.16 244.8,141.58 				"/>
				<g>
					<polygon style="fill:#42E8E0;" points="244.62,143.21 245.38,143.65 245.46,143.16 244.7,142.72 					"/>
					<polygon style="fill:#42E8E0;" points="243.18,142.38 244.19,142.96 244.27,142.48 243.27,141.89 					"/>
				</g>
				<polygon style="fill:#42E8E0;" points="247.74,141.37 248.42,141.76 248.5,141.28 247.82,140.88 				"/>
				<polygon style="fill:#42E8E0;" points="246.67,140.75 247.35,141.15 247.43,140.66 246.75,140.27 				"/>
			</g>
			<polygon style="fill:#42E8E0;" points="251.93,135.17 254.26,136.52 254.34,136.04 252.01,134.69 			"/>
			<polygon style="fill:#42E8E0;" points="249.31,133.66 251.5,134.93 251.58,134.44 249.39,133.18 			"/>
			<polygon style="fill:#42E8E0;" points="248.2,133.02 248.88,133.42 248.97,132.93 248.28,132.53 			"/>
			<polygon style="fill:#42E8E0;" points="247.13,132.4 247.82,132.8 247.9,132.31 247.21,131.92 			"/>
			<polygon style="fill:#42E8E0;" points="246.55,132.07 245.07,131.21 245.15,130.73 246.63,131.58 			"/>
		</g>
	</g>
	<path style="fill:#8686F2;" d="M95.45,209.12c-0.47,0-0.94-0.12-1.35-0.36l-40.25-23.24c-0.27-0.16-0.43-0.43-0.43-0.74
		c0-0.31,0.16-0.59,0.43-0.75l35.38-20.43l0.18,0.31l-35.38,20.43c-0.16,0.09-0.25,0.25-0.25,0.44c0,0.18,0.09,0.34,0.25,0.44
		l40.25,23.24c0.73,0.42,1.63,0.42,2.35,0l20.86-12.04l0.18,0.31l-20.86,12.04C96.39,208.99,95.92,209.12,95.45,209.12z"/>
	<g>
		
			<radialGradient id="SVGID_44_" cx="396.9192" cy="384.0692" r="5.0929" gradientTransform="matrix(0.8633 -0.5047 -0.5047 -0.8633 -74.6488 728.8791)" gradientUnits="userSpaceOnUse">
			<stop  offset="0" style="stop-color:#42E8E0"/>
			<stop  offset="4.229724e-03" style="stop-color:#41E5DE"/>
			<stop  offset="0.064" style="stop-color:#39B8C3"/>
			<stop  offset="0.128" style="stop-color:#3190AA"/>
			<stop  offset="0.198" style="stop-color:#2A6C95"/>
			<stop  offset="0.2736" style="stop-color:#254E83"/>
			<stop  offset="0.3567" style="stop-color:#203674"/>
			<stop  offset="0.4505" style="stop-color:#1C2469"/>
			<stop  offset="0.561" style="stop-color:#1A1761"/>
			<stop  offset="0.7043" style="stop-color:#180F5C"/>
			<stop  offset="1" style="stop-color:#180D5B"/>
		</radialGradient>
		<circle style="fill:url(#SVGID_44_);" cx="74.17" cy="196.99" r="5.09"/>
		
			<radialGradient id="SVGID_45_" cx="396.9192" cy="384.0692" r="1.3847" gradientTransform="matrix(0.8633 -0.5047 -0.5047 -0.8633 -74.6488 728.8791)" gradientUnits="userSpaceOnUse">
			<stop  offset="0" style="stop-color:#42E8E0"/>
			<stop  offset="1" style="stop-color:#42E8E0"/>
		</radialGradient>
		<path style="fill:url(#SVGID_45_);" d="M75.37,196.29c-0.39-0.66-1.23-0.88-1.89-0.5s-0.88,1.23-0.5,1.89
			c0.39,0.66,1.23,0.88,1.89,0.5C75.53,197.8,75.75,196.95,75.37,196.29z"/>
	</g>
	<g>
		
			<radialGradient id="SVGID_46_" cx="426.3536" cy="362.7712" r="5.0929" gradientTransform="matrix(0.8633 -0.5047 -0.5047 -0.8633 -74.6488 728.8791)" gradientUnits="userSpaceOnUse">
			<stop  offset="0" style="stop-color:#42E8E0"/>
			<stop  offset="4.229724e-03" style="stop-color:#41E5DE"/>
			<stop  offset="0.064" style="stop-color:#39B8C3"/>
			<stop  offset="0.128" style="stop-color:#3190AA"/>
			<stop  offset="0.198" style="stop-color:#2A6C95"/>
			<stop  offset="0.2736" style="stop-color:#254E83"/>
			<stop  offset="0.3567" style="stop-color:#203674"/>
			<stop  offset="0.4505" style="stop-color:#1C2469"/>
			<stop  offset="0.561" style="stop-color:#1A1761"/>
			<stop  offset="0.7043" style="stop-color:#180F5C"/>
			<stop  offset="1" style="stop-color:#180D5B"/>
		</radialGradient>
		<circle style="fill:url(#SVGID_46_);" cx="110.33" cy="200.52" r="5.09"/>
		
			<radialGradient id="SVGID_47_" cx="426.3536" cy="362.7712" r="1.3847" gradientTransform="matrix(0.8633 -0.5047 -0.5047 -0.8633 -74.6488 728.8791)" gradientUnits="userSpaceOnUse">
			<stop  offset="0" style="stop-color:#42E8E0"/>
			<stop  offset="1" style="stop-color:#42E8E0"/>
		</radialGradient>
		<path style="fill:url(#SVGID_47_);" d="M111.53,199.82c-0.39-0.66-1.23-0.88-1.89-0.5c-0.66,0.39-0.88,1.23-0.5,1.89
			c0.39,0.66,1.23,0.88,1.89,0.5C111.69,201.33,111.91,200.48,111.53,199.82z"/>
	</g>
	<g>
		
			<radialGradient id="SVGID_48_" cx="480.1094" cy="331.8166" r="5.0929" gradientTransform="matrix(0.8633 -0.5047 -0.5047 -0.8633 -74.6488 728.8791)" gradientUnits="userSpaceOnUse">
			<stop  offset="0" style="stop-color:#42E8E0"/>
			<stop  offset="4.229724e-03" style="stop-color:#41E5DE"/>
			<stop  offset="0.064" style="stop-color:#39B8C3"/>
			<stop  offset="0.128" style="stop-color:#3190AA"/>
			<stop  offset="0.198" style="stop-color:#2A6C95"/>
			<stop  offset="0.2736" style="stop-color:#254E83"/>
			<stop  offset="0.3567" style="stop-color:#203674"/>
			<stop  offset="0.4505" style="stop-color:#1C2469"/>
			<stop  offset="0.561" style="stop-color:#1A1761"/>
			<stop  offset="0.7043" style="stop-color:#180F5C"/>
			<stop  offset="1" style="stop-color:#180D5B"/>
		</radialGradient>
		<circle style="fill:url(#SVGID_48_);" cx="172.36" cy="200.11" r="5.09"/>
		
			<radialGradient id="SVGID_49_" cx="480.1094" cy="331.8166" r="1.3847" gradientTransform="matrix(0.8633 -0.5047 -0.5047 -0.8633 -74.6488 728.8791)" gradientUnits="userSpaceOnUse">
			<stop  offset="0" style="stop-color:#42E8E0"/>
			<stop  offset="1" style="stop-color:#42E8E0"/>
		</radialGradient>
		<path style="fill:url(#SVGID_49_);" d="M173.56,199.41c-0.39-0.66-1.23-0.88-1.89-0.5c-0.66,0.39-0.88,1.23-0.5,1.89
			c0.39,0.66,1.23,0.88,1.89,0.5C173.72,200.92,173.94,200.07,173.56,199.41z"/>
	</g>
	<g>
		
			<radialGradient id="SVGID_50_" cx="483.8935" cy="325.0816" r="5.0929" gradientTransform="matrix(0.8633 -0.5047 -0.5047 -0.8633 -74.6488 728.8791)" gradientUnits="userSpaceOnUse">
			<stop  offset="0" style="stop-color:#42E8E0"/>
			<stop  offset="4.229724e-03" style="stop-color:#41E5DE"/>
			<stop  offset="0.064" style="stop-color:#39B8C3"/>
			<stop  offset="0.128" style="stop-color:#3190AA"/>
			<stop  offset="0.198" style="stop-color:#2A6C95"/>
			<stop  offset="0.2736" style="stop-color:#254E83"/>
			<stop  offset="0.3567" style="stop-color:#203674"/>
			<stop  offset="0.4505" style="stop-color:#1C2469"/>
			<stop  offset="0.561" style="stop-color:#1A1761"/>
			<stop  offset="0.7043" style="stop-color:#180F5C"/>
			<stop  offset="1" style="stop-color:#180D5B"/>
		</radialGradient>
		<path style="fill:url(#SVGID_50_);" d="M183.42,201.44c-1.42-2.43-4.54-3.25-6.97-1.83c-2.43,1.42-3.25,4.54-1.83,6.97
			c1.42,2.43,4.54,3.25,6.97,1.83C184.03,206.99,184.84,203.87,183.42,201.44z"/>
		
			<radialGradient id="SVGID_51_" cx="483.8935" cy="325.0816" r="1.3847" gradientTransform="matrix(0.8633 -0.5047 -0.5047 -0.8633 -74.6488 728.8791)" gradientUnits="userSpaceOnUse">
			<stop  offset="0" style="stop-color:#42E8E0"/>
			<stop  offset="1" style="stop-color:#42E8E0"/>
		</radialGradient>
		<circle style="fill:url(#SVGID_51_);" cx="179.03" cy="204.02" r="1.38"/>
	</g>
	<g>
		
			<radialGradient id="SVGID_52_" cx="520.5872" cy="315.8238" r="5.0929" gradientTransform="matrix(0.8633 -0.5047 -0.5047 -0.8633 -74.6488 728.8791)" gradientUnits="userSpaceOnUse">
			<stop  offset="0" style="stop-color:#42E8E0"/>
			<stop  offset="4.229724e-03" style="stop-color:#41E5DE"/>
			<stop  offset="0.064" style="stop-color:#39B8C3"/>
			<stop  offset="0.128" style="stop-color:#3190AA"/>
			<stop  offset="0.198" style="stop-color:#2A6C95"/>
			<stop  offset="0.2736" style="stop-color:#254E83"/>
			<stop  offset="0.3567" style="stop-color:#203674"/>
			<stop  offset="0.4505" style="stop-color:#1C2469"/>
			<stop  offset="0.561" style="stop-color:#1A1761"/>
			<stop  offset="0.7043" style="stop-color:#180F5C"/>
			<stop  offset="1" style="stop-color:#180D5B"/>
		</radialGradient>
		<circle style="fill:url(#SVGID_52_);" cx="215.38" cy="193.49" r="5.09"/>
		
			<radialGradient id="SVGID_53_" cx="520.5872" cy="315.8237" r="1.3847" gradientTransform="matrix(0.8633 -0.5047 -0.5047 -0.8633 -74.6488 728.8791)" gradientUnits="userSpaceOnUse">
			<stop  offset="0" style="stop-color:#42E8E0"/>
			<stop  offset="1" style="stop-color:#42E8E0"/>
		</radialGradient>
		<path style="fill:url(#SVGID_53_);" d="M216.57,192.79c-0.39-0.66-1.23-0.88-1.89-0.5c-0.66,0.39-0.88,1.23-0.5,1.89
			c0.39,0.66,1.23,0.88,1.89,0.5C216.74,194.3,216.96,193.45,216.57,192.79z"/>
	</g>
	<g>
		
			<radialGradient id="SVGID_54_" cx="534.344" cy="322.359" r="5.0929" gradientTransform="matrix(0.8633 -0.5047 -0.5047 -0.8633 -74.6488 728.8791)" gradientUnits="userSpaceOnUse">
			<stop  offset="0" style="stop-color:#42E8E0"/>
			<stop  offset="4.229724e-03" style="stop-color:#41E5DE"/>
			<stop  offset="0.064" style="stop-color:#39B8C3"/>
			<stop  offset="0.128" style="stop-color:#3190AA"/>
			<stop  offset="0.198" style="stop-color:#2A6C95"/>
			<stop  offset="0.2736" style="stop-color:#254E83"/>
			<stop  offset="0.3567" style="stop-color:#203674"/>
			<stop  offset="0.4505" style="stop-color:#1C2469"/>
			<stop  offset="0.561" style="stop-color:#1A1761"/>
			<stop  offset="0.7043" style="stop-color:#180F5C"/>
			<stop  offset="1" style="stop-color:#180D5B"/>
		</radialGradient>
		<path style="fill:url(#SVGID_54_);" d="M228.35,178.33c-1.42-2.43-4.54-3.25-6.97-1.83c-2.43,1.42-3.25,4.54-1.83,6.97
			c1.42,2.43,4.54,3.25,6.97,1.83C228.95,183.88,229.77,180.76,228.35,178.33z"/>
		
			<radialGradient id="SVGID_55_" cx="534.3441" cy="322.359" r="1.3847" gradientTransform="matrix(0.8633 -0.5047 -0.5047 -0.8633 -74.6488 728.8791)" gradientUnits="userSpaceOnUse">
			<stop  offset="0" style="stop-color:#42E8E0"/>
			<stop  offset="1" style="stop-color:#42E8E0"/>
		</radialGradient>
		<path style="fill:url(#SVGID_55_);" d="M225.15,180.2c-0.39-0.66-1.23-0.88-1.89-0.5s-0.88,1.23-0.5,1.89
			c0.39,0.66,1.23,0.88,1.89,0.5C225.31,181.71,225.54,180.86,225.15,180.2z"/>
	</g>
	<g>
		
			<radialGradient id="SVGID_56_" cx="529.9082" cy="330.3114" r="5.0929" gradientTransform="matrix(0.8633 -0.5047 -0.5047 -0.8633 -74.6488 728.8791)" gradientUnits="userSpaceOnUse">
			<stop  offset="0" style="stop-color:#42E8E0"/>
			<stop  offset="4.229724e-03" style="stop-color:#41E5DE"/>
			<stop  offset="0.064" style="stop-color:#39B8C3"/>
			<stop  offset="0.128" style="stop-color:#3190AA"/>
			<stop  offset="0.198" style="stop-color:#2A6C95"/>
			<stop  offset="0.2736" style="stop-color:#254E83"/>
			<stop  offset="0.3567" style="stop-color:#203674"/>
			<stop  offset="0.4505" style="stop-color:#1C2469"/>
			<stop  offset="0.561" style="stop-color:#1A1761"/>
			<stop  offset="0.7043" style="stop-color:#180F5C"/>
			<stop  offset="1" style="stop-color:#180D5B"/>
		</radialGradient>
		<path style="fill:url(#SVGID_56_);" d="M220.51,173.71c-1.42-2.43-4.54-3.25-6.97-1.83s-3.25,4.54-1.83,6.97
			c1.42,2.43,4.54,3.25,6.97,1.83C221.11,179.25,221.93,176.13,220.51,173.71z"/>
		
			<radialGradient id="SVGID_57_" cx="529.9083" cy="330.3113" r="1.3847" gradientTransform="matrix(0.8633 -0.5047 -0.5047 -0.8633 -74.6488 728.8791)" gradientUnits="userSpaceOnUse">
			<stop  offset="0" style="stop-color:#42E8E0"/>
			<stop  offset="1" style="stop-color:#42E8E0"/>
		</radialGradient>
		<path style="fill:url(#SVGID_57_);" d="M217.31,175.58c-0.39-0.66-1.23-0.88-1.89-0.5s-0.88,1.23-0.5,1.89
			c0.39,0.66,1.23,0.88,1.89,0.5C217.47,177.09,217.69,176.24,217.31,175.58z"/>
	</g>
	<g>
		
			<radialGradient id="SVGID_58_" cx="525.3096" cy="337.9852" r="5.0929" gradientTransform="matrix(0.8633 -0.5047 -0.5047 -0.8633 -74.6488 728.8791)" gradientUnits="userSpaceOnUse">
			<stop  offset="0" style="stop-color:#42E8E0"/>
			<stop  offset="4.229724e-03" style="stop-color:#41E5DE"/>
			<stop  offset="0.064" style="stop-color:#39B8C3"/>
			<stop  offset="0.128" style="stop-color:#3190AA"/>
			<stop  offset="0.198" style="stop-color:#2A6C95"/>
			<stop  offset="0.2736" style="stop-color:#254E83"/>
			<stop  offset="0.3567" style="stop-color:#203674"/>
			<stop  offset="0.4505" style="stop-color:#1C2469"/>
			<stop  offset="0.561" style="stop-color:#1A1761"/>
			<stop  offset="0.7043" style="stop-color:#180F5C"/>
			<stop  offset="1" style="stop-color:#180D5B"/>
		</radialGradient>
		<path style="fill:url(#SVGID_58_);" d="M212.67,169.4c-1.42-2.43-4.54-3.25-6.97-1.83c-2.43,1.42-3.25,4.54-1.83,6.97
			c1.42,2.43,4.54,3.25,6.97,1.83C213.27,174.95,214.09,171.83,212.67,169.4z"/>
		
			<radialGradient id="SVGID_59_" cx="525.3097" cy="337.9852" r="1.3847" gradientTransform="matrix(0.8633 -0.5047 -0.5047 -0.8633 -74.6488 728.8791)" gradientUnits="userSpaceOnUse">
			<stop  offset="0" style="stop-color:#42E8E0"/>
			<stop  offset="1" style="stop-color:#42E8E0"/>
		</radialGradient>
		<path style="fill:url(#SVGID_59_);" d="M209.47,171.27c-0.39-0.66-1.23-0.88-1.89-0.5s-0.88,1.23-0.5,1.89
			c0.39,0.66,1.23,0.88,1.89,0.5C209.63,172.78,209.85,171.93,209.47,171.27z"/>
	</g>
	<g>
		
			<radialGradient id="SVGID_60_" cx="393.3101" cy="390.4515" r="5.0929" gradientTransform="matrix(0.8633 -0.5047 -0.5047 -0.8633 -74.6488 728.8791)" gradientUnits="userSpaceOnUse">
			<stop  offset="0" style="stop-color:#42E8E0"/>
			<stop  offset="4.229724e-03" style="stop-color:#41E5DE"/>
			<stop  offset="0.064" style="stop-color:#39B8C3"/>
			<stop  offset="0.128" style="stop-color:#3190AA"/>
			<stop  offset="0.198" style="stop-color:#2A6C95"/>
			<stop  offset="0.2736" style="stop-color:#254E83"/>
			<stop  offset="0.3567" style="stop-color:#203674"/>
			<stop  offset="0.4505" style="stop-color:#1C2469"/>
			<stop  offset="0.561" style="stop-color:#1A1761"/>
			<stop  offset="0.7043" style="stop-color:#180F5C"/>
			<stop  offset="1" style="stop-color:#180D5B"/>
		</radialGradient>
		<path style="fill:url(#SVGID_60_);" d="M72.23,190.73c-1.42-2.43-4.54-3.25-6.97-1.83c-2.43,1.42-3.25,4.54-1.83,6.97
			c1.42,2.43,4.54,3.25,6.97,1.83C72.83,196.28,73.65,193.16,72.23,190.73z"/>
		
			<radialGradient id="SVGID_61_" cx="393.3101" cy="390.4515" r="1.3847" gradientTransform="matrix(0.8633 -0.5047 -0.5047 -0.8633 -74.6488 728.8791)" gradientUnits="userSpaceOnUse">
			<stop  offset="0" style="stop-color:#42E8E0"/>
			<stop  offset="1" style="stop-color:#42E8E0"/>
		</radialGradient>
		<circle style="fill:url(#SVGID_61_);" cx="67.83" cy="193.3" r="1.38"/>
	</g>
	<g>
		
			<radialGradient id="SVGID_62_" cx="389.7009" cy="396.8337" r="5.093" gradientTransform="matrix(0.8633 -0.5047 -0.5047 -0.8633 -74.6488 728.8791)" gradientUnits="userSpaceOnUse">
			<stop  offset="0" style="stop-color:#42E8E0"/>
			<stop  offset="4.229724e-03" style="stop-color:#41E5DE"/>
			<stop  offset="0.064" style="stop-color:#39B8C3"/>
			<stop  offset="0.128" style="stop-color:#3190AA"/>
			<stop  offset="0.198" style="stop-color:#2A6C95"/>
			<stop  offset="0.2736" style="stop-color:#254E83"/>
			<stop  offset="0.3567" style="stop-color:#203674"/>
			<stop  offset="0.4505" style="stop-color:#1C2469"/>
			<stop  offset="0.561" style="stop-color:#1A1761"/>
			<stop  offset="0.7043" style="stop-color:#180F5C"/>
			<stop  offset="1" style="stop-color:#180D5B"/>
		</radialGradient>
		<circle style="fill:url(#SVGID_62_);" cx="61.5" cy="189.61" r="5.09"/>
		
			<radialGradient id="SVGID_63_" cx="389.7009" cy="396.8337" r="1.3847" gradientTransform="matrix(0.8633 -0.5047 -0.5047 -0.8633 -74.6488 728.8791)" gradientUnits="userSpaceOnUse">
			<stop  offset="0" style="stop-color:#42E8E0"/>
			<stop  offset="1" style="stop-color:#42E8E0"/>
		</radialGradient>
		<path style="fill:url(#SVGID_63_);" d="M62.69,188.91c-0.39-0.66-1.23-0.88-1.89-0.5c-0.66,0.39-0.88,1.23-0.5,1.89
			c0.39,0.66,1.23,0.88,1.89,0.5C62.86,190.42,63.08,189.57,62.69,188.91z"/>
	</g>
	<g>
		
			<radialGradient id="SVGID_64_" cx="412.587" cy="405.4787" r="5.093" gradientTransform="matrix(0.8633 -0.5047 -0.5047 -0.8633 -74.6488 728.8791)" gradientUnits="userSpaceOnUse">
			<stop  offset="0" style="stop-color:#42E8E0"/>
			<stop  offset="4.229724e-03" style="stop-color:#41E5DE"/>
			<stop  offset="0.064" style="stop-color:#39B8C3"/>
			<stop  offset="0.128" style="stop-color:#3190AA"/>
			<stop  offset="0.198" style="stop-color:#2A6C95"/>
			<stop  offset="0.2736" style="stop-color:#254E83"/>
			<stop  offset="0.3567" style="stop-color:#203674"/>
			<stop  offset="0.4505" style="stop-color:#1C2469"/>
			<stop  offset="0.561" style="stop-color:#1A1761"/>
			<stop  offset="0.7043" style="stop-color:#180F5C"/>
			<stop  offset="1" style="stop-color:#180D5B"/>
		</radialGradient>
		<path style="fill:url(#SVGID_64_);" d="M81.29,168.03c-1.42-2.43-4.54-3.25-6.97-1.83s-3.25,4.54-1.83,6.97
			c1.42,2.43,4.54,3.25,6.97,1.83C81.89,173.57,82.71,170.45,81.29,168.03z"/>
		
			<radialGradient id="SVGID_65_" cx="412.5871" cy="405.4786" r="1.3847" gradientTransform="matrix(0.8633 -0.5047 -0.5047 -0.8633 -74.6488 728.8791)" gradientUnits="userSpaceOnUse">
			<stop  offset="0" style="stop-color:#42E8E0"/>
			<stop  offset="1" style="stop-color:#42E8E0"/>
		</radialGradient>
		<path style="fill:url(#SVGID_65_);" d="M78.09,169.9c-0.39-0.66-1.23-0.88-1.89-0.5c-0.66,0.39-0.88,1.23-0.5,1.89
			c0.39,0.66,1.23,0.88,1.89,0.5C78.25,171.41,78.47,170.56,78.09,169.9z"/>
	</g>
	<g>
		
			<radialGradient id="SVGID_66_" cx="420.228" cy="405.1346" r="5.0929" gradientTransform="matrix(0.8633 -0.5047 -0.5047 -0.8633 -74.6488 728.8791)" gradientUnits="userSpaceOnUse">
			<stop  offset="0" style="stop-color:#42E8E0"/>
			<stop  offset="4.229724e-03" style="stop-color:#41E5DE"/>
			<stop  offset="0.064" style="stop-color:#39B8C3"/>
			<stop  offset="0.128" style="stop-color:#3190AA"/>
			<stop  offset="0.198" style="stop-color:#2A6C95"/>
			<stop  offset="0.2736" style="stop-color:#254E83"/>
			<stop  offset="0.3567" style="stop-color:#203674"/>
			<stop  offset="0.4505" style="stop-color:#1C2469"/>
			<stop  offset="0.561" style="stop-color:#1A1761"/>
			<stop  offset="0.7043" style="stop-color:#180F5C"/>
			<stop  offset="1" style="stop-color:#180D5B"/>
		</radialGradient>
		<path style="fill:url(#SVGID_66_);" d="M88.06,164.47c-1.42-2.43-4.54-3.25-6.97-1.83s-3.25,4.54-1.83,6.97
			c1.42,2.43,4.54,3.25,6.97,1.83S89.48,166.9,88.06,164.47z"/>
		
			<radialGradient id="SVGID_67_" cx="420.2279" cy="405.1346" r="1.3847" gradientTransform="matrix(0.8633 -0.5047 -0.5047 -0.8633 -74.6488 728.8791)" gradientUnits="userSpaceOnUse">
			<stop  offset="0" style="stop-color:#42E8E0"/>
			<stop  offset="1" style="stop-color:#42E8E0"/>
		</radialGradient>
		<path style="fill:url(#SVGID_67_);" d="M84.86,166.34c-0.39-0.66-1.23-0.88-1.89-0.5c-0.66,0.39-0.88,1.23-0.5,1.89
			c0.39,0.66,1.23,0.88,1.89,0.5S85.24,167,84.86,166.34z"/>
	</g>
</g>
</svg>
