<?xml version="1.0" encoding="utf-8"?>
<!-- Generator: Adobe Illustrator 24.0.1, SVG Export Plug-In . SVG Version: 6.00 Build 0)  -->
<svg version="1.1" id="_x5F_" xmlns="http://www.w3.org/2000/svg" xmlns:xlink="http://www.w3.org/1999/xlink" x="0px" y="0px"
	 viewBox="0 0 271 96" style="enable-background:new 0 0 271 96;" xml:space="preserve">
<style type="text/css">
	.st0{fill:#4A3131;}
	.st1{fill:#998282;}
	.st2{fill:#876F6F;}
	.st3{fill:#7DB7D1;}
	.st4{fill:#427E9C;}
	.st5{fill:#593F3E;}
	.st6{fill:#CEE7F0;}
</style>
<g id="Fence_and_Gate_8">
	<g id="Fence_15_">
		<g>
			
				<rect x="19.79" y="49.81" transform="matrix(-1 -1.224647e-16 1.224647e-16 -1 110.2761 141.7361)" class="st0" width="70.69" height="42.11"/>
			<g>
				<rect x="22.38" y="51.4" class="st1" width="9.48" height="4.31"/>
				<rect x="33.59" y="51.4" class="st2" width="9.48" height="4.31"/>
				<rect x="44.79" y="51.4" class="st2" width="9.48" height="4.31"/>
				<rect x="56" y="51.4" class="st1" width="9.48" height="4.31"/>
				<rect x="67.21" y="51.4" class="st2" width="9.48" height="4.31"/>
				<rect x="78.41" y="51.4" class="st1" width="9.48" height="4.31"/>
				<rect x="22.38" y="57.44" class="st2" width="4.02" height="4.31"/>
				<rect x="28.13" y="57.44" class="st2" width="9.48" height="4.31"/>
				<rect x="39.33" y="57.44" class="st2" width="9.48" height="4.31"/>
				<rect x="50.54" y="57.44" class="st1" width="9.48" height="4.31"/>
				<rect x="61.75" y="57.44" class="st1" width="9.48" height="4.31"/>
				<rect x="72.95" y="57.44" class="st2" width="9.48" height="4.31"/>
				<rect x="84.16" y="57.44" class="st2" width="3.74" height="4.31"/>
				<rect x="22.38" y="63.47" class="st2" width="9.48" height="4.31"/>
				<rect x="33.59" y="63.47" class="st1" width="9.48" height="4.31"/>
				<rect x="44.79" y="63.47" class="st2" width="9.48" height="4.31"/>
				<rect x="56" y="63.47" class="st1" width="9.48" height="4.31"/>
				<rect x="67.21" y="63.47" class="st2" width="9.48" height="4.31"/>
				<rect x="78.41" y="63.47" class="st1" width="9.48" height="4.31"/>
				<rect x="22.38" y="69.51" class="st1" width="4.02" height="4.31"/>
				<rect x="28.13" y="69.51" class="st2" width="9.48" height="4.31"/>
				<rect x="39.33" y="69.51" class="st2" width="9.48" height="4.31"/>
				<rect x="50.54" y="69.51" class="st2" width="9.48" height="4.31"/>
				<rect x="61.75" y="69.51" class="st2" width="9.48" height="4.31"/>
				<rect x="72.95" y="69.51" class="st1" width="9.48" height="4.31"/>
				<rect x="84.16" y="69.51" class="st2" width="3.74" height="4.31"/>
				<rect x="22.38" y="75.54" class="st2" width="9.48" height="4.31"/>
				<rect x="33.59" y="75.54" class="st2" width="9.48" height="4.31"/>
				<rect x="44.79" y="75.54" class="st2" width="9.48" height="4.31"/>
				<rect x="56" y="75.54" class="st1" width="9.48" height="4.31"/>
				<rect x="67.21" y="75.54" class="st1" width="9.48" height="4.31"/>
				<rect x="78.41" y="75.54" class="st2" width="9.48" height="4.31"/>
				<rect x="22.38" y="87.61" class="st2" width="9.48" height="4.31"/>
				<rect x="33.59" y="87.61" class="st1" width="9.48" height="4.31"/>
				<rect x="44.79" y="87.61" class="st2" width="9.48" height="4.31"/>
				<rect x="56" y="87.61" class="st2" width="9.48" height="4.31"/>
				<rect x="67.21" y="87.61" class="st1" width="9.48" height="4.31"/>
				<rect x="78.41" y="87.61" class="st2" width="9.48" height="4.31"/>
				<rect x="22.38" y="81.58" class="st2" width="4.02" height="4.31"/>
				<rect x="28.13" y="81.58" class="st1" width="9.48" height="4.31"/>
				<rect x="39.33" y="81.58" class="st1" width="9.48" height="4.31"/>
				<rect x="50.54" y="81.58" class="st2" width="9.48" height="4.31"/>
				<rect x="61.75" y="81.58" class="st1" width="9.48" height="4.31"/>
				<rect x="72.95" y="81.58" class="st2" width="9.48" height="4.31"/>
				<rect x="84.16" y="81.58" class="st2" width="3.74" height="4.31"/>
			</g>
		</g>
		<path class="st3" d="M90.48,21.23v-1.72h-5.17v-2.85c0.51-0.3,0.87-0.83,0.87-1.46c0-0.95-1.72-3.45-1.72-3.45
			s-1.72,2.5-1.72,3.45c0,0.63,0.35,1.15,0.86,1.46v2.86h-4.31v-1.43c0.25-0.15,0.43-0.41,0.43-0.73c0-0.48-0.86-1.72-0.86-1.72
			s-0.86,1.25-0.86,1.72c0,0.32,0.18,0.58,0.43,0.73v1.43h-5.17v-3.15c0.25-0.15,0.43-0.41,0.43-0.73c0-0.48-0.86-1.72-0.86-1.72
			s-0.86,1.25-0.86,1.72c0,0.32,0.18,0.58,0.43,0.73v3.15h-4.31v-4.87c0.25-0.15,0.43-0.41,0.43-0.73c0-0.48-0.86-1.72-0.86-1.72
			s-0.86,1.25-0.86,1.72c0,0.32,0.18,0.58,0.43,0.73v4.87H62.9v-6.6c0.25-0.15,0.43-0.41,0.43-0.73c0-0.48-0.86-1.72-0.86-1.72
			s-0.86,1.25-0.86,1.72c0,0.32,0.18,0.58,0.43,0.73v6.6h-4.31v-9.18c0.25-0.15,0.43-0.41,0.43-0.73c0-0.48-0.86-1.72-0.86-1.72
			s-0.86,1.25-0.86,1.72c0,0.32,0.18,0.58,0.43,0.73v9.18h-4.31v-9.18c0.25-0.15,0.43-0.41,0.43-0.73c0-0.48-0.86-1.72-0.86-1.72
			s-0.86,1.25-0.86,1.72c0,0.32,0.18,0.58,0.43,0.73v9.18h-4.31v-6.6c0.25-0.15,0.43-0.41,0.43-0.73c0-0.48-0.86-1.72-0.86-1.72
			s-0.86,1.25-0.86,1.72c0,0.32,0.18,0.58,0.43,0.73v6.6h-4.31v-4.87c0.25-0.15,0.43-0.41,0.43-0.73c0-0.48-0.86-1.72-0.86-1.72
			s-0.86,1.25-0.86,1.72c0,0.32,0.18,0.58,0.43,0.73v4.87h-4.31v-3.15c0.25-0.15,0.43-0.41,0.43-0.73c0-0.48-0.86-1.72-0.86-1.72
			s-0.86,1.25-0.86,1.72c0,0.32,0.18,0.58,0.43,0.73v3.15h-4.31v-1.43c0.25-0.15,0.43-0.41,0.43-0.73c0-0.48-0.86-1.72-0.86-1.72
			s-0.86,1.25-0.86,1.72c0,0.32,0.18,0.58,0.43,0.73v1.43h-4.31v-2.85c0.51-0.3,0.86-0.83,0.86-1.46c0-0.95-1.72-3.45-1.72-3.45
			s-1.72,2.5-1.72,3.45c0,0.63,0.36,1.16,0.86,1.46v2.85h-5.17v1.72h5.17v22.41h-5.17v1.72h5.17v4.44h1.72v-4.44h56.9v4.44h1.72
			v-4.44h5.17v-1.72h-5.17V21.23H90.48z M26.69,43.65V21.23H31v22.41H26.69z M31.86,43.65V21.23h4.31v22.41H31.86z M37.03,43.65
			V21.23h4.31v22.41H37.03z M42.21,43.65V21.23h4.31v22.41H42.21z M47.38,43.65V21.23h4.31v22.41H47.38z M52.55,43.65V21.23h4.31
			v22.41H52.55z M57.72,43.65V21.23h4.31v22.41H57.72z M62.9,43.65V21.23h4.31v22.41H62.9z M68.07,43.65V21.23h4.31v22.41H68.07z
			 M73.24,43.65V21.23h5.17v22.41H73.24z M83.59,43.65h-4.31V21.23h4.31V43.65z"/>
		<g>
			<rect x="19.79" y="43.65" class="st4" width="1.72" height="1.72"/>
			<rect x="19.79" y="19.51" class="st4" width="1.72" height="1.72"/>
			<rect x="88.76" y="43.65" class="st4" width="1.72" height="1.72"/>
			<rect x="88.76" y="19.51" class="st4" width="1.72" height="1.72"/>
			<rect x="24.97" y="48.95" class="st4" width="1.72" height="0.86"/>
			<rect x="83.59" y="48.95" class="st4" width="1.72" height="0.86"/>
		</g>
		<g>
			<g>
				
					<rect x="5.14" y="13.47" transform="matrix(-1 -1.224647e-16 1.224647e-16 -1 24.9312 105.3948)" class="st5" width="14.66" height="78.45"/>
				<g>
					<rect x="11.17" y="87.61" class="st2" width="9.48" height="4.31"/>
					<rect x="4.28" y="87.61" class="st1" width="5.17" height="4.31"/>
					<rect x="4.28" y="81.58" class="st2" width="9.48" height="4.31"/>
					<rect x="15.48" y="81.58" class="st1" width="5.17" height="4.31"/>
					<rect x="11.17" y="75.54" class="st2" width="9.48" height="4.31"/>
					<rect x="4.28" y="75.54" class="st1" width="5.17" height="4.31"/>
					<rect x="4.28" y="69.51" class="st2" width="9.48" height="4.31"/>
					<rect x="15.48" y="69.51" class="st1" width="5.17" height="4.31"/>
					<rect x="11.17" y="63.47" class="st1" width="9.48" height="4.31"/>
					<rect x="4.28" y="63.47" class="st2" width="5.17" height="4.31"/>
					<rect x="4.28" y="57.44" class="st1" width="9.48" height="4.31"/>
					<rect x="15.48" y="57.44" class="st2" width="5.17" height="4.31"/>
					<rect x="11.17" y="51.4" class="st2" width="9.48" height="4.31"/>
					<rect x="4.28" y="51.4" class="st1" width="5.17" height="4.31"/>
					<rect x="4.28" y="45.37" class="st2" width="9.48" height="4.31"/>
					<rect x="15.48" y="45.37" class="st1" width="5.17" height="4.31"/>
					<rect x="11.17" y="39.34" class="st2" width="9.48" height="4.31"/>
					<rect x="4.28" y="39.34" class="st1" width="5.17" height="4.31"/>
					<rect x="4.28" y="33.3" class="st2" width="9.48" height="4.31"/>
					<rect x="15.48" y="33.3" class="st1" width="5.17" height="4.31"/>
					<rect x="11.17" y="27.27" class="st1" width="9.48" height="4.31"/>
					<rect x="4.28" y="27.27" class="st2" width="5.17" height="4.31"/>
					<rect x="4.28" y="21.23" class="st1" width="9.48" height="4.31"/>
					<rect x="15.48" y="21.23" class="st2" width="5.17" height="4.31"/>
					<rect x="11.17" y="15.2" class="st2" width="9.48" height="4.31"/>
					<rect x="4.28" y="15.2" class="st1" width="5.17" height="4.31"/>
				</g>
			</g>
			<g>
				<rect x="4.28" y="11.74" class="st3" width="16.38" height="1.73"/>
				<polygon class="st6" points="12.47,6.56 4.28,11.74 20.66,11.74 				"/>
			</g>
		</g>
	</g>
	<g id="Fence_14_">
		<g>
			
				<rect x="180.14" y="49.81" transform="matrix(-1 -1.224647e-16 1.224647e-16 -1 430.9655 141.7361)" class="st0" width="70.69" height="42.11"/>
			<g>
				<rect x="238.76" y="51.4" class="st1" width="9.48" height="4.31"/>
				<rect x="227.55" y="51.4" class="st2" width="9.48" height="4.31"/>
				<rect x="216.34" y="51.4" class="st2" width="9.48" height="4.31"/>
				<rect x="205.14" y="51.4" class="st1" width="9.48" height="4.31"/>
				<rect x="193.93" y="51.4" class="st2" width="9.48" height="4.31"/>
				<rect x="182.72" y="51.4" class="st1" width="9.48" height="4.31"/>
				<rect x="244.22" y="57.44" class="st2" width="4.02" height="4.31"/>
				<rect x="233.01" y="57.44" class="st2" width="9.48" height="4.31"/>
				<rect x="221.8" y="57.44" class="st2" width="9.48" height="4.31"/>
				<rect x="210.6" y="57.44" class="st1" width="9.48" height="4.31"/>
				<rect x="199.39" y="57.44" class="st1" width="9.48" height="4.31"/>
				<rect x="188.18" y="57.44" class="st2" width="9.48" height="4.31"/>
				<rect x="182.72" y="57.44" class="st2" width="3.74" height="4.31"/>
				<rect x="238.76" y="63.47" class="st2" width="9.48" height="4.31"/>
				<rect x="227.55" y="63.47" class="st1" width="9.48" height="4.31"/>
				<rect x="216.34" y="63.47" class="st2" width="9.48" height="4.31"/>
				<rect x="205.14" y="63.47" class="st1" width="9.48" height="4.31"/>
				<rect x="193.93" y="63.47" class="st2" width="9.48" height="4.31"/>
				<rect x="182.72" y="63.47" class="st1" width="9.48" height="4.31"/>
				<rect x="244.22" y="69.51" class="st1" width="4.02" height="4.31"/>
				<rect x="233.01" y="69.51" class="st2" width="9.48" height="4.31"/>
				<rect x="221.8" y="69.51" class="st2" width="9.48" height="4.31"/>
				<rect x="210.6" y="69.51" class="st2" width="9.48" height="4.31"/>
				<rect x="199.39" y="69.51" class="st2" width="9.48" height="4.31"/>
				<rect x="188.18" y="69.51" class="st1" width="9.48" height="4.31"/>
				<rect x="182.72" y="69.51" class="st2" width="3.74" height="4.31"/>
				<rect x="238.76" y="75.54" class="st2" width="9.48" height="4.31"/>
				<rect x="227.55" y="75.54" class="st2" width="9.48" height="4.31"/>
				<rect x="216.34" y="75.54" class="st2" width="9.48" height="4.31"/>
				<rect x="205.14" y="75.54" class="st1" width="9.48" height="4.31"/>
				<rect x="193.93" y="75.54" class="st1" width="9.48" height="4.31"/>
				<rect x="182.72" y="75.54" class="st2" width="9.48" height="4.31"/>
				<rect x="238.76" y="87.61" class="st2" width="9.48" height="4.31"/>
				<rect x="227.55" y="87.61" class="st1" width="9.48" height="4.31"/>
				<rect x="216.34" y="87.61" class="st2" width="9.48" height="4.31"/>
				<rect x="205.14" y="87.61" class="st2" width="9.48" height="4.31"/>
				<rect x="193.93" y="87.61" class="st1" width="9.48" height="4.31"/>
				<rect x="182.72" y="87.61" class="st2" width="9.48" height="4.31"/>
				<rect x="244.22" y="81.58" class="st2" width="4.02" height="4.31"/>
				<rect x="233.01" y="81.58" class="st1" width="9.48" height="4.31"/>
				<rect x="221.8" y="81.58" class="st1" width="9.48" height="4.31"/>
				<rect x="210.6" y="81.58" class="st2" width="9.48" height="4.31"/>
				<rect x="199.39" y="81.58" class="st1" width="9.48" height="4.31"/>
				<rect x="188.18" y="81.58" class="st2" width="9.48" height="4.31"/>
				<rect x="182.72" y="81.58" class="st2" width="3.74" height="4.31"/>
			</g>
		</g>
		<path class="st3" d="M250.83,21.23v-1.72h-5.17v-2.85c0.51-0.3,0.87-0.83,0.87-1.46c0-0.95-1.72-3.45-1.72-3.45
			s-1.72,2.5-1.72,3.45c0,0.63,0.35,1.15,0.86,1.46v2.86h-4.31v-1.43c0.25-0.15,0.43-0.41,0.43-0.73c0-0.48-0.86-1.72-0.86-1.72
			s-0.86,1.25-0.86,1.72c0,0.32,0.18,0.58,0.43,0.73v1.43h-5.17v-3.15c0.25-0.15,0.43-0.41,0.43-0.73c0-0.48-0.86-1.72-0.86-1.72
			s-0.86,1.25-0.86,1.72c0,0.32,0.18,0.58,0.43,0.73v3.15h-4.31v-4.87c0.25-0.15,0.43-0.41,0.43-0.73c0-0.48-0.86-1.72-0.86-1.72
			s-0.86,1.25-0.86,1.72c0,0.32,0.18,0.58,0.43,0.73v4.87h-4.31v-6.6c0.25-0.15,0.43-0.41,0.43-0.73c0-0.48-0.86-1.72-0.86-1.72
			s-0.86,1.25-0.86,1.72c0,0.32,0.18,0.58,0.43,0.73v6.6h-4.31v-9.18c0.25-0.15,0.43-0.41,0.43-0.73c0-0.48-0.86-1.72-0.86-1.72
			s-0.86,1.25-0.86,1.72c0,0.32,0.18,0.58,0.43,0.73v9.18h-4.31v-9.18c0.25-0.15,0.43-0.41,0.43-0.73c0-0.48-0.86-1.72-0.86-1.72
			s-0.86,1.25-0.86,1.72c0,0.32,0.18,0.58,0.43,0.73v9.18h-4.31v-6.6c0.25-0.15,0.43-0.41,0.43-0.73c0-0.48-0.86-1.72-0.86-1.72
			s-0.86,1.25-0.86,1.72c0,0.32,0.18,0.58,0.43,0.73v6.6h-4.31v-4.87c0.25-0.15,0.43-0.41,0.43-0.73c0-0.48-0.86-1.72-0.86-1.72
			s-0.86,1.25-0.86,1.72c0,0.32,0.18,0.58,0.43,0.73v4.87h-4.31v-3.15c0.25-0.15,0.43-0.41,0.43-0.73c0-0.48-0.86-1.72-0.86-1.72
			s-0.86,1.25-0.86,1.72c0,0.32,0.18,0.58,0.43,0.73v3.15h-4.31v-1.43c0.25-0.15,0.43-0.41,0.43-0.73c0-0.48-0.86-1.72-0.86-1.72
			s-0.86,1.25-0.86,1.72c0,0.32,0.18,0.58,0.43,0.73v1.43h-4.31v-2.85c0.51-0.3,0.86-0.83,0.86-1.46c0-0.95-1.72-3.45-1.72-3.45
			s-1.72,2.5-1.72,3.45c0,0.63,0.36,1.16,0.86,1.46v2.85h-5.17v1.72h5.17v22.41h-5.17v1.72h5.17v4.44h1.72v-4.44h56.9v4.44h1.72
			v-4.44h5.17v-1.72h-5.17V21.23H250.83z M187.03,43.65V21.23h4.31v22.41H187.03z M192.21,43.65V21.23h4.31v22.41H192.21z
			 M197.38,43.65V21.23h4.31v22.41H197.38z M202.55,43.65V21.23h4.31v22.41H202.55z M207.72,43.65V21.23h4.31v22.41H207.72z
			 M212.9,43.65V21.23h4.31v22.41H212.9z M218.07,43.65V21.23h4.31v22.41H218.07z M223.24,43.65V21.23h4.31v22.41H223.24z
			 M228.41,43.65V21.23h4.31v22.41H228.41z M233.59,43.65V21.23h5.17v22.41H233.59z M243.93,43.65h-4.31V21.23h4.31V43.65z"/>
		<g>
			<rect x="180.14" y="43.65" class="st4" width="1.72" height="1.72"/>
			<rect x="180.14" y="19.51" class="st4" width="1.72" height="1.72"/>
			<rect x="249.1" y="43.65" class="st4" width="1.72" height="1.72"/>
			<rect x="249.1" y="19.51" class="st4" width="1.72" height="1.72"/>
			<rect x="185.31" y="48.95" class="st4" width="1.72" height="0.86"/>
			<rect x="243.93" y="48.95" class="st4" width="1.72" height="0.86"/>
		</g>
		<g>
			<g>
				
					<rect x="250.83" y="13.47" transform="matrix(-1 -1.224647e-16 1.224647e-16 -1 516.3103 105.3948)" class="st5" width="14.66" height="78.45"/>
				<g>
					<rect x="256.86" y="87.61" class="st2" width="9.48" height="4.31"/>
					<rect x="249.97" y="87.61" class="st1" width="5.17" height="4.31"/>
					<rect x="249.97" y="81.58" class="st2" width="9.48" height="4.31"/>
					<rect x="261.17" y="81.58" class="st1" width="5.17" height="4.31"/>
					<rect x="256.86" y="75.54" class="st2" width="9.48" height="4.31"/>
					<rect x="249.97" y="75.54" class="st1" width="5.17" height="4.31"/>
					<rect x="249.97" y="69.51" class="st2" width="9.48" height="4.31"/>
					<rect x="261.17" y="69.51" class="st1" width="5.17" height="4.31"/>
					<rect x="256.86" y="63.47" class="st1" width="9.48" height="4.31"/>
					<rect x="249.97" y="63.47" class="st2" width="5.17" height="4.31"/>
					<rect x="249.97" y="57.44" class="st1" width="9.48" height="4.31"/>
					<rect x="261.17" y="57.44" class="st2" width="5.17" height="4.31"/>
					<rect x="256.86" y="51.4" class="st2" width="9.48" height="4.31"/>
					<rect x="249.97" y="51.4" class="st1" width="5.17" height="4.31"/>
					<rect x="249.97" y="45.37" class="st2" width="9.48" height="4.31"/>
					<rect x="261.17" y="45.37" class="st1" width="5.17" height="4.31"/>
					<rect x="256.86" y="39.34" class="st2" width="9.48" height="4.31"/>
					<rect x="249.97" y="39.34" class="st1" width="5.17" height="4.31"/>
					<rect x="249.97" y="33.3" class="st2" width="9.48" height="4.31"/>
					<rect x="261.17" y="33.3" class="st1" width="5.17" height="4.31"/>
					<rect x="256.86" y="27.27" class="st1" width="9.48" height="4.31"/>
					<rect x="249.97" y="27.27" class="st2" width="5.17" height="4.31"/>
					<rect x="249.97" y="21.23" class="st1" width="9.48" height="4.31"/>
					<rect x="261.17" y="21.23" class="st2" width="5.17" height="4.31"/>
					<rect x="256.86" y="15.2" class="st2" width="9.48" height="4.31"/>
					<rect x="249.97" y="15.2" class="st1" width="5.17" height="4.31"/>
				</g>
			</g>
			<g>
				<rect x="249.97" y="11.74" class="st3" width="16.38" height="1.73"/>
				<polygon class="st6" points="258.15,6.56 249.97,11.74 266.34,11.74 				"/>
			</g>
		</g>
	</g>
	<g id="Gate_7_">
		<g>
			<g>
				
					<rect x="90.48" y="13.47" transform="matrix(-1 -1.224647e-16 1.224647e-16 -1 195.6208 105.3948)" class="st5" width="14.66" height="78.45"/>
				<g>
					<rect x="96.52" y="87.61" class="st2" width="9.48" height="4.31"/>
					<rect x="89.62" y="87.61" class="st1" width="5.17" height="4.31"/>
					<rect x="89.62" y="81.58" class="st2" width="9.48" height="4.31"/>
					<rect x="100.83" y="81.58" class="st1" width="5.17" height="4.31"/>
					<rect x="96.52" y="75.54" class="st2" width="9.48" height="4.31"/>
					<rect x="89.62" y="75.54" class="st1" width="5.17" height="4.31"/>
					<rect x="89.62" y="69.51" class="st2" width="9.48" height="4.31"/>
					<rect x="100.83" y="69.51" class="st1" width="5.17" height="4.31"/>
					<rect x="96.52" y="63.47" class="st1" width="9.48" height="4.31"/>
					<rect x="89.62" y="63.47" class="st2" width="5.17" height="4.31"/>
					<rect x="89.62" y="57.44" class="st1" width="9.48" height="4.31"/>
					<rect x="100.83" y="57.44" class="st2" width="5.17" height="4.31"/>
					<rect x="96.52" y="51.4" class="st2" width="9.48" height="4.31"/>
					<rect x="89.62" y="51.4" class="st1" width="5.17" height="4.31"/>
					<rect x="89.62" y="45.37" class="st2" width="9.48" height="4.31"/>
					<rect x="100.83" y="45.37" class="st1" width="5.17" height="4.31"/>
					<rect x="96.52" y="39.34" class="st2" width="9.48" height="4.31"/>
					<rect x="89.62" y="39.34" class="st1" width="5.17" height="4.31"/>
					<rect x="89.62" y="33.3" class="st2" width="9.48" height="4.31"/>
					<rect x="100.83" y="33.3" class="st1" width="5.17" height="4.31"/>
					<rect x="96.52" y="27.27" class="st1" width="9.48" height="4.31"/>
					<rect x="89.62" y="27.27" class="st2" width="5.17" height="4.31"/>
					<rect x="89.62" y="21.23" class="st1" width="9.48" height="4.31"/>
					<rect x="100.83" y="21.23" class="st2" width="5.17" height="4.31"/>
					<rect x="96.52" y="15.2" class="st2" width="9.48" height="4.31"/>
					<rect x="89.62" y="15.2" class="st1" width="5.17" height="4.31"/>
				</g>
			</g>
			<g>
				<rect x="89.62" y="11.74" class="st3" width="16.38" height="1.73"/>
				<polygon class="st6" points="97.81,6.56 89.62,11.74 106,11.74 				"/>
			</g>
		</g>
		<g>
			<g>
				
					<rect x="165.48" y="13.47" transform="matrix(-1 -1.224647e-16 1.224647e-16 -1 345.6207 105.3948)" class="st5" width="14.66" height="78.45"/>
				<g>
					<rect x="171.52" y="87.61" class="st2" width="9.48" height="4.31"/>
					<rect x="164.62" y="87.61" class="st1" width="5.17" height="4.31"/>
					<rect x="164.62" y="81.58" class="st2" width="9.48" height="4.31"/>
					<rect x="175.83" y="81.58" class="st1" width="5.17" height="4.31"/>
					<rect x="171.52" y="75.54" class="st2" width="9.48" height="4.31"/>
					<rect x="164.62" y="75.54" class="st1" width="5.17" height="4.31"/>
					<rect x="164.62" y="69.51" class="st2" width="9.48" height="4.31"/>
					<rect x="175.83" y="69.51" class="st1" width="5.17" height="4.31"/>
					<rect x="171.52" y="63.47" class="st1" width="9.48" height="4.31"/>
					<rect x="164.62" y="63.47" class="st2" width="5.17" height="4.31"/>
					<rect x="164.62" y="57.44" class="st1" width="9.48" height="4.31"/>
					<rect x="175.83" y="57.44" class="st2" width="5.17" height="4.31"/>
					<rect x="171.52" y="51.4" class="st2" width="9.48" height="4.31"/>
					<rect x="164.62" y="51.4" class="st1" width="5.17" height="4.31"/>
					<rect x="164.62" y="45.37" class="st2" width="9.48" height="4.31"/>
					<rect x="175.83" y="45.37" class="st1" width="5.17" height="4.31"/>
					<rect x="171.52" y="39.34" class="st2" width="9.48" height="4.31"/>
					<rect x="164.62" y="39.34" class="st1" width="5.17" height="4.31"/>
					<rect x="164.62" y="33.3" class="st2" width="9.48" height="4.31"/>
					<rect x="175.83" y="33.3" class="st1" width="5.17" height="4.31"/>
					<rect x="171.52" y="27.27" class="st1" width="9.48" height="4.31"/>
					<rect x="164.62" y="27.27" class="st2" width="5.17" height="4.31"/>
					<rect x="164.62" y="21.23" class="st1" width="9.48" height="4.31"/>
					<rect x="175.83" y="21.23" class="st2" width="5.17" height="4.31"/>
					<rect x="171.52" y="15.2" class="st2" width="9.48" height="4.31"/>
					<rect x="164.62" y="15.2" class="st1" width="5.17" height="4.31"/>
				</g>
			</g>
			<g>
				<rect x="164.62" y="11.74" class="st3" width="16.38" height="1.73"/>
				<polygon class="st6" points="172.81,6.56 164.62,11.74 181,11.74 				"/>
			</g>
		</g>
		<path class="st3" d="M165.48,21.23v-1.72h-4.31v-2.85c0.51-0.3,0.86-0.83,0.86-1.46c0-0.95-1.72-3.45-1.72-3.45
			s-1.72,2.5-1.72,3.45c0,0.63,0.35,1.15,0.86,1.46v2.86h0.01v12.72c-3.59-9.91-13.08-17.03-24.22-17.03
			c-10.98,0-20.35,6.91-24.06,16.6V16.65c0.51-0.3,0.86-0.83,0.86-1.46c0-0.95-1.72-3.45-1.72-3.45s-1.72,2.5-1.72,3.45
			c0,0.63,0.35,1.15,0.86,1.46v2.86h-4.3v1.72h4.31v64.66h-4.31v1.72h4.31v4.31h51.72v-4.31h4.31v-1.72h-4.31V21.23H165.48z
			 M111.18,47.53L111.18,47.53l-0.01-0.05C111.18,47.49,111.18,47.51,111.18,47.53z M118.41,71.61c-3.73,0-6.79,2.82-7.24,6.44
			V58.89c1.26,4.82,4.38,8.7,12.19,12.86c3.7,1.97,4.69,5.29,4.39,7.73c-0.31,2.47-1.93,4.37-4.23,4.94
			c-1.67,0.42-3.12,0.22-4.24-0.5c0.41,0.11,0.84,0.18,1.29,0.18c2.85,0,5.17-2.32,5.17-5.17
			C125.74,74.89,122.45,71.61,118.41,71.61z M111.17,90.2v-9.87c0.56,4.72,3.94,8.59,8.4,9.87H111.17z M112.81,78.93
			c0-3.09,2.51-5.6,5.6-5.6c3.09,0,5.6,2.51,5.6,5.6c0,1.9-1.55,3.45-3.45,3.45c-1.9,0-3.45-1.55-3.45-3.45
			c0-0.48-0.39-0.86-0.86-0.86c-0.48,0-0.86,0.39-0.86,0.86c0,2.67,0.83,4.86,2.5,6.16c1.08,0.84,2.43,1.27,3.92,1.27
			c0.68,0,1.39-0.09,2.12-0.27c3.01-0.75,5.13-3.2,5.53-6.4c0.47-3.79-1.61-7.5-5.29-9.47c-10.51-5.6-11.91-10.17-12.1-18.53
			c1.48,5.54,4.03,10.07,8.66,13.49c9.76,7.23,11.77,10.97,12.07,12.61c0.01,0.37,0.01,0.74,0.01,1.14c0,5.52-4.49,10-10,10
			C117.29,88.94,112.81,84.45,112.81,78.93z M112.86,47.14c1.78,4.43,4.9,8.51,9.4,12.18c6.9,5.62,9.44,8.76,10.23,14.23
			c-2.06-2.72-5.64-5.97-10.74-9.75C116.44,59.87,114.06,54.25,112.86,47.14z M134.45,90.2h-8.4c4.46-1.29,7.84-5.15,8.4-9.87V90.2z
			 M134.45,76c-0.49-8.11-3.31-11.69-11.09-18.02c-6.15-5.01-9.55-10.57-10.35-16.91c4,7.92,12.07,13.42,21.45,13.75V76z
			 M134.45,53.09c-9.48-0.35-17.52-6.38-20.8-14.79c-0.57-1.47-0.52-3.14,0.17-4.56c1.62-3.34,5.04-5.66,9-5.66
			c5.3,0,9.66,4.15,9.98,9.37c0.2,3.11-2.11,6.03-5.22,6.23c-3.03,0.19-5.6-2.05-5.93-4.95c-0.22-1.94,1.03-3.82,2.97-4.06
			c2.1-0.26,3.89,1.37,3.89,3.42c0,0.48,0.39,0.86,0.86,0.86s0.86-0.39,0.86-0.86c0-3.46-3.41-6.14-7.05-4.84
			c-2.07,0.74-3.32,2.74-3.29,4.94c0.06,3.99,3.32,7.22,7.33,7.22c3.74,0,6.79-2.82,7.24-6.44V53.09z M134.45,36.7
			c-0.57-4.77-4-8.66-8.52-9.91c1.87-1.66,4.99-2.8,8.52-2.97V36.7z M134.45,22.1c-4.65,0.19-8.56,1.86-10.58,4.31
			c-0.35-0.03-0.7-0.05-1.06-0.05c-3.98,0-7.5,2-9.62,5.04c3.61-8.27,11.74-14.13,21.26-14.44V22.1z M136.17,16.97
			c9.23,0.36,17.12,5.94,20.83,13.86c-2.15-2.72-5.47-4.47-9.19-4.47c-0.36,0-0.71,0.02-1.06,0.05c-2.02-2.45-5.92-4.12-10.58-4.31
			V16.97z M136.17,23.82c3.53,0.17,6.64,1.32,8.51,2.97c-4.52,1.25-7.95,5.15-8.51,9.91V23.82z M136.17,38.98
			c0.45,3.62,3.5,6.44,7.24,6.44c4.01,0,7.27-3.23,7.33-7.22c0.03-2.2-1.22-4.2-3.29-4.94c-3.64-1.3-7.05,1.38-7.05,4.84
			c0,0.48,0.39,0.86,0.86,0.86c0.45,0,0.83-0.35,0.86-0.8c0.1-1.33,0.67-2.62,1.89-3.17c2.54-1.14,5.01,0.7,5.01,3.1
			c0,3.21-2.72,5.81-5.98,5.59c-3.1-0.2-5.4-3.13-5.2-6.23c0.33-5.22,4.68-9.37,9.98-9.37c3.95,0,7.37,2.31,8.99,5.64
			c0.69,1.42,0.75,3.09,0.17,4.56c-3.28,8.42-11.32,14.46-20.8,14.81V38.98z M136.17,54.81c9.38-0.32,17.45-5.83,21.45-13.75
			c-0.8,6.34-4.2,11.9-10.35,16.91c-7.78,6.34-10.6,9.91-11.09,18.02V54.81z M157.78,47.08c-1.19,7.13-3.57,12.77-8.89,16.72
			c-5.13,3.79-8.72,7.06-10.77,9.78c0.79-5.49,3.32-8.64,10.23-14.27C152.88,55.63,156,51.54,157.78,47.08z M136.17,90.2v-9.87
			c0.56,4.72,3.94,8.59,8.4,9.87H136.17z M137.81,78.93c0-0.33,0.01-0.65,0.01-0.96c0.18-1.53,1.95-5.28,12.1-12.78
			c4.59-3.39,7.13-7.88,8.62-13.36c-0.2,8.28-1.65,12.83-12.1,18.4c-3.68,1.96-5.76,5.68-5.29,9.47c0.4,3.2,2.51,5.65,5.53,6.4
			c0.73,0.18,1.44,0.27,2.12,0.27c1.49,0,2.84-0.43,3.92-1.27c1.51-1.18,2.3-3.12,2.44-5.45c0.03-0.23,0.07-0.46,0.07-0.71
			c0-0.48-0.39-0.86-0.86-0.86s-0.86,0.39-0.86,0.86c0,1.9-1.55,3.45-3.45,3.45c-1.9,0-3.45-1.55-3.45-3.45c0-3.09,2.51-5.6,5.6-5.6
			c3.09,0,5.6,2.51,5.6,5.6c0,5.52-4.49,10-10,10C142.29,88.94,137.81,84.45,137.81,78.93z M159.45,90.2h-8.4
			c4.46-1.29,7.84-5.15,8.4-9.87V90.2z M159.45,78.04c-0.45-3.62-3.5-6.44-7.24-6.44c-4.04,0-7.33,3.29-7.33,7.33
			c0,2.85,2.32,5.17,5.17,5.17c0.44,0,0.86-0.07,1.26-0.17c-1.12,0.72-2.56,0.91-4.23,0.49c-2.3-0.57-3.92-2.46-4.23-4.94
			c-0.3-2.45,0.69-5.76,4.39-7.73c7.83-4.18,10.95-8.06,12.2-12.91V78.04z"/>
		<g>
			<rect x="105.14" y="85.89" class="st4" width="1.72" height="1.72"/>
			<rect x="105.14" y="19.51" class="st4" width="1.72" height="1.72"/>
			<rect x="163.76" y="85.89" class="st4" width="1.72" height="1.72"/>
			<rect x="163.76" y="19.51" class="st4" width="1.72" height="1.72"/>
		</g>
	</g>
</g>
</svg>
