<?xml version="1.0" encoding="utf-8"?>
<!-- Generator: Adobe Illustrator 24.0.1, SVG Export Plug-In . SVG Version: 6.00 Build 0)  -->
<svg version="1.1" id="Layer_1" xmlns="http://www.w3.org/2000/svg" xmlns:xlink="http://www.w3.org/1999/xlink" x="0px" y="0px"
	 viewBox="0 0 2583.72 1316.28" style="enable-background:new 0 0 2583.72 1316.28;" xml:space="preserve">
<style type="text/css">
	.st0{fill:#D3E4FE;}
	.st1{fill:#B2CBFD;}
	.st2{fill:#FFFFFF;}
	.st3{fill:#466AA5;}
	.st4{fill:#D6716B;}
	.st5{fill:#DEEDFF;}
	.st6{fill:#A8D29F;}
	.st7{fill:#66A357;}
	.st8{fill:#82B378;}
	.st9{fill:#E49963;}
	.st10{fill:#D38957;}
	.st11{fill:#2F5791;}
	.st12{fill:#2C3A64;}
	.st13{fill:#C65447;}
	.st14{fill:#365DA4;}
	.st15{fill:#B74B42;}
	.st16{fill:#D68D5D;}
	.st17{fill:#699DEE;}
	.st18{fill:#3B76CA;}
	.st19{fill:#35488B;}
	.st20{fill:#EE9849;}
	.st21{fill:#163560;}
	.st22{fill:#E58638;}
	.st23{fill:#F1A34F;}
	.st24{fill:#FFB973;}
	.st25{fill:#D86713;}
	.st26{fill:#FFB27D;}
	.st27{fill:#AD7041;}
	.st28{fill:#415DA5;}
	.st29{fill:#355493;}
	.st30{fill:#B84C42;}
	.st31{fill:#2B478B;}
	.st32{fill:#7A97F3;}
	.st33{fill:#E8945B;}
	.st34{fill:#E9F2FF;}
	.st35{fill:#699FF0;}
	.st36{opacity:0.9;fill:#AFCDFB;}
	.st37{fill:#A53D38;}
	.st38{fill:#B64C41;}
	.st39{fill:#F4AC75;}
	.st40{opacity:0.2;fill:#B2CBFD;}
	.st41{fill:#C97C47;}
	.st42{opacity:0.5;fill:#B2CBFD;}
</style>
<g>
	<path class="st0" d="M251.22,464.17c131.21-45.14,176.98-677.14,759.79-361.14c231.77,125.67,565.51-26.41,885.11,56.71
		c293.52,76.34,300.26,296.54,263.15,375.81c-40.55,86.62,121.16,190.18,286.77,261.3c259.78,111.57,68.75,503.66-176.66,505.54
		c-245.41,1.87-2048.42-3.73-2048.42-3.73S-269.68,643.39,251.22,464.17z"/>
	<g>
		
			<rect x="1642.03" y="289.19" transform="matrix(-1 -1.224647e-16 1.224647e-16 -1 3830.8582 964.009)" class="st1" width="546.8" height="385.63"/>
		
			<rect x="1660.96" y="309.23" transform="matrix(-1 -1.224647e-16 1.224647e-16 -1 3830.8582 964.009)" class="st2" width="508.94" height="345.54"/>
		
			<rect x="2188.66" y="289.19" transform="matrix(-1 -1.224647e-16 1.224647e-16 -1 4380.9473 964.009)" class="st3" width="3.62" height="385.63"/>
		<path class="st4" d="M1951.09,428.35c12.52-9.24,30.41-3.65,35.47,11.07c0.72,2.08,1.42,4.29,2.1,6.61
			c0.2,0.68,1.05,0.91,1.57,0.42c0.05-0.05,0.1-0.1,0.16-0.14c3.62-3.3,5.73-7.94,5.73-12.84l-4.57-41.16
			c-0.53-4.77,3.21-8.95,8.01-8.95h9.86c4.8,0,8.54,4.17,8.01,8.94l-4.58,41.42c0,4.96,2.12,9.7,5.86,12.95l0.07,0.06
			c0.53,0.46,1.35,0.21,1.54-0.46c0.7-2.41,1.43-4.7,2.17-6.86c5.06-14.71,22.95-20.3,35.47-11.07
			c51.11,37.7,49.78,98.39,43.76,133.19c-2.47,14.29-17.39,22.76-30.93,17.58l-33.15-12.67c-6.53-2.5-11.58-7.82-13.71-14.47
			c-9.65-30.14-11.13-56.23-9.03-77.34c0.37-3.71-0.66-7.43-2.85-10.46l-0.01-0.02c-3.95-5.46-6.87-6.89-7.96-6.86
			c-1.31,0.02-4.48,2.31-8.33,10.17c-1.25,2.56-1.73,5.43-1.46,8.27c1.95,20.92,0.35,46.64-9.14,76.28
			c-2.13,6.64-7.18,11.94-13.7,14.43l-33.15,12.67c-13.53,5.17-28.46-3.27-30.93-17.55
			C1901.31,526.77,1899.97,466.06,1951.09,428.35z"/>
		<g>
			<path class="st4" d="M1704.08,498.39h103.82c2.81,0,5.11,2.3,5.11,5.11c0,2.81-2.3,5.11-5.11,5.11h-103.82
				c-2.81,0-5.11-2.3-5.11-5.11C1698.97,500.69,1701.27,498.39,1704.08,498.39z"/>
			<path class="st4" d="M1704.08,519.57h103.82c2.81,0,5.11,2.3,5.11,5.11c0,2.81-2.3,5.11-5.11,5.11h-103.82
				c-2.81,0-5.11-2.3-5.11-5.11C1698.97,521.87,1701.27,519.57,1704.08,519.57z"/>
			<path class="st4" d="M1704.08,543.11h103.82c2.81,0,5.11,2.3,5.11,5.11c0,2.81-2.3,5.11-5.11,5.11h-103.82
				c-2.81,0-5.11-2.3-5.11-5.11C1698.97,545.41,1701.27,543.11,1704.08,543.11z"/>
			<path class="st4" d="M1704.08,566.65h103.82c2.81,0,5.11,2.3,5.11,5.11c0,2.81-2.3,5.11-5.11,5.11h-103.82
				c-2.81,0-5.11-2.3-5.11-5.11C1698.97,568.95,1701.27,566.65,1704.08,566.65z"/>
			<path class="st4" d="M1704.08,387.13h103.82c2.81,0,5.11,2.3,5.11,5.11l0,0c0,2.81-2.3,5.11-5.11,5.11h-103.82
				c-2.81,0-5.11-2.3-5.11-5.11l0,0C1698.97,389.44,1701.27,387.13,1704.08,387.13z"/>
			<path class="st4" d="M1704.08,408.31h103.82c2.81,0,5.11,2.3,5.11,5.11l0,0c0,2.81-2.3,5.11-5.11,5.11h-103.82
				c-2.81,0-5.11-2.3-5.11-5.11l0,0C1698.97,410.61,1701.27,408.31,1704.08,408.31z"/>
			<path class="st4" d="M1704.08,431.85h103.82c2.81,0,5.11,2.3,5.11,5.11l0,0c0,2.81-2.3,5.11-5.11,5.11h-103.82
				c-2.81,0-5.11-2.3-5.11-5.11l0,0C1698.97,434.15,1701.27,431.85,1704.08,431.85z"/>
			<path class="st4" d="M1704.08,455.39h103.82c2.81,0,5.11,2.3,5.11,5.11l0,0c0,2.81-2.3,5.11-5.11,5.11h-103.82
				c-2.81,0-5.11-2.3-5.11-5.11l0,0C1698.97,457.69,1701.27,455.39,1704.08,455.39z"/>
		</g>
		<path class="st4" d="M1834.05,428.17h25.66c4.23,0,7.69-3.46,7.69-7.69v-25.66c0-4.23-3.46-7.69-7.69-7.69h-25.66
			c-4.23,0-7.69,3.46-7.69,7.69v25.66C1826.36,424.71,1829.82,428.17,1834.05,428.17z"/>
		<path class="st4" d="M1834.05,539.43h25.66c4.23,0,7.69-3.46,7.69-7.69v-25.66c0-4.23-3.46-7.69-7.69-7.69h-25.66
			c-4.23,0-7.69,3.46-7.69,7.69v25.66C1826.36,535.97,1829.82,539.43,1834.05,539.43z"/>
		<polygon class="st2" points="1859.12,517.16 1851.58,533.7 1833.32,504.85 1852.8,521.24 		"/>
		<polygon class="st2" points="1859.12,405.53 1851.58,422.08 1833.32,393.23 1852.8,409.61 		"/>
		<path class="st4" d="M1732.02,329.96h366.81c2.46,0,4.45-1.99,4.45-4.45v0c0-2.46-1.99-4.45-4.45-4.45h-366.81
			c-2.46,0-4.45,1.99-4.45,4.45v0C1727.57,327.97,1729.56,329.96,1732.02,329.96z"/>
	</g>
	<rect x="864.41" y="242.49" class="st5" width="607.65" height="1058.29"/>
	<rect x="907.82" y="287.64" class="st1" width="520.83" height="1013.14"/>
	<g>
		<path class="st6" d="M1665.55,1098.42h751.13c5.04,0,9.16-4.12,9.16-9.16V819.64h-718.42c-28.07,0-51.03,22.96-51.03,51.03v218.58
			C1656.39,1094.29,1660.51,1098.42,1665.55,1098.42z"/>
		<path class="st6" d="M1612.97,1081.16h761.51c27.67,0,50.3,22.64,50.3,50.3v117.24c0,27.67-22.64,50.3-50.3,50.3h-761.51
			c-27.67,0-50.3-22.64-50.3-50.3v-117.24C1562.67,1103.8,1585.3,1081.16,1612.97,1081.16z"/>
		<path class="st7" d="M2320.61,1085.14h59V860.05c0-22.23,18.19-40.41,40.41-40.41h5.59c1.36,0,2.47,1.11,2.47,2.47v266.89v50.92
			v155.21c0,2.13-1.74,3.87-3.87,3.87h-170.79c-2.13,0-3.87-1.74-3.87-3.87v-138.95
			C2249.57,1117.11,2281.54,1085.14,2320.61,1085.14z"/>
		<path class="st8" d="M2249.93,821.55c0,0,56.31-5.4,75.84,27c19.52,32.4,0,154.3,16.52,175.9c16.52,21.6,36.04,34.72,35.29,60.18
			l-121.1,1.3c0,0-106.47,3.83-105.7,60.56c0.77,56.72,0,154.84,0,154.84h-60.95c0,0-2.74-251.8,58.94-266.59
			C2284.03,1002.3,2249.93,821.55,2249.93,821.55z"/>
		<path class="st8" d="M1653.09,1072.19l3.29,0.12V861.55c0-23.12,18.75-41.87,41.87-41.87h129.18c0,0,26.62,87.99,30.09,117.71
			c3.47,29.71,105.3,30.86,119.19,67.42c13.89,36.57,16.2,77.71,16.2,77.71h-51.68c0,0-2.02,0.68-5.48,2.18
			c-20.35,8.84-90.4,46.28-89.41,142.44v71.16h-255.74C1590.61,1298.3,1550.1,1089.41,1653.09,1072.19z"/>
		<path class="st9" d="M2090.14,981.94c0,0-10.63-3.24-14.36-1.32c-3.73,1.92-13.73,7.92-12.88,12.48
			c0.85,4.56,18.56,7.38,29.2,0.29C2102.74,986.31,2090.14,981.94,2090.14,981.94z"/>
		<path class="st10" d="M2125.58,1284.54c-0.01,2.99-1.48,5.05-3.99,6.43c-0.01,0.01-0.02,0.02-0.04,0.02
			c-4.64,2.55-12.04,0.59-20.9,0.21c-1.13-0.05-12.9,4.99-29.55,6.42c-18.99,1.62-25.98-4.19-27.1-6.84
			c-0.94-2.24,7.21-4.79,16.31-7.7c0.44-0.14,0.88-0.29,1.33-0.42c1.21-0.39,2.43-0.79,3.64-1.18c10.84-3.6,21.51-7.88,24.17-18.85
			c2.82-11.63-5.66-44.11-5.66-44.11l30.09-3.25c0,0,2.9,33.95,4.79,44.52c1.02,5.65,3.58,10.14,5.08,14.97
			c0.11,0.34,0.21,0.68,0.3,1.02C2124.82,1278.63,2125.59,1281.54,2125.58,1284.54z"/>
		<g>
			<path class="st11" d="M2125.58,1284.54c-0.01,2.99-1.48,5.05-3.99,6.43c-0.01,0.01-0.02,0.02-0.04,0.02
				c-6.72,4.32-18.66-1.69-38.09,7.28c-0.84,0.39-7.36-0.06-11.89-0.13c-5.9-0.08-14.4,0.45-16.39,0.13
				c-9.18-1.48-10.54-6-11.17-7.49c-0.94-2.24,7.21-4.79,16.31-7.7c2.55,0.99,14.73,5.21,29.13,2.48
				c12.67-2.38,25.25-8.69,34.3-10.79c0.11,0.34,0.21,0.68,0.3,1.02C2124.82,1278.63,2125.59,1281.54,2125.58,1284.54z"/>
			<polygon class="st11" points="2122.55,1289.83 2118.11,1298.12 2108.47,1298.12 2108.47,1292.05 			"/>
		</g>
		<path class="st12" d="M2281.04,995.16l-97.4-9.28c0,0-149.08,0.67-162.96,20.35c0,0-26.62,18.45,3.47,94.71
			c30.09,76.26,65.42,152.47,65.42,152.47s9,2.46,21.34,1.5c4.88-0.38,11.44-2.05,11.44-2.05s-6.79-113.8-21.84-158.08
			c-15.04-44.28-19.67-35.67,6.94-33.21c26.61,2.46,112.25,22.14,151.59,17.22C2298.4,1073.88,2281.04,995.16,2281.04,995.16z"/>
		<path class="st9" d="M2144.36,1284.54c-0.01,2.99-1.48,5.05-3.99,6.43c-0.01,0.01-0.02,0.02-0.04,0.02
			c-4.64,2.55-12.24-3.04-46.89,5.16c-18.54,4.39-29.54-2.73-30.66-5.37c-0.94-2.24,7.21-4.79,16.31-7.7
			c0.44-0.14,0.88-0.29,1.33-0.42c1.21-0.39,2.43-0.79,3.64-1.18c10.84-3.6,21.51-7.88,24.17-18.85
			c2.82-11.63-5.66-44.11-5.66-44.11l30.09-3.25c0,0,2.9,33.95,4.79,44.52c1.02,5.65,3.58,10.14,5.08,14.97
			c0.11,0.34,0.21,0.68,0.3,1.02C2143.59,1278.63,2144.36,1281.54,2144.36,1284.54z"/>
		<g>
			<path class="st9" d="M1811.56,1284.54c-0.01,2.99-1.48,5.05-3.99,6.43c-0.01,0.01-0.02,0.02-0.04,0.02
				c-4.64,2.55-12.78,2.81-21.63,2.42c-1.13-0.05-2.15-0.08-3.06-0.08c-0.24,0-0.48,0-0.71,0.01c-0.19,0-0.37,0.01-0.55,0.01
				c-8.76,0.22-7.84,2.84-24.5,4.27c-18.99,1.62-25.98-4.19-27.1-6.84c-0.94-2.24,7.21-4.79,16.31-7.7
				c0.44-0.14,0.88-0.29,1.33-0.42c1.21-0.39,2.43-0.79,3.64-1.18c10.84-3.6,21.51-7.88,24.17-18.85
				c2.82-11.63-5.66-44.11-5.66-44.11l30.09-3.25c0,0,2.9,33.95,4.79,44.52c1.02,5.65,3.58,10.14,5.08,14.97
				c0.11,0.34,0.21,0.68,0.3,1.02C1810.8,1278.63,1811.57,1281.54,1811.56,1284.54z"/>
			<path class="st13" d="M1811.56,1284.54c-0.01,2.99-1.48,5.05-3.99,6.43c-0.01,0.01-0.02,0.02-0.04,0.02
				c-4.94,2.28-12.95,2.62-21.62,2.37c-1.13-0.03-2.15-0.04-3.08-0.02c-0.24,0-0.48,0-0.71,0.01c-0.19,0-0.37,0.01-0.55,0.01
				c-8.76,0.22-7.84,2.84-24.5,4.27c-18.99,1.62-25.98-4.19-27.1-6.84c-0.94-2.24,7.21-4.79,16.31-7.7
				c2.55,0.99,14.73,5.21,29.13,2.48c12.67-2.38,25.25-8.69,34.3-10.79c0.11,0.34,0.21,0.68,0.3,1.02
				C1810.8,1278.63,1811.57,1281.54,1811.56,1284.54z"/>
			<path class="st9" d="M1616.32,1246.13c-1.67,8.36-13.58,6.96-26.89,3.71c-13.31-3.25-10.14,0.61-29.08-1.48
				c-18.94-2.1-24.68-9.16-25.25-11.97c-0.52-2.5,8.84-3.38,18.88-4.54c1.26-0.14,2.53-0.3,3.8-0.45
				c11.33-1.42,19.63-8.73,29.93-14.74c9.75-5.69,24.3-28.87,24.3-28.87l25.97,2.06c0,0-13.63,20.7-18.9,29.7
				c-3.1,5.29-2.94,12.29-2.55,17.7C1616.72,1240.19,1616.91,1243.19,1616.32,1246.13z"/>
			<path class="st13" d="M1589.43,1249.84c-13.31-3.25-10.14,0.61-29.08-1.48c-18.94-2.1-24.68-9.16-25.25-11.97
				c-0.52-2.5,8.84-3.38,18.88-4.54l0.09,0.19c0,0,11.36,8.05,27.12,8.43c12.85,0.31,26.46-3.37,35.33-3.23
				c0.2,2.94,0.39,5.94-0.2,8.89C1614.65,1254.49,1602.74,1253.09,1589.43,1249.84z"/>
			<path class="st9" d="M1674.11,864.64c0,0-6.19-15.16-13-15.78c-6.81-0.62-28.47-4.02-30.01-0.93c-1.55,3.09,0,14.23,4.64,18.26
				c4.64,4.02,33.42,10.52,33.42,10.52L1674.11,864.64z"/>
			<path class="st14" d="M1715.86,1080.05l55.98,150.65c0,0,8.6,0.83,16.84-1.54c7.59-2.19,16.28-7.93,16.28-7.93
				s-13.89-144.65-39.34-174.73C1740.16,1016.41,1715.86,1080.05,1715.86,1080.05z"/>
			<path class="st3" d="M1955.19,1011.93c-11.47,4.59-24.17,5.05-35.94,1.29c-43.02-13.74-150.23-46.12-178.7-36.93
				c-35.87,11.57-143.58,225.86-143.58,225.86s2.43,3.23,9.07,5.72c6.17,2.31,21.11,2.17,21.11,2.17s97.2-83.32,108.78-107.62
				c11.57-24.3,16.2-47.44,27.77-45.13c11.57,2.31,149.28,56.7,180.52,24.3c31.24-32.4,23.07-74.5,23.07-74.5L1955.19,1011.93z"/>
			<path class="st15" d="M1838.97,766.09c-2.57-5.3-5.44-14.72-6.85-31.52c0.22,1.67,3.11,22.85,11.25,34.83
				c33.45,21.96,97.57,95.3,96.3,109.19c0,0,22.59-38.31,22.97-38.53c0,0,41.66-52.98-7.72-83.32
				c-25.09-15.42-24.97-35.22-23.92-52.41c1.06-17.2-6.84-91.21-57.11-71.84c0,0-8.07-3.58-11.68-3.05c0,0,2.95,0.56,4.45,2.11
				c-5.83-0.34-14.16,0.09-21.11,4.04C1827.14,646.06,1810.65,740.02,1838.97,766.09z"/>
			<path class="st9" d="M1845.36,770.5c-0.17,0.08,16.15,8.55,28.43,5.19c11.55-3.15,19.09-18.12,18.93-18.15
				c-4.89-0.97-6.3-7.69-6.2-36.57l-2.21,0.44l-37.17,7.36c0,0,0.85,11.7,0.87,22.72C1848.04,760.74,1847.48,769.51,1845.36,770.5z"
				/>
			<path class="st16" d="M1847.14,728.77c0,0,0.85,11.7,0.87,22.72c20.8-0.59,31.79-19.56,36.3-30.08L1847.14,728.77z"/>
			<path class="st15" d="M1888.15,717.36c0,0,10.9-17.22,13.52-31.95c1.87-10.51-3.49-49.48-42.65-43.87c0,0-11.37,1.12-22.07,8.34
				c-8.5,5.74-20.77,18.14-7.05,52.15l3.56,11.49L1888.15,717.36z"/>
			<path class="st9" d="M1840.2,739.2c0,0,49.21,0.81,49.24-29.84c0.03-30.65,6.41-51.19-25.01-53.01
				c-31.42-1.81-37.53,9.88-40.03,20.1C1821.9,686.69,1827.4,738.2,1840.2,739.2z"/>
			<path class="st15" d="M1886.66,662.07c0,0-33.61-22.98-44.24-7.09c-3.22-2.76-8.97-4.76-16.56,4.44
				c-11.41,13.83-1.26,38.27-1.26,38.27c4.68,0.55,5.79-15.52,8.24-23.33c1.85-5.89,8.03-11.9,10.95-14.5
				c4.29,9.68,16.1,32.84,32.38,37.02c20.68,5.32,29.65-0.22,29.65-0.22S1889.96,684.06,1886.66,662.07z"/>
			<path class="st17" d="M1954.94,902.89c4.85-20.35-11.66-59.84-28.89-92.54c-15.64-29.63-31.87-53.67-33.33-52.81
				c-41.24,24.48-44.97,4.13-44.97,4.13s-37.46,4.98-48.07,23.24c-14.67,25.25-30.65,101.03-46.35,99.91
				c-7.21-0.52-79.73-27.77-79.73-27.77s-12.08,11.32-9.77,25.2c0,0,35.81,23.98,66.09,39.28c16.02,8.09,30.49,13.76,37.29,12.15
				c13.79-3.25,35.34-35.23,46.98-54.05c0.03-0.04,0.05-0.08,0.08-0.13c14.86,84.11-5.34,103.27,4.88,112.14
				c10.8,9.37,26.23-4.46,60.18,10.25c22.27,9.66,53.16,23.62,73.96,26.05c10.91,1.28,19.05-0.62,21.7-7.98
				C1982.71,998.54,1945.68,941.69,1954.94,902.89z"/>
			<path class="st2" d="M1851.14,720.62c0,0-0.92,3.89-10.6,3.29c0,0-8.13-0.5-7.89-4.78
				C1832.65,719.13,1840.53,716.09,1851.14,720.62z"/>
			<path class="st18" d="M1975,1019.95c-2.65,7.37-10.79,9.27-21.7,7.98c-14.4-6.27-76.59-30.37-75.89-46.69
				c1.03-24.17,11.96-24.94,4.24-54.78c-6.2-23.95,51.27-68.5,60.43-78.18c17.23,32.7,17.71,34.24,12.86,54.59
				C1945.68,941.69,1982.71,998.54,1975,1019.95z"/>
			<path class="st18" d="M1814.19,879.62c-11.64,18.82-33.19,50.8-46.98,54.05c-6.8,1.6-21.28-4.06-37.29-12.15
				c11.69,3.02,23.04,2.93,34.08,1.87c11.96-1.16,15.43-15.82,34.33-37.8C1810.58,871.33,1813.59,874.91,1814.19,879.62z"/>
			<path class="st9" d="M1871.81,925.89c0,0-10.42-8.1-20.25-6.17c-9.84,1.93-14.66,8.68-14.27,11.77
				c0.39,3.09,5.59,11.77,13.12,12.54c7.52,0.77,28.93-4.63,28.93-4.63L1871.81,925.89z"/>
			<path class="st17" d="M1892.72,757.54c0,0,40.11,2.47,53.99,21.84c19.54,27.26,66.45,148.51,44.23,164.01
				c-25.02,17.45-122.02-0.51-122.02-0.51s-2.96-13.82,1.16-20.51c4.11-6.69,70.98-17.49,74.06-20.57
				c3.09-3.09-38.57-60.18-38.57-69.43C1905.56,823.09,1892.72,757.54,1892.72,757.54z"/>
		</g>
		<path class="st19" d="M2294.66,1002.08l-91.35-7.71c0,0-149.08,0.65-162.96,19.71c0,0-22.53,14.11,7.56,87.97
			c30.09,73.86,60.56,155.13,60.56,155.13s6.75,0.93,14.92,0.27c10.27-0.83,13.69-4.17,13.69-4.17s-2.12-101.06-17.17-143.95
			c-15.04-42.88-20.83-38.52,5.79-36.14c26.62,2.38,101.45,21.05,153.03,11.17C2317.68,1076.9,2294.66,1002.08,2294.66,1002.08z"/>
		<g>
			<path class="st14" d="M2062.78,1290.78c0.61,1.43,1.9,5.71,10.26,7.33h29.55c10.18-4.62,18.28-5.15,24.65-5.25
				c5.66-0.08,9.94,0.16,13.09-1.87c0.02,0,0.03-0.01,0.04-0.02c0.15-0.09,0.3-0.17,0.44-0.26c2.24-1.38,3.54-3.36,3.55-6.17
				c0.01-3-0.76-5.91-1.54-8.75c-0.09-0.34-0.19-0.68-0.3-1.02c-9.05,2.11-21.63,8.41-34.3,10.8c-14.4,2.73-26.58-1.49-29.13-2.48
				C2069.98,1285.99,2061.83,1288.53,2062.78,1290.78z"/>
			<polygon class="st14" points="2141.32,1289.84 2136.89,1298.13 2127.24,1298.13 2127.24,1292.06 			"/>
		</g>
		<path class="st20" d="M2123.75,934.35c6.57-9.31,6.96-126.68,10.81-144.43c3.86-17.74,37.16-28.25,37.16-28.25
			s-6.17,59.81-13.39,114.2c-5.83,44-6.53,85.91-11.01,88.32c-10.03,5.4-38.89,27.24-51.94,25.38l-7.89-7.01
			c-1.48-1.32-1.14-3.68,0.63-4.58C2102.14,970.85,2118.87,941.27,2123.75,934.35z"/>
		<path class="st21" d="M2169.55,635.59c6.23-5.01,15.28-4.38,21.11-4.04c-1.5-1.55-4.45-2.11-4.45-2.11
			c3.61-0.54,11.68,3.05,11.68,3.05s30.55-15.64,44.7,24.47c0,0-2.43-3.03-5.78-6.47c8.18,23.08-0.09,57.99-25.85,64.2
			C2194.21,718.73,2105.64,686.92,2169.55,635.59z"/>
		<path class="st9" d="M2169.34,770.5c-0.17,0.08,16.15,8.55,28.43,5.19c11.55-3.15,19.09-18.12,18.93-18.15
			c-4.89-0.97-6.3-7.69-6.2-36.57l-2.21,0.44l-37.17,7.36c0,0,0.85,11.7,0.87,22.72C2172.02,760.74,2171.46,769.51,2169.34,770.5z"
			/>
		<path class="st16" d="M2171.12,728.77c0,0,0.85,11.7,0.87,22.72c20.8-0.59,31.79-19.56,36.3-30.08L2171.12,728.77z"/>
		<path class="st21" d="M2212.13,717.36c0,0,10.9-17.22,13.52-31.95c1.87-10.51-3.49-49.48-42.65-43.87c0,0-11.37,1.12-22.07,8.34
			c-8.5,5.74-20.77,18.14-7.05,52.15l3.56,11.49L2212.13,717.36z"/>
		<path class="st9" d="M2164.18,739.2c0,0,49.21,0.81,49.24-29.84c0.03-30.65,6.41-51.19-25.01-53.01
			c-31.42-1.81-37.53,9.88-40.03,20.1C2145.88,686.69,2151.38,738.2,2164.18,739.2z"/>
		<path class="st22" d="M2152.14,807.07c0.86-3.49-6.51-6.12-8.31-3.01c-3.38,5.83-4.05,13.18-5.4,19.03c-3.86,16.72,0,39.6,0,39.6
			L2152.14,807.07z"/>
		<path class="st21" d="M2149.84,659.42c7.59-9.2,13.34-7.2,16.56-4.44c10.63-15.89,44.24,7.09,44.24,7.09
			c3.29,21.99,19.15,34.59,19.15,34.59s-8.97,5.54-29.65,0.22c-16.27-4.18-28.08-27.35-32.38-37.02c-2.93,2.6-9.1,8.61-10.95,14.5
			c-2.45,7.81-3.56,23.87-8.24,23.33C2148.58,697.69,2138.43,673.24,2149.84,659.42z"/>
		<path class="st2" d="M2175.12,720.62c0,0-0.92,3.89-10.6,3.29c0,0-8.13-0.5-7.88-4.78
			C2156.63,719.13,2164.51,716.09,2175.12,720.62z"/>
		<path class="st22" d="M2136.31,869.09c0,0,6.24,89.31-12.04,109.45l37.48-23.65L2136.31,869.09z"/>
		<path class="st20" d="M2135.42,864.75c19.94,96.14,3.26,110.9,13.62,120.35c0.05,0.05,9.2,4,9.26,4.05
			c10.8,9.37,11.07-1.98,45.02,12.73c16.17,7.01,36.9,16.3,55.01,21.79c6.82,2.06,13.26,3.6,18.96,4.26
			c10.91,1.28,19.05-0.62,21.7-7.98c7.71-21.41-29.32-78.27-20.06-117.07c0.08-0.33,0.15-0.67,0.22-1
			c0.67-3.39,0.79-7.29,0.45-11.56c-1.73-21.65-15.4-53.11-29.56-79.97c-15.64-29.63-31.87-53.67-33.33-52.81
			c-41.24,24.48-44.97,4.13-44.97,4.13S2128.62,831.96,2135.42,864.75z"/>
		<path class="st22" d="M2155.02,987.81C2155.07,987.85,2154.96,987.75,2155.02,987.81c10.8,9.37,14.35-0.63,48.3,14.08
			c16.17,7.01,36.9,16.3,55.01,21.79c9.25,1.61,16.14,3.03,18.96,4.26c10.91,1.28,19.05-0.62,21.7-7.98
			c7.71-21.41-29.32-78.27-20.06-117.07c0.08-0.33,0.15-0.67,0.22-1c0.79-3.83,0.9-7.66,0.45-11.56
			c-1.95-16.45-14.05-34.29-27.75-60.29c-9.17,9.68-78-1.54-61.72,94.12C2195.11,953.48,2159.3,965.05,2155.02,987.81z"/>
		<path class="st9" d="M2158.36,992.69c0,0-15.17-3.6-22.12-0.77c-6.94,2.83-20.83,10.03-19.54,13.89
			c1.29,3.86,17.74,5.91,24.69,2.06c6.94-3.86,12.09,1.03,20.57-1.8C2170.45,1003.24,2158.36,992.69,2158.36,992.69z"/>
		<path class="st20" d="M2216.7,757.54c0,0,55.97,0.75,65.99,27.75c10.03,27,6.94,121.9-7.71,150.44
			c-14.66,28.55-97.98,67.12-107.24,68.66c-9.26,1.54-15.04-12.73-14.66-14.27c0.39-1.54,87.56-72.13,87.18-79.46
			C2239.87,903.33,2216.7,757.54,2216.7,757.54z"/>
	</g>
	<g>
		<g>
			<path class="st8" d="M723.13,737.47c0,0,11.43-13.34,0.7-21.81c0,0-7.83-4.74-14.22-4.36c0,0,9.05,15.18,6.12,16.69
				c-2.93,1.51-8.87-17.64-8.87-17.64s-17.83-1.73-23.57,1.03c0,0,15.24,12.47,12.03,13.22c-3.21,0.74-19.67-11.5-19.67-11.5
				s-16.59,2.82-15.71,12.95c0.88,10.12,6.6,13.25,9.12,12.98c2.51-0.27,17.21-5.88,17.53-3.82c0.32,2.06-8.53,8.79-14.73,9.1
				c0,0,11.7,12.9,19.48,9.18c7.78-3.72,8.44-9.63,13.29-11.84c4.85-2.21,8.98-2.21,6.98,0.05c-2,2.26-10.77,4.45-13.54,9.35
				c-2.77,4.9-5.26,8.21,2.79,7c8.04-1.21,21.12-7.1,21.69-13.84C723.13,737.47,723.13,737.47,723.13,737.47z"/>
			<g>
				<path class="st8" d="M668.11,726.32c0,0,45.07-1.74,55.03,11.15c0,0,2.2,6.59,8.97,12.6l1.06,2.88c0,0-7.81-8.24-10.6-8.73
					C722.56,744.21,726.93,728.24,668.11,726.32z"/>
				<path class="st8" d="M732.11,750.07c0,0,9.67,7.15,10.35,19.94l-1.76,0.16c0,0-3.09-13.22-8.67-18.39
					C726.44,746.61,732.11,750.07,732.11,750.07z"/>
			</g>
		</g>
		<g>
			<path class="st6" d="M763.1,720.7c0,0-18.18-10.18-9.7-24c0,0,6.79-8.49,14.06-10.67c0,0-3.88,20.61,0,21.09
				c3.88,0.48,2.67-23.28,2.67-23.28s19.15-9.21,26.67-8.49c0,0-11.88,20.12-8,19.64c3.88-0.49,17.21-20.85,17.21-20.85
				s19.64-3.64,22.79,8s-1.94,17.46-4.85,18.18c-2.91,0.73-21.58,0.48-21.09,2.91c0.49,2.42,13.09,6.3,20.12,4.12
				c0,0-7.76,19.15-17.94,18.18c-10.18-0.97-13.34-7.27-19.64-7.76c-6.3-0.49-10.91,1.21-7.76,2.91c3.15,1.7,13.82,0.56,18.91,4.88
				c5.09,4.33,9.21,7-0.24,8.93c-9.46,1.94-26.43,0.73-29.82-6.55C763.1,720.7,763.1,720.7,763.1,720.7z"/>
			<g>
				<path class="st8" d="M819.84,685.79c0,0-50.92,16.49-56.73,34.91c0,0,0.24,8.24-4.85,17.7v3.64c0,0,5.33-12.37,8.24-14.06
					C766.5,727.97,755.1,711.97,819.84,685.79z"/>
				<path class="st8" d="M758.25,738.4c0,0-7.85,11.92-3.38,26.44l2.02-0.54c0,0-1.96-15.99,2.15-24.03
					C763.15,732.23,758.25,738.4,758.25,738.4z"/>
			</g>
		</g>
		<g>
			<path class="st6" d="M734.17,706.66c0,0,23.97-13.42,12.78-31.64c0,0-8.95-11.19-18.54-14.06c0,0,5.11,27.17,0,27.81
				c-5.11,0.64-3.52-30.68-3.52-30.68s-25.25-12.14-35.16-11.19c0,0,15.66,26.53,10.55,25.89c-5.11-0.64-22.69-27.49-22.69-27.49
				s-25.89-4.79-30.04,10.55c-4.15,15.34,2.56,23.01,6.39,23.97c3.84,0.96,28.44,0.64,27.8,3.84c-0.64,3.2-17.26,8.31-26.53,5.43
				c0,0,10.23,25.25,23.65,23.97c13.42-1.28,17.58-9.59,25.89-10.23c8.31-0.64,14.38,1.6,10.23,3.84
				c-4.15,2.24-18.22,0.73-24.93,6.44c-6.71,5.71-12.14,9.22,0.32,11.78c12.46,2.56,34.84,0.96,39.31-8.63
				C734.17,706.66,734.17,706.66,734.17,706.66z"/>
			<g>
				<path class="st8" d="M659.39,660.63c0,0,67.12,21.73,74.79,46.02c0,0-0.32,10.87,6.39,23.33v4.79c0,0-7.03-16.3-10.87-18.54
					C729.7,716.24,744.72,695.15,659.39,660.63z"/>
				<path class="st8" d="M740.56,729.99c0,0,10.35,15.72,4.45,34.85l-2.66-0.72c0,0,2.59-21.07-2.83-31.67
					C734.1,721.85,740.56,729.99,740.56,729.99z"/>
			</g>
		</g>
		<path class="st23" d="M734.98,806.33c-25.93,0-46.95-21.02-46.95-46.95h93.91C781.93,785.3,760.91,806.33,734.98,806.33z"/>
		<path class="st24" d="M723.43,805.97c1.91,0.24,3.86,0.36,5.83,0.36c25.93,0,46.95-21.02,46.95-46.95h-11.66
			C764.55,783.33,746.6,803.09,723.43,805.97z"/>
		<path class="st23" d="M687.38,808.71h95.2l0,0c0-3.2-2.59-5.79-5.79-5.79h-83.62C689.97,802.92,687.38,805.52,687.38,808.71
			L687.38,808.71z"/>
		
			<rect x="686.96" y="759.37" transform="matrix(-1 -1.224647e-16 1.224647e-16 -1 1470.4357 1520.1847)" class="st25" width="96.52" height="1.44"/>
	</g>
	<g>
		<g>
			<path class="st26" d="M563.83,796.73c0,0,10.97-3.65,16.26-2.55c5.3,1.1,21.74,8.77,22.1,10.41c0.37,1.64,0,2.83,0,2.83h-38.37
				c0,0-8.58-1.67-10.04-6.72C552.33,795.64,563.83,796.73,563.83,796.73z"/>
			<path class="st27" d="M420.69,1280.15c0.29,3.14,2.04,5.16,4.8,6.37c0.01,0.01,0.03,0.01,0.04,0.01
				c5.11,2.24,13.68,1.73,22.94,0.48c1.19-0.16,2.25-0.29,3.21-0.37c0.25-0.02,0.5-0.05,0.75-0.06c0.19-0.02,0.39-0.03,0.58-0.04
				c9.22-0.61,8.5,2.23,26.12,2.15c20.08-0.11,26.87-6.87,27.8-9.75c0.77-2.45-8.02-4.34-17.85-6.53c-0.47-0.1-0.95-0.22-1.43-0.32
				c-1.31-0.29-2.63-0.59-3.93-0.89c-11.72-2.75-23.33-6.22-27.16-17.48c-4.07-11.94-3.11-47.38-3.11-47.38h-35.57
				c0,0,9.34,39.15,8.36,50.43c-0.53,6.02-3.41,7.74-4.52,12.96c-0.08,0.37-0.15,0.73-0.22,1.1
				C420.93,1273.87,420.39,1277,420.69,1280.15z"/>
			<g>
				<path class="st28" d="M379.3,897.13c3,16.85,7.28,34.27,11,52.38c5.98,29.12,10.49,60.06,5.87,93.37
					c-0.59,4.29-0.91,9.02-0.98,14.11c-0.9,58.88,25.41,165.58,25.41,165.58s7.15,3.08,19.12,2.49c6.17-0.3,15.63-4.28,15.63-4.28
					s2.49-66.16,2.64-155.12c0.11-64.49,12.77-149.4,15.33-199.3c1.55-30.2-1.81-70.42-1.81-70.42s-52.44-42.17-71.28-20.59
					C381.62,796.65,368.07,834.09,379.3,897.13z"/>
			</g>
			<path class="st29" d="M396.17,1042.88c-0.59,4.29-0.91,9.02-0.98,14.11c39.27-56.9,47.96-180.98,47.96-180.98l-43.14,20.94
				c0,0-4.73,23.27-9.71,52.57C396.28,978.63,400.79,1009.56,396.17,1042.88z"/>
			<path class="st27" d="M307.23,1280.15c0.29,3.14,2.04,5.16,4.8,6.37c0.01,0.01,0.03,0.01,0.04,0.01
				c5.11,2.24,13.68,1.73,22.94,0.48c1.19-0.16,2.25-0.29,3.21-0.37c0.25-0.02,0.5-0.05,0.75-0.06c0.19-0.02,0.39-0.03,0.58-0.04
				c9.22-0.61,8.5,2.23,26.12,2.15c20.08-0.11,26.87-6.87,27.8-9.75c0.77-2.45-8.02-4.34-17.85-6.53c-0.47-0.1-0.95-0.22-1.43-0.32
				c-1.31-0.29-2.63-0.59-3.93-0.89c-11.72-2.75-23.33-6.22-27.16-17.48c-4.07-11.94,1.75-46.83,1.75-46.83l-32.95-2.75
				c0,0,2.04,39.76,1.07,51.04c-0.53,6.03-3.59,9.34-4.7,14.56c-0.08,0.37-0.15,0.73-0.22,1.1
				C307.46,1273.87,306.93,1277,307.23,1280.15z"/>
			<path class="st28" d="M311.87,1225.57c0,0,8.47,4.01,14.57,5.23c6.1,1.22,18.77-1.16,18.77-1.16
				c2.28-25.62,7.59-65.68,17.91-110.89c11.75-51.47,29.23-112.29,53.61-169.89c5.21-12.3,26.67-70.52,30.32-85.22
				c11.02-44.4-0.04-39.61-0.04-39.61l-96.29-11.3c0,0-11.86,6.1-17.33,68.79c-1.63,18.77-1.84,99.84-4.3,115.21
				c-2.33,14.55-5.07,26.65-8.27,34.52C302.93,1075.15,311.87,1225.57,311.87,1225.57z"/>
			<path class="st30" d="M307.23,1280.15c0.29,3.14,2.04,5.16,4.8,6.37c0.01,0.01,0.03,0.01,0.04,0.01
				c5.4,1.93,13.84,1.51,22.92,0.43c1.19-0.14,2.26-0.25,3.23-0.32c0.25-0.02,0.5-0.05,0.75-0.06c0.19-0.02,0.39-0.03,0.58-0.04
				c9.22-0.61,8.5,2.23,26.12,2.15c20.08-0.11,26.87-6.87,27.8-9.75c0.77-2.45-8.02-4.34-17.85-6.53
				c-2.59,1.28-14.96,6.88-30.34,5.38c-13.52-1.3-27.33-6.71-37.03-8.06c-0.08,0.37-0.15,0.73-0.22,1.1
				C307.46,1273.87,306.93,1277,307.23,1280.15z"/>
			<path class="st30" d="M420.69,1280.15c0.29,3.14,2.04,5.16,4.8,6.37c0.01,0.01,0.03,0.01,0.04,0.01
				c5.4,1.93,13.84,1.51,22.92,0.43c1.19-0.14,2.26-0.25,3.23-0.32c0.25-0.02,0.5-0.05,0.75-0.06c0.19-0.02,0.39-0.03,0.58-0.04
				c9.22-0.61,8.5,2.23,26.12,2.15c20.08-0.11,26.87-6.87,27.8-9.75c0.77-2.45-8.02-4.34-17.85-6.53
				c-2.59,1.28-14.96,6.88-30.34,5.38c-13.52-1.3-27.33-6.71-37.03-8.06c-0.08,0.37-0.15,0.73-0.22,1.1
				C420.93,1273.87,420.39,1277,420.69,1280.15z"/>
			<path class="st31" d="M459.21,524.41c3.25-26.56-5.04-69.06-58.06-62.27c-53.01,6.79-69.72,58.89-59.03,82.06
				c10.69,23.17-15.39,28.75-23.58,53.66c-7.03,21.4-9.49,47.97-20.87,59.9c-36.7,38.45,35.23,97.57,78.6,85.1
				c78.99-22.71,89.16-26.1,86.36-88.16c-1.44-31.8-26.18-44.12-10.47-53.32C490.1,579.16,451.85,584.52,459.21,524.41z"/>
			<path class="st26" d="M381.31,593.97l14.58,37.73l31.56,1.54l15.71-23.54c-17.83-13.52-17.07-39.38-16.2-48.41
				c0.2-2.03,0.4-3.22,0.4-3.22l-39.44-12.01c-0.48,10.43-1.06,18.58-1.69,24.96C384.02,593.44,381.31,593.97,381.31,593.97z"/>
			<path class="st26" d="M443.27,592.61c-2.03,0-36.46-7.01-94.6,7.87c0,0,31.84,145.88,21.02,173.38
				c-10.82,27.5-14.93,51.9-14.93,51.9l117.35,1.46c0,0-1.64-94.38,3.77-127.78C481.29,666.03,443.27,592.61,443.27,592.61z"/>
			<path class="st32" d="M356.76,755.34c-1.72,19.31-19.76,63.44-15.86,72.84c4.09,9.87,9.77,14.87,22.21,17.73
				c8.57,1.98,20.34,2.93,37.01,3.76c35.35,1.76,73.24-2.69,78.39-19.49c2.47-8.07,1.52-39.28,0.21-53.69
				c-2.71-29.82,2.97-72.6,3.8-100.29c0.68-23.09-13.25-75.64-13.25-75.64s-6.28-3.97-26-7.94c0,0-2.07,27.3-16.32,29.65
				c-24.63,4.07-44.48-18.5-50.27-27.58c0,0-28.29,7.14-36.59,16.6c-7.86,8.96,2.89,75.35,5.29,81.72
				c2.07,5.46,4.02,10.8,5.72,16.16C355.58,723.29,358.33,737.65,356.76,755.34z"/>
			<path class="st26" d="M256.03,796.82c0,0-10.97-3.61-16.26-2.53c-5.3,1.09-21.74,8.69-22.1,10.32c-0.36,1.63,0,2.8,0,2.8h38.37
				c0,0,8.58-1.65,10.04-6.66C267.53,795.75,256.03,796.82,256.03,796.82z"/>
			<path class="st33" d="M386.22,573.53c14.39-9.65,32.48-10.12,40.73-9.74c0.2-2.03,0.4-3.22,0.4-3.22l-39.44-12.01
				C387.43,559,386.85,567.15,386.22,573.53z"/>
			<path class="st26" d="M437.65,560.76c0,0-47.22,9.48-52.67-20.01c-5.45-29.5-15.22-48.14,14.7-55.44
				c29.92-7.3,37.87,2.87,42.09,12.27C445.98,506.97,449.79,557.53,437.65,560.76z"/>
			<path class="st31" d="M375.83,487.26c7.99-8.99,19.52-10.74,27.92-10.59c-5.07-6.14,15.31-19.6,38.6,3.36
				c10.04,9.89,8.52,29.33,3.14,40.61c0,0-8.26-24.17-23.28-29.44c-3.35-1.17-6.52-3.13-9.44-5.46c-1.83,4.6-5.51,11.1-12.91,19.19
				c-15.53,16.98-12.5,51.31-12.5,51.31S361.87,502.96,375.83,487.26z"/>
			<path class="st2" d="M422.94,546.24c0,0,1.26,3.5,10.15,1.91c0,0,7.46-1.33,6.78-5.26C439.87,542.89,432.25,540.92,422.94,546.24
				z"/>
			<path class="st34" d="M293.39,726.2c17.86-68.93,27.66-108.29,42.3-120.2c12.94-10.53,40.85-11.5,40.85-11.5
				c0.43,8.29,0.04,16.61-0.97,24.85l34.33,65.43c0,0,17.59,34.81,23.84,72.88c4.72-37.81,9.41-72.88,9.41-72.88
				s4.43-22.36,5.82-42.84c-4.14-15.96-3.71-32.63-5.65-49.32l2.16,0.12c6.78,0.47,27.92,2.63,38.69,11.48
				c14.64,12.02,17.92,64.78,42.3,121.27c0,0,29.54,49.67,38.94,69.37c0,0-1.76,2.69-5.29,4.72c-3.41,1.97-7.72,2.75-7.72,2.75
				s-53.29-52.48-56.79-60.77c-1.15-2.73-7.6-12.3-15.6-26.38v0c0,0-2.12,74.98,2.53,107.33c0.99,6.85-2.3,13.61-8.32,17.02
				c-32.91,18.59-131.5,69.23-149.85,20.05c-2.06-5.51,33.97-99.18,29.04-119.46c-1.58-6.49-3.66-21.28-5.76-38.39
				c-11.29,21.65-21.9,36.86-23.41,40.4c-3.5,8.22-56.79,60.24-56.79,60.24s-4.31-0.77-7.72-2.73c-3.52-2.01-5.29-4.68-5.29-4.68
				C263.84,775.43,293.39,726.2,293.39,726.2z"/>
			<path class="st1" d="M378.4,594.3l31.5,90.47l-31.5-29.78l2.38-9.26c0,0-7.24,0.64-10.18-1.25c-2.94-1.9-9.78-48.16-9.78-48.16
				s6.41-1.07,8.54-1.32C371.63,594.74,378.4,594.3,378.4,594.3z"/>
			<path class="st1" d="M443.33,592.61c0,0,6.63,71.52-0.18,92.16c0,0,19.49-30.87,15.84-37.26l-7.06-4.66
				c0,0,13.64-1.77,11.08-9.61c-2.56-7.84-13.52-39.62-13.52-39.62L443.33,592.61z"/>
		</g>
		<g>
			<polygon class="st35" points="802.27,1300.38 51.07,1300.38 51.07,1053.68 802.27,1051.22 			"/>
			<rect x="51.07" y="853.92" class="st35" width="751.2" height="64.51"/>
		</g>
		<path class="st3" d="M33.88,853.92h784.16c11.47,0,20.77-9.3,20.77-20.77v-4.96c0-11.47-9.3-20.77-20.77-20.77H33.88
			c-11.47,0-20.77,9.3-20.77,20.77v4.96C13.11,844.62,22.41,853.92,33.88,853.92z"/>
		<g>
			<path class="st31" d="M360.59,683.04l21.66-1.33c1.46-0.09,2.57-1.34,2.48-2.8l-0.6-9.69c-0.09-1.46-1.34-2.57-2.8-2.48
				l-21.66,1.33c-1.46,0.09-2.57,1.34-2.48,2.8l0.6,9.69C357.87,682.02,359.13,683.13,360.59,683.04z"/>
			
				<rect x="374.04" y="669.61" transform="matrix(-0.9981 0.0615 -0.0615 -0.9981 795.8864 1324.2244)" class="st34" width="7.07" height="9.48"/>
			<path class="st34" d="M361.46,672.97l8.78-0.54c0.65-0.04,1.15-0.6,1.11-1.26l0,0c-0.04-0.65-0.6-1.15-1.26-1.11l-8.78,0.54
				c-0.65,0.04-1.15,0.6-1.11,1.26l0,0C360.24,672.51,360.81,673.01,361.46,672.97z"/>
			<path class="st34" d="M360.93,676.28l10.25-0.63c0.25-0.02,0.44-0.23,0.42-0.48l0,0c-0.01-0.25-0.23-0.44-0.48-0.42l-10.25,0.63
				c-0.25,0.02-0.44,0.23-0.42,0.48l0,0C360.46,676.11,360.68,676.3,360.93,676.28z"/>
			<path class="st34" d="M361.02,677.75l10.25-0.63c0.25-0.02,0.44-0.23,0.42-0.48l0,0c-0.02-0.25-0.23-0.44-0.48-0.42l-10.25,0.63
				c-0.25,0.02-0.44,0.23-0.42,0.48l0,0C360.55,677.57,360.77,677.76,361.02,677.75z"/>
		</g>
		<path class="st31" d="M429.42,760.96c0-1.88-1.52-3.4-3.4-3.4c-1.88,0-3.4,1.52-3.4,3.4c0,1.88,1.52,3.4,3.4,3.4
			C427.9,764.36,429.42,762.84,429.42,760.96z"/>
		<path class="st31" d="M429.42,782.31c0-1.88-1.52-3.4-3.4-3.4c-1.88,0-3.4,1.52-3.4,3.4c0,1.88,1.52,3.4,3.4,3.4
			C427.9,785.71,429.42,784.19,429.42,782.31z"/>
		<polygon class="st36" points="792.29,1051.22 61.04,1053.68 61.04,918.43 792.29,918.43 		"/>
		<g>
			<polygon class="st35" points="125.09,695.56 149.16,807.42 55.33,807.42 34.35,695.56 			"/>
			<polygon class="st2" points="121.86,699.12 143.61,800.16 58.86,800.16 39.9,699.12 			"/>
		</g>
		<g>
			<path class="st35" d="M51.01,707.24h64.51c1.19,0,2.16,0.97,2.16,2.16c0,1.19-0.97,2.16-2.16,2.16H51.01
				c-1.19,0-2.16-0.97-2.16-2.16C48.85,708.21,49.83,707.24,51.01,707.24z"/>
			<path class="st35" d="M54.31,717.42h64.51c1.19,0,2.16,0.97,2.16,2.16c0,1.19-0.97,2.16-2.16,2.16H54.31
				c-1.19,0-2.16-0.97-2.16-2.16C52.15,718.39,53.12,717.42,54.31,717.42z"/>
			<path class="st35" d="M56.36,727.2h64.51c1.19,0,2.16,0.97,2.16,2.16c0,1.19-0.97,2.16-2.16,2.16H56.36
				c-1.19,0-2.16-0.97-2.16-2.16C54.2,728.17,55.18,727.2,56.36,727.2z"/>
			<path class="st35" d="M59.35,747.35h64.51c1.19,0,2.16,0.97,2.16,2.16c0,1.19-0.97,2.16-2.16,2.16H59.35
				c-1.19,0-2.16-0.97-2.16-2.16C57.19,748.32,58.16,747.35,59.35,747.35z"/>
			<path class="st35" d="M62.64,757.53h64.51c1.19,0,2.16,0.97,2.16,2.16c0,1.19-0.97,2.16-2.16,2.16H62.64
				c-1.19,0-2.16-0.97-2.16-2.16C60.48,758.51,61.45,757.53,62.64,757.53z"/>
			<path class="st35" d="M64.7,767.31h64.51c1.19,0,2.16,0.97,2.16,2.16c0,1.19-0.97,2.16-2.16,2.16H64.7
				c-1.19,0-2.16-0.97-2.16-2.16C62.54,768.28,63.51,767.31,64.7,767.31z"/>
		</g>
		
			<rect x="169.39" y="757.25" transform="matrix(0.9574 -0.2888 0.2888 0.9574 -218.4294 82.6176)" class="st37" width="2.68" height="48.35"/>
		<path class="st38" d="M177.2,799.73c4.8,0,8.75,3.35,9.35,7.69h-18.71C168.45,803.08,172.4,799.73,177.2,799.73z"/>
		<g>
			<path class="st38" d="M164.94,806.18c3.58,0,7.14-0.59,7.42-0.64l-0.1-0.61c-3.58,0.61-13.1,1.54-14.16-1.46
				c-0.47-1.33-0.03-3.57,0.58-6.66c1.12-5.64,2.8-14.15,0.82-26.04c-1.55-9.3-0.4-12.12,0.84-12.85c1.3-0.76,3.04,0.63,3.06,0.64
				l0.39-0.48c-0.09-0.07-2.1-1.67-3.76-0.69c-2.05,1.2-2.43,5.73-1.14,13.48c1.96,11.77,0.29,20.22-0.82,25.82
				c-0.63,3.19-1.09,5.5-0.56,6.99C158.22,805.66,161.59,806.18,164.94,806.18z"/>
		</g>
	</g>
	<g>
		<g>
			<path class="st12" d="M1043.46,1235.07c0,0-13.13,12.17-10.56,20.81c2.56,8.64,14.41,14.41,16.01,24.97
				c1.6,10.56,8,16.33,13.77,16.33c5.76,0,27.47,0,27.47,0s4.24-7.43-6-9.68c-10.24-2.24-14.11-14.66-13.47-26.18
				c0.64-11.53-0.96-26.89-0.96-26.89l-21.77-5.12L1043.46,1235.07z"/>
			<path class="st12" d="M1207.05,1296.73c0.21,0.11,0.5,0.2,0.86,0.3h73.48c-0.64-2.6-3-7.54-11.6-8.94
				c-11.48-1.86-31.36-8.53-35.8-23.2c-0.14-0.47-0.27-0.96-0.38-1.45c-3.52-15.69-29.13,4.81-29.13,4.81s-0.08,0.62-0.19,1.69
				C1203.71,1275.68,1202.19,1294.3,1207.05,1296.73z"/>
			<path class="st19" d="M1266.75,877.15c0,0-3.89,48.53-8.46,106.87c-6.21,79.24-13.69,176.58-14.43,195.02
				c-1.28,32.02-6.41,83.24-6.41,83.24s-12.16,12.17-36.5,7.04c0,0-21.69-73.12-27.88-150.48c-0.1-1.27-0.19-2.55-0.29-3.82
				c-5.76-78.75-14.72-244.59-14.72-244.59L1266.75,877.15z"/>
			<path class="st12" d="M1266.75,877.15c0,0-3.89,48.53-8.46,106.87l-85.21,134.82c-0.1-1.27-0.19-2.55-0.29-3.82
				c-5.76-78.75-14.72-244.59-14.72-244.59L1266.75,877.15z"/>
			<path class="st19" d="M1248.99,882.92c0,0-70.11,175.76-116.21,258.35c-46.1,82.6-60.51,105.65-60.51,105.65
				s-26.41-10.57-28.81-17.77c0,0,17.63-159.46,48.5-198.33c17.44-21.96,37.94-87.88,38.9-110.93c0.96-23.05,6.24-68.67,6.24-68.67
				L1248.99,882.92z"/>
		</g>
		<g>
			<path class="st39" d="M1227.51,557.49c-26.12,8.24-71.32-14.01-71.32-14.01s20.38-15.29,22.66-47.02
				c0.04-0.44,0.06-0.87,0.08-1.31c0.13-2.35,0.17-4.8,0.08-7.33l7.15,5.76l26.76,21.58c0,0-1.37,10.64-1.92,28.36
				c4.24,2.33,7.64,4.9,10.21,7.18C1225.46,554.47,1227.51,557.49,1227.51,557.49z"/>
			<path class="st39" d="M1127.19,540.1c0,0,69.05-10.89,114.54,19.22c0,0,30.9,202.04,3.99,221.15c-26.91,19.12-118.53,0-118.53,0
				V540.1z"/>
			<path class="st34" d="M1219.33,997.82h-124.77c0,0,14.5-212.9,18.64-264.73c3.36-42.04,10.48-142.83,13.04-179.42
				c0.6-8.53,0.95-13.57,0.95-13.57l29.79-5.07l51.16,66.31c0,0,8.09,176.83,7.8,204.7c-0.29,27.87,3.23,136.46,3.4,154.73
				C1219.49,979.01,1219.33,997.82,1219.33,997.82z"/>
			<path class="st34" d="M1208.14,601.34l11.19,396.48h58.79c0,0-2.72-260.77-2.92-284.73c-0.2-23.96,6.39-127.17-11.96-143.18
				c-15.34-13.39-52.24-26.39-52.24-26.39L1208.14,601.34z"/>
			<path class="st34" d="M1211.38,534.37c0,0,16.76,11.55,16.13,15.69c-0.63,4.15-2.93,10.7-2.93,10.7l-10.25-2.08l8.65,6.09
				c0,0-9.81,28.61-14.84,36.57L1211.38,534.37z"/>
			<path class="st40" d="M1119.21,652.47c7.33-45.1,92.12,21.54,85.07,80.69c-13.04,109.43-68.56,231.44-109.73,264.66
				L1119.21,652.47z"/>
			<path class="st41" d="M1178.84,496.46c-0.12-0.81-0.38-1.21-0.38-1.21l0.46-0.1l7.23-1.57l26.76,21.58c0,0-1.16,10.05-1.99,28.41
				C1210.87,543.48,1183.36,528.25,1178.84,496.46z"/>
			<path class="st39" d="M1223.83,521.71c0,0-46.59-1.3-45.33-30.31c1.26-29-3.91-48.71,25.9-49.1c29.8-0.39,35.1,10.92,37.03,20.71
				C1243.35,472.8,1235.98,521.31,1223.83,521.71z"/>
			<path class="st12" d="M1178.47,495.25c0,0,6.07,1.6,10.87-4.81c4.81-6.41,12.81-31.07,23.39-32.68c10.57-1.6,24.51,6.25,29,1.76
				c6.55-6.54,15-17.24,15-17.24s-52.44-37.39-73.37-20.09C1162.43,439.51,1155.1,464.82,1178.47,495.25z"/>
			<g>
				<path class="st12" d="M1241.4,598.83c-0.98-17.96-10.79-47.23-10.87-47.51l2.8,1.24c0.35,1.17,8.15,27.88,9.15,46.23
					L1241.4,598.83z"/>
			</g>
			<g>
				<path class="st12" d="M1173.54,652.47c-0.98-1.02-24.97-24.09-19.85-40.25c1.99-6.3,5.66-8.77,9.56-10.61
					c3.63-1.32,12.11-2.7,16.49,0.05c7.99,5.03,12.02,18.92,13.2,42.03l-0.97,0.05c-1.41-27.41-8.47-37.34-13.75-39.57
					c-6.64-2.81-18.28-1.65-21.94,8.97c-2.52,7.31,2.43,17.54,7.02,24.56c5.1,7.8,10.66,14.71,10.72,14.77H1173.54z"/>
			</g>
			<path class="st38" d="M1176.03,654.96L1176.03,654.96c-0.92,0.92-2.42,0.92-3.34,0l-1.64-1.64c-0.92-0.92-0.92-2.42,0-3.34l0,0
				c0.92-0.92,2.42-0.92,3.34,0l1.64,1.64C1176.95,652.54,1176.95,654.04,1176.03,654.96z"/>
			<path class="st38" d="M1192.53,648.11L1192.53,648.11c-1.3,0-2.36-1.06-2.36-2.36v-2.32c0-1.3,1.06-2.36,2.36-2.36l0,0
				c1.3,0,2.36,1.06,2.36,2.36v2.32C1194.9,647.04,1193.83,648.11,1192.53,648.11z"/>
			<path class="st12" d="M1235.32,598.83c0-3.54,2.87-6.41,6.41-6.41c3.54,0,6.41,2.87,6.41,6.41c0,3.54-2.87,6.41-6.41,6.41
				C1238.19,605.24,1235.32,602.37,1235.32,598.83z"/>
			<path class="st4" d="M1238.71,598.83c0-1.8,1.46-3.26,3.26-3.26c1.8,0,3.26,1.46,3.26,3.26c0,1.8-1.46,3.26-3.26,3.26
				C1240.17,602.09,1238.71,600.63,1238.71,598.83z"/>
			<g>
				<path class="st1" d="M1212.69,997.82c-0.04-0.4-4.08-40.34-2.91-75.05c0.49-14.67,0.08-31.91-0.33-48.58
					c-0.57-23.78-1.85-46.69,0.07-61.63c3.29-25.56,2.63-141.73,1.28-154.32c-1.32-12.27-0.06-25.74,1.16-29.8
					c1.24-4.14-4.07-26.79-4.13-27.02l0.62-0.16c0.24,0.95,5.98,23.26,4.69,27.57c-1.2,4.02-3,17.16-1.7,29.35
					c1.35,12.6,3.93,128.76,0.64,154.34c-1.92,14.89-2.56,37.9-1.99,61.66c0.4,16.68,0.82,33.94,0.33,48.62
					c-1.16,34.67,4.72,74.63,4.76,75.03H1212.69z"/>
			</g>
			<path class="st34" d="M1316.01,678.89c0,0,15.79,27.18-0.77,34.33c-16.55,7.15-18.34-0.38-18.34-0.38L1316.01,678.89z"/>
			<path class="st34" d="M1183.73,695.63c0,0,2.51,5.12,2.23,9.72c-0.3,4.81-2.55,12.07-2.55,12.07s-97.47,20.75-116.4,3.4
				c-20.34-18.62,17.4-158.52,33.54-172.2c6.96-5.9,21.63-9.5,35.18-11.65c7.46-1.19,14.58-1.94,19.88-2.4c5.46-0.47,9-0.63,9-0.63
				l-2.2,8.12l-8.55,31.59l-9.96,36.84c0,0-29.79,61.32-30.75,67.09C1112.18,683.34,1183.73,695.63,1183.73,695.63z"/>
			<path class="st40" d="M1197.3,591.54c0,0-24.85-10.82-42.72-20.68c-11.66-6.44-17.63-18.49-18.86-33.89
				c7.46-1.19,14.58-1.94,19.88-2.4c0.86,0.28,1.37,0.46,1.37,0.46l5.43,7.03L1197.3,591.54z"/>
			<path class="st34" d="M1208.14,601.34l-38.71-73.82c0,0-14.44,2.93-19.29,7.47c0,0,2.46,22.2,4.39,27.11c0,0,7.48-0.85,8.54-0.21
				c0,0-3.63,5.55-4.7,6.19C1158.37,568.08,1192.02,583.76,1208.14,601.34z"/>
			<g>
				<path class="st12" d="M1163.35,604.17c-2.65-5.84-25.96-55.63-20.02-68.3l2.28-0.28c-4.5,9.6,11.66,52.88,18.68,68.39
					L1163.35,604.17z"/>
			</g>
			<path class="st42" d="M1214.73,647.27c0-1.72,1.39-3.11,3.11-3.11c1.72,0,3.11,1.39,3.11,3.11c0,1.72-1.39,3.11-3.11,3.11
				C1216.12,650.38,1214.73,648.99,1214.73,647.27z"/>
			<path class="st42" d="M1214.73,821.37c0-1.72,1.39-3.11,3.11-3.11c1.72,0,3.11,1.39,3.11,3.11c0,1.72-1.39,3.11-3.11,3.11
				C1216.12,824.48,1214.73,823.09,1214.73,821.37z"/>
			<path class="st42" d="M1216.29,741.81c0-1.72,1.39-3.11,3.11-3.11c1.72,0,3.11,1.39,3.11,3.11c0,1.72-1.39,3.11-3.11,3.11
				C1217.69,744.92,1216.29,743.52,1216.29,741.81z"/>
			<path class="st42" d="M1216.29,897.02c0-1.72,1.39-3.11,3.11-3.11c1.72,0,3.11,1.39,3.11,3.11c0,1.72-1.39,3.11-3.11,3.11
				C1217.69,900.13,1216.29,898.74,1216.29,897.02z"/>
			<path class="st32" d="M1181.91,551.32c0,0,10.77,5.3,28.18,2.02l-1.96,47.99L1181.91,551.32z"/>
			<g>
				<polygon class="st19" points="1249.97,608.1 1350.77,617.13 1289.26,726.4 1194.38,720.95 				"/>
				<path class="st1" d="M1259.26,607.6c0,0,0.04-15.44,8.58-14.38c8.54,1.07,11.11,16.58,11.11,16.58L1259.26,607.6z"/>
				<polygon class="st32" points="1350.12,615.76 1249.31,606.72 1193.72,719.57 1194.41,720.97 1249.99,608.13 1350.8,617.16 				
					"/>
				<path class="st34" d="M1267.84,593.22c0,0,14.24,6.99,9.21,29.4c-5.03,22.41-11.31,34.7-7.65,47.95l67.9,6.23
					c0,0-7.38-17.62,0.82-35.45c8.2-17.83,2.37-38.22-5.15-39.99L1267.84,593.22z"/>
			</g>
			<path class="st39" d="M1301.75,706.06c0,0-10.32-12.4-8.19-21.37c2.14-8.97,9.82-11.04,14.52-7.87
				c4.7,3.17,11.53,10.43,10.25,15.99C1317.05,698.35,1306.95,708.64,1301.75,706.06z"/>
			<path class="st39" d="M1178.58,698.68c0,0,17.49-7.69,25.5-5.45c8.01,2.24,18.81,3.84,19.66,6.73
				c0.85,2.88-5.76,13.56-15.59,14.1c-9.83,0.54-27.13,5.13-31.3,0C1172.68,708.93,1178.58,698.68,1178.58,698.68z"/>
		</g>
	</g>
	<path class="st3" d="M907.82,532.87L907.82,532.87c3.38,0,6.11-2.74,6.11-6.11v-69.72c0-3.38-2.74-6.11-6.11-6.11l0,0
		c-3.38,0-6.11,2.74-6.11,6.11v69.72C901.71,530.13,904.44,532.87,907.82,532.87z"/>
	<path class="st3" d="M907.82,1133.17L907.82,1133.17c3.38,0,6.11-2.74,6.11-6.11v-69.72c0-3.38-2.74-6.11-6.11-6.11l0,0
		c-3.38,0-6.11,2.74-6.11,6.11v69.72C901.71,1130.44,904.44,1133.17,907.82,1133.17z"/>
	
		<ellipse transform="matrix(0.9732 -0.2298 0.2298 0.9732 -128.0508 340.2186)" class="st35" cx="1396.97" cy="720" rx="18.7" ry="18.7"/>
	<circle class="st35" cx="1396.88" cy="893.63" r="18.7"/>
	<path class="st3" d="M1396.88,892.91L1396.88,892.91c4.03,0,7.3-3.27,7.3-7.3V723.6c0-4.03-3.27-7.3-7.3-7.3l0,0
		c-4.03,0-7.3,3.27-7.3,7.3v162.02C1389.58,889.64,1392.85,892.91,1396.88,892.91z"/>
</g>
</svg>
