<?xml version="1.0" encoding="utf-8"?>
<!-- Generator: Adobe Illustrator 24.0.1, SVG Export Plug-In . SVG Version: 6.00 Build 0)  -->
<svg version="1.1" xmlns="http://www.w3.org/2000/svg" xmlns:xlink="http://www.w3.org/1999/xlink" x="0px" y="0px"
	 viewBox="0 0 490 350.35" style="enable-background:new 0 0 490 350.35;" xml:space="preserve">
<g id="BACKGROUND">
</g>
<g id="OBJECTS">
	<g>
		<g>
			<g>
				<path style="fill:#FE8E68;" d="M294.18,183.97c-3.2,5.02-11.56,10.87-17.49,10.79c-20.2-0.37-26.85-14.13-29.03-19.14
					c0.41-0.1,1.1-0.18,1.59-0.24c3.72-0.54,7.52-4.22,8.63-8.37c1.43-5.4,3.19-15.96,2.98-22.67l25.55,14.14
					c-0.04,1.94-0.17,4.06-0.35,6.2c-0.13,1.3-0.26,2.58-0.41,3.82c-0.14,1.19-0.3,2.32-0.45,3.36c-0.47,3.5,1.09,6.97,4.04,8.9
					L294.18,183.97z"/>
			</g>
			<g>
				<path style="fill:#3D302A;" d="M296.38,128.97c-1.38,3.62-0.8,7.73,0.6,11.34c0.99,2.55,3.19,0.3,5.93,0.35
					c4.24,0.07,7.55-4.34,10.11-16.03c1.63-8.58,2.04-12.93,1.71-13.76c-1.17-2.97-5.03-4.56-8.21-4.84"/>
			</g>
			<g>
				<path style="fill:#FE8E68;" d="M302.83,103.26c6.68,8.05,9.11,30.7,3.47,46.48c-4.01,11.22-8.67,18.46-14.11,18.23
					c-8.26-0.35-24.27-7.14-29.48-12.81c-9.39-10.21-6.66-30.23-4.72-42.83c1.76-11.45,7.12-26.32,21.51-23.49
					C288.96,90.69,296.84,96.03,302.83,103.26z"/>
			</g>
			<g>
				<path style="fill:#3D302A;" d="M264.89,110.5c1.48,1.77,4.09,2.16,6.24,2.51c2.89,0.47,4.32,1.45,5.82,4.08
					c0.95,1.68,1.9,3.52,3.6,4.43c0.8,0.43,2.02,0.49,2.41-0.33c-0.76-0.51-1.02-1.55-0.83-2.45c0.19-0.89,0.74-1.66,1.32-2.37
					c0.49,0.66,0.54,1.54,0.81,2.33c0.36,1.04,1.13,1.92,2.11,2.41c0.16,0.08,0.33,0.15,0.5,0.12c0.23-0.03,0.41-0.23,0.56-0.41
					c1.05-1.26,2.08-3.66,3.54-4.43c0.29,1.37,0.82,2.46,1.66,3.59c0.74,0.99,1.62,2.01,2.83,2.24c0.39,0.08,0.88,0.02,1.06-0.33
					c0.23-0.43-0.13-0.86-0.07-1.3c0.05-0.41,0.24-0.59,0.45-0.94c0.54-0.89,1.02-1.75,1.73-2.53c1.43,1.63,2.99,3.13,4.66,4.51
					c0.37,0.3,0.91,0.6,1.28,0.3c0.2-0.16,0.25-0.43,0.29-0.69c0.21-1.27,0.41-2.54,0.62-3.81c0.12-0.71,0.53-1.64,1.23-1.46
					c0.34,0.09,0.54,0.42,0.73,0.72c0.23,0.38,4.34,4.71,4.42,4.38c0.64-2.46,1.95-4.7,2.59-7.16
					c4.11-15.84-14.25-28.57-28.28-28.64c-3.12-0.02-6.04,0.64-9.07,1.31c-3.23,0.72-6.57,1.25-9.5,2.86
					c-4.11,2.25-7.22,6.34-6.42,11.22"/>
			</g>
			<g>
				<path style="fill:#3D302A;" d="M271.65,106.31c2.04,2.31,2.58,5.56,2.77,8.63c0.28,4.63-0.1,9.44-2.24,13.55
					c-0.61,1.17-1.06,6.96-2,6.64c-0.3-0.1-0.25-4.59-1.04-7.01c-1.22-3.75-6.84-5.18-9.37-2.81c-4.04,3.77-1.67,8.35-0.33,11.2
					c0.8,1.72,2.07,3.65,2.29,5.47c0.27,2.33,0.35,10.82-1.17,12.8c-1.27,1.66-2.62-6.36-3.77-7.94
					c-8.51-11.77-16.67-41.74-2.14-48.24c2.21-0.99,9.03-1.5,11.1-0.24"/>
			</g>
		</g>
		<path style="fill:#BC744A;" d="M325.45,344.55c0.84,0.14,1.69,0.26,2.57,0.29c4.68,0.15,9.2-0.88,13.77-1.66
			c4.02-0.69,5.11-1.07,5.03-5.92c-0.7-38.41-6.35-76.72-16.51-113.77c-1.55-5.66-3.24-11.36-6.21-16.42
			c-5.07-8.63-16.71-16.08-25.64-20.26c-1.26-0.59-6.48,2.73-7.75,2.16c-1.11-0.5-2.09-1.28-3.21-1.77
			c-3.28-1.43-5.48,1.56-8.22,2.81c-1.42,0.64-3,1.05-4.56,0.98c-1.27-0.05-2.42-0.82-3.58-0.22c-5.22,2.7-18.18-17.34-18.18-17.34
			l-5.61,5.87l-16.43,17.21l-41.06,56.57c0,0-7.45,46.36-12.57,76.75c-0.89,5.24-4.41,16.57-5.11,20.54
			c0.15-0.86,35.05-1.09,36.93-1.09c24.26,0,46.86,0,71.13,0c3.99,0,14.72,1.69,17.52-1.24c3.45-3.6,7.44-20.12,7.65-24.75
			c0.69-15.57-0.38-31.02-0.59-46.68c0.09,6.37,1.92,12.13,2.7,18.37c1.01,8.03,2.45,16.05,3.75,24.04
			c1.04,6.42,2.04,12.86,2.84,19.32c0.36,2.91-0.1,4.64,2.36,5.78C318.52,345.05,323.03,344.14,325.45,344.55z"/>
		<path style="fill:#FE8E68;" d="M312.27,331.25c-1.9-0.78-13.63-3.69-18.92-4.79c-2.77-0.57-15.33-3.83-18.24-3.83
			c-2.91,0-6.87,4.16-6.87,4.16l1.05,14.31c2.8-0.28,6.55,1.17,8.56,1.45c2.01,0.28,8.84,0.32,13.04-1.79
			c0.24-0.12,0.46-0.25,0.68-0.38c1.69,1.5,3.81,2.96,6.16,3.08c0,0,1.84-0.19,1.66-0.93c-0.08-0.36-1.3-2.22-2.52-4.04
			c1.8,1.83,4.74,4.8,8.13,4.97c0,0,1.84-0.19,1.66-0.93c-0.1-0.44-1.86-3.07-3.28-5.16c0.02,0.02,0.05,0.03,0.06,0.05
			c1.49,1.31,5.03,5.83,9.22,6.04c0,0,1.84-0.19,1.66-0.93c-0.06-0.27-0.76-1.38-1.61-2.67c1.07,0.82,2.38,1.69,3.97,2.48
			c4.53,2.24,7.11,0.54,7.11,0C323.8,341.79,314.17,332.03,312.27,331.25z"/>
		<path style="fill:#874C2E;" d="M271.48,314.63c0,0,7.3,4.14,6.65,12.94c-0.65,8.8-3.29,19-14.31,17.93
			C252.8,344.44,271.48,314.63,271.48,314.63z"/>
		<path style="fill:#BC744A;" d="M261.45,344.63c-26.42,9.17-61.77,0.41-84.18-14.82c-14.04-9.52-23-21.61-21.49-33.42
			c3.91-30.68,28.02-101,48.88-111.26c14.18-6.98,31.38-9.87,40.97-11.03c4.5-0.55,7.31-0.68,7.31-0.68l-3.48,9.82l-17.42,49.12
			c-0.65,29.15-21.51,46.46-17.36,53.25c4.15,6.77,36.92,14.08,54.13,25.67C273.57,314.5,279.61,337.79,261.45,344.63z"/>
		<g>
			<path style="fill:#874C2E;" d="M155.78,297.15l-0.06,2.05c0,0.34-0.05,0.68,0,1.02l0.12,1.01c0.1,0.67,0.1,1.36,0.27,2.01
				l0.48,1.97c0.8,2.58,1.91,5.07,3.43,7.31c2.9,4.56,6.74,8.48,10.98,11.84c8.49,6.74,18.27,11.78,28.47,15.44
				c10.18,3.75,20.85,6.22,31.68,7.12c5.41,0.46,10.86,0.52,16.27,0.06c5.42-0.42,10.8-1.41,16.02-3.04
				c-5.11,1.95-10.51,3.1-15.94,3.77c-5.45,0.62-10.95,0.69-16.43,0.36c-5.48-0.31-10.93-1.13-16.29-2.31
				c-5.36-1.17-10.65-2.69-15.82-4.55c-5.15-1.91-10.19-4.14-15.01-6.78c-4.81-2.65-9.47-5.63-13.67-9.19
				c-4.21-3.53-8.04-7.61-10.87-12.35c-1.45-2.35-2.48-4.94-3.19-7.59C155.51,302.64,155.46,299.86,155.78,297.15z"/>
		</g>
		<g>
			<path style="fill:#874C2E;" d="M232.04,232.36c0.02,5.53-0.75,11.07-2.19,16.43c-1.45,5.36-3.57,10.53-6.03,15.51
				c-1.23,2.49-2.54,4.93-3.89,7.34c-1.33,2.42-2.7,4.82-3.82,7.28c-0.55,1.23-1.03,2.5-1.22,3.75c-0.05,0.61-0.1,1.24,0.07,1.77
				c0.04,0.29,0.21,0.51,0.31,0.77c0.19,0.23,0.32,0.48,0.56,0.7c1.79,1.79,4.35,3,6.78,4.17c9.98,4.55,20.58,7.92,30.68,12.46
				c5.05,2.27,10.05,4.72,14.7,7.78l0.86,0.58c0.29,0.2,0.56,0.46,0.84,0.69c0.52,0.51,0.97,1.07,1.33,1.68
				c0.74,1.21,1.24,2.53,1.63,3.87c0.74,2.69,1.05,5.46,1.07,8.23c-0.18-2.75-0.64-5.5-1.45-8.11c-0.86-2.59-2.19-5.11-4.68-6.32
				c-4.67-2.9-9.68-5.21-14.76-7.34c-5.09-2.1-10.24-4.09-15.41-6.02c-5.17-1.96-10.37-3.83-15.45-6.15
				c-2.5-1.24-5.07-2.41-7.2-4.56c-0.27-0.26-0.49-0.62-0.72-0.93c-0.17-0.38-0.4-0.74-0.46-1.14c-0.24-0.8-0.16-1.59-0.09-2.34
				c0.24-1.48,0.78-2.82,1.36-4.1c1.19-2.56,2.58-4.95,3.93-7.36c1.35-2.41,2.71-4.8,4-7.23
				C227.95,254.09,231.52,243.44,232.04,232.36z"/>
		</g>
		<path style="fill:#BC744A;" d="M300.51,187.76c-2.52,2.5-13.74,10.49-24.44,10.49c-1.78,0-3.66-0.16-5.65-0.53
			c-8.98-1.64-16.54-7.63-20.96-14.49c-0.82-1.29-1.54-2.62-2.13-3.95c-0.8-1.72-1.37-3.48-1.7-5.18c4.5-0.55,8.8-1.68,9.5-2.48
			c0.76,5.24,7.23,14.7,17.03,16.48c1.23,0.23,2.39,0.33,3.5,0.35h0.02c4.6,0.08,8.13-1.39,10.54-2.87c0.02,0,4.69-3.68,4.71-3.7
			L300.51,187.76z"/>
		<ellipse style="fill:#56211A;" cx="285.33" cy="135.69" rx="1.81" ry="3.58"/>
		<ellipse style="fill:#FFFFFF;" cx="286.1" cy="137.1" rx="0.79" ry="1.09"/>
		<ellipse style="fill:#56211A;" cx="304.84" cy="137.33" rx="1.81" ry="3.58"/>
		<path style="fill:#FFFFFF;" d="M298.63,152.71c-0.02,0.76-3.18,5.35-6.25,4.99c-2.58-0.31-4.83-5.14-3.48-7.34
			C289.62,149.59,298.65,151.96,298.63,152.71z"/>
		<g>
			<g>
				<path style="fill:#3D302A;" d="M279.93,126.9c2.25-1.98,7.65-1.21,9.95,0.26c0.45,0.29,0.94-0.36,0.56-0.73
					c-1.55-1.55-4.15-1.64-6.22-1.56c-1.57,0.06-4.14-0.01-4.68,1.82C279.48,126.91,279.77,127.04,279.93,126.9L279.93,126.9z"/>
			</g>
		</g>
		<g>
			<g>
				<path style="fill:#3D302A;" d="M301.88,128.24c1.37-0.1,2.65-0.36,4.02-0.02c1.37,0.34,2.38,1.18,3.6,1.82
					c0.26,0.14,0.5-0.13,0.39-0.39c-1.2-2.65-5.85-3.62-8.17-2.03C301.47,127.8,301.53,128.27,301.88,128.24L301.88,128.24z"/>
			</g>
		</g>
		<g>
			<g>
				<path style="fill:#CC6144;" d="M296.37,135.79c-0.09,2.06-0.01,4.17,0.33,6.21c0.12,0.73,1.06,2.69,0.91,3.31
					c-0.17,0.68-1.36,1.53-1.77,2.21c-0.21,0.34,0.2,0.69,0.52,0.52c1.22-0.63,2.62-1.57,2.36-3.04c-0.23-1.37-0.86-2.68-1.07-4.09
					c-0.26-1.7-0.27-3.41-0.43-5.13C297.18,135.24,296.39,135.22,296.37,135.79L296.37,135.79z"/>
			</g>
		</g>
		<ellipse style="fill:#FFFFFF;" cx="305.39" cy="138.75" rx="0.79" ry="1.16"/>
		<g>
			<g>
				<path style="fill:#CC6144;" d="M274.82,161.33c2.82,3.31,7.64,5.53,11.97,5.66c0.43,0.01,0.54-0.69,0.1-0.77
					c-4.59-0.85-7.98-2.43-11.65-5.32C274.95,160.66,274.56,161.03,274.82,161.33L274.82,161.33z"/>
			</g>
		</g>
		<g>
			<g>
				<path style="fill:#874C2E;" d="M252.93,171.79c-6.5-3.08-9.98,6.69-10.64,11.48c-1.26,9.21,2.82,17.78,6.54,25.93
					c3.9,8.56,8.36,16.83,12.35,25.34c2.06,4.41,3.89,8.92,5.26,13.59c1.44,4.88,1.6,10.32,3.37,15.03c0.24,0.64,1.07,0.5,1.15-0.16
					c0.86-6.82-2.16-15.21-4.51-21.59c-2.25-6.11-5.16-11.95-8.06-17.77c-3.79-7.59-7.63-15.26-10.74-23.16
					c-1.56-3.96-2.85-8.1-3.13-12.38c-0.22-3.42,1.03-17.33,7.68-14.58C253.18,173.93,253.9,172.25,252.93,171.79L252.93,171.79z"/>
			</g>
		</g>
		<g>
			<g>
				<path style="fill:#874C2E;" d="M290.91,182.3c8.18,3.11,5.32,18.06,4.2,24.54c-1.36,7.89-3.91,15.54-7.11,22.87
					c-6.23,14.29-14.63,27.55-22.15,41.17c-0.62,1.12,1.08,2.12,1.72,1.01c9.35-16.41,20-32.33,26.17-50.31
					c2.86-8.34,4.69-17.12,4.82-25.96c0.08-5.88-0.78-13.03-7.15-15.18C290.24,180.05,289.78,181.87,290.91,182.3L290.91,182.3z"/>
			</g>
		</g>
		<path style="fill:#874C2E;" d="M280,263.93c-6.32-0.19-12.64-0.37-18.96-0.56c-1.02-0.03-1.62,0.82-1.73,1.73
			c-1.19,9.49-1.6,19.16-3.03,28.61c-0.17,1.11,0.44,2.17,1.67,2.19c6.23,0.13,12.47,0.32,18.7,0.38c0.33,0,0.6-0.07,0.83-0.2
			c0.01,0,0.02-0.01,0.03-0.02c0.06-0.03,0.12-0.07,0.18-0.11c0.29-0.2,0.52-0.51,0.63-0.95c2.41-9.33,2.41-19.78,3.41-29.35
			C281.83,264.71,280.86,263.95,280,263.93z"/>
		<g>
			<g>
				<path style="fill:#874C2E;" d="M305.08,302.42c0.27-5.15-0.24-10.36-0.27-15.52c-0.04-5.34,0.12-10.68,0.41-16.02
					c0.28-5.17,0.69-10.34,1.28-15.48c0.61-5.3,1.72-10.55,2.28-15.85c0.08-0.71-1.06-0.84-1.23-0.17
					c-1.24,4.87-1.72,10.06-2.31,15.05c-0.64,5.46-1.12,10.95-1.38,16.45c-0.26,5.33-0.29,10.68-0.17,16.02
					c0.12,5.16,0.12,10.49,1.18,15.55C304.88,302.58,305.07,302.54,305.08,302.42L305.08,302.42z"/>
			</g>
		</g>
		<g>
			<g>
				<path style="fill:#874C2E;" d="M252.52,181.39c1.69,6.93,9.45,12.81,16.27,13.83c0.58,0.09,0.83-0.71,0.25-0.89
					c-3.52-1.12-6.84-2.57-9.68-4.98c-2.75-2.33-4.43-5.2-6.36-8.16C252.83,180.95,252.45,181.1,252.52,181.39L252.52,181.39z"/>
			</g>
		</g>
		<g>
			<g>
				<path style="fill:#874C2E;" d="M275.24,195.26c1.19-0.27,2.37-0.55,3.54-0.88c1.05-0.3,2.15-0.5,3.06-1.11
					c0.27-0.18,0.17-0.61-0.17-0.62c-2.15-0.06-4.65,1.13-6.65,1.84C274.54,194.65,274.73,195.37,275.24,195.26L275.24,195.26z"/>
			</g>
		</g>
		<g>
			<g>
				<path style="fill:#CC6144;" d="M263.65,130.33c0.66-1.01,1.68,2.13,1.72,2.39c0.19,1.22-0.06,2.31-0.37,3.48
					c-0.12,0.44,1.24,0.09,1.4-0.22c0.88-1.7,0.95-4.66-0.58-6.06c-0.96-0.87-2.82-0.63-3.51,0.46
					C261.99,130.86,263.43,130.66,263.65,130.33L263.65,130.33z"/>
			</g>
		</g>
		<g>
			<g>
				<path style="fill:#CC6144;" d="M265.81,132.73c-0.01-0.13,0-0.26,0.04-0.39c0.01-0.04,0.01-0.07-0.03-0.1
					c-0.54-0.66-1.39-0.97-2.21-0.66c-0.05,0.02-0.22,0.1-0.15,0.18c0.2,0.21,0.58,0.2,0.83,0.32c0.21,0.1,0.36,0.24,0.54,0.39
					c0.18,0.16,0.4,0.23,0.58,0.38C265.5,132.92,265.81,132.85,265.81,132.73L265.81,132.73z"/>
			</g>
		</g>
		<g>
			<g>
				<path style="fill:#CC6144;" d="M288.68,158.4c0.76,1.05,2.39,1.6,3.57,0.89c0.09-0.05,0.08-0.12-0.03-0.11
					c-1.05,0.05-2.01-0.25-2.64-1.13C289.43,157.84,288.5,158.15,288.68,158.4L288.68,158.4z"/>
			</g>
		</g>
		<g>
			<g>
				<path style="fill:#CC6144;" d="M281.26,137.46c-0.12,0.81-0.09,1.46,0.37,2.17c0.39,0.6,0.9,1.05,1.62,1.19
					c0.08,0.02,0.5-0.07,0.4-0.21c-0.39-0.54-0.98-0.85-1.32-1.45c-0.3-0.54-0.58-1.17-0.62-1.79
					C281.71,137.25,281.28,137.35,281.26,137.46L281.26,137.46z"/>
			</g>
		</g>
		<g>
			<g>
				<path style="fill:#CC6144;" d="M305.25,142.4c0.07,0,0.26-0.11,0.1-0.11C305.27,142.29,305.09,142.4,305.25,142.4L305.25,142.4z
					"/>
			</g>
		</g>
		<g>
			<g>
				<path style="fill:#CC6144;" d="M306.36,142.19c0.66-0.34,1.59-1.33,0.97-2.08c-0.05-0.06-0.24,0.01-0.26,0.07
					c-0.31,0.71-0.38,1.47-1.14,1.86C305.48,142.27,306.15,142.3,306.36,142.19L306.36,142.19z"/>
			</g>
		</g>
		<g>
			<g>
				<path style="fill:#874C2E;" d="M305.37,262.43c0.28-4.25,2.23-7.57,4.83-10.86c2.02-2.55,4.54-4.2,6.86-6.4
					c0.25-0.24-0.01-0.69-0.34-0.59c-3.38,1.06-6.12,4.49-8.14,7.23c-2.12,2.87-5.06,6.92-3.76,10.68
					C304.92,262.81,305.34,262.76,305.37,262.43L305.37,262.43z"/>
			</g>
		</g>
		<g>
			<g>
				<path style="fill:#874C2E;" d="M304.86,264.96c1.07-1.31,1.75-2.9,2.69-4.31c1.11-1.66,2.41-3.21,3.84-4.61
					c0.28-0.27,2.93-2.98,3.19-0.81c0.16,1.37-2.58,1.89-3.39,2.38c-0.91,0.55-1.52,0.98-1.52,2.1c0,0.36,0.54,0.54,0.71,0.19
					c1.08-2.17,4.97-2.09,5.38-5c0.16-1.17-0.77-1.91-1.91-1.79c-2.05,0.22-4.18,3.2-5.33,4.63c-1.6,2-3.49,4.49-3.88,7.08
					C304.62,264.94,304.77,265.08,304.86,264.96L304.86,264.96z"/>
			</g>
		</g>
		<g>
			<g>
				<path style="fill:#874C2E;" d="M265.16,317.69c0.01,3.46-0.05,6.81-1.27,10.1c-1.21,3.28-3.4,5.78-5.42,8.55
					c-0.15,0.21,0.14,0.45,0.34,0.34c5.92-3.28,8.92-12.78,6.89-19.06C265.61,317.33,265.16,317.37,265.16,317.69L265.16,317.69z"/>
			</g>
		</g>
		<g>
			<g>
				<path style="fill:#874C2E;" d="M291.53,285.87c-0.85,5.33-1.83,10.19-4.59,14.93c-2.74,4.71-6.64,8.8-11.21,11.76
					c-0.37,0.24-0.04,0.81,0.34,0.59c9.17-5.22,16.89-16.22,16.25-27.17C292.3,285.55,291.61,285.39,291.53,285.87L291.53,285.87z"
					/>
			</g>
		</g>
		<g>
			<g>
				<path style="fill:#874C2E;" d="M321.57,150.19c1.15-0.47,2.63-0.92,3.36-1.99c0.11-0.16-0.04-0.37-0.22-0.38
					c-1.26-0.04-2.48,0.89-3.5,1.52C320.79,149.61,321.06,150.4,321.57,150.19L321.57,150.19z"/>
			</g>
		</g>
		<g>
			<g>
				<path style="fill:#874C2E;" d="M321.73,153.18c0.7,0.48,1.83,0.92,2.63,0.43c0.23-0.14,0.24-0.49,0-0.63
					c-0.33-0.19-0.72-0.24-1.08-0.33c-0.4-0.1-0.79-0.22-1.16-0.38C321.56,152.06,321.3,152.89,321.73,153.18L321.73,153.18z"/>
			</g>
		</g>
		<g>
			<g>
				<path style="fill:#874C2E;" d="M320.67,158.86c0.68,0.4,1.58,1.05,2.41,1c0.2-0.01,0.35-0.23,0.24-0.41
					c-0.44-0.71-1.45-1.06-2.18-1.38C320.61,157.83,320.14,158.55,320.67,158.86L320.67,158.86z"/>
			</g>
		</g>
	</g>
	<g>
		<path style="fill:none;stroke:#000000;stroke-width:2.1886;stroke-linecap:round;stroke-miterlimit:10;" d="M-74.5,349.81"/>
		<path style="fill:none;stroke:#000000;stroke-width:2.1886;stroke-linecap:round;stroke-miterlimit:10;" d="M-45.13,349.81"/>
	</g>
	<g>
		<path style="fill:#2D2442;" d="M426.75,343.76h-166c-1.6,0-2.91,1.3-2.91,2.91v0.21c0,1.6,1.3,2.91,2.91,2.91h166
			c1.6,0,2.91-1.3,2.91-2.91v-0.21C429.66,345.07,428.36,343.76,426.75,343.76z"/>
		<g>
			<path style="fill:#2D2442;" d="M459.16,269.81c-34.54-0.35-69.08-0.7-103.62-1.05c-4.9-0.05-9.81-0.1-14.71-0.15
				c-0.76-0.01-1.74,0.44-2.07,1.18c-9.49,21.91-18.98,43.82-28.47,65.73c-1.35,3.13-2.71,6.25-4.06,9.38
				c-0.05,0.1-0.07,0.21-0.1,0.31c0,0,0,0,0,0.01c-0.03,0.1-0.06,0.2-0.08,0.3c-0.27,1.27,0.37,2.76,1.93,2.95
				c0.36,0.11,0.73,0.13,1.09,0.04c35.5,0.28,71,0.55,106.5,0.83c5.07,0.04,10.14,0.08,15.2,0.12c1.13,0.01,1.93-0.76,2.31-1.76
				c9.46-24.96,18.93-49.92,28.39-74.88C462.04,271.35,460.6,269.83,459.16,269.81z"/>
			<g>
				<path style="fill:#2D2442;" d="M459.16,268.17c-31.88-0.32-63.77-0.64-95.65-0.97c-3.88-0.04-7.77-0.08-11.65-0.12
					c-3.51-0.04-7.57-0.65-11.04-0.11c-5.15,0.8-6.47,8.89-8.23,12.95c-6.33,14.61-12.65,29.22-18.98,43.82
					c-2.71,6.26-5.43,12.51-8.13,18.77c-1.02,2.36-2.01,5.22,0.67,7.01c1.36,0.91,3.41,0.62,4.88,0.64
					c3.94,0.05,7.89,0.06,11.83,0.09c7.89,0.06,15.78,0.12,23.67,0.18c15.78,0.12,31.56,0.25,47.33,0.37
					c7.87,0.06,15.73,0.12,23.6,0.18c3.17,0.02,6.33,0.05,9.5,0.07c2.44,0.02,4.86,0.49,6.75-1.31c2.05-1.95,2.74-6.38,3.71-8.93
					c1.38-3.65,2.77-7.31,4.15-10.96c3.23-8.52,6.46-17.05,9.69-25.57c3-7.91,6-15.83,9-23.74c1.5-3.96,5.68-10.71-0.68-12.35
					c-2.05-0.53-2.92,2.64-0.87,3.17c2.1,0.54-5.05,17.39-5.76,19.27c-2.31,6.09-4.62,12.18-6.92,18.26
					c-2.31,6.09-4.62,12.18-6.92,18.26c-1.04,2.74-2.08,5.48-3.12,8.22c-1.13,2.99-1.95,7.41-3.81,10.04
					c-2.39,3.4-7.38,2.33-10.92,2.3c-3.22-0.03-6.43-0.05-9.65-0.08c-6.57-0.05-13.15-0.1-19.72-0.15
					c-13.15-0.1-26.3-0.21-39.45-0.31s-26.3-0.21-39.45-0.31c-1.36-0.01-3.66,0.57-4.62-0.64c-1.23-1.54-0.53,0.68-0.07-2.09
					c0.39-2.31,2.12-4.89,3.05-7.04c2.75-6.35,5.5-12.69,8.25-19.04c5.27-12.17,10.54-24.35,15.82-36.52
					c1.17-2.7,2.11-6.93,3.95-9.13c2.46-2.94,6.36-2.15,9.72-2.11c6.8,0.07,13.59,0.14,20.39,0.21c29.89,0.3,59.78,0.6,89.67,0.91
					C461.28,271.48,461.28,268.19,459.16,268.17z"/>
			</g>
		</g>
		<ellipse style="fill:#5A4F72;" cx="379.63" cy="311.51" rx="8.01" ry="5.84"/>
		<ellipse style="fill:#5A4F72;" cx="395.03" cy="312.1" rx="4.18" ry="3.04"/>
	</g>
	<g>
		<path style="fill:#C1ADA4;" d="M199.26,328.45c5.11-0.61,14.16-1.99,14.39-5.13c-3.31-2.14-6.95-4.3-10.89-4.49
			c-3.14-0.15-6.18,1-9.05,2.28c-2.44,1.09-4.84,2.27-7.18,3.55c-0.96,0.53-3.48,2.41-3.52,3.72c-0.05,1.63,2.94,0.67,4.13,0.75
			C191.19,329.42,195.25,328.93,199.26,328.45z"/>
		<path style="fill:#FE8E68;" d="M187.19,325.78c0,0,6.8,22.25,10.39,22.79c3.6,0.53,38.78,0.8,39.71,0.4
			c0.93-0.4,1.07-1.07,1.07-1.07s22.39,1.47,22.79,0.93s0-3.2-1.07-3.6c-1.07-0.4-34.91-7.99-37.84-9.06s-12.13-0.8-12.13-0.8
			l-1.87-12.93L187.19,325.78z"/>
		<path style="fill:#433735;" d="M195.4,46.58c2.2,2.36,3.4,5.63,3.24,8.86c-0.1,1.92-0.65,3.79-1.23,5.63
			c-1.11,3.54-2.43,7.2-5.18,9.69c-0.45,0.4-1.01,0.79-1.6,0.69c-1.1-3.4-2.21-6.79-3.31-10.19c-0.53-1.63-1.06-3.27-1.36-4.96
			c-0.5-2.86-0.32-5.85,0.64-8.58c0.44-1.24,1.07-2.47,2.12-3.27C191.27,42.49,193.66,44.72,195.4,46.58z"/>
		<g>
			<g>
				<path style="fill:#9B8580;" d="M130.22,234.82c-0.36,3.48,0.18,7.15,0.37,10.63c0.11,1.98,0.22,3.96,0.21,5.94
					c0,1.15-0.34,2.55,0.05,3.63c0.04,0.11,0.21,0.19,0.3,0.08c1.54-1.87,0.67-6.34,0.59-8.6c-0.12-3.89-0.31-7.79-0.46-11.68
					C131.27,234.11,130.29,234.14,130.22,234.82L130.22,234.82z"/>
			</g>
		</g>
		<g>
			<g>
				<path style="fill:#9B8580;" d="M140.13,227.95c-3.7,8.4-5.75,16.95-10.82,24.8c-0.29,0.44,0.43,0.86,0.71,0.41
					c4.48-7.04,9.36-16.71,10.54-25.04C140.59,227.9,140.25,227.69,140.13,227.95L140.13,227.95z"/>
			</g>
		</g>
		<path style="fill:#2D2442;" d="M58.81,349.81l2.28-76.87l16.71,76.87h47.92c-3.18-25.57-17.31-132.46-32.07-141.52l-58-36.11
			c0,0-33.56,8.75-32.83,57.26c2.68,46.73,8.39,101.71,10.41,120.37H58.81z"/>
		<path style="fill:#EED9CE;" d="M213.52,323.39c-1.24,1.89-7.58,0.47-9.45,0.65c-1.68,0.16-3.26,0.8-4.89,1.22
			c-5.18,1.35-10.97,0.64-15.63,3.28c-0.14,0.08-0.31,0.17-0.47,0.12c-0.18-0.05-0.26-0.25-0.32-0.42
			c-2.98-8.24-5.3-16.84-7.91-25.24c-3.92-12.62-7.83-25.25-11.75-37.87c-2.02-6.52-4.05-13.04-6.07-19.56l-14.23-65.93l6.33-46.47
			l1.5-10.96l0.11-0.83c0,0,0.31,0.11,0.88,0.31c1.98,0.7,7.07,2.6,12.7,5.35c9.03,4.41,19.47,11.02,20.89,18.5
			c0,0.03,0.01,0.05,0.01,0.08c0.75,5.25,1.6,10.48,2.42,15.72c1.46,9.29,2.94,18.57,4.43,27.85c1.85,11.55,3.7,23.1,5.56,34.65
			c1.94,12.04,3.88,24.07,5.82,36.1c1.73,10.74,3.47,21.48,5.21,32.21c1.24,7.66,2.48,15.32,3.72,22.98
			c0.34,2.12,0.69,4.24,1.03,6.36c0.06,0.37,0.38,1.24,0.26,1.6C213.63,323.2,213.58,323.3,213.52,323.39z"/>
		<path style="fill:#EED9CE;" d="M150.73,121.37l-0.11,0.83l-1.5,10.96l-6.33,46.47c0,0-30.96,19.07-30.96,19.07
			c-1.62,1-3.01,7.84-3.67,9.56c-2.14,5.57-4,11.36-6.45,16.8c-0.5,1.12-0.95,4.15-2.06,4.83c-2.23,1.37-11.31-0.51-14.11-0.69
			c-10.37-0.67-20.86-2.19-30.35-6.66c-7.5-3.54-14.15-8.54-21.21-12.83c-4.32-2.62-9.13-4.26-13.69-6.37
			c-3.05-1.41-9.64-4.11-10.82-7.7c-0.34-1.04,0.19-2.14,0.69-3.1c2.18-4.22,3.63-9.31,6.2-13.23c2.37-3.61,5.3-6.87,7.61-10.58
			c4.66-7.45,8.77-15.32,14.59-21.97c9.91-11.32,18.23-24.25,28.43-35.53c4.53-5.01,18.65-9.78,25.4-10.06
			c6.14-0.25,12.09,0.76,17.3,2.21c4.19,1.18,7.91,2.65,10.84,3.97c4.3,1.95,6.92,3.6,6.92,3.6L150.73,121.37z"/>
		<g id="XMLID_56_">
			<g id="XMLID_66_">
				<path style="fill:#FE8E68;" d="M162.17,183.2c3.26-2.01,18.49-11.73,19.86-15.24c0.63-1.63,4.09-6.65,7.07-11.36
					c1.77-2.79,6.24-8.26,7.37-9.43c1.94-2.01,4.73-6.99,6.42-5.35c2.1,2.04-1.18,7.14-3.03,10.27c-0.68,1.15-1.41,2.3-1.7,3.6
					c-0.29,1.3-0.23,2.27,0.54,3.37c0.42,0.6,3.26,0.88,4.22,0.84c7.19-0.32,10.31,0.11,15.68-1.89c5.37-2,10.38-4.82,15.44-7.5
					c0.87-0.46,1.39-1.4,3.35-1.58c0.98-0.09,3.04,0.04,2.93,1.02c-0.09,0.76-6.13,5.48-6.75,5.92c-3.35,2.38-2.97,2.11-6.32,4.49
					c-0.52,0.37-1.08,0.8-1.21,1.42c-0.11,0.52,0.12,1.06,0.13,1.59c0.02,0.96-0.64,1.78-1.3,2.48c-1.15,1.23-2.36,2.38-3.64,3.47
					c-1.78,1.53-0.33,2.83-2.27,4.17c-2.14,1.48-7.68,2.98-9.88,4.36c-1.75,1.11-3.52,2.23-5.45,3c-2.31,0.92-4.78,1.33-7.22,1.83
					c-6.67,1.38-18.35,13.47-23.99,17.46"/>
			</g>
			<path id="XMLID_64_" style="fill:#FE8E68;" d="M200.48,181.82c0,0,8.39-1.06,15.06-4.16c6.67-3.1,23.16-13.28,23.16-13.28
				s0.23-0.58,0.05-0.98c-0.17-0.4-2.68-0.96-4.7-0.09c-2.02,0.88-14.94,6.48-14.94,6.48"/>
			<path id="XMLID_58_" style="fill:#FE8E68;" d="M198.82,179c0,0,10.63-2.22,17.3-5.32c6.67-3.1,23.16-13.28,23.16-13.28
				s0.23-0.58,0.05-0.98c-0.18-0.4-2.68-0.96-4.7-0.09c-2.02,0.88-14.94,6.48-14.94,6.48"/>
			<path id="XMLID_57_" style="fill:#FE8E68;" d="M202.18,172.89c0,0,10.63-2.22,17.3-5.32c6.67-3.1,17.03-8.4,22.9-12.41
				c0.39-0.26,0.49-1.44,0.31-1.85c-0.18-0.4-2.68-0.96-4.7-0.08c-2.02,0.88-14.94,6.48-14.94,6.48"/>
		</g>
		<path style="fill:#FE8E68;" d="M162.76,109.25c0,0,25.72,15.68,31.73-16.05c1.46-13.13,3.28-34.47-7.66-42.81
			s-36.11-9.3-36.66,15.46c0.96,7.11,0.68,7.66,0.68,7.66s-9.44-2.6-7.39,9.16c1.09,5.33,2.51,7.25,2.51,7.25
			s-19.31,15.12-19.33,15.14c-1.78,1.39-3.27,3.71-5.73,2.59c-0.27-0.12-0.53-0.28-0.82-0.33c-0.29-0.05-0.63,0.04-0.78,0.3
			c-0.09,0.16-0.08,0.36-0.09,0.55c-0.03,0.95-0.4,1.84-0.65,2.75c-0.97,3.49,0.04,6.76,1.88,9.78c1.56,2.56,3.78,4.74,6.4,6.2
			c2.51,1.4,5.33,2.16,8.16,2.67c3.56,0.64,7.33,0.89,10.85-0.09c2.16-0.6,3.63-1.27,5.13-3.02c0.28-0.33,0.55-0.67,0.74-1.06
			c0.43-0.88,0.45-1.89,0.44-2.87c0-0.14-0.01-0.28-0.1-0.39c-0.09-0.11-0.25-0.13-0.39-0.15c-1.57-0.26-0.53-1.09,0.12-1.77
			c0.65-0.68,1.31-1.35,1.97-2.03c1.38-1.41,2.78-2.81,4.18-4.21C159.56,112.4,161.16,110.82,162.76,109.25z"/>
		<ellipse style="fill:#56211A;" cx="181.91" cy="79.47" rx="1.81" ry="3.58"/>
		<g>
			<g>
				<path style="fill:#433735;" d="M185.84,67.16c-3.92-1.44-10.69,0.11-13.17,3.6c-0.17,0.24,0.12,0.63,0.4,0.51
					c1.97-0.78,3.62-2.04,5.71-2.63c2.34-0.66,4.57-0.48,6.94-0.59C186.25,68.03,186.32,67.33,185.84,67.16L185.84,67.16z"/>
			</g>
		</g>
		<path style="fill:#FE8E68;" d="M195.46,76.2c-0.59,1.9,0,4.07,0.77,5.91s1.96,3.46,3.13,5.07c0.53,0.72,1.06,1.45,1.59,2.17
			c-1.65,0.55-3.27,1.23-4.82,2.03c-0.93,0.48-1.93,1.13-2.12,2.16"/>
		<path style="fill:#FFFBF9;" d="M183.62,95.47c1.11,0.38,2.3,0.51,3.46,0.37c0.12-0.01,0.25-0.02,0.33,0.06
			c0.05,0.06,0.06,0.14,0.07,0.21c0.08,1.15-0.42,2.25-0.9,3.29c-0.32,0.7-0.65,1.41-1.16,1.99c-1.07,1.22-3.46,1.99-4.98,1.25
			c-0.68-0.33-1.19-0.95-1.58-1.6c-1.07-1.77-1.82-4.77-0.91-6.77c0.61-1.34,0.76-0.84,1.94-0.3c1.09,0.5,2.22,0.9,3.32,1.35
			C183.34,95.37,183.48,95.42,183.62,95.47z"/>
		<path style="fill:#EED9CE;" d="M163.68,177.64c-18.76,8.71-47.97,24.44-47.97,24.44l-4.19-30.28l-44.14,0.36
			c0,0,12.77,70.4,22.62,76.97c0,0,11.67,8.75,30.64-4.38c12.52-8.67,41.64-31.45,55.95-43.91L163.68,177.64z"/>
		<g>
			<g>
				<path style="fill:#DBC4BD;" d="M80.76,228.67c-0.29-4.84-2.58-10.09-3.81-14.77c-1.75-6.64-3.5-13.28-5.14-19.95
					c-2.95-12.06-5.47-24.18-8.1-36.3c-0.08-0.35-0.67-0.28-0.64,0.09c0.98,12.09,4.17,24.18,7.08,35.91
					c1.6,6.47,3.25,12.94,5.06,19.35c1.4,4.95,2.39,11.37,5.07,15.8C80.4,229,80.77,228.93,80.76,228.67L80.76,228.67z"/>
			</g>
		</g>
		<g>
			<g>
				<path style="fill:#DBC4BD;" d="M175.51,199.26c-9.16,6.04-17.33,13.97-24.84,21.92c-0.66,0.7,0.39,1.75,1.05,1.05
					c7.64-8.05,16.08-14.86,24.56-21.97C176.85,199.8,176.12,198.86,175.51,199.26L175.51,199.26z"/>
			</g>
		</g>
		<g>
			<g>
				<path style="fill:#DBC4BD;" d="M144.89,187.37c3.03-0.46,6.07-2.01,8.8-3.35c2.38-1.17,5.52-2.28,7.09-4.49
					c0.28-0.4-0.18-0.79-0.56-0.73c-2.59,0.39-5.1,2.5-7.43,3.67c-2.71,1.36-5.72,2.36-8.28,3.98
					C143.99,186.77,144.34,187.45,144.89,187.37L144.89,187.37z"/>
			</g>
		</g>
		<g>
			<g>
				<path style="fill:#9B8580;" d="M119.77,106.88c-3.39-3.48-6.71,2.72-7.73,5.55c-2.72,7.57-1.1,16.6,1.11,24.07
					c2.68,9.1,7.17,17.43,9.57,26.64c2.73,10.5,4.74,21.01,4.33,31.9c-0.03,0.67,1,0.66,1.04,0c0.93-14.2-2.48-30.07-7.78-43.21
					c-2.67-6.63-5.68-13.01-7.26-20.03c-0.89-3.95-1.45-8.07-1.27-12.12c0.07-1.59,2.79-16.71,7.28-12.11
					C119.51,108.05,120.22,107.34,119.77,106.88L119.77,106.88z"/>
			</g>
		</g>
		<g>
			<g>
				<path style="fill:#9B8580;" d="M153.55,119.96c0.86,1.43,1.71,2.86,2.57,4.28c0.17,0.95,0.34,1.91,0.51,2.86
					c0.09,1.05,0.04,2.12-0.03,3.16c-0.19,2.85-0.89,5.65-1.36,8.47c-0.89,5.43-1.58,10.89-2.51,16.32
					c-1.79,10.46-4.18,20.79-7.56,30.86c-0.19,0.56,0.68,0.79,0.87,0.24c4.72-13.46,7.29-27.44,9.4-41.52
					c0.97-6.52,6.53-22.07-2.25-25.45c-0.35-0.14-0.69,0.27-0.6,0.6c0.03,0.1,0.06,0.2,0.08,0.29
					C152.83,120.55,153.53,120.44,153.55,119.96L153.55,119.96z"/>
			</g>
		</g>
		<path style="fill:#D6CED7;" d="M141.38,248.72c0.01-0.89-0.8-1.79-1.73-1.73c-6.31,0.42-12.61,0.85-18.92,1.27
			c-0.95,0.06-1.7,0.74-1.73,1.73c-0.27,9.71,0.24,19.54-0.27,29.23c-0.05,0.89,0.83,1.8,1.73,1.73c6.22-0.47,12.44-0.89,18.65-1.42
			c0.05,0,0.09-0.02,0.14-0.03c0.71,0.04,1.38-0.32,1.53-1.24C142.27,268.73,141.31,258.37,141.38,248.72z"/>
		<g>
			<g>
				<path style="fill:#594C4A;" d="M142.58,78.68c-2.83,0.38-4.99,1.06-7.05-1.54c-0.83-1.04-1.49-2.13-2.78-2.62
					c-0.17-0.06-0.3,0.18-0.17,0.29c1.6,1.46,2.75,3.97,4.86,4.78c1.67,0.64,3.73,0.18,5.28-0.59
					C142.92,78.91,142.76,78.66,142.58,78.68L142.58,78.68z"/>
			</g>
		</g>
		<circle style="fill:none;stroke:#F9F9F9;stroke-width:1.0943;stroke-miterlimit:10;" cx="181.46" cy="79.79" r="8.75"/>
		<g>
			<g>
				<path style="fill:#F9F9F9;" d="M190.48,77.49c0.32-0.19,0.46-0.49,0.75-0.73c0.42-0.35,0.97-0.55,1.5-0.65
					c0.49-0.09,1.02-0.09,1.49,0.09c0.44,0.17,0.55,0.59,0.95,0.76c0.11,0.05,0.21,0.03,0.29-0.08c0.03-0.04,0.06-0.09,0.1-0.13
					c0.09-0.12,0.06-0.27,0-0.39c-0.51-1.1-1.98-1.19-3.02-0.97c-0.89,0.19-2.49,0.87-2.32,1.99
					C190.22,77.5,190.39,77.55,190.48,77.49L190.48,77.49z"/>
			</g>
		</g>
		<g>
			<path style="fill:#433735;" d="M142.46,64.1c4.47,3.22,32.42-0.73,41.45-4.87c18.34-8.41,20.14-23.22,15.85-26
				c-0.52-0.34-1.09-0.6-1.7-0.68c-1.44-0.17-2.76,0.72-3.93,1.57c0.46-1.68,2.13-8.97-2.32-11.87c-5.98-3.89-13.5,2.69-14.73,3.51
				c-8.53,5.71-13.14,6.68-13.14,6.68s1.5-14.39-10.28-3.34c-3.71,3.48-10.6,6.73-14.3,10.23c-3.88,3.67-6.09,9.66-3.85,14.78"/>
		</g>
		<g>
			<path style="fill:#433735;" d="M155.56,55.38c2.56,2.08,3.7,5.41,4.44,8.63c1.11,4.84,1.55,9.98,0.01,14.7
				c-0.44,1.34,0.11,7.54-0.94,7.36c-0.33-0.05-1.07-4.8-2.32-7.22c-1.95-3.75-8.14-4.26-10.39-1.32c-2.79,3.64-1,6.21,0.24,9.84
				c0.92,2.7,0.01,6.09-3.29,7.02c-3.08,0.87-2.19-1.46-3.42-3.64c-2.64-4.7-5.4-8.81-7.17-14.04c-2.79-8.25-5.09-20.77,3.54-26.48
				c2.16-1.43,9.28-3.17,11.68-2.21"/>
		</g>
		<ellipse style="fill:#FFFFFF;" cx="182.55" cy="81.07" rx="0.79" ry="1.03"/>
		<g>
			<g>
				<path style="fill:#F9F9F9;" d="M153.46,73.79c1.29,2.54,4.28,3.04,6.82,3.68c3.66,0.92,7.58,1.64,11.37,1.63
					c0.66,0,0.62-0.92,0-1c-3.25-0.41-6.48-0.69-9.68-1.39c-2.64-0.57-6.23-1.08-8.02-3.29C153.71,73.13,153.31,73.49,153.46,73.79
					L153.46,73.79z"/>
			</g>
		</g>
		<g>
			<g>
				<path style="fill:#CC6144;" d="M157.51,102.95c1.36,2.6,3.5,5.17,6.16,6.51c0.12,0.06,0.25-0.09,0.15-0.19
					c-2.1-2.13-4.19-4.09-5.97-6.51C157.7,102.55,157.4,102.72,157.51,102.95L157.51,102.95z"/>
			</g>
		</g>
		<g>
			<g>
				<path style="fill:#433735;" d="M209.95,72.08c1.25-0.82,2.59-1.59,3.59-2.72c0.07-0.08,0-0.25-0.12-0.2
					c-1.4,0.54-2.58,1.52-3.77,2.41C209.35,71.79,209.62,72.29,209.95,72.08L209.95,72.08z"/>
			</g>
		</g>
		<g>
			<g>
				<path style="fill:#433735;" d="M211.76,75.56c0.94-0.2,2.12-0.42,2.92-0.97c0.21-0.15,0.13-0.46-0.13-0.48
					c-0.97-0.06-2.09,0.38-3,0.7C211.08,74.97,211.27,75.66,211.76,75.56L211.76,75.56z"/>
			</g>
		</g>
		<g>
			<g>
				<path style="fill:#433735;" d="M212.1,79.85c0.58-0.16,1.16-0.29,1.77-0.36c0.49-0.05,0.99-0.05,1.47-0.16
					c0.14-0.03,0.18-0.25,0.04-0.32c-1.04-0.5-2.44-0.26-3.47,0.16C211.5,79.33,211.65,79.97,212.1,79.85L212.1,79.85z"/>
			</g>
		</g>
		<g>
			<g>
				<path d="M27.11,207.87c-2.55-0.08-2.44,3.9-2.68,5.6c-0.32,2.31-0.97,5.29,1.02,7.03c0.34,0.3,0.8,0.08,0.85-0.35
					c0.01-0.11,0.02-0.22,0.03-0.32c0.03-0.25-0.26-0.33-0.44-0.25c-0.11,0.05-0.23,0.1-0.34,0.15c0.23,0.06,0.45,0.12,0.68,0.18
					c-1.17-1.78-1.04-3.5-0.79-5.51c0.25-2.02,0.11-4.71,1.84-6.09C27.48,208.16,27.31,207.87,27.11,207.87L27.11,207.87z"/>
			</g>
		</g>
		<g>
			<g>
				<path d="M30.02,209.81c-1.59,2.62-1.97,7.49-0.68,10.28c0.15,0.33,0.63,0.14,0.64-0.17c0.07-1.68-0.34-3.33-0.24-5.03
					c0.1-1.68,0.59-3.28,0.74-4.95C30.51,209.68,30.14,209.61,30.02,209.81L30.02,209.81z"/>
			</g>
		</g>
		<g>
			<g>
				<path d="M79.27,230.97c-0.34,1.04-0.66,2.09-1.12,3.09c-0.42,0.91-1.06,1.71-1.46,2.62c-0.19,0.43,0.29,0.85,0.67,0.51
					c1.56-1.4,2.42-4.11,2.57-6.14C79.95,230.67,79.38,230.63,79.27,230.97L79.27,230.97z"/>
			</g>
		</g>
		<g>
			<g>
				<path d="M81.49,234.54c-0.32,1.15-0.84,2.1-1.37,3.15c-0.22,0.45,0.39,1.02,0.74,0.57c0.8-1.02,1.16-2.36,1.26-3.64
					C82.14,234.26,81.58,234.19,81.49,234.54L81.49,234.54z"/>
			</g>
		</g>
		<g>
			<g>
				<path d="M5.75,207.73c3.16,1.9,6.46,3.5,9.6,5.48c2.74,1.72,5.62,3.34,8.88,3.77c0.48,0.06,0.58-0.74,0.11-0.84
					c-3.78-0.83-6.88-2.65-10.1-4.71c-2.48-1.59-5.38-3.76-8.41-3.98C5.67,207.44,5.63,207.65,5.75,207.73L5.75,207.73z"/>
			</g>
		</g>
		<g>
			<g>
				<path d="M29.64,217.62c7.98,4.14,15.51,9.25,23.69,12.99c3.74,1.71,7.67,2.9,11.71,3.73c3.82,0.78,8.34,1.84,12.23,1.42
					c0.4-0.04,0.54-0.63,0.1-0.74c-4.16-1.05-8.68-0.96-12.91-1.88c-4.25-0.93-8.32-2.3-12.23-4.22
					c-7.56-3.7-14.43-8.92-22.31-11.95C29.54,216.83,29.29,217.44,29.64,217.62L29.64,217.62z"/>
			</g>
		</g>
		<g>
			<g>
				<path d="M65.83,274.49c1.27-1.47,2.56-2.92,4.03-4.19c0.83-0.72,5.08-4.49,6.38-3.23c0.12,0.12,0.36,0,0.3-0.17
					c-0.65-2-3.49,0.07-4.44,0.69c-2.64,1.74-4.96,3.95-6.58,6.67C65.4,274.44,65.68,274.66,65.83,274.49L65.83,274.49z"/>
			</g>
		</g>
		<g>
			<g>
				<path d="M56.32,273.32c-3.9-3.86-9.09-6.55-14.63-6.77c-0.16-0.01-0.19,0.24-0.04,0.28c5.36,1.22,10.1,3.23,14.23,6.93
					C56.18,274.02,56.6,273.6,56.32,273.32L56.32,273.32z"/>
			</g>
		</g>
		<g>
			<g>
				<path d="M65.44,277.05c4.77,1.68,8.51,4.65,9.61,9.82c0.24-0.18,0.48-0.37,0.72-0.55c-1.23-0.79-2.3-1.77-3.2-2.92
					c-0.64-0.82-1.1-1.91-1.85-2.64c-0.82-0.79-2.11-1.06-3.08-0.43c-0.06,0.04-0.02,0.14,0.05,0.11c2.16-0.8,3.39,2.55,4.41,3.8
					c0.92,1.14,2.01,2.05,3.18,2.92c0.37,0.28,0.79-0.18,0.72-0.55c-0.99-4.91-5.22-9.8-10.48-10.1
					C65.18,276.48,65.16,276.95,65.44,277.05L65.44,277.05z"/>
			</g>
		</g>
		<g>
			<g>
				<path d="M5.18,240.22c4.88-3.02,9.34-6.72,12.01-11.9c0.33-0.64-0.64-1.21-0.97-0.57c-2.59,5.01-6.88,8.57-11.61,11.5
					C4,239.63,4.56,240.6,5.18,240.22L5.18,240.22z"/>
			</g>
		</g>
		<g>
			<g>
				<path d="M63.53,234.54c0.34,5.05,1.08,9.98,0.98,15.06c-0.11,5.33-0.79,10.62-1.95,15.82c-0.11,0.49,0.65,0.71,0.76,0.21
					c1.15-5.12,1.85-10.31,1.98-15.56c0.13-5.11,0.03-10.63-1.35-15.59C63.89,234.26,63.52,234.29,63.53,234.54L63.53,234.54z"/>
			</g>
		</g>
		<g>
			<g>
				<path d="M62.62,267.62c-0.48,0.8-0.56,1.85-0.73,2.75c-0.15,0.8-0.47,1.71-0.21,2.51c0.05,0.15,0.24,0.17,0.33,0.04
					c0.49-0.71,0.47-1.72,0.62-2.55c0.16-0.86,0.48-1.76,0.42-2.64C63.03,267.52,62.74,267.42,62.62,267.62L62.62,267.62z"/>
			</g>
		</g>
		<g>
			<g>
				<path d="M70.64,235.09c-0.14,3.99,0.02,8,0.06,11.99c0.04,3.73,0.38,7.59,0.01,11.3c-0.62,6.12-6.57,9.23-8.8,14.6
					c-0.15,0.36,0.47,0.62,0.63,0.27c2.34-5.18,8.09-8.08,9.02-13.99c0.57-3.63,0.12-7.53,0.06-11.19
					c-0.07-4.32-0.02-8.67-0.28-12.99C71.32,234.64,70.66,234.63,70.64,235.09L70.64,235.09z"/>
			</g>
		</g>
		<g>
			<g>
				<path style="fill:#C1ADA4;" d="M115.91,119.95c-0.08,7.46,7.77,12.17,14.48,12.83c0.53,0.05,0.56-0.72,0.12-0.88
					c-3.15-1.16-6.34-1.76-9.13-3.78c-2.66-1.94-4.63-4.85-5-8.16C116.35,119.66,115.91,119.64,115.91,119.95L115.91,119.95z"/>
			</g>
		</g>
		<g>
			<g>
				<path style="fill:#C1ADA4;" d="M134.59,132.73c1.05,0.23,2.12,0.22,3.19,0.23c1.09,0.02,2.13,0.06,3.17-0.31
					c0.24-0.09,0.24-0.41,0-0.5c-1.04-0.36-2.08-0.32-3.17-0.31c-1.07,0.02-2.14,0-3.19,0.23
					C134.27,132.16,134.27,132.66,134.59,132.73L134.59,132.73z"/>
			</g>
		</g>
		<g>
			<g>
				<path style="fill:#C1ADA4;" d="M63.07,159.76c-0.18-1.86-0.75-3.46-2-4.88c-0.96-1.09-2.96-2.7-4.5-2.31
					c-0.27,0.07-0.4,0.46-0.17,0.65c0.53,0.45,1.15,0.53,1.77,0.82c0.76,0.36,1.44,0.85,2.05,1.42c1.22,1.14,2.17,2.69,2.45,4.34
					C62.7,160.05,63.09,159.99,63.07,159.76L63.07,159.76z"/>
			</g>
		</g>
		<g>
			<g>
				<path style="fill:#CC6144;" d="M154.98,85.64c0.82-2.68-1.91-8.09-5.19-6.94c-0.96,0.34-0.35,0.8,0.4,0.6
					c0.8-0.22,2.35,2.44,2.59,2.9c0.61,1.16,0.71,2.49,1.3,3.63C154.2,86.06,154.91,85.85,154.98,85.64L154.98,85.64z"/>
			</g>
		</g>
		<g>
			<g>
				<path style="fill:#CC6144;" d="M153.03,81.76c-0.03-0.89-0.83-1.35-1.66-1.27c-0.44,0.05-0.92,0.19-1.27,0.47
					c-0.21,0.16-0.5,0.52-0.27,0.76c0.13,0.13,0.47-0.01,0.58-0.09c0.33-0.23,0.5-0.61,0.88-0.44c0.36,0.15,0.61,0.49,0.73,0.85
					C152.11,82.32,153.04,82.06,153.03,81.76L153.03,81.76z"/>
			</g>
		</g>
		<g>
			<g>
				<path style="fill:#CC6144;" d="M179.43,81.79c0.14,1.01,0.83,1.66,1.87,1.63c0.04,0,0.34-0.08,0.25-0.16
					c-0.25-0.22-0.57-0.36-0.83-0.59c-0.3-0.27-0.63-0.64-0.78-1.02C179.88,81.51,179.4,81.64,179.43,81.79L179.43,81.79z"/>
			</g>
		</g>
		<g>
			<g>
				<path style="fill:#C1ADA4;" d="M109.56,149.74c0.37,10.53,1.66,21.02,3,31.46c0.69,5.36,0.99,11.5,2.47,16.54
					c0.16,0.54,0.89,0.3,0.81-0.22c0-0.01,0-0.01,0-0.02c-0.07-0.54-0.89-0.31-0.81,0.22c0,0.01,0,0.01,0,0.02
					c0.27-0.07,0.54-0.15,0.81-0.22c0.07,0.24,0.02-0.89,0-1.15c-0.09-1.07-0.3-2.15-0.45-3.22c-0.58-4.09-1.14-8.18-1.67-12.27
					c-1.34-10.36-2.53-20.74-3.5-31.14C110.19,149.32,109.54,149.3,109.56,149.74L109.56,149.74z"/>
			</g>
		</g>
		<g>
			<g>
				<path style="fill:#C1ADA4;" d="M127.68,195.72c-4.11,0.9-7.92,2.77-11.74,4.57c-3.94,1.85-8.01,3.61-11.6,6.09
					c-0.26,0.18-0.11,0.63,0.22,0.53c8.14-2.45,15.56-7.33,23.31-10.71C128.16,196.07,127.95,195.66,127.68,195.72L127.68,195.72z"
					/>
			</g>
		</g>
		<g>
			<g>
				<path style="fill:#C1ADA4;" d="M198.48,239.94c-1.09,3.9-1.33,7.73-2.96,11.54c-1.72,4.01-4.26,7.12-6.95,10.5
					c-0.33,0.41,0.17,0.92,0.58,0.58c3.29-2.7,5.72-6.79,7.38-10.66c1.51-3.51,3.06-8.08,2.44-11.96
					C198.92,239.68,198.54,239.72,198.48,239.94L198.48,239.94z"/>
			</g>
		</g>
		<g>
			<g>
				<path style="fill:#C1ADA4;" d="M24.05,204.39c-0.93-3.15-1.66-6.43-1.72-9.73c-0.07-3.39,0.81-6.49,1.33-9.79
					c0.06-0.41-0.5-0.74-0.73-0.31c-3.1,5.83-2.27,14.33,0.49,20.09C23.59,205,24.15,204.75,24.05,204.39L24.05,204.39z"/>
			</g>
		</g>
		<g>
			<g>
				<path style="fill:#C1ADA4;" d="M33.02,208.75c-0.77-2-1.64-3.98-2.21-6.05c-0.21-0.78-1.12-3.25-0.65-3.83
					c1.84-0.85,2.84-0.44,3,1.23c0.12,0.71,0.17,1.43,0.15,2.15c0,0.33,0.52,0.42,0.59,0.08c0.41-1.79-1.17-7.81-4-5.59
					c-1.23,0.97-0.59,3.41-0.33,4.65c0.57,2.64,1.83,5.11,2.89,7.58C32.6,209.29,33.14,209.07,33.02,208.75L33.02,208.75z"/>
			</g>
		</g>
		<g>
			<g>
				<path style="fill:#C1ADA4;" d="M52.11,220.59c-2.13-3.43-3.09-6.88-4.18-10.71c-0.07-0.23-0.4-0.18-0.41,0.06
					c-0.16,3.94,1.76,7.97,4.19,10.96C51.9,221.12,52.26,220.83,52.11,220.59L52.11,220.59z"/>
			</g>
		</g>
		<g>
			<g>
				<path style="fill:#C1ADA4;" d="M69.21,227.26c2.98-0.27,6.93-2.49,7.41-5.76c0.04-0.28-0.3-0.58-0.54-0.31
					c-0.93,1.08-1.58,2.31-2.69,3.25c-1.22,1.03-2.74,1.76-4.27,2.19C68.78,226.71,68.83,227.29,69.21,227.26L69.21,227.26z"/>
			</g>
		</g>
		<g>
			<g>
				<path style="fill:#C1ADA4;" d="M69.29,223.92c1.94-0.67,4.34-2.39,4.68-4.58c0.04-0.26-0.29-0.55-0.51-0.29
					c-0.65,0.77-1.12,1.66-1.85,2.37c-0.76,0.75-1.67,1.33-2.64,1.76C68.56,223.37,68.85,224.07,69.29,223.92L69.29,223.92z"/>
			</g>
		</g>
		<g>
			<g>
				<path style="fill:#CC6144;" d="M178.76,107.16c0.9-0.37,1.52,0.22,2.35,0.45c0.09,0.02,0.34,0,0.37-0.12
					c0.18-0.67-0.73-0.9-1.25-0.95c-0.65-0.06-1.36,0.06-1.89,0.48C178.05,107.26,178.65,107.21,178.76,107.16L178.76,107.16z"/>
			</g>
		</g>
	</g>
	<g>
		<g>
			<path style="fill:#EED9CE;" d="M468.37,62.33h-106.5c-9.05,0-16.78,6.53-18.3,15.45l-9.2,54.11
				c-1.93,11.33,6.81,21.67,18.3,21.67h0.54l-4.15,22.18l20.48-22.18h89.62c9.05,0,16.78-6.53,18.3-15.45l9.2-54.11
				C488.6,72.67,479.86,62.33,468.37,62.33z"/>
			<g style="opacity:0.16;">
				<g>
					<path d="M407.26,82.73c11.35,0.61,22.73,0.76,34.09,1.01c5.6,0.12,11.2,0.25,16.8,0.37c5.69,0.13,11.62,0.73,17.29,0.21
						c0.59-0.05,0.84-1.03,0.15-1.12c-5.38-0.74-11.02-0.44-16.46-0.57c-5.76-0.13-11.53-0.26-17.29-0.39
						c-11.52-0.26-23.06-0.64-34.58-0.53C406.59,81.7,406.59,82.7,407.26,82.73L407.26,82.73z"/>
				</g>
			</g>
			<g style="opacity:0.16;">
				<g>
					<path d="M404.19,96.54c11.09,0.64,22.19,0.95,33.29,0.9c5.47-0.02,10.95-0.13,16.42-0.33c5.33-0.19,10.82-0.14,16.1-0.96
						c0.75-0.12,0.54-1.27-0.17-1.28c-5.45-0.14-10.97,0.49-16.42,0.68c-5.47,0.19-10.94,0.29-16.42,0.31
						c-10.94,0.03-21.87-0.28-32.79-0.92C403.15,94.87,403.16,96.48,404.19,96.54L404.19,96.54z"/>
				</g>
			</g>
			<g style="opacity:0.16;">
				<g>
					<path d="M404.27,107.55c10.02,0.91,20.09,1.9,30.15,2.28c10.04,0.38,20.16-0.22,30.19-0.57c1.32-0.05,1.33-2.12,0-2.06
						c-10.04,0.39-20.13,1.14-30.19,0.81c-10.06-0.33-20.09-1.41-30.15-1.78C403.41,106.2,403.43,107.48,404.27,107.55
						L404.27,107.55z"/>
				</g>
			</g>
			<g style="opacity:0.16;">
				<g>
					<path d="M353.23,117.77c28.56,2.37,57.37,2.52,86.01,2.77c6.82,0.06,13.69,0.2,20.5-0.1c1.12-0.05,1.13-1.72,0-1.74
						c-13.23-0.31-26.48-0.03-39.71-0.16c-15.45-0.15-30.9-0.42-46.34-0.93c-6.82-0.23-13.65-0.4-20.47-0.8
						C352.61,116.78,352.62,117.72,353.23,117.77L353.23,117.77z"/>
				</g>
			</g>
			<g style="opacity:0.16;">
				<g>
					<path d="M352.02,127.49c28.24,2.35,56.7,2.77,85.02,3.13c6.74,0.09,13.53,0.25,20.27-0.05c1.12-0.05,1.13-1.72,0-1.74
						c-13.22-0.31-26.47-0.1-39.7-0.3c-15.12-0.23-30.25-0.58-45.36-1.15c-6.75-0.25-13.5-0.45-20.24-0.85
						C351.4,126.49,351.41,127.44,352.02,127.49L352.02,127.49z"/>
				</g>
			</g>
			<g style="opacity:0.16;">
				<g>
					<path d="M357.38,77.24c-1.33,4.86-1.45,9.88-1.47,14.89c-0.01,2.54-0.01,5.09-0.2,7.63c-0.2,2.66-1.15,5.22-1.29,7.85
						c-0.05,0.93,1.26,1.21,1.71,0.46c1.06-1.78,1.2-4.06,1.44-6.1c0.32-2.67,0.36-5.35,0.36-8.04c0.01-5.44-0.12-10.86,1.43-16.14
						C359.74,76.51,357.73,75.96,357.38,77.24L357.38,77.24z"/>
				</g>
			</g>
			<g style="opacity:0.16;">
				<g>
					<path d="M359.38,77.93c12.85,0.25,25.63,0.67,38.41,2.1c-0.39-0.51-0.78-1.03-1.17-1.54c-1.37,9.81-2.25,19.59-2.23,29.5
						c0,1.94,3.03,1.95,3.02,0c-0.07-9.74,0.35-19.52,1.6-29.18c0.09-0.7-0.63-1.16-1.22-1.22c-12.72-1.29-25.63-1.97-38.41-1.2
						C358.4,76.45,358.38,77.91,359.38,77.93L359.38,77.93z"/>
				</g>
			</g>
			<g style="opacity:0.16;">
				<g>
					<path d="M356.65,109.45c6.33-0.72,12.69-0.98,19.05-0.7c3.02,0.13,6.04,0.38,9.05,0.73c1.75,0.21,3.5,0.47,5.24,0.73
						c1.49,0.22,2.61,0.61,4.03,0.06c0.73-0.28,1.2-1.28,0.5-1.89c-2.05-1.81-5.72-1.67-8.35-1.94c-3.32-0.34-6.66-0.54-9.99-0.61
						c-6.65-0.13-13.27,0.33-19.85,1.25C354.99,107.27,355.29,109.61,356.65,109.45L356.65,109.45z"/>
				</g>
			</g>
			<g style="opacity:0.16;">
				<g>
					<path d="M362.58,83.33c-0.48,5.16-0.86,10.34-1.08,15.52c-0.05,1.27,2,1.28,1.98,0c-0.1-5.19,0.02-10.34,0.41-15.52
						C363.95,82.48,362.66,82.5,362.58,83.33L362.58,83.33z"/>
				</g>
			</g>
			<g style="opacity:0.16;">
				<g>
					<path d="M362.71,99.84c10.11,0.64,20.35,1.16,30.48,1.18c1.3,0,1.28-1.93,0-2c-10.11-0.59-20.35-0.68-30.48-0.66
						C361.75,98.36,361.76,99.78,362.71,99.84L362.71,99.84z"/>
				</g>
			</g>
			<g style="opacity:0.16;">
				<g>
					<path d="M367.25,95.52c0.4-1.21,0.81-2.43,1.21-3.64c0.34-1.02,0.64-3.05,1.38-3.83c2.06-2.17,4.98,4.48,5.61,5.41
						c1.2,1.78,3.34,3.13,4.92,0.9c1.06-1.49,1.11-3.51,1.9-5.12c0.05-0.85,0.51-1.36,1.38-1.53c0.37,0.47,0.74,0.93,1.1,1.4
						c0.6,0.76,1.18,1.69,1.97,2.29c0.78,0.59,1.68,0.81,2.61,0.42c1.56-0.66,1.59-2.85,3.04-3.51c3.16-1.43-2.67-4.79-2.32-1.33
						c0.12,1.17-1.03,3.23-2.34,2.55c-0.81-0.42-1.56-1.78-2.18-2.45c-0.77-0.84-1.76-2.12-3.09-1.6c-0.96,0.38-1.16,1.54-1.48,2.39
						c-0.46,1.24-0.97,2.47-1.46,3.69c-0.07,1.1-0.64,1.65-1.72,1.66c-0.4-0.49-0.77-1-1.1-1.54c-1.33-1.94-3.1-6.28-6.17-5.77
						c-1.26,0.21-1.84,1.13-2.34,2.21c-1.02,2.2-1.6,4.72-2.36,7.02C365.52,96.03,366.95,96.42,367.25,95.52L367.25,95.52z"/>
				</g>
			</g>
		</g>
		<g>
			<path style="fill:#D6CED7;" d="M302.7,4.34h-70.15c-5.96,0-11.06,4.3-12.05,10.18l-6.06,35.64c-1.27,7.46,4.48,14.28,12.05,14.28
				h0.36l-7.02,10.22l17.78-10.22h59.03c5.96,0,11.06-4.3,12.05-10.18l6.06-35.64C316.03,11.15,310.28,4.34,302.7,4.34z"/>
			<g style="opacity:0.16;">
				<g>
					<path d="M230.76,16.79c12.75,0.66,25.53,0.91,38.3,1.25c6.3,0.17,12.6,0.34,18.9,0.51c6.41,0.17,13,0.79,19.4,0.37
						c0.64-0.04,0.62-0.91,0-0.98c-6.21-0.75-12.65-0.5-18.9-0.67c-6.47-0.18-12.93-0.36-19.4-0.54c-12.76-0.35-25.53-0.8-38.3-0.84
						C230.18,15.9,230.19,16.76,230.76,16.79L230.76,16.79z"/>
				</g>
			</g>
			<g style="opacity:0.16;">
				<g>
					<path d="M227.52,25.9c12.28,0.59,24.56,0.97,36.85,1.12c5.98,0.07,11.96,0.09,17.94,0.06c6.28-0.04,12.67,0.15,18.93-0.4
						c0.71-0.06,0.73-1.1,0-1.13c-6.12-0.25-12.3,0.12-18.43,0.16c-6.14,0.04-12.29,0.02-18.43-0.06
						c-12.29-0.15-24.57-0.53-36.85-1.13C226.63,24.48,226.64,25.86,227.52,25.9L227.52,25.9z"/>
				</g>
			</g>
			<g style="opacity:0.16;">
				<g>
					<path d="M225.58,34.12c23.84,1.85,47.87,2.04,71.76,1.2c0.87-0.03,0.88-1.39,0-1.36c-23.95,0.88-47.83,0.43-71.76-0.71
						C225.01,33.23,225.02,34.08,225.58,34.12L225.58,34.12z"/>
				</g>
			</g>
			<g style="opacity:0.16;">
				<g>
					<path d="M223.66,42.99c16.39,1.44,33.08,2.36,49.53,1.77c0.74-0.03,0.74-1.14,0-1.15c-16.53-0.27-33.01-0.37-49.53-1.26
						C223.25,42.33,223.26,42.95,223.66,42.99L223.66,42.99z"/>
				</g>
			</g>
		</g>
		<g>
			<g style="opacity:0.29;">
				<g>
					<path d="M22.56,48.33c0.37,0,0.37-0.58,0-0.58C22.19,47.76,22.19,48.33,22.56,48.33L22.56,48.33z"/>
				</g>
			</g>
			<g style="opacity:0.29;">
				<g>
					<path d="M-45.24,46.26c0.37,0,0.37-0.58,0-0.58C-45.61,45.68-45.61,46.26-45.24,46.26L-45.24,46.26z"/>
				</g>
			</g>
		</g>
	</g>
</g>
</svg>
